<svg xmlns="http://www.w3.org/2000/svg" width="205" height="41" viewBox="0 0 205 41">
      <g fill="#666" fill-rule="evenodd">
        <path d="M39.6699 30.0371C39.2809 30.0371 38.9549 30.3621 38.9549 30.7521 38.9549 31.1421 39.2809 31.4671 39.6699 31.4671 40.0609 31.4671 40.3849 31.1421 40.3849 30.7521 40.3849 30.3491 40.0739 30.0371 39.6699 30.0371zM39.6699 31.9741C38.9939 31.9741 38.4489 31.4281 38.4489 30.7521 38.4489 30.0761 38.9939 29.5301 39.6699 29.5301 40.3459 29.5301 40.8929 30.0761 40.8929 30.7521 40.8929 31.4281 40.3459 31.9741 39.6699 31.9741zM37.0959 31.4931C37.1739 31.4671 37.2399 31.4411 37.2519 31.4151 37.2909 31.3891 37.3179 31.3761 37.3299 31.3761 37.3949 31.3891 37.4469 31.4021 37.4469 31.4151 37.5249 31.4671 37.9549 32.1431 38.2539 32.6501 38.8129 33.5731 39.1499 34.2621 39.7479 35.6921 40.1389 36.6541 40.3199 37.1221 40.3589 37.3171 40.4379 37.6551 40.4899 37.8761 40.5409 37.9411 40.5549 37.9671 40.5679 37.9941 40.5679 38.0061 40.5679 38.0451 40.5549 38.0711 40.5549 38.0981 40.5549 38.1621 40.4629 38.2271 40.2419 38.3451 40.1639 38.3831 40.0219 38.4351 39.7869 38.5141 39.6699 38.5141 39.6699 38.5141 39.4379 37.7331 38.7869 35.6011 37.7599 33.4041 36.7459 31.9871 36.7189 31.9481 36.7189 31.9481 36.6799 31.8441 36.6799 31.7791 36.9139 31.5841 37.0959 31.4931zM33.8989 31.6881C34.0159 31.7271 34.0659 31.7791 34.0659 31.8571 34.0659 31.9091 34.0549 31.9351 34.0019 32.0261 33.8989 32.2211 33.8729 32.3251 33.7559 32.9491 33.4299 34.6521 32.7029 36.4071 31.7929 37.6941 31.3769 38.2791 31.0509 38.6301 30.9219 38.6301 30.8829 38.6301 30.8299 38.6181 30.7769 38.5791 30.5309 38.4351 30.3109 38.3571 30.0119 38.2791 30.6879 37.6031 30.9859 37.2391 31.3629 36.6541 32.2599 35.2111 32.8709 33.1961 32.8709 31.6881L32.8709 31.4931C33.3259 31.5451 33.6499 31.6101 33.8989 31.6881zM47.0527 34.1714C49.6657 34.1714 51.9527 34.1324 52.6817 34.0674L52.7597 34.0674C52.8767 34.0674 52.9297 34.1584 52.9297 34.3924 52.9297 35.0034 52.9027 35.0944 52.7457 35.0944L52.6817 35.0944C52.4217 35.0684 51.2517 35.0554 50.3557 35.0554 50.1597 35.0554 46.9097 35.0684 45.8047 35.0814 44.4917 35.0814 44.0487 35.1074 43.3087 35.1984 43.2697 35.2114 43.2307 35.2114 43.2047 35.2114 43.1267 35.2114 43.0737 35.1724 43.0487 35.0944 42.9847 34.8734 42.9567 34.6004 42.9177 34.0414 43.7387 34.1454 44.6987 34.1714 47.0527 34.1714M58.6289 30.5962C58.8219 30.4662 59.0059 30.3752 59.0839 30.3752 59.1989 30.3752 59.3829 30.6092 59.8379 31.4542 60.1619 32.0262 60.5389 32.9102 60.5389 33.0922 60.5389 33.1832 60.4999 33.2222 60.3319 33.3262 60.1369 33.4432 59.8629 33.5602 59.7849 33.5602 59.6819 33.5602 59.6819 33.5602 59.4609 32.9102 59.2769 32.3642 58.8359 31.4932 58.4839 30.9602 58.4339 30.8952 58.4199 30.8562 58.4199 30.8172 58.4199 30.7652 58.4729 30.7002 58.6289 30.5962M64.9199 31.4152C64.9199 31.4672 64.8949 31.5062 64.8159 31.5842 64.6469 31.7662 64.6469 31.7662 64.0369 33.1572 63.3479 34.7562 62.2809 36.3552 61.1109 37.5382 60.2269 38.4482 58.5899 39.6962 58.2909 39.6962 58.2249 39.6962 58.1739 39.6702 58.1079 39.6182 57.8869 39.4102 57.7579 39.3322 57.4199 39.1632 59.7849 37.8632 61.5799 35.9912 62.8149 33.5082 63.3589 32.4292 63.6329 31.5842 63.7249 30.7652 64.4649 30.9862 64.9339 31.2462 64.9199 31.4152M56.7309 32.2732C57.0939 32.8972 57.4979 33.7292 57.4979 33.8722 57.4979 33.9632 57.4199 34.0412 57.1719 34.1712 56.9649 34.2882 56.8199 34.3402 56.7559 34.3402 56.6919 34.3402 56.6519 34.3012 56.6129 34.1972 56.2499 33.2092 55.8589 32.5072 55.2619 31.6882 55.2229 31.6232 55.1949 31.5842 55.1949 31.5582 55.1949 31.4932 55.2619 31.4282 55.5079 31.2722 55.6899 31.1552 55.7949 31.1032 55.8589 31.1032 55.9629 31.1032 56.3399 31.6102 56.7309 32.2732M70.1895 29.582C70.3205 29.608 70.3845 29.66 70.3845 29.738 70.3845 29.777 70.3715 29.816 70.3595 29.894 70.3065 30.063 70.2815 30.427 70.2815 30.791 70.2815 31.285 70.3715 32.247 70.4625 32.728 70.5805 33.339 70.7365 33.561 71.0605 33.561 71.3455 33.561 71.7225 33.417 72.8165 32.871 73.0875 32.728 73.2055 32.663 73.4535 32.481 73.4925 32.468 73.5035 32.455 73.5435 32.455 73.6875 32.455 74.1405 33.157 74.1405 33.378 74.1405 33.456 74.0765 33.508 73.9195 33.547 73.4535 33.651 72.6605 33.937 71.9185 34.236 69.6305 35.172 68.4605 36.251 68.4605 37.395 68.4605 38.357 69.2655 38.773 71.1255 38.773 72.0995 38.773 73.0875 38.695 74.1545 38.526 74.2075 38.514 74.2465 38.514 74.2575 38.514 74.3355 38.514 74.3885 38.553 74.4145 38.618 74.4535 38.695 74.4925 39.072 74.4925 39.293 74.4925 39.436 74.4535 39.488 74.2965 39.515 73.7915 39.58 72.3345 39.658 71.4515 39.658 70.4495 39.658 69.6305 39.566 69.0975 39.385 68.0845 39.06 67.5765 38.422 67.5765 37.435 67.5765 36.732 67.8495 36.082 68.4215 35.458 68.9025 34.925 69.3325 34.613 70.3205 34.067 69.7345 33.833 69.5645 33.235 69.3575 30.7 69.3045 30.102 69.2795 29.881 69.1875 29.504 69.6305 29.504 69.9045 29.53 70.1895 29.582M79.4238 39.0073C78.9828 39.2673 78.8908 39.3193 78.8008 39.3193 78.7368 39.3193 78.7228 39.3063 78.5408 39.1243 78.3848 38.9813 78.2418 38.8643 77.9938 38.7343 79.7358 37.8243 80.9848 36.9143 82.3498 35.5233 83.6508 34.2233 84.4828 33.0923 85.4318 31.3763 84.7808 31.3893 84.7808 31.3893 82.5448 31.3893 82.0508 31.3893 80.4008 31.4283 80.0608 31.4413 79.9178 31.4543 79.8928 31.4543 79.7758 31.4673 79.6838 31.4803 79.6838 31.4803 79.6188 31.4803L79.5798 31.4803C79.4508 31.4803 79.3988 31.2203 79.3848 30.4403 80.2308 30.5313 80.4898 30.5443 83.3238 30.5443 84.9378 30.5443 85.5218 30.5183 85.7698 30.4403 85.8728 30.4143 85.9238 30.4013 86.0018 30.4013 86.1858 30.4013 86.3008 30.4923 86.5348 30.7783 86.6918 30.9733 86.7828 31.1553 86.7828 31.2593 86.7828 31.3373 86.7438 31.3893 86.6528 31.4543 86.4568 31.6103 86.2888 31.8053 86.0548 32.2083 85.3538 33.4043 84.8598 34.0933 84.0138 35.0813 85.5348 36.0953 86.1078 36.5373 87.1858 37.5773 87.8108 38.1623 88.1348 38.5263 88.1348 38.6433 88.1348 38.7733 87.6018 39.3063 87.4848 39.3063 87.4058 39.3063 87.4058 39.3063 86.6018 38.3963 86.0158 37.7333 85.0018 36.8233 84.1558 36.2123 84.0278 36.1083 83.8048 35.9523 83.4418 35.7053 82.1148 37.1093 80.8278 38.1623 79.4238 39.0073M98.0645 31.1553C97.6605 31.1553 97.3355 31.4803 97.3355 31.8703 97.3355 32.2603 97.6605 32.5853 98.0645 32.5853 98.4555 32.5853 98.7795 32.2603 98.7795 31.8703 98.7795 31.4673 98.4555 31.1553 98.0645 31.1553M99.2875 31.8703C99.2875 32.5463 98.7405 33.0923 98.0645 33.0923 97.3885 33.0923 96.8285 32.5463 96.8285 31.8703 96.8285 31.1943 97.3755 30.6483 98.0645 30.6483 98.7405 30.6483 99.2875 31.1943 99.2875 31.8703M92.6305 32.5593C92.9295 32.1823 93.2285 32.0263 93.6175 32.0263 93.8785 32.0263 94.0725 32.0783 94.2945 32.2213 94.4765 32.3383 94.5155 32.3773 95.3345 33.1703 96.2185 34.0283 97.5845 35.2503 98.3495 35.8743 98.9475 36.3553 99.3375 36.6543 100.2345 37.2653 100.3515 37.3433 100.3905 37.3953 100.3905 37.4603 100.3905 37.5383 100.3655 37.6033 100.1835 37.9153 100.0015 38.2273 99.9355 38.2923 99.8325 38.2923 99.7145 38.2923 99.2875 37.9673 98.2595 37.1353 97.1935 36.2513 96.0625 35.2113 94.8005 33.9763 93.8785 33.0533 93.8785 33.0533 93.6175 33.0533 93.4235 33.0533 93.3845 33.0923 92.7465 33.9113 92.0315 34.8083 91.8755 34.9903 91.3045 35.6533 91.0705 35.9133 90.9145 36.1083 90.8225 36.2513 90.7325 36.3813 90.6665 36.4333 90.5765 36.4333 90.3805 36.4333 90.0035 36.0953 89.6795 35.6403 90.5375 35.0293 91.1215 34.4313 92.6305 32.5593M106.4668 34.1714C109.0798 34.1714 111.3668 34.1324 112.0958 34.0674L112.1738 34.0674C112.2908 34.0674 112.3438 34.1584 112.3438 34.3924 112.3438 35.0034 112.3168 35.0944 112.1598 35.0944L112.0958 35.0944C111.8358 35.0684 110.6658 35.0554 109.7698 35.0554 109.5738 35.0554 106.3238 35.0684 105.2188 35.0814 103.9058 35.0814 103.4628 35.1074 102.7228 35.1984 102.6838 35.2114 102.6448 35.2114 102.6188 35.2114 102.5408 35.2114 102.4878 35.1724 102.4628 35.0944 102.3988 34.8734 102.3708 34.6004 102.3318 34.0414 103.1528 34.1454 104.1128 34.1714 106.4668 34.1714M114.6738 39.0073C114.2328 39.2673 114.1408 39.3193 114.0488 39.3193 113.9848 39.3193 113.9708 39.3063 113.7888 39.1243 113.6328 38.9813 113.4898 38.8643 113.2438 38.7343 114.9858 37.8243 116.2348 36.9143 117.5978 35.5233 118.8988 34.2233 119.7308 33.0923 120.6798 31.3763 120.0288 31.3893 120.0288 31.3893 117.7928 31.3893 117.2988 31.3893 115.6488 31.4283 115.3108 31.4413 115.1678 31.4543 115.1408 31.4543 115.0258 31.4673 114.9338 31.4803 114.9338 31.4803 114.8688 31.4803L114.8298 31.4803C114.6988 31.4803 114.6488 31.2203 114.6348 30.4403 115.4808 30.5313 115.7398 30.5443 118.5738 30.5443 120.1858 30.5443 120.7718 30.5183 121.0178 30.4403 121.1208 30.4143 121.1738 30.4013 121.2518 30.4013 121.4338 30.4013 121.5508 30.4923 121.7848 30.7783 121.9418 30.9733 122.0308 31.1553 122.0308 31.2593 122.0308 31.3373 121.9918 31.3893 121.9028 31.4543 121.7068 31.6103 121.5368 31.8053 121.3048 32.2083 120.6018 33.4043 120.1078 34.0933 119.2618 35.0813 120.7828 36.0953 121.3558 36.5373 122.4358 37.5773 123.0588 38.1623 123.3848 38.5263 123.3848 38.6433 123.3848 38.7733 122.8518 39.3063 122.7348 39.3063 122.6558 39.3063 122.6558 39.3063 121.8498 38.3963 121.2658 37.7333 120.2498 36.8233 119.4058 36.2123 119.2758 36.1083 119.0548 35.9523 118.6918 35.7053 117.3648 37.1093 116.0778 38.1623 114.6738 39.0073M128.8418 31.727C127.4398 32.429 126.5688 33.898 126.5688 35.602 126.5688 36.771 127.0488 37.603 127.7378 37.603 128.2828 37.603 128.8688 36.954 129.4278 35.706 130.0138 34.393 130.4298 32.832 130.6118 31.246 129.9358 31.311 129.3888 31.454 128.8418 31.727M130.2988 35.965C129.5448 37.682 128.6878 38.539 127.7108 38.539 127.1408 38.539 126.6078 38.214 126.2418 37.655 125.9178 37.174 125.7228 36.368 125.7228 35.549 125.7228 33.885 126.4898 32.364 127.8168 31.428 128.7518 30.765 129.8688 30.427 131.1558 30.427 133.9898 30.427 135.8628 32.143 135.8628 34.743 135.8628 36.459 135.0568 37.851 133.4708 38.852 132.9118 39.215 132.0668 39.593 131.8458 39.593 131.7678 39.593 131.7168 39.554 131.6248 39.436 131.4688 39.228 131.3008 39.085 131.0528 38.942 132.0548 38.644 132.5348 38.448 133.0938 38.084 134.3028 37.278 134.9668 36.082 134.9668 34.704 134.9668 33.274 134.2378 32.104 132.9768 31.532 132.5348 31.324 132.1578 31.233 131.5078 31.194 131.2868 33.027 130.8848 34.626 130.2988 35.965M147.5879 28.5942C147.8089 28.6072 148.8239 29.7772 148.8239 29.9982 148.8239 30.0762 148.7849 30.1022 148.5249 30.2842 148.3809 30.3752 148.3299 30.4012 148.2909 30.4012 148.2519 30.4012 148.2129 30.3752 148.1859 30.3102 147.9649 29.8812 147.5099 29.3092 147.1329 29.0102 147.0939 28.9842 147.0819 28.9712 147.0819 28.9452 147.0819 28.8542 147.4709 28.5812 147.5879 28.5942M146.0669 29.5822C146.0939 29.5692 146.1329 29.5432 146.1719 29.5042 146.3539 29.3742 146.4179 29.3482 146.4829 29.3482 146.5999 29.3612 147.0549 29.7902 147.4059 30.2192 147.6149 30.4662 147.7699 30.7132 147.7699 30.7782 147.7699 30.8692 147.3419 31.2202 147.2249 31.2202 147.1859 31.2202 147.1469 31.1942 147.1079 31.1032 146.8479 30.6222 146.4709 30.1672 146.0669 29.8032 146.0159 29.7642 145.9899 29.7252 145.9899 29.6992 145.9899 29.6602 146.0159 29.6212 146.0669 29.5822M143.5199 30.8822C144.0389 30.8822 144.8069 30.8432 145.1449 30.8042 145.4959 30.7652 145.5609 30.7522 145.6249 30.7522 145.7029 30.7522 145.7289 30.7782 145.7419 30.8432 145.7679 30.9212 145.7949 31.2202 145.7949 31.4022 145.7949 31.6362 145.7809 31.6882 145.6899 31.7142 145.4959 31.7662 144.4939 31.8182 143.7539 31.8182 142.6349 31.8182 141.4259 31.7012 140.3989 31.4802 140.0219 31.4022 140.0099 31.3892 140.0099 31.1552 140.0099 30.8822 140.0219 30.7132 140.0739 30.4532 141.2969 30.7522 142.2969 30.8822 143.5199 30.8822M140.1389 37.5252C140.5939 37.9672 141.0629 38.1882 141.8169 38.3182 142.2579 38.3962 142.8829 38.4482 143.4419 38.4482 144.5979 38.4482 145.6779 38.3182 146.8729 38.0452 146.8989 38.0322 146.9119 38.0322 146.9379 38.0322 147.0039 38.0322 147.0429 38.0712 147.0549 38.1492 147.0819 38.2662 147.0939 38.6302 147.0939 38.8642 147.0939 38.9812 147.0549 39.0332 146.9509 39.0592 145.9239 39.2672 144.5719 39.3972 143.4669 39.3972 141.7909 39.3972 140.7889 39.1892 140.0219 38.6692 139.6329 38.4092 139.3339 38.0842 139.1109 37.6942 138.9689 37.4342 138.8519 37.1482 138.8519 37.0572 138.8519 36.9532 139.0999 36.7712 139.5409 36.5372 139.7229 37.0312 139.8539 37.2522 140.1389 37.5252M156.668 38.7736L160.49 38.7736 160.49 35.7836 156.668 35.7836 156.668 38.7736zM156.668 40.2296L155.836 40.2296C155.889 39.8786 155.902 39.5016 155.902 39.0076L155.902 36.1736C155.902 35.6796 155.889 35.3936 155.85 35.0166 156.137 35.0556 156.357 35.0686 156.852 35.0686L160.336 35.0686C160.816 35.0686 161.051 35.0556 161.322 35.0166 161.283 35.3156 161.271 35.6276 161.271 36.1866L161.271 39.0466C161.271 39.5796 161.283 39.9436 161.336 40.2946L160.49 40.2946 160.49 39.4886 156.668 39.4886 156.668 40.2296zM156.553 30.1276C156.045 30.1276 155.576 30.1546 155.277 30.2056L155.277 29.3616C155.615 29.4126 156.059 29.4386 156.564 29.4386L160.439 29.4386C160.934 29.4386 161.311 29.4266 161.557 29.4006 161.545 29.5696 161.531 29.6996 161.506 30.3496 161.439 31.8056 161.244 33.1576 161.051 33.5736 160.828 33.9896 160.596 34.0796 159.658 34.0796 159.334 34.0796 159.191 34.0796 158.645 34.0416 158.645 33.7036 158.594 33.4826 158.449 33.1826 158.996 33.3006 159.437 33.3526 159.814 33.3526 160.18 33.3526 160.322 33.2616 160.4 32.9886 160.568 32.4036 160.674 31.5066 160.725 30.1276L158.385 30.1276C158.256 32.1956 157.5 33.4436 155.76 34.4836 155.615 34.2106 155.473 34.0286 155.213 33.8336 156.162 33.3266 156.721 32.8316 157.072 32.1696 157.396 31.5716 157.553 30.9596 157.592 30.1276L156.553 30.1276zM154.641 35.7446C154.939 36.7066 155.07 37.3306 155.252 38.7216L154.551 38.9166C154.42 37.5256 154.303 36.9016 154.018 35.9396L154.641 35.7446zM150.598 34.3926C150.768 34.4056 150.91 34.4186 151.156 34.4186 151.273 34.4186 151.312 34.4186 151.611 34.4056 152.055 33.8466 152.105 33.7816 152.393 33.3656 151.689 32.4296 151.312 31.9996 150.584 31.2856L151.053 30.7136C151.299 30.9866 151.404 31.0906 151.572 31.2726 152.223 30.2446 152.613 29.4386 152.73 28.9066L153.523 29.2576C153.406 29.4266 153.367 29.4656 152.977 30.2196 152.703 30.7136 152.482 31.0906 152.027 31.7916 152.418 32.2466 152.496 32.3506 152.82 32.7546 153.523 31.7016 153.939 30.9596 154.121 30.4406L154.85 30.8696C154.783 30.9476 154.512 31.3756 154.018 32.1566 153.602 32.8196 153.275 33.2616 152.418 34.3796 153.393 34.3146 153.795 34.2756 154.445 34.1846 154.25 33.7166 154.16 33.5476 153.887 33.0786L154.459 32.8066C154.953 33.7166 155.187 34.2366 155.537 35.1466L154.928 35.4846C154.822 35.1466 154.783 35.0426 154.693 34.7826 154.512 34.8086 154.512 34.8086 154.172 34.8606 153.99 34.8866 153.848 34.8996 153.484 34.9256L153.484 39.0596C153.484 39.6056 153.51 39.9436 153.562 40.3076L152.652 40.3076C152.703 39.9436 152.73 39.5796 152.73 39.0596L152.73 35.0036C152.301 35.0426 152.092 35.0556 151.807 35.0816 151 35.1336 150.949 35.1336 150.715 35.1856L150.598 34.3926zM151.988 35.9656C151.846 37.6036 151.676 38.5006 151.26 39.5926L150.559 39.2806C151.014 38.2666 151.195 37.4216 151.287 35.8096L151.988 35.9656zM171.7246 33.248C171.6716 33.677 171.6466 34.015 171.6466 34.535L171.6466 38.799C171.6466 39.293 171.6716 39.658 171.7366 40.112L170.7366 40.112C170.8006 39.644 170.8266 39.268 170.8266 38.799L170.8266 34.522C170.8266 34.067 170.8006 33.664 170.7366 33.248L171.7246 33.248zM167.8106 33.248C167.7596 33.625 167.7456 33.885 167.7326 34.418 167.6936 37.513 166.8886 39.007 164.5486 40.269 164.3536 39.956 164.1696 39.762 163.8846 39.554 164.9376 39.085 165.5096 38.669 166.0036 38.019 166.6156 37.2 166.9006 36.069 166.9006 34.444 166.9006 34.002 166.8746 33.651 166.8106 33.248L167.8106 33.248zM169.7616 29.127C170.3596 30.154 170.9706 30.869 172.0236 31.753 172.9976 32.572 174.0786 33.261 175.1816 33.755 174.9356 34.028 174.8316 34.21 174.6626 34.561 173.4786 33.937 172.3476 33.157 171.3476 32.26 170.4626 31.467 169.9436 30.856 169.3066 29.842 168.6566 30.843 168.2656 31.324 167.4726 32.104 166.4336 33.118 165.4566 33.833 164.1586 34.535 164.0016 34.236 163.8456 34.015 163.6116 33.781 165.7836 32.767 167.6816 31.064 168.8126 29.127L169.7616 29.127zM5.3984 5.4145C6.9914 5.4145 7.7114 4.8445 7.7114 3.5695 7.7114 2.3105 7.0334 1.7995 5.3984 1.7995L3.8044 1.7995 3.8044 5.4145 5.3984 5.4145zM5.8354.1945C8.3444.1945 9.5434 1.2745 9.5434 3.5695 9.5434 4.5745 9.1764 5.5045 8.5564 6.0895 7.9084 6.7045 7.0054 7.0045 5.8354 7.0045L3.8044 7.0045 3.8044 11.8795 1.9864 11.8795 1.9864.1945 5.8354.1945zM15.5508 6.8096L15.0158 4.7696C14.9308 4.4696 14.7338 3.6296 14.6488 3.2246 14.4378 2.3396 14.4378 2.3396 14.3378 1.9046L14.1968 1.9046C13.8598 3.3896 13.6758 4.1696 13.5488 4.6496L12.9708 6.8096 15.5508 6.8096zM11.6168 11.8796L9.7848 11.8796 13.1968.1946 15.3398.1946 18.7518 11.8796 16.8908 11.8796 15.9598 8.4596 12.5628 8.4596 11.6168 11.8796zM23.7402 5.1899C25.3472 5.1899 26.0812 4.6349 26.0812 3.4199 26.0812 2.9099 25.8982 2.4599 25.5882 2.2049 25.2632 1.9499 24.6152 1.7999 23.7262 1.7999L22.1192 1.7999 22.1192 5.1899 23.7402 5.1899zM24.2482.1949C25.5592.1949 26.4052.4499 26.9982 1.0049 27.5472 1.5299 27.8712 2.3699 27.8712 3.2699 27.8712 4.7549 27.1802 5.7299 25.8272 6.1499 26.5472 6.4799 26.7292 6.7799 27.4492 8.7899L28.5492 11.8789 26.6172 11.8789 25.6852 8.9839C25.1362 7.2749 24.7272 6.7649 23.9102 6.7649L22.1192 6.7649 22.1192 11.8789 20.3572 11.8789 20.3572.1949 24.2482.1949z"></path>
        <polygon points="37.168 .195 37.168 1.845 34.179 1.845 34.179 11.88 32.318 11.88 32.318 1.845 29.314 1.845 29.314 .195"></polygon>
        <path d="M44.1367 3.7046C43.9117 2.9846 43.7417 2.6246 43.4887 2.3096 43.1507 1.9046 42.5857 1.6646 42.0077 1.6646 40.9647 1.6646 40.3597 2.1896 40.3597 3.0896 40.3597 3.5996 40.5567 3.9746 41.0077 4.2596 41.2757 4.4396 41.7687 4.6496 42.9667 5.1296 44.1657 5.6096 44.4337 5.7296 44.8567 6.0296 45.6467 6.5696 45.9977 7.3796 45.9977 8.6246 45.9977 9.7496 45.5747 10.7096 44.8567 11.2796 44.1937 11.7896 43.3337 12.0746 42.4027 12.0746 41.3597 12.0746 40.4567 11.7896 39.7387 11.2496 38.9767 10.6646 38.5817 10.0346 38.1737 8.7296L39.9217 8.1296C40.1187 8.8346 40.3027 9.2246 40.5977 9.6146 41.0077 10.1096 41.6697 10.4096 42.4027 10.4096 43.4177 10.4096 44.1367 9.7646 44.1367 8.8346 44.1367 8.2946 43.8827 7.8146 43.4887 7.5446 43.2207 7.3646 43.1927 7.3646 41.1757 6.5546 40.2877 6.1796 39.5977 5.7446 39.2027 5.3096 38.7797 4.8296 38.5117 4.0346 38.5117 3.2396 38.5117 1.2596 39.8937-.0004 42.0647-.0004 43.2067-.0004 44.2497.4346 44.8847 1.1846 45.3077 1.6796 45.5607 2.1746 45.8847 3.1496L44.1367 3.7046zM57.5176 2.6997C57.5176 2.0097 57.2066 1.6047 56.6716 1.6047 56.1216 1.6047 55.7556 2.0847 55.7556 2.7747 55.7556 3.0897 55.8266 3.4347 55.9666 3.7197 56.0376 3.8997 56.0376 3.8997 56.3476 4.4697 57.2216 3.8697 57.5176 3.4347 57.5176 2.6997L57.5176 2.6997zM54.9106 7.2147C54.5856 7.6497 54.4156 8.1597 54.4156 8.7447 54.4156 9.8997 55.1636 10.6497 56.3046 10.6497 57.0096 10.6497 57.4756 10.4397 58.0386 9.8397 57.1516 8.7297 56.7286 8.0847 55.7696 6.4347 55.3186 6.7647 55.1216 6.9447 54.9106 7.2147L54.9106 7.2147zM61.0296 6.1647C60.7756 7.8597 60.5636 8.5197 59.9436 9.5547 60.3946 10.1097 60.8026 10.3047 61.5646 10.3197L61.4516 11.8947 61.1406 11.8947C60.2246 11.8947 59.6466 11.6247 58.9846 10.8897 58.5196 11.3397 58.2796 11.5197 57.9266 11.6997 57.4476 11.9397 56.8556 12.0747 56.2206 12.0747 55.1496 12.0747 54.3596 11.7747 53.7246 11.0997 53.1196 10.4697 52.8366 9.7047 52.8366 8.7447 52.8366 7.8147 53.1196 7.0497 53.7106 6.3747 54.0356 5.9847 54.4026 5.6847 55.1076 5.2197 54.4586 4.0947 54.2886 3.5697 54.2886 2.6547 54.2886 1.2447 55.2896.1947 56.6586.1947 58.0386.1947 59.0266 1.1847 59.0266 2.5797 59.0266 3.2247 58.8846 3.7797 58.6036 4.2147 58.2926 4.6797 57.8846 5.0397 56.9686 5.6547 57.7716 7.0197 58.1806 7.6347 58.9136 8.5647 59.2516 7.7997 59.3786 7.1697 59.4776 5.8647L61.0296 6.1647zM73.9023 3.7046C73.6753 2.9846 73.5073 2.6246 73.2543 2.3096 72.9153 1.9046 72.3513 1.6646 71.7733 1.6646 70.7293 1.6646 70.1233 2.1896 70.1233 3.0896 70.1233 3.5996 70.3203 3.9746 70.7713 4.2596 71.0393 4.4396 71.5333 4.6496 72.7313 5.1296 73.9293 5.6096 74.1973 5.7296 74.6213 6.0296 75.4103 6.5696 75.7633 7.3796 75.7633 8.6246 75.7633 9.7496 75.3393 10.7096 74.6213 11.2796 73.9593 11.7896 73.0973 12.0746 72.1683 12.0746 71.1253 12.0746 70.2223 11.7896 69.5033 11.2496 68.7423 10.6646 68.3463 10.0346 67.9373 8.7296L69.6853 8.1296C69.8833 8.8346 70.0663 9.2246 70.3633 9.6146 70.7713 10.1096 71.4343 10.4096 72.1683 10.4096 73.1823 10.4096 73.9023 9.7646 73.9023 8.8346 73.9023 8.2946 73.6483 7.8146 73.2543 7.5446 72.9853 7.3646 72.9573 7.3646 70.9413 6.5546 70.0523 6.1796 69.3613 5.7446 68.9663 5.3096 68.5453 4.8296 68.2763 4.0346 68.2763 3.2396 68.2763 1.2596 69.6583-.0004 71.8293-.0004 72.9703-.0004 74.0143.4346 74.6483 1.1846 75.0723 1.6796 75.3263 2.1746 75.6503 3.1496L73.9023 3.7046zM81.0664 5.4145C82.6594 5.4145 83.3794 4.8445 83.3794 3.5695 83.3794 2.3105 82.7014 1.7995 81.0664 1.7995L79.4724 1.7995 79.4724 5.4145 81.0664 5.4145zM81.5034.1945C84.0124.1945 85.2114 1.2745 85.2114 3.5695 85.2114 4.5745 84.8444 5.5045 84.2244 6.0895 83.5764 6.7045 82.6734 7.0045 81.5034 7.0045L79.4724 7.0045 79.4724 11.8795 77.6544 11.8795 77.6544.1945 81.5034.1945zM91.2188 6.8096L90.6838 4.7696C90.5988 4.4696 90.4018 3.6296 90.3168 3.2246 90.1058 2.3396 90.1058 2.3396 90.0058 1.9046L89.8648 1.9046C89.5278 3.3896 89.3438 4.1696 89.2168 4.6496L88.6388 6.8096 91.2188 6.8096zM87.2848 11.8796L85.4528 11.8796 88.8648.1946 91.0078.1946 94.4198 11.8796 92.5588 11.8796 91.6278 8.4596 88.2308 8.4596 87.2848 11.8796zM103.793 8.2944C103.469 9.6444 103.188 10.2594 102.623 10.9044 101.932 11.6844 100.959 12.0744 99.676 12.0744 96.856 12.0744 95.207 9.8694 95.207 6.0894 95.207 2.2504 96.842.0004 99.62.0004 100.805.0004 101.734.3754 102.439 1.1254 103.018 1.7394 103.328 2.4154 103.609 3.6594L101.805 4.1694C101.664 3.4804 101.58 3.1794 101.397 2.8194 101.029 2.0694 100.466 1.7104 99.635 1.7104 97.942 1.7104 97.096 3.1794 97.096 6.1044 97.096 7.4094 97.293 8.4294 97.703 9.1944 98.125 9.9744 98.76 10.3644 99.635 10.3644 100.451 10.3644 101.086 10.0494 101.425 9.4644 101.678 9.0444 101.819 8.5944 101.946 7.8594L103.793 8.2944z"></path>
        <polygon points="112.325 .195 112.325 1.785 107.25 1.785 107.25 4.965 111.127 4.965 111.127 6.54 107.25 6.54 107.25 10.26 112.564 10.26 112.564 11.88 105.43 11.88 105.43 .195"></polygon>
        <path d="M124.7754,3.7046 C124.5494,2.9846 124.3804,2.6246 124.1274,2.3096 C123.7894,1.9046 123.2244,1.6646 122.6464,1.6646 C121.6034,1.6646 120.9964,2.1896 120.9964,3.0896 C120.9964,3.5996 121.1944,3.9746 121.6454,4.2596 C121.9134,4.4396 122.4064,4.6496 123.6054,5.1296 C124.8034,5.6096 125.0714,5.7296 125.4944,6.0296 C126.2844,6.5696 126.6364,7.3796 126.6364,8.6246 C126.6364,9.7496 126.2124,10.7096 125.4944,11.2796 C124.8324,11.7896 123.9714,12.0746 123.0414,12.0746 C121.9984,12.0746 121.0954,11.7896 120.3774,11.2496 C119.6154,10.6646 119.2204,10.0346 118.8114,8.7296 L120.5594,8.1296 C120.7574,8.8346 120.9404,9.2246 121.2364,9.6146 C121.6454,10.1096 122.3084,10.4096 123.0414,10.4096 C124.0564,10.4096 124.7754,9.7646 124.7754,8.8346 C124.7754,8.2946 124.5214,7.8146 124.1274,7.5446 C123.8594,7.3646 123.8304,7.3646 121.8144,6.5546 C120.9254,6.1796 120.2354,5.7446 119.8404,5.3096 C119.4184,4.8296 119.1504,4.0346 119.1504,3.2396 C119.1504,1.2596 120.5314,-0.0004 122.7034,-0.0004 C123.8444,-0.0004 124.8884,0.4346 125.5224,1.1846 C125.9454,1.6796 126.1994,2.1746 126.5234,3.1496 L124.7754,3.7046 Z"></path>
        <polygon points="130.34 11.879 128.492 11.879 128.492 .194 130.34 .194 130.34 4.889 134.781 4.889 134.781 .194 136.627 .194 136.627 11.879 134.781 11.879 134.781 6.554 130.34 6.554"></polygon>
        <path d="M143.0645 1.7099C142.1905 1.7099 141.5005 2.1299 141.0625 2.9249 140.6385 3.6749 140.4145 4.7999 140.4145 6.0749 140.4145 7.2449 140.6385 8.3099 141.0485 9.0889 141.4705 9.9149 142.1905 10.3649 143.0645 10.3649 144.7425 10.3649 145.7285 8.7599 145.7285 6.0449 145.7285 3.2849 144.7555 1.7099 143.0645 1.7099M146.4485 10.3189C145.6445 11.4749 144.5015 12.0749 143.0785 12.0749 140.3005 12.0749 138.5395 9.7339 138.5395 6.0449 138.5395 4.3049 138.9475 2.7899 139.7095 1.7099 140.5125.5849 141.6405-.0001 143.0645-.0001 144.5315-.0001 145.7145.6449 146.5335 1.8749 147.2095 2.9099 147.6045 4.4099 147.6045 6.0299 147.6045 7.7399 147.2095 9.2399 146.4485 10.3189M151.6055 7.3496C151.6765 7.7546 151.8185 8.8646 151.9445 10.0946L152.1135 10.0946C152.1425 9.8396 152.1565 9.6446 152.1565 9.5096 152.2405 8.4296 152.3105 7.5896 152.3675 7.2296L153.4395.1946 155.7095.1946 156.6955 7.2296C156.7815 7.7996 156.8365 8.4596 156.9635 10.0946L157.1325 10.0946C157.2035 9.6296 157.2035 9.6296 157.3305 8.7446 157.3865 8.3996 157.4705 7.8746 157.5705 7.3496L158.9235.1946 160.7705.1946 158.1905 11.8796 155.9495 11.8796 154.9335 4.7546C154.8495 4.1846 154.7635 3.3296 154.6515 1.9796L154.4825 1.9796C154.3835 3.1946 154.2985 3.8846 154.1715 4.7246L153.0725 11.8796 150.8445 11.8796 148.5035.1946 150.3935.1946 151.6055 7.3496zM165.7734 5.1899C167.3804 5.1899 168.1144 4.6349 168.1144 3.4199 168.1144 2.9099 167.9314 2.4599 167.6214 2.2049 167.2964 1.9499 166.6484 1.7999 165.7594 1.7999L164.1524 1.7999 164.1524 5.1899 165.7734 5.1899zM166.2814.1949C167.5924.1949 168.4384.4499 169.0314 1.0049 169.5804 1.5299 169.9044 2.3699 169.9044 3.2699 169.9044 4.7549 169.2134 5.7299 167.8604 6.1499 168.5804 6.4799 168.7624 6.7799 169.4824 8.7899L170.5824 11.8789 168.6504 11.8789 167.7184 8.9839C167.1694 7.2749 166.7604 6.7649 165.9434 6.7649L164.1524 6.7649 164.1524 11.8789 162.3904 11.8789 162.3904.1949 166.2814.1949zM176.0635 1.7099C175.1895 1.7099 174.4985 2.1299 174.0615 2.9249 173.6385 3.6749 173.4125 4.7999 173.4125 6.0749 173.4125 7.2449 173.6385 8.3099 174.0465 9.0889 174.4705 9.9149 175.1895 10.3649 176.0635 10.3649 177.7415 10.3649 178.7285 8.7599 178.7285 6.0449 178.7285 3.2849 177.7555 1.7099 176.0635 1.7099M179.4475 10.3189C178.6435 11.4749 177.5015 12.0749 176.0785 12.0749 173.3005 12.0749 171.5375 9.7339 171.5375 6.0449 171.5375 4.3049 171.9475 2.7899 172.7085 1.7099 173.5115.5849 174.6395-.0001 176.0635-.0001 177.5295-.0001 178.7145.6449 179.5315 1.8749 180.2095 2.9099 180.6035 4.4099 180.6035 6.0299 180.6035 7.7399 180.2095 9.2399 179.4475 10.3189M186.6426 1.7099C185.7686 1.7099 185.0786 2.1299 184.6406 2.9249 184.2166 3.6749 183.9926 4.7999 183.9926 6.0749 183.9926 7.2449 184.2166 8.3099 184.6266 9.0889 185.0486 9.9149 185.7686 10.3649 186.6426 10.3649 188.3206 10.3649 189.3066 8.7599 189.3066 6.0449 189.3066 3.2849 188.3336 1.7099 186.6426 1.7099M190.0266 10.3189C189.2226 11.4749 188.0796 12.0749 186.6566 12.0749 183.8786 12.0749 182.1176 9.7339 182.1176 6.0449 182.1176 4.3049 182.5256 2.7899 183.2876 1.7099 184.0906.5849 185.2186-.0001 186.6426-.0001 188.1096-.0001 189.2926.6449 190.1116 1.8749 190.7876 2.9099 191.1826 4.4099 191.1826 6.0299 191.1826 7.7399 190.7876 9.2399 190.0266 10.3189M203.083 11.8794L201.391 11.8794 201.391 7.5744C201.391 6.2394 201.42 4.5454 201.461 1.9804L201.264 1.9804C201.039 3.1054 200.559 5.4294 200.418 6.0454L199.093 11.8794 197.076 11.8794 195.695 5.8194C195.441 4.7394 195.258 3.8554 194.905 1.9804L194.693 1.9804C194.765 5.9244 194.779 7.0194 194.779 7.5744L194.779 11.8794 193.101 11.8794 193.101.1944 195.92.1944 197.5 7.3494C197.654 8.0394 197.852 9.1644 197.979 10.0944L198.176 10.0944C198.262 9.6294 198.262 9.6294 198.389 8.7894 198.459 8.3694 198.627 7.5144 198.684 7.2294L200.207.1944 203.083.1944 203.083 11.8794z"></path>
        <polygon points="0 21.953 205 21.953 205 21.553 0 21.553"></polygon>
      </g>
    </svg>