<svg xmlns="http://www.w3.org/2000/svg" xmlns:xlink="http://www.w3.org/1999/xlink" width="141" height="70" viewBox="0 0 141 70">
    <defs>
        <path id="b160o6ytza" d="M22.283.224l.1.008c.129.019.241.076.337.172.12.12.18.266.18.438V5.83l-.007.1c-.019.129-.077.241-.173.337-.12.12-.265.18-.437.18H7.935l-.069.006c-.125.02-.188.105-.188.251l-.052 7.612.004.073c.02.176.122.203.305.081 1.543-.994 3.325-1.491 5.348-1.491 2.4 0 4.5.608 6.3 1.825 1.8 1.218 3.077 2.89 3.832 5.015.514 1.68.771 3.308.771 4.885l-.005-.293-12.17 12.172c-2.374-.028-4.481-.582-6.322-1.661l-.351-.215c-1.972-1.251-3.369-2.957-4.192-5.117-.343-.891-.6-1.834-.771-2.828v-.103l.006-.108c.037-.305.24-.458.61-.458h6.224l.11.007c.28.037.467.224.558.559.035.205.086.377.155.514.068.137.12.257.154.36.343.891.857 1.577 1.543 2.057.685.48 1.491.72 2.417.72.96 0 1.8-.257 2.52-.771.72-.515 1.251-1.235 1.594-2.16.343-.686.514-1.577.514-2.675 0-.994-.154-1.885-.462-2.674-.24-.891-.72-1.577-1.44-2.057s-1.56-.72-2.52-.72-1.852.223-2.675.669c-.823.445-1.371 1.028-1.645 1.748-.103.343-.326.514-.669.514H1.043l-.1-.007c-.128-.019-.24-.077-.337-.173-.12-.12-.18-.265-.18-.437V.842l.007-.1C.453.612.51.5.606.404c.12-.12.266-.18.437-.18h21.24z"/>
        <path id="k6s5r4sdcc" d="M53.165.429l.129.007c.208.026.39.115.543.269.184.184.276.408.276.671v8.688l-.009.157c-.04.363-.221.705-.544 1.028l-10.346 9.477-.055.064c-.064.084-.085.168-.064.252.027.106.145.158.356.158 4.58.895 7.845 3.607 9.793 8.135 1.053 2.422 1.58 5.213 1.58 8.372 0 2.843-.474 5.476-1.422 7.898-1.263 3.37-3.383 6.002-6.358 7.898-2.975 1.895-6.49 2.843-10.543 2.843-4.002 0-7.517-1-10.544-3.001-3.028-2-5.2-4.713-6.516-8.135-.737-2.053-1.158-4.265-1.264-6.634 0-.632.316-.948.948-.948h9.32l.13.005c.545.042.817.356.817.943.211 1.737.5 3.027.87 3.87.473 1.369 1.25 2.435 2.33 3.198 1.079.764 2.355 1.146 3.83 1.146 2.948 0 4.975-1.29 6.081-3.87.737-1.58 1.106-3.423 1.106-5.529 0-2.475-.395-4.502-1.185-6.081-1.21-2.475-3.238-3.712-6.081-3.712-.58 0-1.185.17-1.817.513-.632.342-1.395.83-2.29 1.461-.21.158-.422.237-.632.237-.316 0-.553-.158-.71-.474l-4.66-6.555-.058-.098c-.067-.135-.1-.287-.1-.455 0-.316.105-.58.315-.79L38.95 10.46l.055-.063c.063-.084.085-.169.063-.253-.026-.105-.118-.158-.276-.158h-18.56l-.129-.008c-.146-.018-.279-.067-.398-.148l9.399-9.4h24.062zM11.148 18.383v36.384l-.008.128c-.025.208-.115.39-.268.543-.185.184-.408.276-.672.276H.96l-.129-.007c-.208-.026-.389-.116-.543-.27-.184-.183-.276-.407-.276-.67V29.518l11.136-11.135z"/>
        <linearGradient id="8elw7lf4pb" x1="50%" x2="50%" y1="0%" y2="100%">
            <stop offset="0%" stop-color="#585BA6" stop-opacity=".498"/>
            <stop offset="100%" stop-color="#0B308E"/>
        </linearGradient>
    </defs>
    <g fill="none" fill-rule="evenodd">
        <g>
            <g>
                <g>
                    <g>
                        <g>
                            <path fill="#0B308E" fill-rule="nonzero" d="M95.48 57c.093 0 .167-.027.22-.08.053-.053.08-.127.08-.22V46.34c0-.067.033-.1.1-.1h3.36c.093 0 .167-.027.22-.08.053-.053.08-.127.08-.22V43.3c0-.093-.027-.167-.08-.22-.053-.053-.127-.08-.22-.08H88.66c-.093 0-.167.027-.22.08-.053.053-.08.127-.08.22v2.64c0 .093.027.167.08.22.053.053.127.08.22.08h3.26c.067 0 .1.033.1.1V56.7c0 .093.027.167.08.22.053.053.127.08.22.08h3.16zm10.16 0c.093 0 .167-.027.22-.08.053-.053.08-.127.08-.22v-5.08c0-.067.033-.1.1-.1h3.12c.067 0 .1.033.1.1v5.08c0 .093.027.167.08.22.053.053.127.08.22.08h3.16c.093 0 .167-.027.22-.08.053-.053.08-.127.08-.22V43.3c0-.093-.027-.167-.08-.22-.053-.053-.127-.08-.22-.08h-3.16c-.093 0-.167.027-.22.08-.053.053-.08.127-.08.22v4.9c0 .067-.033.1-.1.1h-3.12c-.067 0-.1-.033-.1-.1v-4.9c0-.093-.027-.167-.08-.22-.053-.053-.127-.08-.22-.08h-3.16c-.093 0-.167.027-.22.08-.053.053-.08.127-.08.22v13.4c0 .093.027.167.08.22.053.053.127.08.22.08h3.16zm15.66.16c1.08 0 2.033-.207 2.86-.62.827-.413 1.467-1 1.92-1.76.453-.76.68-1.64.68-2.64V43.3c0-.093-.027-.167-.08-.22-.053-.053-.127-.08-.22-.08h-3.16c-.093 0-.167.027-.22.08-.053.053-.08.127-.08.22v8.84c0 .533-.157.967-.47 1.3-.313.333-.723.5-1.23.5-.52 0-.937-.163-1.25-.49-.313-.327-.47-.763-.47-1.31V43.3c0-.093-.027-.167-.08-.22-.053-.053-.127-.08-.22-.08h-3.16c-.093 0-.167.027-.22.08-.053.053-.08.127-.08.22v8.84c0 1 .227 1.88.68 2.64.453.76 1.097 1.347 1.93 1.76.833.413 1.79.62 2.87.62zm10.16 0c.533 0 .98-.18 1.34-.54.36-.36.54-.807.54-1.34 0-.56-.177-1.013-.53-1.36-.353-.347-.803-.52-1.35-.52s-.997.173-1.35.52c-.353.347-.53.8-.53 1.36 0 .547.177.997.53 1.35.353.353.803.53 1.35.53zM91.02 18.24l2.24-.76c-.3-.86-.8-2.18-1.18-3.24l-2.16.64c.34 1.04.84 2.46 1.1 3.36zm14.44 11.02c.66-.36.86-.88.86-1.92V14.72H94.88v5.16c0 2.48-.06 5.94-1.02 8.38.54.22 1.52.76 1.94 1.1.78-1.98 1.08-4.74 1.2-7.14h7.12v5.08c0 .26-.08.36-.34.36h-.7v-4.62H97.8v4.62h4.2c.28.56.52 1.4.6 1.96 1.32 0 2.24-.02 2.86-.36zm-5.92-11.48h-2.5v-1.14h2.5v1.14zm4.58 0h-2.62v-1.14h2.62v1.14zM90 32.82c.46-1.14 1.14-2.5 1.6-2.5.38 0 1.1.66 1.94 1.12 1.44.84 3.1 1.06 5.76 1.06 2.34 0 5.84-.14 7.5-.24.04-.64.42-1.8.7-2.44-2.22.32-5.8.52-8.1.52-2.34 0-4.2-.12-5.56-.94-.54-.32-.92-.62-1.26-.82.76-1.52 1.36-3.38 1.78-5.24l-1-.44-.34.1h-.74c.5-1.36 1.02-2.92 1.44-4.28H88.8v2.12h2.12c-.5 1.5-1.02 3.08-1.48 4.2h2.26c-.36 1.34-.84 2.68-1.4 3.7-.58.42-1.26 1.04-1.88 1.8L90 32.82zm14.12-12.2h-2.62v-1.24h2.62v1.24zm-4.58 0h-2.5v-1.24h2.5v1.24zm1.86 5.6h-2v-1.74h2v1.74zm12.08 5.84v-1.32h11.9v1.16h2.52V15.74h-16.82v16.32h2.4zm11.9-3.62h-11.9v-2.72c.5.46 1.12 1.28 1.32 1.82 3.14-1.7 3.56-4.64 3.66-9.5h1.94v5.26c0 2.04.4 3 2.26 3h1.74c.32 0 .68-.02.98-.06v2.2zm-11.9-2.82v-7.58h2.64c-.04 4.02-.26 6.2-2.64 7.58zm10.86-1.3h-1.3c-.353 0-.413-.259-.42-.84v-5.44h2.76v6.18c-.32.08-.76.1-1.04.1z" transform="translate(-330 -1330) translate(-.5 1270) translate(330 60) translate(1) translate(5 8)"/>
                            <g transform="translate(-330 -1330) translate(-.5 1270) translate(330 60) translate(1) translate(5 8) translate(.429 2.51)">
                                <use fill="url(#8elw7lf4pb)" xlink:href="#b160o6ytza"/>
                            </g>
                            <g transform="translate(-330 -1330) translate(-.5 1270) translate(330 60) translate(1) translate(5 8) translate(23)">
                                <use fill="#0B308E" xlink:href="#k6s5r4sdcc"/>
                            </g>
                        </g>
                    </g>
                </g>
            </g>
        </g>
    </g>
</svg>
