<svg xmlns="http://www.w3.org/2000/svg" xmlns:xlink="http://www.w3.org/1999/xlink" width="141" height="70" viewBox="0 0 141 70">
    <defs>
        <path id="tqxvg92h0a" d="M22.283.224l.1.008c.129.019.241.076.337.172.12.12.18.266.18.438V5.83l-.007.1c-.019.129-.077.241-.173.337-.12.12-.265.18-.437.18H7.935l-.069.006c-.125.02-.188.105-.188.251l-.052 7.612.004.073c.02.176.122.203.305.081 1.543-.994 3.325-1.491 5.348-1.491 2.4 0 4.5.608 6.3 1.825 1.8 1.218 3.077 2.89 3.832 5.015.514 1.68.771 3.308.771 4.885l-.005-.293-12.17 12.172c-2.374-.028-4.481-.582-6.322-1.661l-.351-.215c-1.972-1.251-3.369-2.957-4.192-5.117-.343-.891-.6-1.834-.771-2.828v-.103l.006-.108c.037-.305.24-.458.61-.458h6.224l.11.007c.28.037.467.224.558.559.035.205.086.377.155.514.068.137.12.257.154.36.343.891.857 1.577 1.543 2.057.685.48 1.491.72 2.417.72.96 0 1.8-.257 2.52-.771.72-.515 1.251-1.235 1.594-2.16.343-.686.514-1.577.514-2.675 0-.994-.154-1.885-.462-2.674-.24-.891-.72-1.577-1.44-2.057s-1.56-.72-2.52-.72-1.852.223-2.675.669c-.823.445-1.371 1.028-1.645 1.748-.103.343-.326.514-.669.514H1.043l-.1-.007c-.128-.019-.24-.077-.337-.173-.12-.12-.18-.265-.18-.437V.842l.007-.1C.453.612.51.5.606.404c.12-.12.266-.18.437-.18h21.24z"/>
        <path id="1a10xv2xsc" d="M11.148 18.382v36.385l-.008.128c-.025.208-.115.39-.268.543-.185.184-.408.276-.672.276H.96l-.129-.007c-.208-.026-.389-.116-.543-.27-.184-.183-.276-.407-.276-.67V29.518l11.136-11.136zM50.548.143v34.94h6.325v8.6H50.55v12.031h-10.76V43.682H17.653V34.08L38.208.143h12.34zM39.79 10.941L25.791 35.082h13.998v-24.14z"/>
        <linearGradient id="l74deb6nlb" x1="50%" x2="50%" y1="0%" y2="100%">
            <stop offset="0%" stop-color="#585BA6" stop-opacity=".498"/>
            <stop offset="100%" stop-color="#0B308E"/>
        </linearGradient>
    </defs>
    <g fill="none" fill-rule="evenodd">
        <g>
            <g>
                <g>
                    <g>
                        <g>
                            <g>
                                <path fill="#0B308E" fill-rule="nonzero" d="M92.24 57c.093 0 .167-.027.22-.08.053-.053.08-.127.08-.22v-5.1c0-.067.033-.1.1-.1h3.7c.093 0 .167-.027.22-.08.053-.053.08-.127.08-.22v-2.6c0-.093-.027-.167-.08-.22-.053-.053-.127-.08-.22-.08h-3.7c-.067 0-.1-.033-.1-.1v-1.88c0-.067.033-.1.1-.1h5.96c.093 0 .167-.027.22-.08.053-.053.08-.127.08-.22V43.3c0-.093-.027-.167-.08-.22-.053-.053-.127-.08-.22-.08h-9.52c-.093 0-.167.027-.22.08-.053.053-.08.127-.08.22v13.4c0 .093.027.167.08.22.053.053.127.08.22.08h3.16zm12.58 0c.093 0 .167-.027.22-.08.053-.053.08-.127.08-.22v-4.98c0-.067.033-.1.1-.1h.84c.053 0 .093.027.12.08l2.2 5.08c.053.147.167.22.34.22h3.36c.08 0 .147-.02.2-.06.053-.04.08-.093.08-.16 0-.013-.013-.06-.04-.14l-2.54-5.28c-.027-.067-.007-.113.06-.14.76-.307 1.357-.79 1.79-1.45.433-.66.65-1.43.65-2.31 0-.88-.19-1.657-.57-2.33-.38-.673-.913-1.197-1.6-1.57s-1.483-.56-2.39-.56h-6.06c-.093 0-.167.027-.22.08-.053.053-.08.127-.08.22v13.4c0 .093.027.167.08.22.053.053.127.08.22.08h3.16zm2.28-8.24h-1.88c-.067 0-.1-.033-.1-.1v-2.34c0-.067.033-.1.1-.1h1.88c.427 0 .773.117 1.04.35.267.233.4.543.4.93 0 .373-.133.677-.4.91-.267.233-.613.35-1.04.35zM118.62 57c.093 0 .167-.027.22-.08.053-.053.08-.127.08-.22V43.3c0-.093-.027-.167-.08-.22-.053-.053-.127-.08-.22-.08h-3.16c-.093 0-.167.027-.22.08-.053.053-.08.127-.08.22v13.4c0 .093.027.167.08.22.053.053.127.08.22.08h3.16zm5.08.16c.533 0 .98-.18 1.34-.54.36-.36.54-.807.54-1.34 0-.56-.177-1.013-.53-1.36-.353-.347-.803-.52-1.35-.52s-.997.173-1.35.52c-.353.347-.53.8-.53 1.36 0 .547.177.997.53 1.35.353.353.803.53 1.35.53zM91.02 18.24l2.24-.76c-.3-.86-.8-2.18-1.18-3.24l-2.16.64c.34 1.04.84 2.46 1.1 3.36zm14.44 11.02c.66-.36.86-.88.86-1.92V14.72H94.88v5.16c0 2.48-.06 5.94-1.02 8.38.54.22 1.52.76 1.94 1.1.78-1.98 1.08-4.74 1.2-7.14h7.12v5.08c0 .26-.08.36-.34.36h-.7v-4.62H97.8v4.62h4.2c.28.56.52 1.4.6 1.96 1.32 0 2.24-.02 2.86-.36zm-5.92-11.48h-2.5v-1.14h2.5v1.14zm4.58 0h-2.62v-1.14h2.62v1.14zM90 32.82c.46-1.14 1.14-2.5 1.6-2.5.38 0 1.1.66 1.94 1.12 1.44.84 3.1 1.06 5.76 1.06 2.34 0 5.84-.14 7.5-.24.04-.64.42-1.8.7-2.44-2.22.32-5.8.52-8.1.52-2.34 0-4.2-.12-5.56-.94-.54-.32-.92-.62-1.26-.82.76-1.52 1.36-3.38 1.78-5.24l-1-.44-.34.1h-.74c.5-1.36 1.02-2.92 1.44-4.28H88.8v2.12h2.12c-.5 1.5-1.02 3.08-1.48 4.2h2.26c-.36 1.34-.84 2.68-1.4 3.7-.58.42-1.26 1.04-1.88 1.8L90 32.82zm14.12-12.2h-2.62v-1.24h2.62v1.24zm-4.58 0h-2.5v-1.24h2.5v1.24zm1.86 5.6h-2v-1.74h2v1.74zm27.08 5.58v-2.36h-3.86c.28-2.58.54-5.4.66-7.74l-1.9-.14-.42.08h-3.7c.18-1.14.36-2.3.52-3.4h7.4v-2.36h-15.4v2.36h5.36c-.14 1.1-.3 2.26-.48 3.4h-3.76v2.34h3.4c-.34 1.96-.7 3.84-1.04 5.46h-4.62v2.36h17.84zm-6.4-2.36h-4.18c.32-1.6.66-3.48 1-5.46h3.68c-.12 1.64-.3 3.64-.5 5.46z" transform="translate(-680 -1330) translate(-.5 1270) translate(330 60) translate(350) translate(1) translate(5 8)"/>
                                <g>
                                    <g transform="translate(-680 -1330) translate(-.5 1270) translate(330 60) translate(350) translate(1) translate(5 8) translate(.429 2.51)">
                                        <use fill="url(#l74deb6nlb)" xlink:href="#tqxvg92h0a"/>
                                    </g>
                                    <g transform="translate(-680 -1330) translate(-.5 1270) translate(330 60) translate(350) translate(1) translate(5 8) translate(23)">
                                        <use fill="#0B308E" xlink:href="#1a10xv2xsc"/>
                                    </g>
                                </g>
                            </g>
                        </g>
                    </g>
                </g>
            </g>
        </g>
    </g>
</svg>
