<svg xmlns="http://www.w3.org/2000/svg" xmlns:xlink="http://www.w3.org/1999/xlink" width="141" height="70" viewBox="0 0 141 70">
    <defs>
        <path id="zhn2c8hpia" d="M22.283.224l.1.008c.129.019.241.076.337.172.12.12.18.266.18.438V5.83l-.007.1c-.019.129-.077.241-.173.337-.12.12-.265.18-.437.18H7.935l-.069.006c-.125.02-.188.105-.188.251l-.052 7.612.004.073c.02.176.122.203.305.081 1.543-.994 3.325-1.491 5.348-1.491 2.4 0 4.5.608 6.3 1.825 1.8 1.218 3.077 2.89 3.832 5.015.514 1.68.771 3.308.771 4.885l-.005-.293-12.17 12.172c-2.374-.028-4.481-.582-6.322-1.661l-.351-.215c-1.972-1.251-3.369-2.957-4.192-5.117-.343-.891-.6-1.834-.771-2.828v-.103l.006-.108c.037-.305.24-.458.61-.458h6.224l.11.007c.28.037.467.224.558.559.035.205.086.377.155.514.068.137.12.257.154.36.343.891.857 1.577 1.543 2.057.685.48 1.491.72 2.417.72.96 0 1.8-.257 2.52-.771.72-.515 1.251-1.235 1.594-2.16.343-.686.514-1.577.514-2.675 0-.994-.154-1.885-.462-2.674-.24-.891-.72-1.577-1.44-2.057s-1.56-.72-2.52-.72-1.852.223-2.675.669c-.823.445-1.371 1.028-1.645 1.748-.103.343-.326.514-.669.514H1.043l-.1-.007c-.128-.019-.24-.077-.337-.173-.12-.12-.18-.265-.18-.437V.842l.007-.1C.453.612.51.5.606.404c.12-.12.266-.18.437-.18h21.24z"/>
        <path id="6fvnw9ir6c" d="M52.612.429l.129.007c.208.026.39.115.543.269.184.184.276.408.276.671v7.661l-.007.129c-.026.208-.116.39-.27.543-.184.184-.407.276-.67.276H30.576l-.092.006c-.202.03-.303.159-.303.389l-.079 11.689.004.086c.024.294.18.344.47.15 2.37-1.526 5.107-2.29 8.214-2.29 3.686 0 6.91.935 9.675 2.804 2.764 1.87 4.726 4.436 5.884 7.7.79 2.58 1.185 5.082 1.185 7.504 0 2.685-.422 5.107-1.264 7.266-1.211 3.37-3.343 6.042-6.397 8.016-3.054 1.975-6.635 2.962-10.742 2.962-4.001 0-7.516-.96-10.543-2.883-3.028-1.921-5.173-4.54-6.437-7.858-.527-1.37-.922-2.817-1.185-4.344v-.158l.005-.12c.042-.499.356-.749.943-.749h9.556l.128.006c.455.045.754.332.9.863.052.316.13.58.236.79.105.21.184.395.237.553.527 1.369 1.316 2.422 2.37 3.159 1.052.737 2.29 1.106 3.711 1.106 1.475 0 2.765-.395 3.87-1.185 1.106-.79 1.922-1.896 2.449-3.317.526-1.053.79-2.422.79-4.107 0-1.527-.237-2.896-.711-4.107-.369-1.37-1.106-2.422-2.212-3.16-1.105-.736-2.395-1.105-3.87-1.105-1.474 0-2.843.342-4.107 1.027-1.263.684-2.106 1.58-2.527 2.685-.158.527-.5.79-1.027.79h-9.714l-.128-.008c-.209-.025-.39-.115-.543-.269-.185-.184-.277-.408-.277-.67V10.483L29.102.428h23.51zM11.148 18.382v36.385l-.008.128c-.025.208-.115.39-.268.543-.185.184-.408.276-.672.276H.96l-.129-.007c-.208-.026-.389-.116-.543-.27-.184-.183-.276-.407-.276-.67V29.518l11.136-11.136z"/>
        <linearGradient id="2a6t94oslb" x1="50%" x2="50%" y1="0%" y2="100%">
            <stop offset="0%" stop-color="#585BA6" stop-opacity=".498"/>
            <stop offset="100%" stop-color="#0B308E"/>
        </linearGradient>
    </defs>
    <g fill="none" fill-rule="evenodd">
        <g>
            <g>
                <g>
                    <g>
                        <g>
                            <g>
                                <path fill="#0B308E" fill-rule="nonzero" d="M94.08 57.16c1.08 0 2.027-.173 2.84-.52.813-.347 1.447-.843 1.9-1.49.453-.647.68-1.417.68-2.31 0-.92-.28-1.703-.84-2.35-.56-.647-1.257-1.093-2.09-1.34-.833-.247-1.303-.39-1.41-.43-.773-.24-1.347-.437-1.72-.59-.373-.153-.65-.313-.83-.48-.18-.167-.27-.37-.27-.61 0-.307.123-.547.37-.72.247-.173.583-.26 1.01-.26.613 0 1.1.163 1.46.49.36.327.54.69.54 1.09v.02c0 .093.027.167.08.22.053.053.127.08.22.08h3.1c.093 0 .167-.027.22-.08.053-.053.08-.127.08-.22v-.18c0-.907-.243-1.713-.73-2.42-.487-.707-1.153-1.253-2-1.64s-1.79-.58-2.83-.58c-.987 0-1.877.173-2.67.52-.793.347-1.417.843-1.87 1.49-.453.647-.68 1.39-.68 2.23 0 1.267.447 2.233 1.34 2.9.893.667 2 1.2 3.32 1.6l.58.16c.707.213 1.193.393 1.46.54.267.147.4.367.4.66 0 .253-.107.483-.32.69-.213.207-.567.31-1.06.31-.653 0-1.177-.143-1.57-.43-.393-.287-.59-.617-.59-.99v-.12c0-.093-.027-.167-.08-.22-.053-.053-.127-.08-.22-.08h-3.1c-.093 0-.167.027-.22.08-.053.053-.08.127-.08.22v.28c0 .893.23 1.68.69 2.36.46.68 1.11 1.203 1.95 1.57.84.367 1.82.55 2.94.55zm11.6-.16c.187 0 .3-.087.34-.26l.44-1.56c.027-.053.06-.08.1-.08h4.24c.04 0 .073.027.1.08l.44 1.56c.04.173.153.26.34.26h3.42c.187 0 .28-.073.28-.22 0-.053-.007-.093-.02-.12l-4.22-13.42c-.053-.16-.167-.24-.34-.24h-4.24c-.173 0-.287.08-.34.24L102 56.66c-.067.227.02.34.26.34h3.42zm4.24-4.78h-2.5c-.067 0-.093-.04-.08-.12l1.26-4.48c.013-.04.033-.06.06-.06.027 0 .047.02.06.06L110 52.1c.027.08 0 .12-.08.12zM122.8 57c.093 0 .167-.027.22-.08.053-.053.08-.127.08-.22V46.34c0-.067.033-.1.1-.1h3.36c.093 0 .167-.027.22-.08.053-.053.08-.127.08-.22V43.3c0-.093-.027-.167-.08-.22-.053-.053-.127-.08-.22-.08h-10.58c-.093 0-.167.027-.22.08-.053.053-.08.127-.08.22v2.64c0 .093.027.167.08.22.053.053.127.08.22.08h3.26c.067 0 .1.033.1.1V56.7c0 .093.027.167.08.22.053.053.127.08.22.08h3.16zm6.42.16c.533 0 .98-.18 1.34-.54.36-.36.54-.807.54-1.34 0-.56-.177-1.013-.53-1.36-.353-.347-.803-.52-1.35-.52s-.997.173-1.35.52c-.353.347-.53.8-.53 1.36 0 .547.177.997.53 1.35.353.353.803.53 1.35.53zM91.02 18.24l2.24-.76c-.3-.86-.8-2.18-1.18-3.24l-2.16.64c.34 1.04.84 2.46 1.1 3.36zm14.44 11.02c.66-.36.86-.88.86-1.92V14.72H94.88v5.16c0 2.48-.06 5.94-1.02 8.38.54.22 1.52.76 1.94 1.1.78-1.98 1.08-4.74 1.2-7.14h7.12v5.08c0 .26-.08.36-.34.36h-.7v-4.62H97.8v4.62h4.2c.28.56.52 1.4.6 1.96 1.32 0 2.24-.02 2.86-.36zm-5.92-11.48h-2.5v-1.14h2.5v1.14zm4.58 0h-2.62v-1.14h2.62v1.14zM90 32.82c.46-1.14 1.14-2.5 1.6-2.5.38 0 1.1.66 1.94 1.12 1.44.84 3.1 1.06 5.76 1.06 2.34 0 5.84-.14 7.5-.24.04-.64.42-1.8.7-2.44-2.22.32-5.8.52-8.1.52-2.34 0-4.2-.12-5.56-.94-.54-.32-.92-.62-1.26-.82.76-1.52 1.36-3.38 1.78-5.24l-1-.44-.34.1h-.74c.5-1.36 1.02-2.92 1.44-4.28H88.8v2.12h2.12c-.5 1.5-1.02 3.08-1.48 4.2h2.26c-.36 1.34-.84 2.68-1.4 3.7-.58.42-1.26 1.04-1.88 1.8L90 32.82zm14.12-12.2h-2.62v-1.24h2.62v1.24zm-4.58 0h-2.5v-1.24h2.5v1.24zm1.86 5.6h-2v-1.74h2v1.74zm27.16-4.68v-2.48h-9.42l2.56-.96c-.42-1.06-1.32-2.76-1.98-4l-2.48.84c.62 1.3 1.44 3.06 1.78 4.12h-8.5v2.48h18.04zm-2.58 10.92l2.54-1.38c-1.16-2.1-3.62-5.48-5.28-7.96l-2.28 1.12c1.68 2.6 4.02 6.14 5.02 8.22zm-13.34.12c1.76-2.1 3.92-5.44 5.36-8.46l-2.68-.86c-1.24 2.78-3.26 5.82-5.08 7.7.66.38 1.86 1.18 2.4 1.62z" transform="translate(-1030 -1330) translate(-.5 1270) translate(330 60) translate(700) translate(1) translate(5 8)"/>
                                <g>
                                    <g transform="translate(-1030 -1330) translate(-.5 1270) translate(330 60) translate(700) translate(1) translate(5 8) translate(.429 2.51)">
                                        <use fill="url(#2a6t94oslb)" xlink:href="#zhn2c8hpia"/>
                                    </g>
                                    <g transform="translate(-1030 -1330) translate(-.5 1270) translate(330 60) translate(700) translate(1) translate(5 8) translate(23)">
                                        <use fill="#0B308E" xlink:href="#6fvnw9ir6c"/>
                                    </g>
                                </g>
                            </g>
                        </g>
                    </g>
                </g>
            </g>
        </g>
    </g>
</svg>
