<svg xmlns="http://www.w3.org/2000/svg" width="200" height="58" viewBox="0 0 200 58">
    <g fill="none" fill-rule="evenodd">
        <g fill="#FFF">
            <g>
                <g>
                    <path d="M96.663 38c1.076 0 2.025.21 2.848.633.823.422 1.46 1.012 1.912 1.772.451.76.677 1.632.677 2.619v3.894l-.007.3c-.04.89-.264 1.678-.67 2.368-.451.765-1.089 1.36-1.912 1.781-.823.422-1.772.633-2.848.633-1.075 0-2.02-.21-2.837-.633-.817-.422-1.45-1.016-1.902-1.781-.452-.766-.677-1.656-.677-2.668v-3.894l.007-.293c.04-.867.264-1.643.67-2.326.451-.76 1.085-1.35 1.902-1.772.816-.422 1.762-.633 2.837-.633zm66.932 0c1.062 0 1.995.191 2.798.574.803.383 1.427.922 1.872 1.617.445.694.667 1.496.667 2.404 0 .065-.023.117-.07.156-.046.039-.103.058-.169.058l-2.828.176-.073-.006c-.11-.02-.166-.09-.166-.208 0-.61-.186-1.097-.557-1.46-.372-.364-.863-.546-1.474-.546-.61 0-1.102.185-1.474.555-.371.37-.557.853-.557 1.45v4.42l.007.195c.036.508.22.923.55 1.246.372.364.863.546 1.474.546.61 0 1.102-.182 1.474-.546.371-.363.557-.843.557-1.44 0-.143.08-.215.24-.215l2.827.137.063.006c.04.009.075.026.106.052.047.039.07.084.07.136 0 .922-.222 1.733-.667 2.434-.445.701-1.069 1.243-1.872 1.626-.803.383-1.736.575-2.798.575s-1.995-.202-2.798-.604c-.803-.402-1.427-.974-1.872-1.714-.445-.74-.667-1.596-.667-2.57v-4.206l.008-.316c.044-.831.264-1.573.66-2.225.444-.733 1.068-1.301 1.871-1.703.803-.403 1.736-.604 2.798-.604zm-149.018.156l.063.007c.04.01.075.03.106.06.047.046.07.102.07.166v8.763l.007.199c.036.518.216.942.54 1.27.366.37.854.556 1.464.556.598 0 1.08-.185 1.444-.555.365-.37.548-.86.548-1.47v-8.763l.008-.061c.01-.04.03-.074.062-.104.046-.046.102-.068.169-.068h2.828l.063.007c.04.01.075.03.106.06.046.046.07.102.07.166v8.763l-.008.311c-.044.82-.26 1.554-.65 2.2-.438.727-1.058 1.289-1.861 1.685-.804.396-1.73.594-2.779.594-1.048 0-1.974-.198-2.778-.594-.803-.396-1.427-.958-1.871-1.685-.445-.727-.668-1.564-.668-2.511v-8.763l.008-.061c.01-.04.031-.074.062-.104.047-.046.103-.068.17-.068h2.827zM83.958 38c1.062 0 1.995.191 2.798.574.803.383 1.427.922 1.872 1.617.445.694.667 1.496.667 2.404 0 .065-.023.117-.07.156-.046.039-.102.058-.169.058l-2.828.176-.073-.006c-.11-.02-.166-.09-.166-.208 0-.61-.185-1.097-.557-1.46-.372-.364-.863-.546-1.474-.546-.61 0-1.102.185-1.473.555-.372.37-.558.853-.558 1.45v4.42l.007.195c.037.508.22.923.55 1.246.372.364.863.546 1.474.546.61 0 1.102-.182 1.474-.546.372-.363.557-.843.557-1.44 0-.143.08-.215.24-.215l2.827.137.063.006c.04.009.076.026.106.052.047.039.07.084.07.136 0 .922-.222 1.733-.667 2.434-.445.701-1.069 1.243-1.872 1.626-.803.383-1.736.575-2.798.575s-1.995-.202-2.798-.604c-.803-.402-1.427-.974-1.872-1.714-.444-.74-.667-1.596-.667-2.57v-4.206l.008-.316c.044-.831.264-1.573.66-2.225.444-.733 1.068-1.301 1.871-1.703.803-.403 1.736-.604 2.798-.604zm-44.23.156l.064.007c.04.01.075.03.106.06.047.046.07.102.07.166v8.763l.007.199c.036.518.216.942.54 1.27.365.37.853.556 1.464.556.598 0 1.079-.185 1.444-.555.365-.37.548-.86.548-1.47v-8.763l.007-.061c.01-.04.031-.074.062-.104.047-.046.103-.068.17-.068h2.827l.063.007c.04.01.076.03.107.06.046.046.07.102.07.166v8.763l-.009.311c-.043.82-.26 1.554-.649 2.2-.438.727-1.059 1.289-1.862 1.685-.803.396-1.73.594-2.778.594-1.049 0-1.975-.198-2.778-.594-.803-.396-1.427-.958-1.872-1.685-.445-.727-.667-1.564-.667-2.511v-8.763l.008-.061c.01-.04.03-.074.062-.104.046-.046.103-.068.169-.068h2.828zm112.177 0l.289.006c.757.035 1.431.208 2.021.52.664.35 1.179.847 1.544 1.49.365.642.547 1.378.547 2.21 0 .869-.219 1.622-.657 2.258-.438.636-1.049 1.097-1.832 1.382-.066.026-.086.072-.06.137l2.63 5.354.021.048c.012.029.018.052.018.069 0 .104-.073.156-.22.156h-2.986l-.075-.007c-.094-.019-.162-.075-.204-.168l-2.35-5.18-.03-.043c-.025-.023-.054-.035-.09-.035h-1.314l-.043.006c-.038.013-.056.043-.056.092v5.101l-.008.062c-.01.039-.031.073-.062.104-.047.045-.103.068-.17.068h-2.827l-.063-.008c-.04-.01-.075-.03-.106-.06-.047-.046-.07-.1-.07-.166V38.39l.008-.061c.01-.04.03-.074.062-.104.046-.046.102-.068.169-.068h5.914zm-8.483 0l.063.007c.04.01.075.03.106.06.047.046.07.102.07.166v2.298l-.008.062c-.01.039-.03.073-.062.104-.046.045-.103.068-.17.068h-6.252l-.044.006c-.037.012-.056.042-.056.091v2.395l.007.043c.012.036.043.054.093.054h4.003l.063.008c.04.01.075.03.106.06.046.046.07.101.07.166v2.278l-.008.062c-.01.039-.031.073-.062.104-.047.045-.103.068-.17.068h-4.002l-.044.006c-.037.012-.056.043-.056.091v2.57l.007.043c.012.037.043.055.093.055h6.253l.063.007c.04.01.075.03.106.061.047.045.07.1.07.166v2.297l-.008.062c-.01.039-.03.073-.062.104-.046.045-.103.068-.17.068h-9.418l-.064-.008c-.04-.01-.075-.03-.106-.06-.046-.046-.07-.1-.07-.166V38.39l.008-.061c.01-.04.031-.074.062-.104.047-.046.103-.068.17-.068h9.419zm-21.328 0l.068.006c.087.017.158.066.21.15l2.769 4.244.024.038c.031.037.063.025.095-.038l2.728-4.244.037-.057c.055-.066.136-.1.242-.1h2.808l.063.008c.04.01.075.03.106.06.047.046.07.102.07.166v13.163l-.008.062c-.01.039-.03.073-.062.104-.046.045-.102.068-.169.068h-2.828l-.063-.008c-.04-.01-.075-.03-.106-.06-.046-.046-.07-.1-.07-.166v-7.827l-.004-.044c-.006-.023-.018-.034-.035-.034-.027 0-.054.02-.08.058l-1.713 2.687-.036.056c-.056.067-.136.1-.243.1h-1.413l-.075-.006c-.094-.017-.162-.067-.204-.15l-1.733-2.706-.026-.033c-.018-.017-.036-.026-.053-.026-.027 0-.04.026-.04.078v7.847l-.008.062c-.01.039-.031.073-.062.104-.046.045-.103.068-.17.068h-2.827l-.063-.008c-.04-.01-.075-.03-.106-.06-.047-.046-.07-.1-.07-.166V38.39l.008-.061c.01-.04.03-.074.062-.104.046-.046.103-.068.169-.068h2.808zm-14.717 0l.069.006c.087.017.157.066.21.15l2.768 4.244.024.038c.032.037.064.025.096-.038l2.728-4.244.037-.057c.055-.066.135-.1.242-.1h2.808l.063.008c.04.01.075.03.106.06.046.046.07.102.07.166v13.163l-.008.062c-.01.039-.031.073-.062.104-.047.045-.103.068-.17.068h-2.827l-.063-.008c-.04-.01-.076-.03-.107-.06-.046-.046-.07-.1-.07-.166v-7.827l-.004-.044c-.006-.023-.017-.034-.035-.034-.027 0-.053.02-.08.058l-1.712 2.687-.037.056c-.055.067-.136.1-.242.1h-1.414l-.075-.006c-.093-.017-.161-.067-.204-.15l-1.732-2.706-.027-.033c-.018-.017-.035-.026-.053-.026-.027 0-.04.026-.04.078v7.847l-.008.062c-.01.039-.03.073-.062.104-.046.045-.102.068-.169.068h-2.828l-.063-.008c-.04-.01-.075-.03-.106-.06-.046-.046-.07-.1-.07-.166V38.39l.008-.061c.01-.04.031-.074.062-.104.047-.046.103-.068.17-.068h2.807zm-72.806 0l.063.007c.04.01.075.03.106.06.047.046.07.102.07.166v2.318l-.008.061c-.01.04-.03.074-.062.104-.046.045-.103.068-.169.068h-3.485l-.044.006c-.037.012-.056.043-.056.092v10.514l-.007.062c-.01.039-.031.073-.062.104-.047.045-.103.068-.17.068H27.92l-.063-.008c-.04-.01-.076-.03-.107-.06-.046-.046-.07-.1-.07-.166V41.038l-.006-.043c-.012-.037-.043-.055-.093-.055h-3.365l-.063-.007c-.04-.01-.076-.03-.107-.061-.046-.045-.07-.1-.07-.165v-2.318l.008-.061c.01-.04.031-.074.062-.104.047-.046.103-.068.17-.068H34.57zm37.459 0l.063.007c.04.01.075.03.106.06.046.046.07.102.07.166v2.298l-.008.062c-.01.039-.031.073-.062.104-.047.045-.103.068-.17.068h-6.252l-.044.006c-.037.012-.056.042-.056.091v2.395l.006.043c.013.036.044.054.094.054h4.002l.063.008c.04.01.076.03.107.06.046.046.07.101.07.166v2.278l-.008.062c-.01.039-.031.073-.062.104-.047.045-.103.068-.17.068h-4.002l-.044.006c-.037.012-.056.043-.056.091v2.57l.006.043c.013.037.044.055.094.055h6.253l.063.007c.04.01.075.03.106.061.046.045.07.1.07.166v2.297l-.008.062c-.01.039-.031.073-.062.104-.047.045-.103.068-.17.068H62.61l-.063-.008c-.04-.01-.075-.03-.106-.06-.047-.046-.07-.1-.07-.166V38.39l.008-.061c.01-.04.03-.074.062-.104.046-.046.103-.068.17-.068h9.419zm-16.23 0l.288.006c.758.035 1.432.208 2.022.52.663.35 1.178.847 1.543 1.49.365.642.548 1.378.548 2.21 0 .869-.22 1.622-.658 2.258-.438.636-1.048 1.097-1.832 1.382-.066.026-.086.072-.06.137l2.63 5.354.021.048c.012.029.018.052.018.069 0 .104-.073.156-.219.156h-2.987l-.075-.007c-.093-.019-.161-.075-.204-.168l-2.35-5.18-.03-.043c-.024-.023-.054-.035-.09-.035h-1.314l-.043.006c-.038.013-.056.043-.056.092v5.101l-.008.062c-.01.039-.03.073-.062.104-.046.045-.103.068-.17.068h-2.827l-.063-.008c-.04-.01-.075-.03-.106-.06-.047-.046-.07-.1-.07-.166V38.39l.008-.061c.01-.04.03-.074.062-.104.046-.046.103-.068.169-.068H55.8zm124.961 0l.063.007c.04.01.075.03.106.06.047.046.07.102.07.166v2.298l-.008.062c-.01.039-.03.073-.062.104-.046.045-.103.068-.169.068h-6.253l-.044.006c-.037.012-.056.042-.056.091v2.395l.007.043c.012.036.043.054.093.054h4.003l.063.008c.04.01.075.03.106.06.046.046.07.101.07.166v2.278l-.008.062c-.01.039-.031.073-.062.104-.046.045-.103.068-.17.068h-4.002l-.044.006c-.037.012-.056.043-.056.091v2.57l.007.043c.012.037.043.055.093.055h6.253l.063.007c.04.01.075.03.106.061.047.045.07.1.07.166v2.297l-.008.062c-.01.039-.03.073-.062.104-.046.045-.103.068-.169.068h-9.42l-.062-.008c-.04-.01-.076-.03-.107-.06-.046-.046-.07-.1-.07-.166V38.39l.008-.061c.01-.04.031-.074.062-.104.047-.046.103-.068.17-.068h9.419zm-171.123 0l.064.007c.04.01.075.03.106.06.046.046.07.102.07.166v2.298l-.008.062c-.01.039-.031.073-.062.104-.047.045-.103.068-.17.068H3.405l-.043.006c-.038.012-.056.042-.056.091v2.395l.006.043c.012.036.044.054.093.054h4.003l.063.008c.04.01.075.03.106.06.047.046.07.101.07.166v2.278l-.008.062c-.01.039-.03.073-.062.104-.046.045-.103.068-.169.068H3.405l-.043.006c-.038.012-.056.043-.056.091v5.2l-.008.06c-.01.04-.031.074-.062.105-.046.045-.103.068-.17.068H.24l-.063-.008c-.04-.01-.075-.03-.106-.06-.047-.046-.07-.1-.07-.166V38.39l.008-.061c.01-.04.03-.074.062-.104.046-.046.103-.068.169-.068h9.4zm87.025 2.609c-.624 0-1.131.204-1.523.613-.392.41-.587.945-.587 1.607v4.03l.007.22c.038.573.232 1.039.58 1.396.392.403.9.604 1.523.604.638 0 1.152-.201 1.544-.604.391-.402.587-.94.587-1.616v-4.03l-.007-.216c-.039-.564-.232-1.027-.58-1.39-.392-.41-.906-.614-1.544-.614zm-41.401.156h-2.21l-.044.006c-.038.012-.056.042-.056.091v2.765l.006.043c.012.036.044.054.093.054h2.21c.492 0 .89-.133 1.196-.399.305-.266.458-.62.458-1.061 0-.454-.153-.818-.458-1.09-.306-.273-.704-.41-1.195-.41zm96.106 0h-2.21l-.044.006c-.038.012-.056.042-.056.091v2.765l.006.043c.012.036.043.054.093.054h2.21c.492 0 .89-.133 1.196-.399.305-.266.458-.62.458-1.061 0-.454-.153-.818-.458-1.09-.306-.273-.704-.41-1.195-.41zM26.73 6.493c2.346 0 4.207.637 5.582 1.91 1.307 1.209 1.993 2.823 2.058 4.842l.005.323v8.264l-.005.328c-.065 2.057-.751 3.696-2.058 4.915C30.938 28.358 29.077 29 26.731 29c-2.346 0-4.201-.642-5.566-1.925-1.297-1.22-1.978-2.858-2.043-4.915l-.005-.328v-8.264l.006-.34c.068-2.01.749-3.62 2.042-4.825 1.365-1.273 3.22-1.91 5.566-1.91zm171.757.68v6.786h-3.047v1.197h3.12v2.817h-3.12v1.15h4.223v2.842h-2.351l1.775 1.173c-.815.54-1.703 1.057-2.543 1.48.984.47 2.135.821 3.455 1.056-.696.657-1.607 1.949-2.04 2.817-3.974-.978-6.395-3.035-7.96-6.215l-.149-.311h-1.991v3.052l3.407-.587c-.168.845-.312 2.136-.312 2.817-1.017.195-1.861.359-2.567.499l-.66.132c-1.3.263-2.025.432-2.48.576l-.135.046c-.099.034-.183.068-.257.101l-.105.05-.045.025-.044.025-.041.025v.024c-.168-.775-.792-2.137-1.224-2.7.52-.354 1.188-1.04 1.265-2.196l.007-.222v-1.667h-1.656v-2.841h3.12v-1.15h-2.712v-2.818h2.711V13.96h-3.023v.235c0 4.202-.407 10.54-2.95 14.438-.696-.54-2.256-1.432-3.144-1.76 2.322-3.454 2.554-8.579 2.567-12.31V7.174h18.906zm-133.65-.43l.077.007c.074.014.139.048.195.103.056.055.09.118.105.19l.007.076V28.28l-.007.075c-.014.073-.05.136-.105.191-.056.055-.121.09-.195.103l-.077.007h-3.743l-.077-.007c-.074-.014-.139-.048-.195-.103-.056-.055-.091-.118-.105-.19l-.007-.076V11.126l-.007-.042c-.01-.028-.029-.055-.057-.083-.032-.032-.064-.045-.096-.041l-.032.01-3.167.845-.128.03-.076-.006c-.118-.024-.186-.106-.206-.246l-.006-.091-.096-2.693.008-.099c.022-.125.086-.222.192-.292l.088-.047 3.36-1.534.07-.033c.076-.03.172-.05.287-.057l.122-.004h3.87zm-57.416-.25c1.514 0 2.83.277 3.95.83 1.12.553 1.984 1.299 2.592 2.238.607.939.911 1.982.911 3.13 0 .877-.224 1.774-.672 2.692-.447.918-1.12 1.91-2.015 2.974-.661.814-1.375 1.617-2.143 2.41-.717.74-1.758 1.79-3.125 3.148l-.298.296-.48.47-.026.03c-.02.032-.022.063-.006.094.014.028.038.047.071.056l.057.007h8.67l.076.007c.074.014.14.048.195.103.056.054.091.118.105.19l.007.076v3.036l-.007.075c-.014.073-.049.136-.105.191-.056.055-.12.09-.195.103l-.077.007H.512l-.077-.007c-.074-.014-.14-.048-.195-.103-.056-.055-.091-.118-.105-.19l-.007-.076V25.4l.008-.109c.02-.14.082-.26.184-.36 1.045-1.002 2.111-2.093 3.199-3.272 1.088-1.179 1.77-1.914 2.047-2.206.597-.69 1.205-1.347 1.824-1.973 1.94-2.107 2.91-3.672 2.91-4.695 0-.73-.266-1.33-.799-1.8s-1.226-.704-2.08-.704c-.852 0-1.546.234-2.079.704-.484.427-.749.979-.793 1.656l-.006.207v.782l-.007.075c-.014.073-.05.136-.105.191-.056.055-.121.09-.195.103l-.077.007H.384l-.077-.007c-.074-.014-.14-.048-.195-.103-.056-.055-.091-.118-.105-.19L0 13.63V12.16l.022-.28c.104-1.012.46-1.916 1.066-2.71.66-.866 1.54-1.528 2.639-1.987 1.098-.46 2.33-.689 3.695-.689zm38.234 0c1.515 0 2.831.277 3.951.83 1.12.553 1.983 1.299 2.591 2.238.608.939.912 1.982.912 3.13 0 .877-.224 1.774-.672 2.692-.448.918-1.12 1.91-2.015 2.974-.661.814-1.376 1.617-2.143 2.41-.717.74-1.759 1.79-3.126 3.148l-.297.296-.48.47-.026.03c-.02.032-.022.063-.006.094.014.028.038.047.07.056l.058.007h8.669l.077.007c.074.014.139.048.195.103.056.054.09.118.105.19l.007.076v3.036l-.007.075c-.014.073-.05.136-.105.191-.056.055-.121.09-.195.103l-.077.007H38.747l-.077-.007c-.074-.014-.14-.048-.195-.103-.056-.055-.091-.118-.105-.19l-.007-.076V25.4l.007-.109c.02-.14.082-.26.185-.36 1.045-1.002 2.11-2.093 3.199-3.272 1.087-1.179 1.77-1.914 2.047-2.206.597-.69 1.205-1.347 1.823-1.973 1.941-2.107 2.911-3.672 2.911-4.695 0-.73-.266-1.33-.8-1.8-.532-.47-1.226-.704-2.079-.704-.853 0-1.546.234-2.079.704-.485.427-.75.979-.793 1.656l-.007.207v.782l-.007.075c-.014.073-.049.136-.105.191-.056.055-.12.09-.195.103l-.077.007H38.62l-.077-.007c-.074-.014-.14-.048-.195-.103-.056-.055-.091-.118-.105-.19l-.007-.076V12.16l.022-.28c.104-1.012.46-1.916 1.065-2.71.661-.866 1.541-1.528 2.64-1.987 1.098-.46 2.33-.689 3.694-.689zm118.9-.282l3.238.892c-.16.33-.33.658-.512.98l-.28.476h6.622v2.794h-1.175c-.552 1.174-1.248 2.183-2.064 3.052 1.176.47 2.496.845 3.935 1.08-.744.68-1.727 2.019-2.183 2.888-1.728-.423-3.263-1.033-4.607-1.808-.431.229-.863.444-1.315.647l-.46.198h2.687c-.032.454-.075.897-.12 1.33l-.072.642h5.206v.017l-.005.08c-.014.228-.052.813-.09 1.147-.36 3.874-.768 5.729-1.464 6.48-.576.634-1.152.845-1.895.963-.624.094-1.608.117-2.712.094-.048-.963-.407-2.278-.935-3.123.768.07 1.487.094 1.871.094.336 0 .528-.047.768-.282.25-.244.498-.948.707-2.41l.037-.266h-2.064c-.84 2.7-2.543 4.883-6.334 6.386-.384-.822-1.271-2.02-1.991-2.653 2.506-.878 3.845-2.1 4.585-3.544l.094-.19h-2.376v-2.77c-.153.602-.307 1.158-.473 1.656l-.127.364-2.303-1.057c.168-.698.336-1.594.472-2.531l.056-.404h-.744v7.513c0 1.48-.216 2.371-1.175 2.911-.936.517-2.112.587-3.623.587-.096-.939-.552-2.347-.984-3.263.6.034 1.289.044 1.736.046l.375.001c.256-.02.36-.06.38-.267l.004-.085V21.19c-.743 1.432-1.655 2.723-2.687 3.592-.288-.986-1.031-2.395-1.56-3.334 1.16-.916 2.194-2.256 2.97-3.684l.174-.33h-2.64v-2.959h4.823c-1.113-.575-2.427-1.15-3.574-1.6l-.48-.184 2.183-2.183c.503.164 1.055.352 1.631.563.252-.229.517-.47.766-.726l.242-.26h-5.207v-2.84h7.582l.528-.118 2.207 1.338c-.768 1.291-2.015 2.677-3.31 3.803.519.255.989.493 1.38.715l.227.13-1.32 1.362h.816l.456-.14 2.087.657-.024.164c.792-.188 1.512-.422 2.183-.728-.432-.422-.84-.892-1.223-1.385-.24.235-.48.446-.696.634-.672-.54-2.04-1.455-2.831-1.878 1.871-1.315 3.647-3.451 4.606-5.588zm-78.048.024v3.357h7.246v3.38h-7.246v2.419h9.07v3.38h-7.534c2.015 2.395 5.086 4.65 8.181 5.964-.816.68-1.967 2.066-2.543 2.982-2.461-1.304-4.816-3.21-6.805-5.427l-.369-.42v6.668H82.79v-6.573c-2.088 2.324-4.607 4.343-7.246 5.705-.576-.869-1.752-2.254-2.567-2.959 2.983-1.257 5.944-3.352 7.981-5.628l.272-.311h-7.366V15.39h8.926v-2.418h-7.078V9.592h7.078V6.235h3.718zm25.896 0v2.747h8.805v3.333h-5.47l2.855.517c-.192.822-.456 1.62-.768 2.395 1.196.866 2.597 1.873 3.484 2.614l.211.18-2.4 2.347c-.623-.61-1.679-1.502-2.758-2.371-.408.61-.864 1.15-1.32 1.596-.432-.328-1.2-.821-1.92-1.22 2.112 2.606 5.447 4.93 9.046 6.198-.864.727-2.015 2.183-2.591 3.146-2.53-1.15-4.846-2.88-6.81-4.94l-.364-.39v6.151h-3.695v-5.94c-2.015 2.184-4.438 3.992-7.126 5.189-.551-.869-1.679-2.254-2.47-2.958 3.798-1.406 7.307-4.015 9.38-6.94l.216-.315v-5.259h-4.27l2.879.54c-.216.822-.48 1.62-.792 2.395.704.564 1.426 1.164 1.915 1.62l.172.164-2.303 2.419c-.312-.376-.768-.822-1.272-1.292-.767 1.15-1.631 2.16-2.59 2.958-.577-.61-1.92-1.737-2.688-2.23 1.977-1.372 3.382-3.65 4.066-6.235l.085-.339h-3.671V8.982h8.47V6.235h3.694zM138.084 6c.21.563.437 1.247.63 1.87l.138.454h8.637v2.841h-6.694l1.991.376c-.345.62-.69 1.224-1.024 1.778l-.247.405h4.99v11.833c0 1.408-.336 2.042-1.32 2.441-.96.4-2.327.423-4.174.423-.144-.751-.552-1.808-.936-2.465 1.008.047 2.375.047 2.711.023.346 0 .497-.095.524-.353l.004-.093v-9.109h-3.095v.117c0 .363.04.59.335.628l.097.006h.624c.36 0 1.127-.047 1.463-.164.048.751.072 1.455.192 2.207-.315.123-.887.174-1.378.185l-.205.003h-1.584c-2.157 0-2.565-.966-2.59-2.705v-.277h-1.129c-.251 1.412-.853 2.46-2.43 3.185l-.233.102h8.014v6.01h-6.79v.869h-2.88v-6.363l-.263.047c-.192-.521-.65-1.247-1.102-1.798l-.17-.197v10.189h-3.31V13.724h4.822c-.192-.526-.46-1.142-.708-1.692l-.18-.397 1.56-.47h-6.502v-2.84h9.285c-.108-.388-.23-.789-.344-1.163l-.112-.364L138.084 6zM26.73 10.28c-.938 0-1.69.288-2.255.862-.518.526-.799 1.214-.842 2.064l-.006.236v8.609l.006.236c.043.85.324 1.538.842 2.064.565.574 1.317.861 2.255.861.96 0 1.722-.287 2.287-.86.518-.527.799-1.215.842-2.065l.006-.236v-8.609l-.006-.236c-.043-.85-.324-1.538-.842-2.064-.565-.574-1.327-.861-2.287-.861zm111.905 11.732h-4.031v1.408h4.03v-1.408zm57.093-.047h-2.519c.264.375.576.727.912 1.033.552-.33 1.128-.681 1.607-1.033zm-33.597-4.625c-.096.47-.202.928-.313 1.377l-.167.665h3.143c.072-.54.12-1.103.168-1.667-.696.235-1.415.47-2.16.658-.143-.282-.407-.658-.67-1.033zm30.07.633h-2.879v1.15h2.88v-1.15zm-59.205-1.549h-2.807v1.526c1.8-.305 2.496-.751 2.807-1.526zm-17.81-4.109h-2.783v5.095l.048.07c1.344-1.267 2.28-3.169 2.735-5.165zm77.015 1.644h-2.879v1.197h2.88V13.96zm-52.967-2.794h-5.158c.336.637.69 1.346.934 1.89l.098.223-1.344.446h4.535c.36-.798.72-1.76.935-2.559zm29.303.188h-2.663c.432.516.936.986 1.535 1.408.432-.422.816-.892 1.128-1.408zm26.424-1.315h-11.853v1.057h11.853v-1.057z" transform="translate(-130 -4396) translate(0 4320) translate(130 76)"/>
                </g>
            </g>
        </g>
    </g>
</svg>
