<svg xmlns="http://www.w3.org/2000/svg" width="610" height="500" viewBox="0 0 610 500">
    <defs>
        <linearGradient id="3uepchkzva" x1="50%" x2="50%" y1="100%" y2="0%">
            <stop offset="0%" stop-color="#585BA6" stop-opacity=".498"/>
            <stop offset="100%" stop-color="#0B308E"/>
        </linearGradient>
    </defs>
    <g fill="none" fill-rule="evenodd">
        <g>
            <g>
                <g transform="translate(0 -770) translate(0 770) translate(-146.49 -38.035)">
                    <g fill="#FFE100">
                        <g>
                            <path d="M54.302 145.988H0C0 65.492 65.494 0 145.99 0v54.305c-50.556 0-91.688 41.132-91.688 91.683" transform="rotate(90 -49.522 342.516) translate(.007)"/>
                        </g>
                    </g>
                    <g>
                        <g fill="#FFF">
                            <g>
                                <path d="M54.302 145.988H0C0 65.492 65.494 0 145.99 0v54.305c-50.556 0-91.688 41.132-91.688 91.683" transform="translate(239 392) rotate(90 145.978 146.016) translate(.007)"/>
                            </g>
                        </g>
                        <g fill="#0B308E">
                            <g>
                                <path d="M15.878 141.996l5.166 3.984h-1.723l-3.443-2.656-3.443 2.656h-1.722l5.165-3.984zm34.73 0l3.704 2.857c-.002.377-.011.75-.011 1.126h-.25l-3.443-2.655-3.443 2.655h-1.723l5.166-3.984zm-23.153 0l5.164 3.984h-1.722l-3.442-2.656-3.442 2.656H22.29l5.165-3.984zm11.575 0l5.166 3.984h-1.723l-3.443-2.656-3.443 2.656h-1.723l5.166-3.984zm-34.728 0l5.166 3.984H7.745l-3.443-2.656-3.443 2.656H0c0-.225.008-.448.009-.673l.001-.001 4.292-3.31zm46.306-6.84l4.019 3.099c-.033.42-.066.837-.095 1.256l-.002-.002-3.922-3.025-5.789 4.465-5.79-4.465-5.788 4.465-5.786-4.465-5.787 4.465-5.79-4.465-5.787 4.465-5.789-4.465-4.156 3.206c.018-.456.031-.915.055-1.371l.002-.002 4.099-3.162 5.789 4.465 5.787-4.465 5.79 4.465 5.787-4.465 5.786 4.465 5.788-4.465 5.79 4.465 5.79-4.465zm0-6.842l4.757 3.67c-.06.4-.111.8-.167 1.2l-.003-.001-4.587-3.54-5.789 4.465-5.79-4.465-5.788 4.465-5.786-4.465-5.787 4.465-5.79-4.465-5.787 4.465-5.789-4.465-3.67 2.831c.043-.474.078-.952.126-1.426l.002-.002 3.542-2.732 5.789 4.466 5.787-4.466 5.79 4.466 5.787-4.466 5.786 4.466 5.788-4.466 5.79 4.466 5.79-4.466zm0-6.84l5.787 4.465.139-.107c-.096.438-.193.879-.286 1.322l-.002-.002-5.638-4.349-5.789 4.464-5.79-4.464-5.788 4.464-5.786-4.464-5.788 4.464-5.79-4.464-5.787 4.464-5.788-4.464-2.779 2.144c.07-.498.139-.998.216-1.496l.003-.002 2.56-1.974 5.788 4.464 5.788-4.464 5.79 4.464 5.787-4.464 5.786 4.464 5.788-4.464 5.79 4.464 5.79-4.464zm-23.153-6.84l5.786 4.465 5.788-4.465 5.79 4.465 5.79-4.465 5.786 4.465 2.559-1.974c-.19.584-.383 1.173-.567 1.766l-.005.004-1.987 1.533-5.787-4.465-5.789 4.465-5.79-4.465-5.788 4.465-5.786-4.465-5.788 4.465-5.79-4.465-5.787 4.465-5.788-4.465-1.417 1.093c.104-.528.219-1.056.331-1.584l.003-.002 1.083-.836 5.788 4.465 5.788-4.465 5.79 4.465 5.787-4.465zm34.726-6.84l.335.259-.54 1.228-.007.006-5.574 4.302-5.787-4.466-5.789 4.465-5.79-4.465-5.787 4.466-5.787-4.466-5.788 4.465-5.79-4.465-5.787 4.466-5.443-4.2c.093-.37.198-.734.296-1.1h.002l5.145 3.97 5.788-4.465 5.79 4.465 5.787-4.465 5.787 4.465 5.787-4.465 5.79 4.465 5.79-4.465 5.786 4.465 5.786-4.465zm0-6.84l2.782 2.146c-.162.317-.33.631-.494.948l-.005-.004-2.283-1.76-5.786 4.464-5.787-4.465-5.789 4.464-5.79-4.464-5.787 4.464-5.787-4.464-5.788 4.464-5.79-4.464-5.787 4.464-3.858-2.976c.107-.36.209-.723.32-1.081l.002.001 3.536 2.727 5.788-4.464 5.79 4.464 5.787-4.464 5.787 4.464 5.787-4.464 5.79 4.464 5.79-4.464 5.786 4.464 5.786-4.464zm0-6.841l5.488 4.232-.538.914-.005-.003-4.945-3.814-5.786 4.465-5.787-4.465-5.789 4.464-5.79-4.464-5.787 4.465-5.787-4.465-5.788 4.464-5.79-4.464-5.787 4.464L8.006 98.3c.12-.35.243-.698.367-1.047l.002.002 1.715 1.324 5.788-4.465 5.79 4.465 5.787-4.465 5.787 4.465 5.787-4.465 5.79 4.465 5.79-4.465 5.786 4.465 5.786-4.465zm11.576-6.84l1.135.875c-.216.276-.436.549-.655.824l-.006-.005-.474-.365-5.787 4.464-5.79-4.464-5.785 4.464-5.787-4.464-5.79 4.464-5.788-4.464-5.788 4.464-5.787-4.464-5.788 4.464-5.79-4.464-5.787 4.464-.123-.096c.213-.551.435-1.098.657-1.645l.004-.003 5.25-4.05 5.79 4.465 5.787-4.464 5.787 4.464 5.788-4.464 5.789 4.464 5.789-4.464 5.787 4.464 5.786-4.464 5.789 4.464 5.787-4.464zm0-6.84l4.683 3.61c-.232.265-.468.526-.702.788l-.007-.004-3.974-3.065-5.787 4.464-5.79-4.464-5.785 4.465-5.787-4.465-5.79 4.464-5.788-4.464-5.788 4.465-5.787-4.465-5.788 4.464-5.79-4.464-1.56 1.204c.342-.717.7-1.431 1.057-2.145l.006-.004.498-.384 5.79 4.464 5.787-4.464 5.787 4.464 5.788-4.464 5.789 4.464 5.789-4.464 5.787 4.464 5.786-4.464 5.789 4.464 5.787-4.464zm11.577-6.84l2.263 1.744c-.27.235-.542.469-.816.701l-.006-.006-1.441-1.11-5.787 4.464-5.79-4.465-5.787 4.465-5.79-4.464-5.785 4.464-5.787-4.465-5.789 4.465-5.79-4.465-5.787 4.465-5.787-4.464-5.788 4.464-3.954-3.05c.167-.313.345-.62.517-.93l.002.002 3.435 2.649 5.788-4.465 5.787 4.465 5.788-4.465 5.79 4.465 5.788-4.465 5.787 4.465 5.786-4.465 5.789 4.465 5.787-4.465 5.79 4.465 5.787-4.465zm11.574-6.841l1.297 1 .008.006c-.32.196-.635.395-.952.594l-.008-.005-.345-.266-5.785 4.464-5.789-4.464-5.787 4.464-5.79-4.464-5.787 4.464-5.79-4.464-5.785 4.464-5.787-4.464-5.789 4.464-5.79-4.464-5.787 4.464-5.787-4.464-5.788 4.464-1.24-.956c.178-.305.354-.612.538-.914l.002.002.7.54 5.788-4.465 5.787 4.465 5.788-4.465 5.789 4.465 5.79-4.465 5.786 4.465 5.786-4.465 5.789 4.465 5.787-4.465 5.79 4.465 5.787-4.465 5.789 4.465 5.785-4.465zm11.577-6.841l1.99 1.535.008.007c-.369.155-.735.318-1.102.479l-.01-.007-.886-.685-3.652 2.82c-.855.43-1.705.87-2.545 1.328l-5.379-4.148-5.786 4.466-5.79-4.466-5.786 4.466-5.79-4.466-5.787 4.466-5.789-4.466-5.785 4.466-5.788-4.466-5.789 4.466-5.79-4.466-5.787 4.466-5.787-4.466-.613.474-.008.005c.35-.493.709-.978 1.064-1.466l.002.001 5.342 4.123 5.787-4.466 5.79 4.466 5.79-4.466 5.787 4.466 5.785-4.466 5.79 4.466 5.786-4.466 5.79 4.466 5.787-4.466 5.789 4.466 5.785-4.466 5.791 4.466 5.786-4.466zm11.576-6.84l4.775 3.683.01.008c-.437.104-.873.21-1.308.32l-.01-.008-3.467-2.674-5.787 4.465-5.79-4.465-5.784 4.465-5.792-4.465-5.785 4.465-5.789-4.465-5.787 4.465-5.79-4.465-5.787 4.465-5.79-4.465-5.785 4.465-5.787-4.465-5.789 4.465-5.79-4.465-5.787 4.465-2.723-2.1c.213-.28.422-.562.638-.837l.002.001 2.083 1.607 5.787-4.465 5.79 4.465 5.79-4.465 5.786 4.465 5.786-4.465 5.789 4.465 5.787-4.465 5.79 4.465 5.787-4.465 5.789 4.465 5.785-4.465 5.791 4.465 5.786-4.465 5.789 4.465 5.787-4.465zm11.577 0l2.557 1.973.01.008c-.487.063-.972.134-1.457.205l-.011-.009-1.1-.848-1.672 1.291-.017.013c-.765.135-1.527.28-2.286.434l.018-.013 3.958-3.054zm11.576 0l1.595 1.231.012.01c-1.118.014-2.233.043-3.341.097l.013-.01 1.72-1.328zm0-6.84l2.775 2.141v1.33l-2.775-2.142-5.788 4.465-5.788-4.465-5.787 4.465-5.79-4.465-5.788 4.465-5.788-4.465-5.785 4.465-5.791-4.465-5.786 4.465-5.789-4.465-5.787 4.465-5.79-4.465-5.787 4.465-5.79-4.465-5.785 4.465-5.786-4.465-5.79 4.465-5.79-4.465-2.473 1.908-.013.01c.905-1.025 1.825-2.038 2.758-3.037l.003.002 5.515 4.253 5.79-4.465 5.786 4.465 5.786-4.465 5.789 4.465 5.787-4.465 5.79 4.465 5.787-4.465 5.79 4.465 5.784-4.465 5.792 4.465 5.785-4.465 5.788 4.465 5.788-4.465 5.79 4.465 5.787-4.465 5.788 4.465 5.788-4.465zm0-6.84l2.775 2.141v1.33l-2.775-2.142-5.788 4.465-5.788-4.465-5.787 4.465-5.79-4.465-5.788 4.465-5.788-4.465-5.785 4.465-5.791-4.465-5.786 4.465-5.789-4.465-5.787 4.465-5.79-4.465-5.787 4.465-5.79-4.465-5.785 4.465-5.786-4.465-5.79 4.465-2.475-1.909c.246-.253.495-.505.745-.754l.003.002 1.727 1.332 5.79-4.465 5.786 4.465 5.786-4.465 5.789 4.465 5.787-4.465 5.79 4.465 5.787-4.465 5.79 4.465 5.784-4.465 5.792 4.465 5.785-4.465 5.788 4.465 5.788-4.465 5.79 4.465 5.787-4.465 5.788 4.465 5.788-4.465zm0-6.84l2.775 2.141v1.329l-2.775-2.141-5.788 4.464-5.788-4.464-5.787 4.464-5.79-4.464-5.788 4.464-5.788-4.464-5.785 4.464-5.791-4.464-5.786 4.464-5.789-4.464-5.787 4.464-5.79-4.464-5.787 4.464-5.79-4.464-5.785 4.464-4.756-3.669-.002-.002.821-.695.003.002 3.934 3.035 5.786-4.464 5.789 4.464 5.787-4.464 5.79 4.464 5.787-4.464 5.79 4.464 5.784-4.464 5.792 4.464 5.785-4.464 5.788 4.464 5.788-4.464 5.79 4.464 5.787-4.464 5.788 4.464 5.788-4.464zm0-6.84l2.775 2.14v1.33l-2.775-2.142-5.788 4.464-5.788-4.464-5.787 4.464-5.79-4.464-5.788 4.464-5.788-4.464-5.785 4.464-5.791-4.464-5.786 4.464-5.789-4.464-5.787 4.464-5.79-4.464-5.787 4.464-5.79-4.464-5.785 4.465-.457-.354c2.21-1.74 4.478-3.407 6.79-5.018l.002.001 5.24 4.041 5.787-4.464 5.79 4.464 5.787-4.464 5.79 4.464 5.784-4.464 5.792 4.464 5.785-4.464 5.788 4.464 5.788-4.464 5.79 4.464 5.787-4.464 5.788 4.464 5.788-4.464zm0-6.842l2.775 2.142v1.329l-2.775-2.142-5.788 4.465-5.788-4.465-5.787 4.465-5.79-4.465-5.788 4.465-5.788-4.464-5.785 4.464-5.791-4.465-5.786 4.466-5.789-4.466-5.787 4.465-5.79-4.465-5.787 4.465-1.427-1.1c.309-.205.616-.412.93-.613l.002.002.495.382 4.286-3.306c.569-.335 1.139-.668 1.713-.995l5.578 4.301 5.787-4.465 5.79 4.465 5.784-4.465 5.792 4.465 5.785-4.465 5.788 4.465 5.788-4.465 5.79 4.465 5.787-4.465 5.788 4.465 5.788-4.465zm0-6.84l2.775 2.142v1.33l-2.775-2.143-5.788 4.466-5.788-4.466-5.787 4.466-5.79-4.466-5.788 4.466-5.788-4.466-5.785 4.466-5.791-4.466-5.786 4.466-5.789-4.466-5.787 4.466-1.397-1.078c.34-.18.68-.363 1.022-.54l.375.289 1.781-1.375.01-.008c1.634-.81 3.282-1.597 4.95-2.347l.002.001 4.833 3.729 5.785-4.466 5.792 4.466 5.785-4.466 5.788 4.466 5.788-4.466 5.79 4.466 5.787-4.466 5.788 4.466 5.788-4.466zm0-6.84l2.775 2.141v1.33l-2.775-2.142-5.788 4.465-5.788-4.465-5.787 4.465-5.79-4.465-5.788 4.465-5.788-4.465-5.785 4.465-4.037-3.112c.396-.138.796-.273 1.196-.407l.002.002 2.839 2.188 5.785-4.465 5.788 4.465 5.788-4.465 5.79 4.465 5.787-4.465 5.788 4.465 5.788-4.465zM130.108.858l-.002.001-4.255 3.283-2.996-2.31c.475-.077.952-.155 1.43-.226l.001.001 1.565 1.206 2.232-1.722c.674-.084 1.35-.16 2.025-.233zm12.647-.826l-.002.001-5.327 4.11-4.602-3.55c.513-.048 1.027-.098 1.543-.14l.001.002 3.058 2.358L140.96.088c.599-.022 1.196-.043 1.796-.056zm-27.267 3.174l-.003.002-1.211.934-.678-.522c.628-.144 1.26-.28 1.892-.414zM145.354 0l.636.49v1.33L143.66.021c.564-.01 1.129-.02 1.694-.022z" transform="translate(239 392)"/>
                            </g>
                        </g>
                    </g>
                    <g fill="#FFF">
                        <g>
                            <g>
                                <path d="M54.302 145.988H0C0 65.492 65.494 0 145.99 0v54.305c-50.556 0-91.688 41.132-91.688 91.683" transform="rotate(-180 265.49 171.035) rotate(90 145.978 146.016) translate(.007)"/>
                            </g>
                        </g>
                        <g>
                            <g>
                                <path d="M.019 144.471l.852.853-.666.666H0l.008-.76.011-.759zm6.075.022l1.116 1.117-.379.38H4.6l1.495-1.497zm9.217-2.6l1.116 1.118-2.975 2.979H11.22l4.091-4.096zm6.34.284l1.116 1.117-2.693 2.696h-2.232l3.809-3.813zm31.39 1.738l1.117 1.118-.956.957H50.97l2.072-2.075zm-15.838-4.038l1.116 1.117-4.465 4.47-1.116-1.118 4.465-4.47zm-6.34-.286l1.115 1.118-4.463 4.47-1.117-1.118 4.465-4.47zm21.897-2.023l1.117 1.118-4.465 4.469-1.117-1.117 4.465-4.47zm-6.34-.288l1.115 1.117-4.465 4.47-1.116-1.118 4.465-4.47zm-31.396-1.726l1.115 1.117-4.465 4.47-1.115-1.118 4.465-4.47zm-6.34-.287l1.116 1.117-4.465 4.47-1.116-1.117 4.465-4.47zM.187 138.57l.401.402-.433.434.032-.836zm30.394-5.333l1.115 1.117-4.465 4.47-1.115-1.118 4.465-4.47zm-6.34-.284l1.116 1.118-4.465 4.47-1.116-1.118 4.465-4.47zm21.892-2.017l1.115 1.118-4.465 4.47-1.115-1.118 4.465-4.47zm-6.34-.285l1.115 1.117-4.464 4.47-1.117-1.117 4.465-4.47zm-31.39-1.735l1.115 1.117-4.465 4.47-1.116-1.118 4.465-4.47zm46.945-.577l.55.55-.13.694-.124.695-3.645 3.649-1.116-1.118 4.465-4.47zm-53.29.292l1.116 1.117-2.527 2.529c.052-.554.107-1.108.165-1.66l.09-.829 1.156-1.157zm21.895-2.017l1.116 1.117-4.465 4.47-1.116-1.118 4.465-4.47zm-6.34-.287l1.116 1.118-4.465 4.47-1.116-1.119 4.465-4.469zM39.51 124.3l1.116 1.117-4.465 4.47-1.116-1.118 4.465-4.469zm-6.34-.283l1.116 1.117-4.465 4.47-1.116-1.118 4.465-4.47zm21.891-2.018l1.116 1.118-4.464 4.47-1.116-1.118 4.464-4.47zm-6.34-.285l1.116 1.117-4.464 4.47-1.116-1.118 4.465-4.469zm-31.39-1.735l1.116 1.117-4.465 4.47-1.116-1.117 4.466-4.47zm-6.344-.286l1.116 1.118-4.464 4.47-1.116-1.118 4.464-4.47zm-9.079 2.726l.987.988-1.35 1.351c.077-.52.157-1.04.239-1.56l.124-.779zm30.974-4.742l1.116 1.117-4.465 4.47-1.116-1.118 4.465-4.47zm-6.34-.287l1.116 1.117-4.465 4.47-1.115-1.118 4.464-4.469zm21.898-2.03l1.116 1.118-4.465 4.47-1.116-1.118 4.465-4.47zm-6.34-.283l1.116 1.118-4.465 4.469-1.117-1.117 4.466-4.47zm-31.391-1.726l1.115 1.118-4.464 4.47-1.116-1.118 4.465-4.47zm46.942-.577l1.115 1.118-4.463 4.47-1.117-1.118 4.465-4.47zm-53.287.288l1.116 1.118-2.536 2.539c.13-.637.266-1.271.406-1.904l.212-.95.802-.803zm21.896-2.022l1.117 1.117-4.465 4.47-1.116-1.118 4.464-4.47zm-6.343-.285l1.116 1.117-4.465 4.47-1.116-1.117 4.465-4.47zm21.895-2.018l1.115 1.118-4.465 4.469-1.116-1.117 4.466-4.47zm-6.34-.286l1.116 1.117-4.465 4.47-1.116-1.117 4.464-4.47zm21.897-2.029l1.116 1.118-4.464 4.469-1.116-1.118 4.464-4.469zm-6.34-.284l1.116 1.118-4.465 4.47-1.116-1.118 4.465-4.47zm-31.391-1.726l1.116 1.117-4.465 4.47-1.116-1.117 4.465-4.47zm-6.345-.289l1.116 1.118-4.465 4.469-1.115-1.117 4.464-4.47zm49.323 3.682l-.158.343-.156.344-.186-.187.5-.5zm-27.425-5.705l1.115 1.118-4.465 4.47-1.116-1.118 4.466-4.47zm-6.344-.284l1.115 1.117-4.464 4.47-1.116-1.118 4.465-4.47zm21.893-2.018l1.116 1.118-4.464 4.469-1.116-1.118 4.464-4.469zm-6.34-.287l1.117 1.118-4.465 4.47-1.116-1.118 4.465-4.47zm-31.389-1.736l1.116 1.118-4.464 4.469-1.116-1.117 4.464-4.47zm53.288-.292l1.116 1.117-4.465 4.47-1.116-1.117 4.465-4.47zm-6.34-.284l1.115 1.118-4.465 4.47-1.115-1.118 4.465-4.47zm-31.392-1.726l1.117 1.117-4.466 4.47-1.115-1.117 4.464-4.47zm-6.344-.289l1.116 1.118-4.465 4.47-1.116-1.118 4.465-4.47zM44.12 93.16l1.115 1.118-4.465 4.47-1.115-1.118 4.465-4.47zm-6.344-.284l1.116 1.117-4.465 4.47-1.116-1.118 4.465-4.47zm21.894-2.018l1.116 1.117-4.465 4.47-1.116-1.118 4.465-4.47zm-6.34-.286l1.116 1.116-4.465 4.47-1.115-1.117 4.464-4.47zm-31.39-1.736l1.117 1.116-4.465 4.47-1.116-1.117 4.464-4.47zm-6.341-.287l1.115 1.118-4.465 4.47-1.116-1.118 4.466-4.47zm53.29-.29l1.115 1.117-4.465 4.47-1.116-1.117 4.465-4.47zm3.284 3.342c-.266.362-.53.725-.792 1.09l-.39.55-.228-.229 1.41-1.41zm-34.677-5.068l1.117 1.117-4.465 4.47-1.116-1.118 4.464-4.47zm-6.343-.289l1.115 1.118-4.465 4.469-1.116-1.117 4.466-4.47zm21.896-2.023l1.116 1.118-4.465 4.47-1.115-1.118 4.464-4.47zm-6.343-.284l1.115 1.117-4.464 4.47-1.116-1.118 4.465-4.47zm-31.39-1.734l1.115 1.118-4.245 4.25c.452-1.034.914-2.063 1.389-3.085l.479-1.02 1.261-1.263zm53.283-.284l1.116 1.117-4.465 4.47-1.116-1.118L68.6 81.92zm-6.34-.287l1.116 1.118-4.464 4.469-1.116-1.117 4.465-4.47zm-31.39-1.736l1.117 1.118-4.465 4.469-1.116-1.117 4.465-4.47zm-6.341-.285l1.115 1.117-4.464 4.47-1.116-1.118 4.465-4.47zm53.29-.29l1.115 1.117-4.465 4.47-1.115-1.118 4.464-4.47zm-31.392-1.727l1.116 1.117-4.465 4.47-1.116-1.118 4.465-4.47zm-6.345-.288l1.117 1.116-4.465 4.47-1.116-1.117 4.464-4.47zm21.898-2.024l1.115 1.118-4.465 4.47-1.115-1.118 4.465-4.47zm-6.344-.284l1.116 1.117-4.465 4.47-1.116-1.118 4.465-4.47zm-31.39-1.733l1.115 1.117-4.465 4.47-1.115-1.118 4.465-4.47zm53.283-.286l1.116 1.118-4.465 4.47-1.115-1.118 4.464-4.47zm-6.339-.286l1.116 1.118-4.465 4.47-1.116-1.118 4.465-4.47zM39.8 70.957l1.116 1.117-4.465 4.47-1.115-1.118 4.464-4.469zm-6.341-.285l1.115 1.117-4.465 4.47-1.116-1.118 4.466-4.47zm53.289-.291l1.116 1.118-4.465 4.47-1.116-1.118 4.465-4.47zm-31.392-1.727l1.116 1.117-4.465 4.47-1.115-1.117 4.464-4.47zm-6.344-.288l1.116 1.118-4.465 4.469-1.116-1.117 4.465-4.47zm44.077 2.3l.231.231c-.373.263-.744.529-1.112.797l-.551.405 1.432-1.434zm-22.18-4.323l1.116 1.118-4.465 4.47-1.116-1.118 4.465-4.47zm-6.343-.284l1.115 1.117-4.464 4.47-1.117-1.117 4.466-4.47zm-31.392-1.733l1.117 1.117-4.465 4.47-1.115-1.118 4.463-4.47zm-6.337-.285l1.115 1.118-4.465 4.47-1.115-1.118 4.465-4.47zm59.622 0l1.115 1.117-4.464 4.469-1.116-1.117 4.465-4.47zm-6.34-.287l1.116 1.117-4.465 4.47-1.116-1.117 4.465-4.47zm-31.39-1.736l1.117 1.118-4.465 4.469-1.116-1.118 4.465-4.469zm-6.341-.286l1.115 1.118-4.464 4.47-1.116-1.118 4.465-4.47zm59.63-.006l1.116 1.118-4.465 4.47-1.116-1.118 4.465-4.47zm-6.34-.284l1.115 1.117-4.465 4.47-1.116-1.117 4.465-4.47zm-31.393-1.727l1.116 1.118-4.465 4.47-1.115-1.118 4.464-4.47zm-6.343-.288l1.115 1.117-4.465 4.47-1.115-1.117 4.465-4.47zm21.896-2.023l1.116 1.118-4.464 4.47-1.116-1.118 4.464-4.47zm-6.343-.284l1.116 1.117-4.465 4.47-1.116-1.118 4.465-4.47zm37.733 2.02l1.116 1.116-.584.584c-1.059.428-2.107.875-3.146 1.34l-.777.353 3.391-3.394zm-69.124-3.754l1.116 1.118-4.464 4.47-1.116-1.118 4.464-4.47zm-6.338-.283l1.116 1.117-4.465 4.47-1.116-1.118 4.465-4.47zm59.622-.002l1.115 1.117-4.465 4.47-1.115-1.118 4.465-4.47zm-6.34-.286l1.116 1.117-4.465 4.47-1.115-1.118 4.464-4.47zm-31.39-1.736l1.117 1.117-4.465 4.47-1.116-1.118 4.465-4.469zm-6.34-.285l1.115 1.117-4.465 4.47-1.116-1.118 4.465-4.47zm59.63-.006l1.115 1.117-4.464 4.47-1.117-1.118 4.466-4.47zm-6.342-.285l1.116 1.118-4.464 4.47-1.116-1.118 4.464-4.47zm-31.391-1.727l1.115 1.117-4.464 4.47-1.116-1.118 4.465-4.469zm-6.344-.288l1.116 1.118-4.465 4.47-1.116-1.118 4.465-4.47zm59.626-.003l1.116 1.117-4.465 4.47-1.116-1.117 4.465-4.47zm-6.34-.286l1.116 1.118-4.465 4.47-1.116-1.118 4.465-4.47zm-31.389-1.734l1.116 1.118-4.465 4.469-1.116-1.117 4.465-4.47zm-6.343-.284l1.115 1.117-4.464 4.47-1.117-1.118 4.466-4.47zm59.63-.004l1.115 1.117-4.465 4.47-1.115-1.118 4.465-4.47zm-6.34-.287l1.115 1.117-4.465 4.47-1.115-1.118 4.465-4.47zm-99.375 1.726l.257.257-3.264 3.267c.737-.895 1.487-1.777 2.246-2.652l.761-.872zm14.694-3.169l1.116 1.118-4.465 4.47-1.116-1.118 4.465-4.47zm-6.339-.284l1.116 1.118-4.465 4.47-1.115-1.118 4.464-4.47zm59.622 0l1.116 1.116-4.465 4.47-1.116-1.118 4.465-4.469zm-6.34-.287l1.117 1.117-4.465 4.47-1.116-1.118 4.465-4.47zM66.588 44.14l1.116 1.117-4.464 4.47-1.116-1.117 4.464-4.47zm-6.341-.285l1.115 1.117-4.464 4.47-1.116-1.118 4.465-4.47zm59.63-.006l1.116 1.117-4.465 4.47-1.115-1.118 4.464-4.47zm-6.34-.285l1.115 1.118-4.465 4.469-1.116-1.117 4.465-4.47zm-31.393-1.727l1.116 1.117-4.465 4.47-1.116-1.117 4.465-4.47zm-6.344-.288l1.116 1.118-4.465 4.47-1.115-1.118 4.464-4.47zm59.626-.003l1.116 1.117-4.465 4.47-1.116-1.118 4.465-4.47zm-6.34-.285l1.116 1.117-4.465 4.47-1.115-1.118 4.465-4.47zm-84.01-.778l.45.45-4.465 4.47-.45-.45c1.164-1.218 2.35-2.415 3.556-3.592l.908-.878zm52.621-.957l1.116 1.118-4.465 4.47-1.116-1.119 4.465-4.469zm-6.343-.284l1.115 1.117-4.464 4.47-1.116-1.117 4.465-4.47zm53.29-.292l1.116 1.118-4.466 4.47-1.115-1.118 4.465-4.47zm-84.68-1.442l1.115 1.118-4.465 4.47-1.116-1.118 4.465-4.47zm-6.34-.284l1.116 1.118-4.465 4.47-1.115-1.119 4.464-4.469zm59.622-.001l1.116 1.117-4.465 4.47-1.115-1.118 4.464-4.47zm-6.34-.286l1.117 1.117-4.465 4.47-1.116-1.118 4.465-4.47zM75.518 35.2l1.116 1.117-4.465 4.47-1.116-1.117 4.465-4.47zm-6.342-.286l1.116 1.118-4.465 4.47-1.116-1.118 4.465-4.47zm59.63-.005l1.116 1.117-4.465 4.47-1.115-1.118 4.465-4.47zm-6.34-.285l1.115 1.118-4.465 4.47L118 39.095l4.465-4.47zm-31.393-1.727l1.116 1.117-4.464 4.47-1.116-1.118 4.464-4.47zm-6.343-.288l1.115 1.118-4.464 4.469-1.116-1.117 4.465-4.47zm59.625-.003l1.116 1.117-4.465 4.47-1.115-1.118 4.464-4.47zm-6.34-.285l1.117 1.117-4.465 4.47-1.116-1.118 4.465-4.47zm-84.778.892l-3.247 3.25-.255-.255c.865-.761 1.736-1.515 2.617-2.257l.885-.738zm53.39-2.627l1.116 1.118-4.465 4.469-1.116-1.117 4.464-4.47zm-6.344-.284l1.116 1.117-4.464 4.47-1.117-1.118 4.465-4.469zm-31.39-1.734l1.115 1.118-4.465 4.47-1.115-1.118 4.465-4.47zm-6.34-.284l1.117 1.117-4.466 4.47-1.115-1.117 4.464-4.47zm59.622-.002l1.116 1.118-4.465 4.469-1.116-1.117 4.465-4.47zm-6.339-.286l1.116 1.118-4.465 4.47-1.115-1.118 4.464-4.47zm-31.389-1.735l1.116 1.117-4.465 4.47-1.116-1.118 4.465-4.47zm-6.342-.285l1.116 1.117-4.464 4.47-1.116-1.118 4.464-4.469zm59.631-.006l1.116 1.117-4.465 4.47-1.116-1.117 4.465-4.47zm-6.341-.285l1.115 1.118-4.464 4.469-1.116-1.117 4.465-4.47zm-31.392-1.727l1.115 1.117-4.465 4.47-1.115-1.118 4.465-4.47zm-6.344-.288l1.116 1.118-4.465 4.469-1.116-1.117 4.465-4.47zm52.331.667v2.235l-2.394 2.396-1.116-1.117 3.51-3.514zm-30.434-2.69l1.116 1.117-4.465 4.47-1.116-1.118 4.465-4.469zm-6.343-.284l1.115 1.117-4.464 4.47-1.116-1.117 4.465-4.47zM77.82 19.63l1.116 1.118-4.465 4.47-1.116-1.118 4.465-4.47zm-5.703.353l.48.48-4.465 4.47-1.116-1.118 1.865-1.866c.713-.446 1.43-.886 2.151-1.32l1.085-.646zm58.986-.639l1.115 1.118-4.465 4.47-1.115-1.119 4.465-4.469zm-6.34-.286l1.116 1.117-4.464 4.47-1.117-1.117 4.466-4.47zm-31.388-1.735l1.115 1.117-4.465 4.47-1.115-1.117 4.465-4.47zm-6.342-.285l1.116 1.117-4.465 4.47-1.116-1.118 4.465-4.47zm58.955.67v2.234l-2.673 2.677L142.2 21.5l3.79-3.793zm-5.665-.96l1.115 1.117-4.465 4.47-1.115-1.118 4.465-4.47zm-31.393-1.729l1.116 1.118-4.465 4.47-1.116-1.118 4.465-4.47zm-6.343-.287l1.115 1.118-4.464 4.469-1.116-1.117 4.465-4.47zm21.897-2.023l1.115 1.118-4.465 4.469-1.115-1.117 4.465-4.47zm-6.343-.284l1.115 1.117-4.465 4.47-1.115-1.118 4.465-4.469zm-30.51-.381l-4.23 4.234-1.116-1.117 1.245-1.246c1.016-.484 2.04-.955 3.069-1.415l1.031-.456zm52.4-1.639l1.117 1.117-4.465 4.47-1.116-1.117 4.465-4.47zm-6.338-.286l1.116 1.117-4.465 4.47-1.116-1.117 4.465-4.47zm-31.389-1.735l1.116 1.117-4.465 4.47-1.116-1.118 4.465-4.47zm-5.908.148l.682.684-4.465 4.47-1.115-1.117 3.524-3.528.686-.256.688-.253zm49.593 2.543v2.234l-.086.086-1.116-1.117 1.202-1.203zM117.86 6.08l1.116 1.118-4.465 4.47-1.116-1.118 4.465-4.47zm-6.343-.287l1.116 1.118-4.465 4.47-1.116-1.118 4.465-4.47zm21.897-2.022l1.116 1.116-4.465 4.47-1.116-1.117 4.465-4.47zm-6.343-.285l1.116 1.117-4.465 4.47-1.116-1.117 4.465-4.47zm18.919.956v2.234l-.377.376-1.116-1.117 1.493-1.493zm-3.367-3.262l1.116 1.117-4.465 4.47-1.116-1.117 4.465-4.47zm-17.849.213l-1.334 1.335-.975-.976 1.153-.184 1.156-.175zM139.412 0l-.418.418-.386-.387.402-.016.402-.015z" transform="rotate(-180 265.49 171.035)"/>
                            </g>
                        </g>
                    </g>
                    <g>
                        <g fill="url(#3uepchkzva)" transform="translate(239) rotate(90 145.978 146.016)">
                            <g>
                                <path d="M54.302 145.988H0C0 65.492 65.494 0 145.99 0v54.305c-50.556 0-91.688 41.132-91.688 91.683" transform="translate(.007)"/>
                            </g>
                        </g>
                        <g fill="#FFE100">
                            <path d="M54.302 145.988H0C0 65.492 65.494 0 145.99 0v54.305c-50.556 0-91.688 41.132-91.688 91.683" transform="translate(239)"/>
                        </g>
                    </g>
                    <g stroke="#0B308E" stroke-width="3">
                        <g>
                            <g>
                                <path d="M144.49 1.508v51.309c-25.097.398-47.817 10.767-64.362 27.312-16.546 16.544-26.916 39.264-27.314 64.36h0H1.508c.4-39.241 16.527-74.785 42.361-100.62C69.704 18.034 105.25 1.91 144.49 1.508h0z" transform="rotate(90 145.978 146.016) translate(.007)"/>
                            </g>
                        </g>
                    </g>
                    <path fill="#FFE100" d="M691.654 435.535v8h-8v-8h8zm8-8v8h-8v-8h8zm-8-8v8h-8v-8h8z"/>
                    <path fill="#FFF" d="M355.654 376.535v8h-8v-8h8zm-8-8v8h-8v-8h8zM182.654 138.535v8h8v-8h-8zm8-8v8h8v-8h-8z"/>
                    <circle cx="503.99" cy="146.035" r="27" fill="#FFF"/>
                    <circle cx="434.99" cy="431.035" r="27" fill="#D8D8E3"/>
                    <path fill="#FFF" d="M724.654 72.535v-8h16v8h-16zm0-16v8h-8v-8h8z"/>
                    <path fill="#FFE100" d="M500.654 490.535v8h-8v-8h8zm8-8v8h-8v-8h8zm-16-8v8h-8v-8h8z"/>
                </g>
            </g>
        </g>
    </g>
</svg>
