<svg xmlns="http://www.w3.org/2000/svg" xmlns:xlink="http://www.w3.org/1999/xlink" width="389" height="151" viewBox="0 0 389 151">
    <defs>
        <linearGradient id="0m6ck6i54a" x1="50%" x2="50%" y1="100%" y2="0%">
            <stop offset="0%" stop-color="#585BA6" stop-opacity=".498"/>
            <stop offset="100%" stop-color="#0B308E"/>
        </linearGradient>
        <filter id="meakhf4v7c" width="140.8%" height="140.8%" x="-20.4%" y="-20.4%" filterUnits="objectBoundingBox">
            <feGaussianBlur in="SourceAlpha" result="shadowBlurInner1" stdDeviation="30"/>
            <feOffset in="shadowBlurInner1" result="shadowOffsetInner1"/>
            <feComposite in="shadowOffsetInner1" in2="SourceAlpha" k2="-1" k3="1" operator="arithmetic" result="shadowInnerInner1"/>
            <feColorMatrix in="shadowInnerInner1" values="0 0 0 0 0.619607843 0 0 0 0 0.619607843 0 0 0 0 0.623529412 0 0 0 0.397476303 0"/>
        </filter>
        <path id="3il1f1cz5b" d="M54.759 147.215H0C0 66.043 66.044 0 147.216 0v54.761c-50.98 0-92.457 41.478-92.457 92.454"/>
    </defs>
    <g fill="none" fill-rule="evenodd">
        <g>
            <g>
                <g>
                    <g>
                        <g fill="url(#0m6ck6i54a)" transform="translate(-1051 -619) translate(0 120) translate(1051 499) translate(1.784 3.738) rotate(90 147.205 147.243)">
                            <g>
                                <path d="M54.759 147.215H0C0 66.043 66.044 0 147.216 0v54.761c-50.98 0-92.457 41.478-92.457 92.454" transform="translate(.007)"/>
                            </g>
                        </g>
                        <g transform="translate(-1051 -619) translate(0 120) translate(1051 499) translate(1.784 3.738)">
                            <use fill="#DBDCDC" xlink:href="#3il1f1cz5b"/>
                            <use fill="#000" filter="url(#meakhf4v7c)" xlink:href="#3il1f1cz5b"/>
                        </g>
                    </g>
                    <g fill="#FFE100">
                        <g>
                            <path d="M41.55 44.831l.002 102.385H39.96L39.957 46.5c.527-.56 1.057-1.116 1.592-1.668zm-4.726 5.112v97.273h-1.591v-95.44c.525-.615 1.056-1.226 1.591-1.833zM32.1 55.574v91.642h-1.592V57.61c.526-.683 1.056-1.362 1.592-2.036zm-4.722 6.245v85.397h-1.592V64.102c.526-.765 1.053-1.529 1.592-2.283zm-4.721 7.036l.001 78.361h-1.592V71.43c.52-.864 1.053-1.72 1.59-2.574zm-4.728 8.03v70.331h-1.592V79.887c.52-1.007 1.05-2.008 1.592-3.001zM8.48 98.018l.001 49.2H6.89v-44.479c.503-1.586 1.036-3.158 1.591-4.721zM55.725 31.97v102.042c-.62 4.314-.947 8.722-.947 13.204h-.646l.002-113.964c.527-.431 1.058-.858 1.591-1.282zM51 35.884l-.001 111.332h-1.592l.001-109.921c.53-.472 1.056-.947 1.592-1.41zm-4.724 4.28l.002 107.052h-1.592l-.001-105.524c.528-.513 1.056-1.024 1.591-1.529zM3.757 114.171v33.044H2.165v-25.094c.462-2.674.988-5.326 1.592-7.95zm9.448-27.84v60.884h-1.592V89.94c.514-1.212 1.047-2.414 1.592-3.61zm47.242-57.965l.002 86.96c-.572 1.549-1.103 3.117-1.593 4.703V29.542c.527-.397 1.06-.786 1.591-1.175zm4.726-3.331v79.62c-.55 1.057-1.08 2.125-1.591 3.205l-.001-81.727c.53-.367 1.058-.737 1.592-1.098zm4.727-3.048v74.614c-.544.827-1.076 1.662-1.593 2.508l.001-76.127c.528-.337 1.06-.665 1.592-.995zm4.723-2.812v70.87c-.54.683-1.072 1.372-1.592 2.07V20.1c.53-.31 1.059-.62 1.592-.923zm4.721-2.572l.002 67.916c-.539.582-1.07 1.17-1.593 1.767V17.444c.528-.283 1.06-.563 1.591-.84zm4.725-2.363v65.521c-.536.503-1.067 1.012-1.591 1.527l-.001-66.273c.53-.26 1.059-.52 1.592-.775zm4.727-2.15v63.532c-.536.438-1.066.882-1.592 1.332V12.79c.53-.238 1.06-.467 1.592-.698zm4.724-1.961V72c-.535.383-1.065.774-1.592 1.168V10.775c.53-.215 1.059-.436 1.592-.645zm4.722-1.755v60.46c-.533.335-1.065.674-1.591 1.019V8.937c.527-.193 1.06-.374 1.59-.562zm4.726-1.589v59.272c-.533.292-1.062.593-1.591.895V7.304c.53-.174 1.059-.35 1.591-.518zm4.724-1.404v58.266c-.533.254-1.064.511-1.591.774V5.838c.53-.155 1.059-.307 1.591-.456zm4.725-1.23V61.56c-.533.217-1.064.437-1.592.664V4.541c.528-.135 1.06-.26 1.592-.39zm4.72-1.074l.001 56.704c-.533.184-1.062.376-1.591.57l-.001-56.926c.53-.117 1.06-.236 1.592-.348zm4.726-.903v56.12c-.533.152-1.063.311-1.592.473V2.464c.53-.098 1.06-.196 1.592-.29zm4.726-.74V57.08c-.532.122-1.063.248-1.592.38V1.658c.529-.08 1.062-.149 1.592-.223zm4.724-.592v55.285c-.53.093-1.062.187-1.59.29l-.001-55.393c.53-.063 1.06-.125 1.591-.182zm4.72-.441V55.43c-.53.065-1.062.13-1.59.204V.54c.53-.046 1.059-.099 1.59-.14zm4.727-.273v54.85c-.53.037-1.062.073-1.591.12V.203c.53-.029 1.06-.051 1.591-.074zM145.485 0v54.77c-.531.01-1.063.02-1.592.038V.02c.53-.011 1.061-.013 1.592-.02z" transform="translate(-1051 -619) translate(0 120) translate(1051 499) translate(241.784 3.768)"/>
                        </g>
                    </g>
                </g>
            </g>
        </g>
    </g>
</svg>
