<svg xmlns="http://www.w3.org/2000/svg" width="180" height="58" viewBox="0 0 180 58">
    <g fill="none" fill-rule="evenodd">
        <g fill="#2C2C2F">
            <g>
                <path d="M44.916 7.139l8.23 3.536v10.139l-13.345-5.625-.39.254v22.822l.39.606 11.671 5.273.392-.25v-4.599l.39-.254 10.83 4.923.39.61v11.11L58.542 58 28.263 44.339l-.373-.607v-7.419l8.113-3.465.255-.109.155-.23.528-.796.158-.237V21.35l-.42-.28-.527-.346-.074-.051-.082-.034-8.106-3.381v-3.63l17.026-6.49zM.64 11.169l14.343 6.765-.5.752v11.01l.525.347L27.89 24.73V18.31l7.754 3.197-.388.162.389-.16.53.345v9.334l-.53.795-7.755 3.31-12.883 5.493-.525.795V52.71l-.526.796-8.486 3.84L0 54.762v-42.85l.639-.742zM155.27 44.71v3.404h-1.61v.882h1.72v1.261h-1.72v.878h2.229v1.278h-1.253l.86.622c-.475.344-1.025.702-1.54.982.598.356 1.292.624 2.09.776-.273.309-.645.868-.822 1.263-2.078-.547-3.383-1.77-4.181-3.643h-1.218v1.986l2.006-.406c-.072.367-.119.941-.119 1.248-2.626.612-3.045.716-3.297.892v.012c-.073-.356-.345-.957-.513-1.224.249-.176.61-.536.61-1.184v-1.324h-.992v-1.278h1.747v-.878h-1.498v-1.261h1.498v-.882h-1.747v.37c0 2.218-.19 5.533-1.446 7.624-.286-.243-.908-.636-1.263-.776 1.123-1.866 1.263-4.536 1.274-6.538V44.71h9.185zm-14.736 5.42c-.033.395-.072.777-.118 1.149h1.231v-.014h1.433s-.024.394-.047.572c-.192 2.208-.409 3.186-.755 3.584-.273.291-.548.394-.917.445-.312.037-.803.037-1.338.029-.025-.411-.182-.988-.395-1.368.442.051.873.063 1.076.063.168 0 .274-.025.393-.141.169-.176.325-.725.456-1.924h-1.377c-.404 1.532-1.251 2.793-3.15 3.595-.156-.379-.537-.918-.848-1.213 1.47-.547 2.174-1.374 2.53-2.382h-1.444v-1.246h1.743c.06-.372.096-.754.118-1.15h1.41zm-38.492-5.955v1.9h3.741v1.505h-3.741v1.63h4.599v1.505H102.7c1.04 1.416 2.664 2.768 4.25 3.51-.33.301-.784.917-1.026 1.309-1.406-.778-2.793-2.051-3.881-3.504v4.053h-1.517v-3.978c-1.084 1.403-2.485 2.64-3.88 3.417-.238-.38-.707-.996-1.051-1.311 1.602-.728 3.223-2.08 4.274-3.496H96V49.21h4.525v-1.63h-3.628v-1.504h3.628v-1.901h1.517zm12.107 0v1.582h4.526v1.477h-4.526v2.86l.18.29c.753-.74 1.24-1.847 1.49-3.072l1.377.268c-.108.472-.24.931-.407 1.364.703.573 1.538 1.276 1.996 1.722l-.992 1.032c-.348-.408-.967-.982-1.576-1.52-.264.461-.553.87-.874 1.201-.155-.153-.43-.356-.705-.547 1.066 1.427 2.71 2.7 4.43 3.391-.332.317-.81.955-1.048 1.374-1.46-.712-2.795-1.834-3.871-3.2v3.66h-1.481v-3.558c-1.075 1.34-2.425 2.449-3.86 3.148-.235-.38-.677-.993-1.011-1.31 1.972-.805 3.832-2.41 4.87-4.143v-2.96h-4.332v-1.477h4.333v-1.582h1.481zm12.012-.114c.145.409.311.907.42 1.326h4.392v1.274h-3.497l1.121.244c-.238.458-.5.905-.741 1.3h2.569v6.45c0 .676-.155.97-.6 1.148-.427.178-1.073.191-2.028.191-.06-.334-.215-.806-.382-1.11.574.026 1.255.026 1.431.01.195 0 .268-.062.268-.252v-5.216h-1.855v.331c0 .242.023.358.229.358h.583c.18 0 .54-.024.694-.076.01.346.036.663.081 1.009-.163.063-.487.087-.75.087h-.956c-.966 0-1.134-.483-1.134-1.388v-.32h-.847c-.143.946-.515 1.558-1.554 1.964h4.321v3.11h-3.448v.523h-1.18v-3.517c-.145.037-.288.076-.458.114-.084-.28-.333-.703-.561-.945v5.354h-1.36v-7.824h2.46c-.132-.384-.359-.882-.55-1.276l.79-.27h-3.262v-1.273h4.704c-.072-.33-.176-.663-.274-.958l1.374-.368zm12.658.115l1.31.382c-.131.307-.276.6-.439.893h3.558v1.248h-.73c-.289.727-.68 1.34-1.168 1.862.655.345 1.407.599 2.207.764-.309.307-.692.893-.898 1.275-.892-.242-1.716-.61-2.433-1.096-.731.486-1.577.842-2.52 1.122-.059-.14-.168-.319-.301-.522-.166.791-.378 1.543-.607 2.1l-.932-.482c.132-.47.275-1.122.396-1.771h-.634v4.498c0 .69-.106 1.074-.513 1.302-.409.229-.955.256-1.683.256-.05-.409-.24-1.01-.419-1.417.454.026.93.026 1.085.016.143 0 .193-.041.193-.181v-2.74c-.407.944-.91 1.797-1.47 2.372-.132-.445-.44-1.06-.67-1.467.67-.64 1.28-1.632 1.698-2.64h-1.483v-1.324h2.735c-.669-.435-1.563-.92-2.303-1.24l.87-.955c.298.115.633.255.968.422.275-.256.538-.534.777-.827h-2.89v-1.28h3.858l.217-.049.905.614c-.394.725-1.05 1.502-1.732 2.115.336.192.622.383.849.549l-.552.65h.552l.19-.064.847.307-.06.304c.551-.164 1.052-.355 1.496-.596-.323-.32-.609-.678-.874-1.06-.19.216-.394.421-.597.6-.25-.244-.799-.69-1.123-.892.955-.716 1.83-1.875 2.32-3.048zm-12.024 8.258h-2.317v1.023h2.317v-1.023zm27.437-.021h-1.853c.179.317.41.596.658.852.405-.256.847-.573 1.195-.852zm-43.989-5.1l1.386.279c-.12.486-.261.945-.43 1.391.443.406.919.853 1.195 1.172l-.966 1.033c-.191-.254-.502-.587-.823-.933-.41.716-.887 1.342-1.425 1.811-.227-.28-.776-.776-1.086-1.006 1.076-.815 1.806-2.177 2.149-3.748zm42.101 2.943h-1.779v.88h1.78v-.88zm-28.426-.83h-1.64v1.163c1.11-.204 1.495-.55 1.64-1.163zm28.426-1.31h-1.779v.88h1.78v-.88zm-25.193-1.455h-3.008c.214.42.466.919.597 1.248l-.763.297h2.554c.24-.486.487-1.075.62-1.545zm13.802.038h-1.801c.272.394.607.764 1.014 1.098.321-.32.585-.677.787-1.098zm12.884-.713h-6.317v.84h6.317v-.84zM99.836 22.151c1.21 0 2.25.416 3.094 1.236.846.825 1.273 1.83 1.273 2.99v2.11h-3.094v-2.162c0-.36-.13-.656-.395-.912-.27-.26-.585-.386-.96-.386-.378 0-.691.127-.955.382-.26.26-.39.556-.39.916v9.27c0 .359.13.655.39.906.262.254.577.378.955.378.375 0 .69-.124.96-.378.266-.25.395-.547.395-.905v-2.51h3.094v2.539c0 1.17-.434 2.177-1.286 2.99-.856.812-1.89 1.224-3.08 1.224-1.21 0-2.254-.416-3.101-1.23-.85-.819-1.281-1.825-1.281-2.984v-9.247c0-1.17.433-2.18 1.288-3 .85-.818 1.895-1.227 3.093-1.227zm66.821 0c1.209 0 2.25.416 3.094 1.236.844.825 1.271 1.83 1.271 2.99v2.11h-3.094v-2.162c0-.36-.128-.656-.393-.912-.27-.26-.585-.386-.962-.386-.38 0-.691.127-.953.382-.263.26-.389.556-.389.916v9.27c0 .359.126.655.389.906.262.254.573.378.953.378.378 0 .693-.124.962-.378.265-.25.393-.547.393-.905v-2.51h3.094v2.539c0 1.17-.43 2.177-1.286 2.99-.854.812-1.89 1.224-3.079 1.224-1.209 0-2.251-.416-3.1-1.23-.851-.819-1.282-1.825-1.282-2.984v-9.247c0-1.17.43-2.18 1.29-3 .85-.818 1.893-1.227 3.092-1.227zm-57.001-.028c1.209 0 2.251.416 3.097 1.24.85.823 1.281 1.83 1.281 2.988v9.244c0 1.17-.43 2.182-1.288 2.997-.85.82-1.891 1.233-3.09 1.233-1.212 0-2.253-.416-3.097-1.24-.844-.82-1.275-1.83-1.275-2.99V26.35c0-1.17.434-2.179 1.291-2.996.853-.816 1.889-1.232 3.08-1.232zm46.648.216c1.522 0 2.662.415 3.385 1.235.634.712.958 1.715.958 2.982v2.459c0 1.212-.469 2.252-1.399 3.101l1.994 7.508h-3.221l-1.611-6.383h-1.461v6.383h-2.998V22.339zm-5.83-.014v2.917h-4.896v4.275h3.58v2.916h-3.58v4.271h4.896v2.92h-7.892V22.324h7.892zm29.526.002v2.916h-4.896v4.273h3.576v2.917h-3.576v4.273H180v2.916h-7.891V22.327H180zm-47.031 0l2.327 11.461 2.231-11.461h3.97v17.295h-2.995v-9.204l-1.989 9.204h-2.407l-2.26-9.344v9.344h-2.998V22.327h4.12zm-13.734 0l2.327 11.461 2.235-11.461h3.97v17.295h-2.997v-9.204l-1.989 9.204h-2.406l-2.26-9.344v9.344h-2.996V22.327h4.116zm-9.65 2.687c-.383 0-.693.125-.963.379-.263.249-.395.546-.395.905v9.27c0 .357.132.656.395.908.27.25.58.377.963.377.377 0 .688-.126.954-.377.26-.252.388-.549.388-.907v-9.27c0-.36-.128-.657-.388-.91-.266-.25-.577-.375-.954-.375zM82.53 6.585V35.81H55.639V6.585h26.89zm.871.002l5.685 8.592V27.06l-5.685 8.747V6.587zm72.975 18.709h-1.427v5.07h1.427c.379 0 .69-.124.95-.38.264-.259.392-.559.392-.919v-2.472c0-.885-.427-1.3-1.342-1.3zm-79.469-8.92c-.656 0-1.227.228-1.7.682-.476.45-.715 1.008-.715 1.657v4.991c0 .643.237 1.199.705 1.656.467.452 1.04.684 1.71.684.662 0 1.237-.23 1.708-.68.473-.454.713-1.01.713-1.66v-4.99c0-.645-.24-1.201-.708-1.655-.469-.453-1.044-.685-1.713-.685zm-14.247.11h-4.373v9.452h4.373v-1.693h-2.643v-2.19h1.932v-1.69h-1.932v-2.19h2.643v-1.69zm9.023.008h-2.408v9.444h1.73v-3.442h.678c.657 0 1.227-.232 1.691-.686.466-.459.7-1.013.7-1.659v-1.327c0-.663-.207-1.219-.617-1.65-.44-.454-1.04-.68-1.774-.68zm-6.77 0h-1.91l1.924 4.695-1.922 4.75h1.863l1.002-2.642.995 2.641h1.865l-1.927-4.749 1.927-4.695h-1.912l-.948 2.547-.957-2.547zm11.959 1.558c.186 0 .341.06.474.186.128.124.19.271.19.45v5.001c0 .177-.062.327-.19.45-.264.253-.691.254-.957 0-.131-.124-.198-.273-.198-.45v-5c0-.178.067-.327.198-.451.135-.126.291-.186.483-.186zm-5.15.152c.208 0 .368.06.487.177.123.116.182.268.182.466v1.335c0 .175-.064.325-.195.452-.133.127-.286.192-.475.192h-.716v-2.622zm35.75-16.489v13.242c0 .36.129.656.394.908.27.255.584.379.96.379.38 0 .692-.124.956-.379.262-.252.39-.549.39-.908V1.715h3.109v13.269c0 1.185-.436 2.19-1.292 2.994-.852.807-1.891 1.21-3.09 1.21-1.21 0-2.25-.41-3.096-1.224-.844-.813-1.272-1.815-1.272-2.98V1.715h2.94zm18.557 0v13.242c0 .36.13.656.396.908.269.255.58.379.961.379.377 0 .69-.124.952-.379.264-.252.392-.549.392-.908V1.715h3.105v13.269c0 1.185-.432 2.19-1.288 2.994-.852.807-1.89 1.21-3.09 1.21-1.21 0-2.25-.41-3.094-1.224-.846-.813-1.276-1.815-1.276-2.98V1.715h2.942zm-22.122 0v2.918h-4.893v4.272h3.575v2.919h-3.575v7.19h-2.998v-17.3h7.89zm46.568 0v2.917h-4.896v4.274h3.58v2.918h-3.58v4.27h4.896v2.92h-7.893V1.716h7.893zm-13.489-.001c1.522 0 2.66.416 3.383 1.236.636.713.957 1.715.957 2.982v2.46c0 1.208-.47 2.251-1.397 3.1L141.925 19h-3.227l-1.608-6.38h-1.46V19h-2.997V1.714zm-14.52.002v2.917h-2.807V19h-2.995V4.633h-2.821V1.716h8.624zM28.283 0l15.383 6.604-27.949 10.694-14.152-6.622L28.282 0zm108.773 4.672h-1.424v5.071h1.424c.378 0 .69-.126.952-.382.265-.257.392-.554.392-.917v-2.47c0-.886-.428-1.302-1.344-1.302zM68.481 1.78v4.098l-12.843-.004L68.481 1.78z" transform="translate(-130 -31) translate(130 31)"/>
            </g>
        </g>
    </g>
</svg>
