<svg xmlns="http://www.w3.org/2000/svg" xmlns:xlink="http://www.w3.org/1999/xlink" width="935" height="602" viewBox="0 0 935 602">
    <defs>
        <path id="l52evv5j1a" d="M186.377 52.156s-38.143-13.852-87.154-12.775c-57.774 1.27-85.261 42.57-97.047 69.4-2.203 5-1.744 10.773 1.222 15.362s8.04 7.378 13.504 7.423l52.627.42 70.12.594 12.279-41.402 49.378 2.921c13.986.829 26.503-8.626 29.53-22.306l13.832-62.569-33.928-9-24.363 51.932z"/>
        <path id="rgj2vmi0kc" d="M140.892 68.066l-32.057 4.736 6.502 48.633-66.746 1.648 7.68 46.93-55.29 7.11c-7.233-54.137 34.53-134.105 34.53-134.105l1.536 9.27c5.78-11.298 11.401-18.255 41.231-17.472 30.056.794 39.07 1.777 39.07 1.777l-6.27-28.074L140.222.215l13.417 48.224c1.203 4.313.495 8.935-1.944 12.69-2.438 3.756-6.373 6.282-10.803 6.937z"/>
    </defs>
    <g fill="none" fill-rule="evenodd">
        <g>
            <g>
                <g>
                    <g transform="translate(-128 -1458) translate(131.06 1367) translate(0 92.323) translate(0 82.533)">
                        <circle cx="444.258" cy="109.745" r="77.787" fill="#E9EEF2" fill-rule="nonzero"/>
                        <path fill="#E9EEF2" fill-rule="nonzero" d="M547.055 410.678L341.456 410.678 419.412 103.565 469.099 103.565zM674.935 102.725L674.935 207.903 601.435 207.903 601.435 129.362 628.078 102.725z"/>
                        <path fill="#DCE2E5" fill-rule="nonzero" d="M628.078 102.725L628.078 129.362 601.435 129.362z"/>
                        <circle cx="638.188" cy="148.009" r="9.236" fill="#DCE2E5" fill-rule="nonzero"/>
                        <path fill="#DCE2E5" fill-rule="nonzero" d="M650.394 183.737L625.982 183.737 635.238 147.275 641.138 147.275z"/>
                        <path fill="#E9EEF2" fill-rule="nonzero" d="M658.095 119.489L658.095 224.666 584.595 224.666 584.595 146.126 611.237 119.489z"/>
                        <path fill="#DCE2E5" fill-rule="nonzero" d="M611.237 119.489L611.237 146.126 584.595 146.126z"/>
                        <circle cx="621.342" cy="164.772" r="9.236" fill="#DCE2E5" fill-rule="nonzero"/>
                        <path fill="#DCE2E5" fill-rule="nonzero" d="M633.548 200.501L609.136 200.501 618.392 164.038 624.292 164.038z"/>
                        <rect width="18.265" height="106.476" x="255.47" y="117.668" fill="#DCE2E5" fill-rule="nonzero" rx="9.133" transform="rotate(-180 264.603 170.907)"/>
                        <path fill="#DCE2E5" fill-rule="nonzero" d="M250.982 183.952c3.624 0 6.562 2.938 6.562 6.562v25.16c0 3.624-2.938 6.561-6.562 6.561-3.623 0-6.561-2.937-6.561-6.561v-25.16c0-3.624 2.938-6.562 6.561-6.562z" transform="rotate(-90 250.982 203.094)"/>
                        <path fill="#DCE2E5" fill-rule="nonzero" d="M257.247 168.852c3.624 0 6.561 2.938 6.561 6.562v17.478c0 3.624-2.937 6.561-6.561 6.561s-6.562-2.937-6.562-6.561v-17.478c0-3.624 2.938-6.562 6.562-6.562z" transform="rotate(-90 257.247 184.153)"/>
                        <path fill="#DCE2E5" fill-rule="nonzero" d="M264.6 79.815c7.632-.002 14.514 4.594 17.436 11.645 2.922 7.05 1.309 15.167-4.087 20.564-5.396 5.398-13.512 7.013-20.563 4.093-7.052-2.92-11.65-9.801-11.65-17.433.011-10.415 8.45-18.856 18.864-18.869m0-15.45c-18.953 0-34.319 15.365-34.319 34.319s15.366 34.319 34.32 34.319c18.953 0 34.318-15.365 34.318-34.32 0-18.953-15.365-34.318-34.319-34.318z"/>
                        <path fill="#E9EEF2" fill-rule="nonzero" d="M673.955-6.098c4.352 0 7.88 3.528 7.88 7.88v76.121c0 4.352-3.528 7.88-7.88 7.88s-7.88-3.528-7.88-7.88V1.782c0-4.352 3.528-7.88 7.88-7.88z" transform="rotate(90 673.955 39.842)"/>
                        <rect width="11.322" height="33.035" x="696.073" y="35.077" fill="#E9EEF2" fill-rule="nonzero" rx="5.661" transform="rotate(-180 701.734 51.594)"/>
                        <rect width="11.322" height="26.405" x="679.725" y="32.991" fill="#E9EEF2" fill-rule="nonzero" rx="5.661" transform="rotate(-180 685.386 46.194)"/>
                        <path fill="#E9EEF2" fill-rule="nonzero" d="M611.647 25.676c5.728 0 10.891 3.45 13.083 8.742 2.192 5.292.98 11.383-3.07 15.433-4.05 4.05-10.14 5.262-15.432 3.07-5.292-2.192-8.742-7.356-8.742-13.083.01-7.817 6.345-14.15 14.161-14.162m0-15.45c-16.353.003-29.608 13.261-29.606 29.615.001 16.353 13.26 29.609 29.613 29.608 16.353 0 29.61-13.258 29.61-29.611 0-7.855-3.121-15.387-8.675-20.94-5.555-5.554-13.088-8.673-20.942-8.672z"/>
                        <circle cx="94.435" cy="290.687" r="27.337" fill="#DCE2E5" fill-rule="nonzero"/>
                        <circle cx="73.157" cy="48.103" r="37.81" fill="#E9EEF2" fill-rule="nonzero"/>
                        <path fill="#DCE2E5" fill-rule="nonzero" d="M139.004 444.895L49.866 444.895 66.871 372.091 71.897 350.576 83.663 300.199 105.207 300.199 116.973 350.576 121.999 372.091z"/>
                        <ellipse cx="777.182" cy="154.641" fill="#E9EEF2" fill-rule="nonzero" rx="20.719" ry="20.5"/>
                        <path fill="#E9EEF2" fill-rule="nonzero" d="M811.38 227.141L742.984 227.141 768.917 160.141 785.448 160.141z"/>
                        <circle cx="716.125" cy="317.493" r="36.815" fill="#E9EEF2" fill-rule="nonzero"/>
                        <path fill="#E9EEF2" fill-rule="nonzero" d="M764.779 459.921L667.471 459.921 704.368 314.567 727.881 314.567z"/>
                        <g stroke="#E9EEF2" stroke-width="6.186" transform="translate(894.655 284.94)">
                            <circle cx="17.459" cy="16.416" r="16.416"/>
                            <path d="M11.819 31.837L0 66.108M.246 63.467L9.806 66.851M4.427 53.274L12.481 56.157"/>
                        </g>
                        <circle cx="164.28" cy="13.64" r="13.64" stroke="#E9EEF2" stroke-width="6.186"/>
                        <path stroke="#E9EEF2" stroke-width="6.186" d="M173.608 23.6L194.606 45.207M192.737 44.033L198.83 38.21M186.741 37.114L191.897 32.219"/>
                        <circle cx="599.041" cy="313.264" r="13.157" stroke="#E9EEF2" stroke-width="6.186"/>
                        <path stroke="#E9EEF2" stroke-width="6.186" d="M606.582 324.05L622.791 348.167M622.057 346.168L615.35 350.76M616.722 339.133L611.073 343.025M0 296.544L41.904 338.448M791.762 35.344L815.44 59.643M153.778 223.126L195.687 265.03M869.638 417.723L911.547 459.627M299.185 7.923L341.089 49.827M195.084 109.011L154.382 149.713M624.683 427.779L583.986 468.481M224.265 429.841L259.622 465.198"/>
                        <path fill="#E9EEF2" fill-rule="nonzero" d="M56.664 59.464H89.64500000000001V169.397H56.664zM641.249 136.252L641.249 241.43 567.749 241.43 567.749 162.889 594.391 136.252z"/>
                        <path fill="#DCE2E5" fill-rule="nonzero" d="M594.391 136.252L594.391 162.889 567.749 162.889z"/>
                        <circle cx="604.501" cy="181.536" r="9.236" fill="#DCE2E5" fill-rule="nonzero"/>
                        <path fill="#DCE2E5" fill-rule="nonzero" d="M616.707 217.265L592.296 217.265 601.551 180.802 607.451 180.802z"/>
                        <path stroke="#FFF" stroke-linecap="square" stroke-width="1.856" d="M594.391 136.252L641.249 136.252M641.249 226.028L641.249 136.252M611.237 119.489L658.095 119.489M658.095 207.903L658.095 119.489"/>
                        <path fill="#FFBA5F" fill-rule="nonzero" d="M168.303 391.329c0 5.937-4.81 10.752-10.748 10.757H59.871l5.026-21.53h92.658c2.854.002 5.59 1.138 7.607 3.159 2.016 2.02 3.146 4.76 3.14 7.614z"/>
                        <path fill="#FFBA5F" fill-rule="nonzero" d="M190.667 370.215c11.66.003 21.11 9.457 21.109 21.117-.002 11.66-9.455 21.111-21.116 21.11-11.66 0-21.112-9.453-21.112-21.113.014-11.658 9.462-21.103 21.119-21.114m0-19.313c-22.327 0-40.427 18.1-40.427 40.427 0 22.327 18.1 40.426 40.427 40.426 22.327 0 40.426-18.1 40.426-40.426-.002-22.326-18.1-40.424-40.426-40.427z"/>
                    </g>
                    <g transform="translate(-128 -1458) translate(131.06 1367) translate(0 92.323) translate(62.114)">
                        <path fill="#274992" fill-rule="nonzero" d="M433.197 575.45l21.437-176.418 10.139 46.35-7.807 130.068h58.88l8.29-142.915c.57-9.798-.362-19.626-2.762-29.143L490.208 279.79l-99.031-.792-.353 145.884L375.76 575.45h57.437z"/>
                        <path stroke="#FFF" stroke-linecap="square" stroke-width="1.856" d="M454.928 402.866L461.577 333.214"/>
                        <path fill="#3361C2" fill-rule="nonzero" d="M567.865 149.042l-1.067-6.03c-.314-2.942-.475-5.897-.483-8.855 0-4.621 2.506-10.386-1.762-18.048-4.268-7.663 4.345-3.032 6.528.584 1.844 3.018 1.863 9.816 3.954 12.07.869-.625 1.644-1.371 2.303-2.216l14.485-24.28c.463-.813 1.454-1.159 2.322-.812l.966.391c.492.198.878.594 1.062 1.092.184.498.149 1.05-.097 1.52-2.757 5.311-11.4 20.96-11.105 21.07l.517.483 17.58-23.629c.542-.775 1.577-1.025 2.414-.584l1.308.7c.455.24.79.656.928 1.152.137.495.063 1.026-.204 1.465-3.38 5.649-16.416 23.851-16.126 23.977l.666.512 16.744-18.782c.575-.818 1.69-1.042 2.535-.507l1.005.642c.42.268.718.692.826 1.18.108.487.017.997-.252 1.418l-15.663 18.738.604.743 14.06-12.616c.63-.713 1.694-.841 2.477-.299l.482.333c.832.588 1.046 1.73.483 2.578-1.931 2.931-8.377 8.208-13.205 14.374-3.747 4.775-5.354 9.072-10.728 14.572-2.27 2.332-5.92 4.78-7.918 6.16"/>
                        <path fill="#162C56" fill-rule="nonzero" d="M460.263 575.45L449.13 597.641 549.243 597.641 507.541 575.45z"/>
                        <path fill="#162C56" fill-rule="nonzero" d="M379.154 575.45L368.025 597.641 468.133 597.641 426.432 575.45z"/>
                        <g transform="translate(350.558 147.21)">
                            <mask id="r7t024w1wb" fill="#fff">
                                <use xlink:href="#l52evv5j1a"/>
                            </mask>
                            <use fill="#EF6E45" fill-rule="nonzero" xlink:href="#l52evv5j1a"/>
                            <path stroke="#FFA161" stroke-linecap="round" stroke-width="19.177" d="M15.632 53.349L47.706 85.423M66.343 58.592L101.898 23.033M124.658 91.791L102.844 69.973M137.723 56.714L169.382 25.056M177.353 70.098L213.811 106.556M220.054 53.745L255.956 17.838M215.892 16.901L177.469-21.522M83.502 94.596L63.06 115.034M15.671 98.744L-19.672 134.086M114.485 124.483L141.919 151.917" mask="url(#r7t024w1wb)"/>
                            <path stroke="#FFF" stroke-linecap="square" stroke-width="8.661" d="M149.929 129.702L90.571 128.713" mask="url(#r7t024w1wb)"/>
                        </g>
                        <path stroke="#3361C2" stroke-linecap="round" stroke-linejoin="round" stroke-width="40.21" d="M456.782 134.557L455.271 189.734"/>
                        <path fill="#3361C2" fill-rule="nonzero" d="M465.473 174.496l2.936.063c6.912.147 13.53-2.793 18.057-8.02 4.526-5.226 6.488-12.197 5.355-19.018l-2.767-16.677c-1.846-11.125-11.415-19.318-22.692-19.428-6.162-.063-12.097 2.324-16.499 6.637-4.401 4.313-6.909 10.198-6.971 16.36l-.145 16.618c-.128 12.725 10.004 23.186 22.726 23.465z"/>
                        <path fill="#3361C2" fill-rule="nonzero" d="M443.82 138.14c4.72 0 8.544 3.825 8.544 8.543v4.848c0 4.718-3.825 8.543-8.543 8.543-4.719 0-8.544-3.825-8.544-8.543v-4.848c0-4.718 3.825-8.543 8.544-8.543z" transform="rotate(143.18 443.82 149.107)"/>
                        <path stroke="#FFF" stroke-linecap="square" stroke-width="1.856" d="M438.807 146.869L444.678 153.02M479.76 138.565L481.469 152.021 476.689 152.653"/>
                        <path fill="#FFF" fill-rule="nonzero" d="M464.638 157.882c-1.387 3.239.115 6.988 3.353 8.375 3.239 1.387 6.988-.115 8.375-3.353 1.385-3.235-1.99-4.346-5.23-5.736-3.24-1.39-5.112-2.52-6.498.714z"/>
                        <path fill="#24272D" fill-rule="nonzero" d="M451.645 151.982l4.268-24.961 1.01-5.925c1.59 1.414 3.402 2.556 5.363 3.38 7.122 3.032 27.468-.294 28.97-14.91 1.245-11.92-10.574-4.055-17.01-4.205-10.105-.241-17.594-5.494-30.606 3.158-15.58 10.361-5.833 31.383-5.833 31.383s6.982-3.447 13.838 12.08zM471.291 174.564L462.542 174.569 471.175 181.574z"/>
                        <circle cx="468.013" cy="141.998" r="2.39" fill="#FFF" fill-rule="nonzero"/>
                        <circle cx="485.385" cy="141.998" r="2.39" fill="#FFF" fill-rule="nonzero"/>
                        <path fill="#FFBA5F" fill-rule="nonzero" d="M374.513 362.792c7.33 0 13.273 5.942 13.273 13.273v210.06c0 7.331-5.943 13.273-13.273 13.273s-13.273-5.942-13.273-13.272V376.065c0-7.33 5.943-13.273 13.273-13.273z" transform="rotate(10.65 374.513 481.095)"/>
                        <path fill="#FFBA5F" fill-rule="nonzero" d="M374.49 539.108c7.33 0 13.273 5.943 13.273 13.273v22.543c0 7.33-5.942 13.273-13.272 13.273s-13.273-5.943-13.273-13.273V552.38c0-7.33 5.942-13.273 13.273-13.273z" transform="rotate(-79.35 374.49 563.652)"/>
                        <path fill="#FFBA5F" fill-rule="nonzero" d="M393.488 499.209c7.33 0 13.273 5.942 13.273 13.272v30.013c0 7.33-5.942 13.272-13.273 13.272-7.33 0-13.272-5.942-13.272-13.272V512.48c0-7.33 5.942-13.272 13.272-13.272z" transform="rotate(-79.35 393.488 527.487)"/>
                        <path fill="#FFBA5F" fill-rule="nonzero" d="M404.527 305.027c1.808.004 3.612.175 5.388.512 14.64 2.765 24.778 16.207 23.412 31.043-1.365 14.836-13.786 26.202-28.684 26.248-1.815-.003-3.625-.174-5.408-.512-14.64-2.765-24.779-16.208-23.412-31.045 1.366-14.837 13.79-26.202 28.69-26.246m0-30.418c-31.708.003-57.816 24.922-59.294 56.595-1.479 31.672 22.194 58.916 53.763 61.872 31.569 2.957 59.888-19.417 64.316-50.814 4.428-31.396-16.598-60.73-47.753-66.62-3.638-.687-7.331-1.033-11.033-1.033z"/>
                        <path fill="#3361C2" fill-rule="nonzero" d="M420.788 276.58l8.72 7.517s-3.172 22.581 6.933 22.581c0 0-.4 3.578 1.584 4.167s8.517-7.184 8.517-7.184 7.923-1.932 10.298-9.068c2.376-7.136 4.756-24.363 2.574-25.947-2.183-1.583-25.155-4.953-25.155-4.953s-9.705 0-13.471 12.886z"/>
                        <path stroke="#FFF" stroke-linecap="square" stroke-width="1.856" d="M438.884 261.317L402.339 242.55M409.678 245.587L434.317 222.064M501.086 247.402L505.441 230.272"/>
                        <path stroke="#FFF" stroke-linecap="square" stroke-width="1.856" d="M420.61 277.554s.67-13.861 18.945-15.933M470.678 436.842L464.754 445.383 471.272 452.369M378.744 388.159s7.725 3.317 12.264 4.345M348.066 579.781L354.009 548.682M355.496 542.343L358.171 528.481"/>
                    </g>
                    <g transform="translate(-128 -1458) translate(131.06 1367) translate(0 92.323) matrix(-1 0 0 1 344.192 128.965)">
                        <path fill="#3361C2" fill-rule="nonzero" d="M110.949 45.509L116.949 59.034 111.42 59.694"/>
                        <path stroke="#32373F" stroke-linecap="round" stroke-width="18.43" d="M142.264 51.59L163.565 54.073"/>
                        <ellipse cx="144.131" cy="51.933" fill="#2B292D" fill-rule="nonzero" rx="9.404" ry="4.986" transform="rotate(-83.36 144.131 51.933)"/>
                        <path stroke="#32373F" stroke-width="11.774" d="M113.949 48.145L142.182 51.401"/>
                        <ellipse cx="113.944" cy="48.139" fill="#2B292D" fill-rule="nonzero" rx="5.928" ry="2.964" transform="rotate(-83.36 113.944 48.14)"/>
                        <path fill="#3361C2" fill-rule="nonzero" d="M116.488 42.478s-.05-1.024 1.68-2.135c7.166-4.52 28.36-7.868 27.193 10.9-1.131 18.198-18.21 10.908-24.982 6.434-1.94-1.28-1.449-3.025-1.449-3.025s10.32 1.51 10.659-5.017c.338-6.527-13.1-7.157-13.1-7.157zM14.737 224.9s-2.795 16.478 1.024 23.313c3.819 6.834 10.018 10.597 16.136 9.813 2.959-.373 14.78-17.17 14.78-17.17L29.72 222.52l-14.984 2.38z"/>
                        <path fill="#162C56" fill-rule="nonzero" d="M89.366 471.353L17.445 471.353 22.877 449.806 55.036 449.453zM177.183 315.654L177.633 320.103 216.32 321.936 152.631 355.201 148.673 321.705z"/>
                        <g transform="translate(7.09 52.44)">
                            <mask id="y6fbxqrx1d" fill="#fff">
                                <use xlink:href="#rgj2vmi0kc"/>
                            </mask>
                            <use fill="#FFC774" fill-rule="nonzero" xlink:href="#rgj2vmi0kc"/>
                            <path fill="#B49AC9" fill-rule="nonzero" d="M9.67 125.536c0 5.262-9.528 20.697-9.528 20.697s-9.532-15.435-9.532-20.697c.12-5.177 4.351-9.312 9.53-9.312 5.178 0 9.41 4.135 9.53 9.312zM34.4 160.818c0 5.263-9.532 20.702-9.532 20.702s-9.527-15.44-9.527-20.702c.12-5.177 4.352-9.311 9.53-9.311 5.178 0 9.41 4.134 9.53 9.31zM38.967 93.243c0 5.263-9.527 20.703-9.527 20.703S19.908 98.5 19.908 93.243c.12-5.177 4.351-9.311 9.53-9.311 5.178 0 9.409 4.134 9.529 9.311zM65.782 57.956c0 5.262-9.532 20.697-9.532 20.697s-9.527-15.435-9.527-20.697c.12-5.177 4.351-9.312 9.53-9.312 5.178 0 9.409 4.135 9.529 9.312zM90.508 93.243c0 5.263-9.527 20.703-9.527 20.703S71.454 98.5 71.454 93.243c0-5.262 4.266-9.527 9.527-9.527 5.262 0 9.527 4.265 9.527 9.527zM95.08 25.668c0 5.263-9.532 20.703-9.532 20.703S76.02 30.92 76.02 25.668c.12-5.177 4.35-9.311 9.53-9.311 5.178 0 9.409 4.134 9.529 9.311zM123.789 56.46c0 5.263-9.527 20.698-9.527 20.698s-9.527-15.435-9.527-20.697c0-5.262 4.265-9.527 9.527-9.527 5.261 0 9.527 4.265 9.527 9.527zM153.087 24.163c0 5.263-9.527 20.703-9.527 20.703s-9.527-15.44-9.527-20.703c0-5.262 4.265-9.527 9.527-9.527 5.261 0 9.527 4.265 9.527 9.527z" mask="url(#y6fbxqrx1d)"/>
                        </g>
                        <path fill="#EA6F57" fill-rule="nonzero" d="M194.68 203.844l-12.122 114.268-38.528 8.231.082-101.756-49.458 9.507-36.388 215.712-39.807.558 13.904-228.52c.49-7.946 1.516-15.85 3.071-23.657l4.408-22.3 64.703-1.69 62.456-.908c7.887-.104 15.44 3.184 20.737 9.03 5.296 5.846 7.825 13.686 6.943 21.525z"/>
                        <path stroke="#FFF" stroke-width="1.536" d="M50.122 112.316l-9.768 63.571s-9.763 28.899-10.203 82.226"/>
                        <path stroke="#3361C2" stroke-linecap="round" stroke-linejoin="round" stroke-width="20.477" d="M78.544 44.894L79.588 87.272"/>
                        <path fill="#3361C2" fill-rule="nonzero" d="M89.228 76.373l2.237.317c5.257.747 10.573-.885 14.505-4.454 3.931-3.568 6.07-8.702 5.834-14.006l-.573-12.977c-.39-8.648-6.93-15.768-15.512-16.894-9.765-1.28-18.721 5.594-20.011 15.358l-1.659 12.66c-1.276 9.699 5.494 18.617 15.179 19.996z"/>
                        <path fill="#2B292D" fill-rule="nonzero" d="M.03 65.361c1.253 28.34 22.16 26.17 22.16 26.17S6.998 124.25 40.416 117.307c33.42-6.942 43.612-32.206 40.525-45.808-1.234-5.416.333-13.924-3.41-17.61 18.128-5.253 18.194-13.387 18.194-13.387s24.2 7.786 20.99-15.005C113.504 2.707 89.187-1.583 75.406.448c-2.906.436-5.728 1.31-8.37 2.596-8.524 4.06-14.739 10.213-26.523 11.928-32.564 4.746-23.59 25.085-23.59 25.085S-.815 46.189.029 65.36z"/>
                        <ellipse cx="108.026" cy="48.365" fill="#FFF" fill-rule="nonzero" rx="2.365" ry="1.899"/>
                        <path fill="#3361C2" fill-rule="nonzero" stroke="#FFF" stroke-linecap="square" stroke-width="1.536" d="M106.925 62.361s-2.61 0-2.672-2.667"/>
                        <path fill="#3361C2" fill-rule="nonzero" d="M89.31 61.337l.404-.281c3.016-2.15 4.045-6.921 2.284-10.607l-3.241-6.804c-1.761-3.68-5.667-4.94-8.703-2.795l-.4.287c-3.02 2.15-4.048 6.921-2.287 10.607l3.245 6.798c1.777 3.696 5.683 4.946 8.698 2.795z"/>
                        <path fill="#3361C2" fill-rule="nonzero" stroke="#FFF" stroke-linecap="square" stroke-width="1.536" d="M80.863 44.336L85.772 54.616"/>
                        <path stroke="#FFF" stroke-width="1.536" d="M95.161 235.271s-7.412.072-14.242-2.099c-8.313-2.641-10.986-4.986-10.986-4.986"/>
                        <path fill="#3361C2" fill-rule="nonzero" stroke="#FFF" stroke-linecap="square" stroke-width="1.536" d="M124.71 88.286L132.727 88.951"/>
                        <path stroke="#FFF" stroke-width="7.167" d="M41.004 172.165L133.249 170.118"/>
                    </g>
                </g>
            </g>
        </g>
    </g>
</svg>
