<svg xmlns="http://www.w3.org/2000/svg" xmlns:xlink="http://www.w3.org/1999/xlink" width="259.287" height="73.385"><defs><path id="a" d="M0 0h259.287v73.385H0z"/></defs><clipPath id="b"><use xlink:href="#a" overflow="visible"/></clipPath><path clip-path="url(#b)" fill="#12294B" d="M32.499 35.683c5.549-.91 15.185-5.109 15.185-17.791C47.684 1.317 36.068 0 20.884 0H0v1.198h.129c3.909 0 5.891 3.766 5.891 11.19v48.401c0 7.775-1.872 11.397-5.891 11.397H0v1.198h20.885c16.997 0 31.675 0 31.675-18.723 0-14.575-10.426-18.482-20.061-18.978m3.718-17.895c0 15.536-6.649 17.631-13.154 17.631h-6.098V1.614h4.437c7.327 0 14.815 1.922 14.815 16.174M16.965 37.031h6.098c7.015 0 17.616 0 17.616 17.214 0 17.525-9.032 17.525-18.596 17.525h-5.118V37.031zM221.173 13.896a5.02 5.02 0 0 0 5.015-5.017c0-2.813-2.202-5.016-5.015-5.016-2.859 0-5.018 2.158-5.018 5.016 0 2.814 2.204 5.017 5.018 5.017M228.947 70.33c-1.49-.828-2.153-2.103-2.401-4.448-.11-1.049-.143-2.313-.143-3.849l-.006-32.204v-8.778h-.001v-.005l-13.7 3.037.003.815c1.82.52 3.004 1.13 3.792 1.907.43.426.757.895.973 1.441.364.928.466 2.056.466 3.46v30.327c0 2.714-.04 4.634-.581 6.039a4.327 4.327 0 0 1-.456.864c-.02.031-.03.069-.051.101-.141.198-.327.367-.505.543-.085.083-.146.18-.241.257-.039.033-.094.056-.135.088-.566.436-1.279.8-2.219 1.104l.005.869h16.949l-.005-.864a8.024 8.024 0 0 1-1.744-.704M259.287 71.898l-.004-.865a7.9 7.9 0 0 1-1.772-.719c-1.374-.774-2.029-1.965-2.308-4.021-.15-1.131-.207-2.503-.207-4.26l-.005-34.4v-6.582h-.001v-.006l-13.703 3.038.004.815c1.854.53 3.046 1.154 3.833 1.954.169.171.342.341.474.531.158.228.279.478.391.736.019.044.049.081.066.126.365.928.466 2.056.466 3.461v30.327c0 2.713-.04 4.633-.581 6.039a4.428 4.428 0 0 1-.457.869c-.019.028-.029.064-.051.094-.148.212-.343.394-.536.578-.073.072-.126.156-.207.222-.054.046-.133.081-.19.124-.56.419-1.251.773-2.163 1.069l.005.833V71.897h16.946zM249.765 13.896a5.022 5.022 0 0 0 5.016-5.017c0-2.813-2.203-5.016-5.016-5.016-2.86 0-5.019 2.158-5.019 5.016 0 2.814 2.205 5.017 5.019 5.017M167.565 68.551c-4.915-.652-6.151-1.646-6.151-7.865V11.622l-15.704 2.431v.696l.128.009c5.664.43 5.662 1.827 5.653 8.544L151.46 56.5c-2.604 6.306-7.52 10.071-13.149 10.071-8.421 0-13.059-4.901-13.059-13.799V11.618l-16.688 2.438v.695l.129.009c6.761.541 6.761 1.703 6.76 9.264l-.002 28.549c-.01 3.519-.019 7.156 1.321 10.521.932 2.337 2.432 4.363 4.337 5.858 1.477 1.161 3.225 2.054 5.191 2.65 1.259.384 2.515.623 3.735.717.194.016.39.029.587.029h.095c13.7 0 20.367-10.938 20.433-11.049l.341-.572v9.654c0 .005.006.42.215.829.272.527.767.795 1.469.795.243 0 .51-.033.814-.098l13.699-2.486-.123-.87zM75.385 19.916c-.214-1.812-1.547-10.222-2.492-16.059h-8.507l5.675 16.059h5.324zM86.416 67.714c-8.271-.839-14.552-6.491-14.971-20.624h33.5c0-16.435-8.375-24.182-20.519-24.182-12.981 0-22.822 10.049-22.822 25.542 0 13.818 9.318 24.706 22.404 24.706 12.353 0 18.111-8.374 19.262-13.295l-1.257-.523c-1.883 5.13-9.316 9.003-15.597 8.376m-2.304-43.446c4.972 0 11.676 6.062 11.817 20.994H71.46c.159-12.913 6.757-20.994 12.652-20.994M203.313 63.961c-1.031 2.185-3.646 4.295-6.893 4.295-5.939 0-8.707-3.672-8.707-11.558V25.761h14.696l.083-.459h-.014l.251-1.364h.009v-.025h-15.025V7.616l-8.939 1.369v48.029c0 13.837 6.044 15.744 12.573 15.744 6.203 0 10.932-4.255 12.496-8.544l-.53-.253z"/><path clip-path="url(#b)" fill="#12294B" d="M202.504 25.302l.232-1.364-.246 1.364z"/></svg>