<svg xmlns="http://www.w3.org/2000/svg" xmlns:xlink="http://www.w3.org/1999/xlink" width="123.84" height="158"><defs><path id="a" d="M0 0h123.84v158H0z"/></defs><clipPath id="b"><use xlink:href="#a" overflow="visible"/></clipPath><path clip-path="url(#b)" fill="#FFF" d="M16.252 158C7.291 158 0 150.215 0 140.645V17.354C0 7.786 7.291 0 16.252 0s16.253 7.786 16.253 17.355v123.29c0 9.57-7.291 17.355-16.253 17.355M123.84 33.548c0 18.498-14.996 33.494-33.494 33.494S56.852 52.046 56.852 33.548 71.848.055 90.346.055 123.84 15.05 123.84 33.548M123.84 124.451c0 18.499-14.996 33.494-33.494 33.494s-33.494-14.995-33.494-33.494c0-18.498 14.996-33.493 33.494-33.493s33.494 14.995 33.494 33.493"/></svg>