<svg viewBox="0 0 168 34" version="1.1" xmlns="http://www.w3.org/2000/svg" xmlns:xlink="http://www.w3.org/1999/xlink"> <g id="beta-logo" stroke="none" stroke-width="1" fill="none" fill-rule="evenodd"> <path d="M2.628,15.432 L3.276,11.328 C4.212,10.824 6.264,10.464 7.632,10.464 L7.632,15.972 L12.636,15.972 C12.816,16.692 12.96,18.492 12.816,19.536 L7.632,19.536 L7.632,27.492 C7.632,29.472 8.46,30.084 9.936,30.084 C10.836,30.084 12.312,29.868 13.248,29.616 C13.284,29.796 13.284,29.976 13.284,30.048 C13.284,30.84 12.924,32.208 12.42,33 C11.052,33.756 8.856,34.152 7.524,34.152 C4.068,34.152 2.34,32.46 2.34,28.248 C2.34,25.908 2.448,22.38 2.7,19.536 L0,19.536 C0,18.672 0.288,16.98 0.648,16.224 C1.188,15.9 2.052,15.576 2.628,15.432 Z M22.68,21.768 L22.68,30.084 C23.364,30.192 24.48,30.444 25.02,30.732 C25.164,31.308 25.272,32.82 25.164,33.54 L14.796,33.54 C14.868,32.676 15.12,31.488 15.372,30.912 C15.876,30.516 16.776,30.156 17.46,29.904 L17.46,11.04 L14.94,11.04 C14.976,10.032 15.372,8.484 15.804,7.728 C16.74,7.296 18.324,7.008 19.872,7.008 C20.772,7.008 22.068,7.152 22.68,7.404 L22.68,12.84 C22.68,14.604 22.536,16.944 22.32,18.888 L22.86,18.888 C23.724,16.728 25.524,15.36 28.548,15.36 C31.536,15.36 34.416,16.26 34.416,21.948 C34.416,24.54 34.308,27.672 34.128,30.048 C34.884,30.156 36.036,30.444 36.684,30.732 C36.792,31.2 36.864,32.028 36.864,32.784 C36.864,33.072 36.864,33.288 36.828,33.54 L26.964,33.54 C27.036,32.676 27.216,31.488 27.432,30.912 C27.828,30.516 28.584,30.156 29.124,29.904 L29.124,22.92 C29.124,20.832 28.404,19.356 26.352,19.356 C24.624,19.356 23.436,20.508 22.68,21.768 Z M54.972,25.872 L44.388,25.872 C44.676,28.68 46.44,30.228 49.284,30.228 C50.904,30.228 53.64,29.76 54.936,29.292 C55.044,30.264 54.612,31.884 54.036,32.784 C52.704,33.504 50.472,34.152 47.916,34.152 C42.192,34.152 38.952,30.3 38.952,25.116 C38.952,19.428 42.588,15.36 48.204,15.36 C53.1,15.36 55.116,18.672 55.116,23.856 C55.116,24.468 55.044,25.224 54.972,25.872 Z M44.208,22.56 L50.04,22.56 C50.256,20.688 49.644,18.492 47.52,18.492 C45.684,18.492 44.388,20.184 44.208,22.56 Z M68.364,31.56 L68.04,31.56 C67.032,33.18 65.412,34.152 62.748,34.152 C60.12,34.152 57.564,32.388 57.564,28.788 C57.564,24.792 60.876,22.812 64.908,22.812 C65.952,22.812 66.996,23.028 67.86,23.388 L67.86,22.056 C67.86,20.184 66.78,19.392 64.692,19.392 C63.036,19.392 60.192,20.184 58.86,20.904 C58.788,20.616 58.716,19.968 58.716,19.644 C58.716,18.42 59.04,17.052 59.436,16.296 C60.768,15.792 63.72,15.36 65.916,15.36 C70.452,15.36 72.936,17.088 72.936,21.66 L72.936,27.708 C72.936,28.824 73.152,29.832 73.44,30.372 C74.124,30.372 75.168,30.228 75.78,30.084 C75.816,30.336 75.816,30.516 75.816,30.66 C75.816,31.452 75.564,32.352 75.204,33.072 C74.232,33.648 72.036,34.152 70.092,34.152 C69.3,33.756 68.652,32.712 68.364,31.56 Z M67.968,29.256 L67.968,25.872 C67.32,25.728 66.456,25.656 65.988,25.656 C63.9,25.656 62.784,26.664 62.784,28.212 C62.784,29.832 63.828,30.552 65.016,30.552 C66.42,30.552 67.392,29.904 67.968,29.256 Z M99.396,15.972 L104.184,15.972 C104.364,16.692 104.508,18.492 104.364,19.536 L99.396,19.536 L99.396,29.976 C100.476,30.084 102.096,30.408 102.888,30.732 C103.104,31.308 103.212,32.82 103.104,33.54 L91.512,33.54 C91.584,32.676 91.836,31.488 92.088,30.912 C92.592,30.516 93.492,30.12 94.176,29.904 L94.176,19.536 L84.852,19.536 L84.852,29.976 C85.896,30.084 87.516,30.408 88.272,30.732 C88.488,31.308 88.596,32.82 88.488,33.54 L76.968,33.54 C77.04,32.676 77.292,31.488 77.544,30.912 C78.048,30.516 78.948,30.12 79.632,29.904 L79.632,19.536 L76.896,19.536 C76.896,18.672 77.184,16.98 77.544,16.224 C78.048,15.9 79.02,15.54 79.632,15.396 L79.632,14.784 C79.632,9.456 82.728,7.08 87.552,7.08 C89.136,7.08 91.44,7.44 92.952,8.016 C93.06,8.484 93.096,9.132 93.096,9.672 C93.096,10.968 92.844,12.336 92.52,13.524 C91.404,13.452 89.424,13.056 88.524,12.624 L88.524,10.5 C88.164,10.32 87.66,10.212 87.228,10.212 C85.608,10.212 84.852,11.544 84.852,14.316 L84.852,15.972 L94.176,15.972 L94.176,14.388 C94.176,9.096 97.488,6.72 102.6,6.72 C104.292,6.72 106.596,7.08 108.108,7.656 C108.216,8.124 108.252,8.772 108.252,9.312 C108.252,10.608 108,11.94 107.676,13.164 C106.56,13.092 104.58,12.696 103.68,12.264 L103.68,10.14 C103.32,9.96 102.672,9.852 102.24,9.852 C100.476,9.852 99.396,11.292 99.396,13.92 L99.396,15.972 Z M116.316,31.56 L115.992,31.56 C114.984,33.18 113.364,34.152 110.7,34.152 C108.072,34.152 105.516,32.388 105.516,28.788 C105.516,24.792 108.828,22.812 112.86,22.812 C113.904,22.812 114.948,23.028 115.812,23.388 L115.812,22.056 C115.812,20.184 114.732,19.392 112.644,19.392 C110.988,19.392 108.144,20.184 106.812,20.904 C106.74,20.616 106.668,19.968 106.668,19.644 C106.668,18.42 106.992,17.052 107.388,16.296 C108.72,15.792 111.672,15.36 113.868,15.36 C118.404,15.36 120.888,17.088 120.888,21.66 L120.888,27.708 C120.888,28.824 121.104,29.832 121.392,30.372 C122.076,30.372 123.12,30.228 123.732,30.084 C123.768,30.336 123.768,30.516 123.768,30.66 C123.768,31.452 123.516,32.352 123.156,33.072 C122.184,33.648 119.988,34.152 118.044,34.152 C117.252,33.756 116.604,32.712 116.316,31.56 Z M115.92,29.256 L115.92,25.872 C115.272,25.728 114.408,25.656 113.94,25.656 C111.852,25.656 110.736,26.664 110.736,28.212 C110.736,29.832 111.78,30.552 112.968,30.552 C114.372,30.552 115.344,29.904 115.92,29.256 Z M127.656,19.68 L125.064,19.68 C125.1,18.672 125.496,17.124 125.928,16.368 C126.864,15.936 128.484,15.648 130.032,15.648 C130.968,15.648 132.264,15.792 132.876,16.044 L132.876,30.084 C133.632,30.192 134.82,30.444 135.432,30.732 C135.54,31.128 135.612,31.992 135.612,32.748 C135.612,33.036 135.612,33.288 135.576,33.54 L124.992,33.54 C125.064,32.676 125.316,31.488 125.568,30.912 C126.072,30.516 126.936,30.156 127.656,29.904 L127.656,19.68 Z M130.356,6 C132.192,6 133.488,7.116 133.488,9.096 C133.488,11.22 132.192,12.408 130.356,12.408 C128.268,12.408 127.152,11.256 127.152,9.096 C127.152,7.224 128.484,6 130.356,6 Z M144.432,19.428 L144.972,19.428 C145.368,17.52 147.096,15.36 149.616,15.36 C150.264,15.36 151.02,15.504 151.452,15.72 C151.92,16.368 152.172,17.628 152.172,18.852 C152.172,19.464 152.1,20.076 151.956,20.544 C151.2,20.112 149.904,19.932 149.22,19.932 C147.636,19.932 146.16,20.796 145.224,22.308 L145.224,29.976 C146.304,30.084 147.96,30.408 148.752,30.732 C148.968,31.308 149.076,32.82 148.968,33.54 L137.34,33.54 C137.412,32.676 137.664,31.488 137.916,30.912 C138.42,30.516 139.32,30.156 140.004,29.904 L140.004,19.68 L137.484,19.68 C137.484,18.672 137.808,17.16 138.276,16.368 C139.14,15.936 140.544,15.648 141.948,15.648 C142.812,15.648 143.892,15.792 144.432,16.044 L144.432,19.428 Z M162.9,20.364 L162.9,18.744 C162.504,18.528 161.928,18.348 161.316,18.348 C160.056,18.348 159.408,18.888 159.408,19.932 C159.408,23.46 167.868,21.624 167.868,28.32 C167.868,32.64 164.412,34.152 160.416,34.152 C158.004,34.152 155.808,33.792 153.936,32.784 C153.828,32.244 153.756,31.56 153.756,30.84 C153.756,29.688 153.9,28.5 154.116,27.78 C155.628,27.78 156.996,27.924 158.256,28.356 L158.256,30.336 C158.904,30.696 159.876,30.948 160.668,30.948 C162,30.948 162.756,30.444 162.756,29.292 C162.756,26.016 154.188,27.816 154.188,20.76 C154.188,17.556 156.816,15.36 161.28,15.36 C163.26,15.36 165.384,15.72 167.328,16.584 C167.364,16.944 167.4,17.412 167.4,17.844 C167.4,18.996 167.256,20.292 167.004,21.156 C165.492,21.156 163.872,20.796 162.9,20.364 Z" id="theaffairs" fill="#000000"></path> <path d="M137.14399,11.6737852 L137.14399,1.68401535 L136,1.68401535 C136.016113,1.31342711 136.161125,0.813938619 136.322251,0.523913043 C136.725064,0.362787724 137.353453,0.25 137.949616,0.25 C138.304092,0.25 138.73913,0.298337596 138.996931,0.395012788 L138.996931,2.77966752 C138.996931,3.58529412 138.932481,4.51982097 138.868031,5.26099744 L139.077494,5.26099744 C139.351407,4.6326087 140.060358,4.05255754 141.268798,4.05255754 C142.735038,4.05255754 144.378517,5.03542199 144.378517,7.98401535 C144.378517,10.6103581 142.686701,12.3505115 140.237596,12.3505115 C139.158056,12.3505115 138.062404,12.1410486 137.14399,11.6737852 Z M138.948593,6.30831202 L138.948593,10.9487212 C139.270844,11.0453964 139.68977,11.1098465 140.060358,11.1098465 C141.703836,11.1098465 142.445013,9.94974425 142.445013,8.20959079 C142.445013,6.42109974 141.671611,5.42212276 140.608184,5.42212276 C139.850895,5.42212276 139.270844,5.82493606 138.948593,6.30831202 Z M152.48312,8.53184143 L147.633248,8.53184143 C147.713811,10.0303069 148.66445,10.9164962 150.06624,10.9164962 C150.775192,10.9164962 151.854731,10.7070332 152.450895,10.4814578 C152.48312,10.819821 152.338107,11.3998721 152.144757,11.7060102 C151.564706,12.0282609 150.581841,12.3505115 149.502302,12.3505115 C147.085422,12.3505115 145.699744,10.6264706 145.699744,8.35460358 C145.699744,5.90549872 147.246547,4.05255754 149.61509,4.05255754 C151.677494,4.05255754 152.531458,5.48657289 152.531458,7.66176471 C152.531458,7.93567775 152.515345,8.24181586 152.48312,8.53184143 Z M147.601023,7.33951407 L150.710742,7.33951407 C150.807417,6.35664962 150.501279,5.18043478 149.341176,5.18043478 C148.358312,5.18043478 147.697698,6.06662404 147.601023,7.33951407 Z M154.626087,4.10089514 L154.9,2.31240409 C155.222251,2.13516624 155.931202,1.99015345 156.398465,1.99015345 L156.398465,4.32647059 L158.686445,4.32647059 C158.734783,4.56815857 158.799233,5.21265985 158.750895,5.56713555 L156.398465,5.56713555 L156.398465,9.59526854 C156.398465,10.5620205 156.656266,10.9326087 157.429668,10.9326087 C157.864706,10.9326087 158.46087,10.8359335 158.928133,10.7231458 C158.944246,10.8037084 158.944246,10.9326087 158.944246,10.9648338 C158.944246,11.2548593 158.84757,11.609335 158.686445,11.8832481 C158.058056,12.1893862 157.220205,12.3505115 156.591816,12.3505115 C155.206138,12.3505115 154.513299,11.6415601 154.513299,9.86918159 C154.513299,8.8702046 154.545524,7.03337596 154.626087,5.56713555 L153.465985,5.56713555 C153.465985,5.27710997 153.578772,4.69705882 153.707673,4.42314578 C153.965473,4.29424552 154.336061,4.16534527 154.626087,4.10089514 Z M164.551407,11.1581841 L164.438619,11.1581841 C164.003581,11.9154731 163.214066,12.3505115 162.134527,12.3505115 C160.958312,12.3505115 159.830435,11.6254476 159.830435,10.0786445 C159.830435,8.35460358 161.26445,7.48452685 162.972379,7.48452685 C163.455754,7.48452685 163.987468,7.58120205 164.374169,7.7584399 L164.374169,7.01726343 C164.374169,5.98606138 163.87468,5.50268542 162.907928,5.50268542 C162.182864,5.50268542 161.00665,5.87327366 160.426598,6.22774936 C160.378261,6.0988491 160.362148,5.85716113 160.362148,5.67992327 C160.362148,5.26099744 160.458824,4.79373402 160.603836,4.55204604 C161.167775,4.27813299 162.440665,4.05255754 163.359079,4.05255754 C165.244246,4.05255754 166.178772,4.85818414 166.178772,7.0011509 L166.178772,9.91751918 C166.178772,10.336445 166.259335,10.7392583 166.388235,10.9326087 C166.662148,10.9326087 167.177749,10.852046 167.483887,10.7714834 C167.5,10.852046 167.5,10.9326087 167.5,10.9809463 C167.5,11.2870844 167.403325,11.6254476 167.274425,11.8832481 C166.887724,12.1088235 165.985422,12.3505115 165.276471,12.3505115 C164.938107,12.1571611 164.648082,11.6737852 164.551407,11.1581841 Z M164.406394,10.3042199 L164.406394,8.66074169 C164.116368,8.58017903 163.665217,8.53184143 163.391304,8.53184143 C162.295652,8.53184143 161.683376,9.04744246 161.683376,9.82084399 C161.683376,10.6425831 162.263427,10.9970588 162.924041,10.9970588 C163.55243,10.9970588 164.116368,10.7070332 164.406394,10.3042199 Z" id="beta" fill="#D0021B"></path> </g> </svg>