<?xml version="1.0" encoding="UTF-8" standalone="no"?>
<svg width="96px" height="64px" viewBox="0 0 96 64" version="1.1" xmlns="http://www.w3.org/2000/svg" xmlns:xlink="http://www.w3.org/1999/xlink">
    <!-- Generator: Sketch 43.2 (39069) - http://www.bohemiancoding.com/sketch -->
    <title>controls</title>
    <desc>Created with Sketch.</desc>
    <defs></defs>
    <g id="Page-1" stroke="none" stroke-width="1" fill="none" fill-rule="evenodd">
        <g id="controls" transform="translate(0.000000, -1.000000)">
            <polygon id="Path-684" fill="#A5A2A1" points="86.2861328 0.96484375 86.2861328 11.9850296 95.394043 6.58154297"></polygon>
            <polygon id="Path-684-Copy" fill="#6F6F6F" points="86.2861328 11.9648438 86.2861328 22.9850296 95.394043 17.581543"></polygon>
            <rect id="Rectangle-7" fill="#6F6F6F" x="86" y="34" width="4" height="11"></rect>
            <rect id="Rectangle-7-Copy" fill="#6F6F6F" x="91" y="34" width="4" height="11"></rect>
            <rect id="Rectangle-7-Copy-3" fill="#D8D8D8" x="86" y="45" width="4" height="11"></rect>
            <rect id="Rectangle-7-Copy-2" fill="#D8D8D8" x="91" y="45" width="4" height="11"></rect>
            <g id="Group-12" transform="translate(44.000000, 1.000000)">
                <path d="M30.4038462,15.2019231 C30.4038462,23.5981538 23.597359,30.4038462 15.2019231,30.4038462 C6.80648718,30.4038462 0,23.5981538 0,15.2019231 C0,6.80569231 6.80648718,0 15.2019231,0 C23.597359,0 30.4038462,6.80569231 30.4038462,15.2019231" id="Fill-1" fill="#FFFFFF"></path>
                <polyline id="Stroke-3" stroke="#666666" stroke-width="1.7" points="10.8192385 22.1492615 20.8028282 15.779159 10.8192385 8.86297949"></polyline>
            </g>
            <g id="Group-5" transform="translate(0.000000, 1.000000)">
                <path d="M0,15.2019231 C0,6.80569231 6.80648718,0 15.2019231,0 C23.597359,0 30.4038462,6.80569231 30.4038462,15.2019231 C30.4038462,23.5981538 23.597359,30.4038462 15.2019231,30.4038462 C6.80648718,30.4038462 0,23.5981538 0,15.2019231" id="Fill-5" fill="#FFFFFF"></path>
                <polyline id="Stroke-7" stroke="#666666" stroke-width="1.7" points="19.5220513 8.74358974 9.53846154 15.1136923 19.5220513 22.0298718"></polyline>
            </g>
            <g id="Group-12-Copy" transform="translate(44.000000, 34.000000)">
                <path d="M30.4038462,15.2019231 C30.4038462,23.5981538 23.597359,30.4038462 15.2019231,30.4038462 C6.80648718,30.4038462 0,23.5981538 0,15.2019231 C0,6.80569231 6.80648718,0 15.2019231,0 C23.597359,0 30.4038462,6.80569231 30.4038462,15.2019231" id="Fill-1" fill="#FFFFFF"></path>
                <polyline id="Stroke-3" stroke="#666666" stroke-width="1.7" points="10.8192385 22.1492615 20.8028282 15.779159 10.8192385 8.86297949"></polyline>
            </g>
            <g id="Group-5-Copy" transform="translate(0.000000, 33.000000)">
                <path d="M0,15.2019231 C0,6.80569231 6.80648718,0 15.2019231,0 C23.597359,0 30.4038462,6.80569231 30.4038462,15.2019231 C30.4038462,23.5981538 23.597359,30.4038462 15.2019231,30.4038462 C6.80648718,30.4038462 0,23.5981538 0,15.2019231" id="Fill-5" fill="#FFFFFF"></path>
                <polyline id="Stroke-7" stroke="#666666" stroke-width="1.7" points="19.5220513 8.74358974 9.53846154 15.1136923 19.5220513 22.0298718"></polyline>
            </g>
        </g>
    </g>
</svg>