<svg width="331px" height="41px" viewBox="0 0 331 41" version="1.1" xmlns="http://www.w3.org/2000/svg" xmlns:xlink="http://www.w3.org/1999/xlink">
    <g id="Page-1" stroke="none" stroke-width="1" fill="none" fill-rule="evenodd">
        <g id="btn-homepage">
            <polygon class="bg-hover" id="waku" stroke="#21110D" stroke-width="0.5" points="0.25 40.4101 330.306 40.4101 330.306 0.2501 0.25 0.2501"></polygon>
            <polyline class="bg-hover3" id="yaji" stroke="#514E4D" stroke-width="0.75" points="78.2588 14.3682 87.1648 20.2742 78.2588 26.1812"></polyline>
            <g class="bg-hover2" id="text" transform="translate(98.000000, 15.000000)" fill="#21110D">
                <path d="M11.2159,10.2773 C11.1319,10.3473 11.0759,10.3753 11.0199,10.3753 C10.7679,10.3753 10.2639,9.8003 9.6479,8.8203 C9.1149,7.9803 8.5549,6.8453 8.5549,6.6353 C8.5549,6.5233 8.6529,6.4243 8.8769,6.3133 C9.2409,6.1173 9.6899,5.9343 9.8009,5.9343 C9.9129,5.9343 9.9699,6.0053 10.0539,6.1733 C10.4179,7.0003 10.6969,7.5173 11.0899,8.0783 C11.4959,8.6673 11.5519,8.7363 12.3789,9.5353 C11.9309,9.7163 11.6639,9.8843 11.2159,10.2773 Z M5.5149,4.8143 C2.5029,4.8283 2.3629,4.8283 1.1869,4.9403 L1.1579,4.9403 C1.0319,4.9403 0.9349,4.8563 0.8929,4.7163 C0.8089,4.4503 0.7519,3.9313 0.7519,3.2453 C1.5509,3.3723 2.5599,3.4143 4.9829,3.4143 L5.1929,3.4143 L5.5149,3.4143 L5.5149,3.0353 C5.5149,2.2373 5.4729,1.7603 5.3619,1.1023 C6.1729,1.1313 6.9999,1.2143 7.2519,1.3123 C7.3639,1.3543 7.4059,1.4243 7.4059,1.5373 C7.4059,1.6063 7.3919,1.6483 7.3079,1.8443 C7.1819,2.1533 7.1399,2.4193 7.1399,3.0213 L7.1399,3.2033 L7.1399,3.4143 L8.0509,3.4143 C8.9609,3.4143 10.7539,3.3433 11.3149,3.3013 C11.3839,3.2883 11.3839,3.2883 11.4679,3.2883 C11.5669,3.2883 11.6219,3.3433 11.6369,3.4273 C11.6509,3.4983 11.6639,3.9043 11.6639,4.0863 C11.6639,4.8283 11.6509,4.8703 11.3699,4.8703 C11.2999,4.8703 11.1599,4.8703 10.3479,4.8423 C9.8579,4.8283 9.6749,4.8283 7.1539,4.8143 L7.1539,7.4203 C7.1539,8.8353 7.1539,8.8353 7.1819,10.0103 C7.1959,10.1933 7.1959,10.3193 7.1959,10.3893 C7.1959,11.7483 6.7059,12.1963 5.2489,12.1963 C4.6889,12.1963 4.2119,12.1543 4.0719,12.0843 C3.9749,12.0423 3.9459,11.9723 3.9039,11.7613 C3.8199,11.3133 3.6799,10.8933 3.4699,10.4603 C4.0019,10.5863 4.4369,10.6413 4.9409,10.6413 C5.4449,10.6413 5.5429,10.5293 5.5429,9.8993 L5.5149,4.8143 Z M4.2119,6.8743 C4.2119,6.9433 4.1849,6.9853 4.0719,7.1113 C3.9749,7.2233 3.9179,7.3213 3.7789,7.6433 C3.1619,9.0033 2.0549,10.5023 1.6489,10.5023 C1.5649,10.5023 1.5369,10.4873 1.2419,10.2353 C1.0189,10.0393 0.7099,9.8843 0.3039,9.7163 C1.5649,8.6943 2.3769,7.3783 2.5869,6.0613 C3.7219,6.4243 4.2119,6.6773 4.2119,6.8743 Z" id="Fill-3"></path>
                <path d="M20.1456,5.8926 C22.7086,5.8926 24.1796,5.8656 25.5946,5.7666 L25.7766,5.7666 C26.1966,5.7666 26.1966,5.7816 26.1966,6.9016 C26.1966,7.4756 26.1546,7.5746 25.9166,7.5746 L25.8606,7.5746 C24.9356,7.5326 24.4176,7.5326 20.3696,7.5326 C18.8846,7.5326 18.1426,7.5456 16.8536,7.5876 L16.4476,7.5876 C15.9996,7.5876 15.9286,7.6016 15.6636,7.6436 C15.5926,7.6436 15.5376,7.6586 15.5086,7.6586 C15.3546,7.6586 15.2566,7.5876 15.2286,7.4616 C15.1446,7.1116 15.0886,6.3976 15.0886,5.7526 C16.2236,5.8656 17.2176,5.8926 20.1456,5.8926" id="Fill-4"></path>
                <path d="M33.5987,9.7314 C35.2657,9.5904 36.6527,9.4364 37.4787,9.2964 C36.9327,8.3304 36.4277,7.5594 35.9237,6.9714 C35.8687,6.9014 35.8397,6.8454 35.8397,6.7754 C35.8397,6.6494 35.9947,6.5374 36.5397,6.2144 C36.7917,6.0754 36.8907,6.0464 37.0307,6.0464 C37.1427,6.0464 37.2127,6.0754 37.2967,6.1594 C38.0247,6.9014 38.8787,8.1624 39.5797,9.5354 C39.9577,10.2914 40.2807,11.0894 40.2807,11.2714 C40.2807,11.3984 40.1397,11.5244 39.8177,11.6924 C39.3977,11.9024 38.9917,12.0564 38.8517,12.0564 C38.7257,12.0564 38.6417,11.9724 38.5717,11.7764 C38.4727,11.4404 38.3047,11.0344 38.1227,10.6134 C36.9467,10.8234 36.0777,10.9634 35.5037,11.0474 C33.5567,11.3284 33.0377,11.3984 30.6007,11.6354 C30.1247,11.6924 29.8867,11.7344 29.5787,11.8604 C29.5227,11.8744 29.4807,11.8884 29.4237,11.8884 C29.3127,11.8884 29.2287,11.8324 29.1587,11.6924 C28.9337,11.2714 28.7937,10.7674 28.6967,10.0674 C29.0457,10.0814 29.0457,10.0814 29.0747,10.0814 C29.3687,10.0814 29.3687,10.0814 30.4187,10.0104 C30.5167,9.7874 30.5167,9.7874 30.7127,9.3524 C31.4547,7.7424 32.4217,4.8424 32.9257,2.7694 C33.0937,2.1254 33.1507,1.7744 33.1787,1.3124 C33.8507,1.4244 34.4107,1.5644 34.8727,1.7184 C35.1667,1.8164 35.2927,1.9004 35.2927,2.0274 C35.2927,2.0964 35.2657,2.1384 35.1117,2.3214 C35.0407,2.4194 34.8867,2.7274 34.8027,2.9654 C34.7467,3.0914 34.6077,3.5404 34.0607,5.2624 C33.6407,6.5234 32.8277,8.6244 32.2677,9.8574 C32.7997,9.8004 33.3317,9.7584 33.5987,9.7314" id="Fill-5"></path>
                <path d="M50.8623,3.54 C50.8623,3.946 51.1983,4.282 51.6043,4.282 C51.9973,4.282 52.3473,3.946 52.3473,3.54 C52.3473,3.134 52.0103,2.797 51.6043,2.797 C51.1983,2.797 50.8623,3.134 50.8623,3.54 M53.1033,3.54 C53.1033,4.38 52.4453,5.038 51.6043,5.038 C50.7643,5.038 50.1063,4.38 50.1063,3.54 C50.1063,2.699 50.7643,2.041 51.6043,2.041 C52.4453,2.041 53.1033,2.699 53.1033,3.54 M44.8673,4.885 C45.5673,4.086 45.6793,3.96 45.9453,3.792 C46.2403,3.609 46.4643,3.54 46.8283,3.54 C47.2343,3.54 47.4863,3.624 47.8083,3.848 C48.0473,4.002 48.0473,4.002 48.9293,4.898 C49.8403,5.837 51.1143,6.985 52.1363,7.784 C52.8233,8.33 53.2293,8.61 54.1823,9.213 C54.3223,9.297 54.3783,9.352 54.3783,9.451 C54.3783,9.549 54.2663,9.787 53.9863,10.264 C53.6643,10.823 53.4963,11.019 53.3283,11.019 C53.2583,11.019 53.1873,10.992 53.1033,10.936 C51.3523,9.689 49.6853,8.204 47.7953,6.201 C47.0943,5.459 47.0523,5.417 46.8143,5.417 C46.6603,5.417 46.5623,5.473 46.4083,5.627 C46.2823,5.767 45.3993,6.901 44.9513,7.49 C44.6003,7.952 44.5873,7.98 44.2793,8.33 C44.0683,8.555 44.0123,8.624 43.9423,8.751 C43.8443,8.919 43.7743,8.975 43.6763,8.975 C43.5223,8.975 43.2423,8.765 42.9063,8.4 C42.6813,8.148 42.5553,7.98 42.2333,7.49 C42.8923,7.084 43.4103,6.565 44.8673,4.885" id="Fill-6"></path>
                <path d="M62.0059,5.8926 C64.5689,5.8926 66.0399,5.8656 67.4549,5.7666 L67.6369,5.7666 C68.0569,5.7666 68.0569,5.7816 68.0569,6.9016 C68.0569,7.4756 68.0149,7.5746 67.7769,7.5746 L67.7209,7.5746 C66.7959,7.5326 66.2779,7.5326 62.2299,7.5326 C60.7449,7.5326 60.0029,7.5456 58.7139,7.5876 L58.3079,7.5876 C57.8599,7.5876 57.7889,7.6016 57.5239,7.6436 C57.4529,7.6436 57.3979,7.6586 57.3689,7.6586 C57.2149,7.6586 57.1169,7.5876 57.0889,7.4616 C57.0049,7.1116 56.9489,6.3976 56.9489,5.7526 C58.0839,5.8656 59.0779,5.8926 62.0059,5.8926" id="Fill-7"></path>
                <path d="M83.1211,2.3486 C82.9391,2.4756 82.8131,2.5446 82.7431,2.5446 C82.7011,2.5446 82.6741,2.5316 82.6031,2.4186 C82.2251,1.8026 81.9731,1.4806 81.5531,1.0456 C81.4971,1.0036 81.4821,0.9616 81.4821,0.9486 C81.4821,0.8226 82.0431,0.4296 82.2111,0.4296 C82.3231,0.4296 82.5191,0.5836 82.8001,0.8926 C83.2061,1.3406 83.5421,1.8166 83.5421,1.9286 C83.5421,2.0276 83.4301,2.1246 83.1211,2.3486 M81.1601,3.3996 C80.8381,2.8256 80.5581,2.4336 80.1241,1.9856 C80.0541,1.9146 80.0401,1.8866 80.0401,1.8586 C80.0401,1.7746 80.1241,1.6766 80.3621,1.5086 C80.5861,1.3546 80.6701,1.2986 80.7541,1.2986 C80.8661,1.2986 81.0071,1.4106 81.3561,1.7886 C81.7911,2.2796 82.1271,2.7276 82.1271,2.8536 C82.1271,3.0076 81.4971,3.5116 81.3011,3.5116 C81.2441,3.5116 81.2171,3.4836 81.1601,3.3996 M76.5241,4.3246 C76.3421,4.5476 76.2711,4.6046 76.1741,4.6046 C76.1181,4.6046 76.0481,4.5766 75.9641,4.4926 C75.0961,3.7356 74.2681,3.2026 73.3721,2.8536 C73.2321,2.7966 73.1761,2.7416 73.1761,2.6576 C73.1761,2.6016 73.1901,2.5596 73.2601,2.4476 C73.9331,1.4246 73.9611,1.3826 74.1141,1.3826 C74.3941,1.3826 75.5581,1.9426 76.3551,2.4756 C77.0281,2.9236 77.1831,3.0496 77.1831,3.1896 C77.1831,3.3436 76.8601,3.9046 76.5241,4.3246 M82.3931,5.4726 C82.4491,5.6136 82.4631,5.6976 82.4631,5.7816 C82.4631,5.9626 82.3931,6.0756 82.1271,6.3696 C80.9651,7.6586 79.7731,8.7086 78.3451,9.6746 C77.1261,10.5016 75.7251,11.2446 74.3671,11.8186 C73.9611,11.9866 73.8351,12.0566 73.6811,12.1966 C73.5551,12.2946 73.5131,12.3226 73.4421,12.3226 C73.1761,12.3226 72.7001,11.5516 72.2791,10.4456 C73.6391,10.2066 75.2351,9.5486 76.8601,8.5686 C77.8691,7.9656 79.0731,7.0556 79.9411,6.2436 C80.7121,5.5286 81.1461,4.9956 81.9591,3.8626 C82.0431,4.5206 82.0991,4.7026 82.3931,5.4726 M75.1801,7.0696 C74.9831,7.3776 74.9271,7.4336 74.8151,7.4336 C74.7171,7.4336 74.7171,7.4336 74.1141,7.0276 C73.6241,6.7046 73.0081,6.4106 72.0001,6.0616 C71.7751,5.9776 71.7051,5.9206 71.7051,5.8236 C71.7051,5.7526 71.8171,5.5146 72.0421,5.1366 C72.0981,5.0246 72.1531,4.9406 72.1821,4.8696 C72.3361,4.5896 72.4061,4.5056 72.5171,4.5056 C72.7561,4.5056 73.8071,4.8986 74.5621,5.2626 C74.9831,5.4726 75.5161,5.7816 75.6281,5.8656 C75.6701,5.9206 75.6971,5.9626 75.6971,6.0336 C75.6971,6.1726 75.5021,6.5516 75.1801,7.0696" id="Fill-8"></path>
                <path d="M93.1289,9.5488 C92.4289,9.5488 91.9669,9.8708 91.9669,10.3608 C91.9669,10.8098 92.3999,11.0898 93.0729,11.0898 C93.8159,11.0898 94.2069,10.7538 94.2069,10.1098 C94.2069,9.9128 94.1929,9.7588 94.1929,9.7588 C93.8289,9.6188 93.5069,9.5488 93.1289,9.5488 M91.9809,5.4308 C91.3079,5.4308 91.1679,5.4028 91.1259,5.2488 C91.0839,5.1228 91.0419,4.6748 91.0419,4.3528 C91.0419,4.2398 91.0419,4.1278 91.0559,3.8758 C91.4339,3.9038 91.6579,3.9178 92.1199,3.9178 C92.8769,3.9178 93.3539,3.9038 94.0809,3.8478 C94.0669,2.0698 94.0539,1.8448 93.9129,1.1868 C94.5999,1.1998 95.1179,1.2568 95.5669,1.3678 C95.7759,1.4248 95.8599,1.4948 95.8599,1.6348 C95.8599,1.6908 95.8469,1.7328 95.8049,1.8448 C95.6639,2.1668 95.5949,2.7128 95.5669,3.6938 C96.0849,3.6238 96.5329,3.5258 97.3729,3.3298 C97.4429,3.3018 97.4719,3.3018 97.5139,3.3018 C97.5979,3.3018 97.6399,3.3438 97.6669,3.4418 C97.6949,3.5678 97.7369,4.0998 97.7369,4.3948 C97.7369,4.7438 97.7239,4.8008 97.5829,4.8568 C97.3589,4.9688 96.7429,5.0668 95.5529,5.2208 C95.5529,6.1878 95.6369,7.7838 95.7339,8.6948 C96.6169,9.0718 97.2189,9.3948 97.8359,9.8288 C98.2279,10.1098 98.3119,10.2068 98.3119,10.3058 C98.3119,10.4598 98.0599,10.9358 97.7659,11.3418 C97.5979,11.5798 97.5139,11.6508 97.4149,11.6508 C97.3169,11.6508 97.3169,11.6508 96.9949,11.3418 C96.6869,11.0338 96.3639,10.7958 95.7479,10.3898 L95.7479,10.5018 C95.7479,11.7348 94.7259,12.5468 93.1709,12.5468 C91.5879,12.5468 90.5519,11.7058 90.5519,10.4448 C90.5519,9.1848 91.6159,8.2458 93.0309,8.2458 C93.5489,8.2458 93.8159,8.2608 94.1929,8.3168 C94.1379,7.2238 94.1379,7.2238 94.0959,5.3468 C93.4929,5.3888 92.5409,5.4308 91.9809,5.4308 M89.6269,9.1138 C89.6689,9.1708 89.6829,9.2128 89.6829,9.2688 C89.6829,9.3528 89.6829,9.3528 89.4449,9.9968 C89.1499,10.8518 88.9689,11.5518 88.9129,12.0988 C88.8989,12.2798 88.8429,12.3508 88.6599,12.3928 C88.4649,12.4478 88.0859,12.4768 87.7219,12.4768 C87.5819,12.4768 87.5119,12.4478 87.4699,12.3638 C87.3439,12.0988 87.1199,11.1318 87.0079,10.3478 C86.9089,9.6898 86.8669,9.0028 86.8669,8.2878 C86.8669,6.6778 87.0499,5.1508 87.5539,2.4048 C87.6379,1.9568 87.6659,1.7468 87.7079,1.3128 C88.3529,1.3968 88.8009,1.5228 89.2069,1.7188 C89.4169,1.8308 89.5009,1.9288 89.5009,2.0548 C89.5009,2.1388 89.4729,2.2088 89.4029,2.3208 C88.8279,3.3018 88.2959,6.3268 88.2959,8.5688 C88.2959,8.9038 88.3109,9.4368 88.3529,10.1098 C88.6889,9.2408 88.8429,8.8488 89.1499,8.1758 C89.2489,8.5548 89.3469,8.7368 89.6269,9.1138" id="Fill-9"></path>
                <path d="M107.0723,2.1387 C107.8843,2.1387 108.3613,2.1117 109.3133,1.9707 L109.4123,1.9707 C109.5233,1.9707 109.5663,2.0127 109.5933,2.0967 C109.6223,2.2647 109.6503,2.6857 109.6503,3.1897 C109.6503,3.5117 109.6223,3.6237 109.5383,3.6797 C109.4263,3.7497 108.2073,3.8337 107.2683,3.8337 C106.0223,3.8337 104.9853,3.7357 103.8233,3.5117 C103.0243,3.3577 102.9823,3.3157 102.9823,2.8257 C102.9823,2.5027 103.0103,1.9707 103.0523,1.5787 C104.2713,1.9567 105.6013,2.1387 107.0723,2.1387 M106.9463,10.1937 C108.0943,10.1937 109.3703,10.0257 110.6313,9.7027 C110.7003,9.6747 110.7423,9.6747 110.7843,9.6747 C110.8693,9.6747 110.9113,9.7317 110.9383,9.8577 C110.9803,10.1647 111.0093,10.6137 111.0093,11.0767 C111.0093,11.3567 110.9803,11.4407 110.8543,11.4957 C110.4343,11.7197 108.5433,11.9307 106.9193,11.9307 C104.8033,11.9307 103.5983,11.5797 102.6323,10.6697 C102.1703,10.2357 101.7083,9.4787 101.7083,9.1707 C101.7083,8.9607 101.8343,8.8767 102.9823,8.2177 C103.4863,9.6057 104.6493,10.1937 106.9463,10.1937" id="Fill-10"></path>
                <path d="M115.2178,4.6182 C114.4618,4.6182 114.4338,4.6182 114.3498,4.4502 C114.2658,4.3102 114.1678,3.7222 114.1258,3.1052 C114.6438,3.1612 115.1488,3.1892 115.8208,3.1892 C116.2268,3.1892 116.7738,3.1762 117.3478,3.1342 C117.4588,2.2932 117.4878,1.9992 117.4878,1.4802 C117.4878,1.2422 117.4738,1.0602 117.4458,0.7382 C118.1318,0.7802 118.9158,0.9062 119.2248,1.0182 C119.3358,1.0602 119.3778,1.1022 119.3778,1.2152 C119.3778,1.2992 119.3638,1.3542 119.2798,1.5222 C119.1548,1.8032 119.0988,2.0272 119.0148,2.4752 C118.9728,2.7412 118.9578,2.7972 118.9298,2.9792 C120.0788,2.8392 121.2278,2.5872 122.0258,2.2792 C122.1378,2.2512 122.1948,2.2372 122.2498,2.2372 C122.3478,2.2372 122.3898,2.3062 122.4468,2.5872 C122.5018,2.8952 122.5718,3.4562 122.5718,3.6092 C122.5718,3.7782 122.5158,3.8062 122.0958,3.9042 C120.9888,4.1282 119.6028,4.3382 118.6358,4.4222 C118.2158,6.1032 118.0198,6.6492 117.5158,7.5882 C118.2998,6.9722 118.7198,6.7332 119.3928,6.4952 C119.9948,6.2712 120.5828,6.1732 121.2128,6.1732 C122.2368,6.1732 123.0628,6.4532 123.5948,6.9852 C124.0848,7.4752 124.3648,8.2042 124.3648,8.9612 C124.3648,9.9972 123.8748,10.8382 122.8238,11.5382 C122.0538,12.0702 120.7798,12.5182 119.5048,12.6862 C119.2798,12.7152 119.0568,12.7432 118.9728,12.7432 C118.7618,12.7432 118.6638,12.6732 118.5668,12.5052 C118.2998,12.0002 118.0758,11.7062 117.7118,11.3562 C119.0148,11.3002 120.0088,11.1182 121.0178,10.7542 C122.0818,10.3752 122.6978,9.7312 122.6978,8.9882 C122.6978,8.0362 122.1238,7.4622 121.1708,7.4622 C119.5888,7.4622 117.8228,8.4422 116.6888,9.9412 C116.6048,10.0392 116.5208,10.0962 116.4368,10.0962 C116.1848,10.0962 115.2178,9.2132 115.2178,8.9882 C115.2178,8.9192 115.2328,8.8902 115.3718,8.7092 C116.1138,7.7002 116.6888,6.2852 117.0948,4.5482 C116.8578,4.5622 115.3718,4.6182 115.2178,4.6182" id="Fill-11"></path>
                <path d="M134.3311,1.7744 C134.8781,2.0964 135.0461,2.2514 135.0461,2.4054 C135.0461,2.5314 134.8211,2.9514 134.5841,3.3014 C134.3591,3.6244 134.2751,3.6934 134.1631,3.6934 C134.0931,3.6934 134.0511,3.6664 133.8831,3.5404 C132.9441,2.8254 132.2021,2.4194 131.1511,2.0544 C130.9411,1.9704 130.8991,1.9424 130.8991,1.8314 C130.8991,1.6904 131.0121,1.4524 131.2641,1.0884 C131.4881,0.7524 131.5861,0.6684 131.7401,0.6684 C132.0761,0.6684 133.4491,1.2564 134.3311,1.7744 M134.5841,5.7664 C136.5031,5.7664 137.7491,6.9014 137.7491,8.6244 C137.7491,10.2774 136.6981,11.4404 134.5981,12.1124 C133.8411,12.3504 132.5951,12.5744 132.0341,12.5744 C131.7401,12.5744 131.6701,12.5044 131.4741,12.0984 C131.3191,11.7764 131.1511,11.5804 130.7311,11.2864 C134.2471,11.0054 135.9841,10.1094 135.9841,8.5824 C135.9841,7.7274 135.3821,7.2234 134.3731,7.2234 C133.0991,7.2234 131.7821,7.8814 130.7031,9.0454 C130.5071,9.2414 130.3251,9.4784 130.1991,9.6894 C130.0731,9.8994 129.9891,9.9684 129.8631,9.9684 C129.6521,9.9684 129.1621,9.7584 128.8261,9.5064 C128.6581,9.3804 128.6021,9.2834 128.6021,9.0584 C128.6021,8.9464 128.6021,8.9464 128.6441,8.6104 C128.6441,8.5684 128.6441,8.4704 128.6581,8.3164 C128.7281,7.4204 128.7701,7.0424 128.9381,5.7814 C128.9671,5.6274 128.9671,5.6274 129.0641,4.9684 C129.0781,4.9264 129.1061,4.6604 129.1771,4.1414 C129.1901,4.0154 129.2051,3.9044 129.2051,3.6794 C129.8771,3.7784 130.5071,3.9314 130.7731,4.0864 C130.8861,4.1414 130.9411,4.2124 130.9281,4.2954 C130.9281,4.3524 130.8991,4.3944 130.8571,4.4784 C130.7031,4.7164 130.6611,4.8424 130.5351,5.3754 C130.4091,5.9074 130.2131,7.1394 130.1851,7.6014 C131.6141,6.2854 132.8601,5.7664 134.5841,5.7664" id="Fill-12"></path>
            </g>
        </g>
    </g>
</svg>