<svg xmlns="http://www.w3.org/2000/svg" width="26" height="178" viewBox="0 0 26 178">
  <g fill="none" fill-rule="evenodd">
    <path fill="#514E4D" d="M17.8008,6.9806 C17.8008,6.0796 17.0718,5.3466 16.3498,5.0226 C16.1088,4.9396 15.8538,4.8686 15.5898,4.8686 C14.7458,4.8686 13.9418,5.2896 13.7168,5.4186 C13.1548,5.6966 12.8648,6.0976 12.8648,6.5996 C12.8648,7.0396 13.1148,7.4846 13.6308,7.9636 C14.1428,8.4436 14.6308,8.8426 15.3978,8.8426 C15.5438,8.8426 15.6878,8.8406 15.8708,8.8066 C16.6828,8.6936 17.6068,8.1736 17.7958,7.2666 L17.8008,6.9806 Z M7.7228,3.3526 C7.7228,3.3396 7.6908,3.3176 7.6528,3.2976 C7.1548,3.0326 6.2888,2.7246 5.5058,2.7246 C5.0518,2.7246 4.7338,2.7846 4.4968,2.9196 C4.0468,3.0896 3.5328,3.4516 3.2308,3.8206 C2.8018,4.3816 2.5878,5.0656 2.5878,5.8626 C2.5878,6.4376 2.6988,7.0476 2.8968,7.5396 C2.9638,7.6816 3.0278,7.8326 3.0928,7.9996 C3.3298,8.5956 3.5998,9.2736 4.0698,9.5656 C4.2658,9.6826 4.4718,9.7406 4.7058,9.7406 C5.4958,9.7406 6.0848,9.0426 6.3688,8.7076 C6.4118,8.6866 6.4508,8.6586 6.4788,8.6286 C6.7748,8.3206 7.1258,8.0746 7.5018,7.8126 C8.0228,7.4476 8.5658,7.0686 8.9468,6.5056 C9.1948,6.1496 9.3188,5.8026 9.3188,5.4466 C9.3188,4.5456 8.4988,3.8556 7.8838,3.4176 L7.8078,3.3626 L7.7128,3.3626 C7.7208,3.3616 7.7228,3.3556 7.7228,3.3526 Z M-0.0002,6.0566 C0.0598,4.4826 0.8858,2.2776 2.3568,1.1266 C3.2198,0.4366 4.2768,0.0706 5.4088,0.0706 C6.1598,0.0706 6.9578,0.2546 7.6528,0.5866 C8.4178,1.0006 9.1398,1.5536 9.7768,2.2226 C9.8838,2.3346 9.9888,2.4646 10.0938,2.5946 C10.4888,3.0826 10.9768,3.6896 11.8328,3.7186 C12.4818,3.6996 12.9818,3.3396 13.4658,2.9856 C13.8668,2.6946 14.2468,2.4186 14.6828,2.3386 C14.9318,2.2766 15.1678,2.2456 15.3978,2.2456 C16.0648,2.2456 16.7518,2.4296 17.4398,2.7906 C18.2268,3.2156 18.9238,3.8466 19.4468,4.6176 C19.9248,5.2906 20.1648,5.9996 20.1648,6.7266 C20.1648,8.0376 19.3878,9.3116 18.7118,10.2736 C18.0948,11.1496 17.0388,11.3346 16.2618,11.3346 C15.8878,11.3346 15.5758,11.2956 15.2808,11.2176 C14.3188,11.0486 13.5678,10.6596 12.9488,10.0146 C12.7798,9.8616 12.6338,9.6366 12.4808,9.3986 C12.1398,8.8726 11.7188,8.2186 10.9348,8.1656 C10.4108,8.1966 10.1838,8.5456 9.9978,8.8226 C9.9378,8.9166 9.8768,9.0116 9.8018,9.0926 C9.5978,9.3116 9.3718,9.4946 9.1478,9.6786 C8.8558,9.9156 8.5548,10.1586 8.2898,10.4816 C8.1848,10.5896 8.0618,10.7086 7.9478,10.8236 C7.5128,11.2446 7.1038,11.6466 7.1038,12.1366 C7.1038,12.6396 7.5068,12.9806 7.9058,13.2436 C8.0288,13.3276 8.1988,13.4166 8.3868,13.5096 C8.8458,13.7436 9.4728,14.0626 9.4728,14.4436 C9.4728,14.7556 9.0918,15.0346 8.7578,15.2796 C8.5958,15.3956 8.4468,15.5066 8.3398,15.6136 C8.2428,15.6896 8.1338,15.8146 8.0198,15.9416 C7.7668,16.2236 7.5278,16.4896 7.1698,16.4896 C6.9658,16.4626 6.5988,15.9356 6.3778,15.6216 C6.2528,15.4436 6.1388,15.2806 6.0408,15.1746 C5.5158,14.6496 5.1398,14.4396 4.7368,14.4396 C4.2558,14.4396 3.8278,14.7506 3.2588,15.2866 C3.1128,15.4306 2.9628,15.5556 2.8138,15.6806 C2.6128,15.8466 2.4148,16.0146 2.2478,16.2026 C2.1688,16.2806 2.0658,16.3996 1.9598,16.5276 C1.6918,16.8506 1.3258,17.2896 1.0238,17.2896 C0.9558,17.2896 0.8528,17.2116 0.7328,17.0696 C0.5498,16.8426 0.4488,16.4506 0.4488,15.9486 C0.4488,15.0526 0.7808,14.0106 1.1908,13.6316 C1.2998,13.5266 1.4098,13.4296 1.5128,13.3376 C1.9708,12.9296 2.4028,12.5456 2.4028,11.9776 C2.4028,11.6556 2.1828,11.2736 1.9978,11.0086 C0.6498,9.2796 -0.0002,7.7336 -0.0002,6.2786 L-0.0002,6.0566 Z"/>
    <path fill="#000" d="M12.0176 34.9762L12.0176 32.2022 2.8446 32.2022C2.7026 32.2022 2.5606 32.1032 2.5606 31.9462L2.5606 31.1652C2.5606 31.0222 2.6876 30.9082 2.8446 30.9082L12.0176 30.9082 12.0176 28.1352C12.0176 27.9792 12.0876 27.8512 12.2456 27.8512L12.8716 27.8512C13.0146 27.8512 13.1266 27.9792 13.1266 28.1352L13.1266 34.9762C13.1266 35.1322 13.0286 35.2462 12.8716 35.2462L12.2456 35.2462C12.1026 35.2462 12.0176 35.1322 12.0176 34.9762M8.7598 45.4042C11.1508 45.4042 12.0608 44.4362 12.0608 42.8732 12.0608 41.3232 11.1508 40.3262 8.7598 40.3262L6.9258 40.3262C4.5358 40.3262 3.6268 41.3092 3.6268 42.8732 3.6268 44.4242 4.5358 45.4042 6.9258 45.4042L8.7598 45.4042zM2.4608 42.8732C2.4608 40.6402 3.7688 39.0192 6.9258 39.0192L8.7598 39.0192C11.9168 39.0192 13.2268 40.6402 13.2268 42.8732 13.2268 45.1062 11.9168 46.7132 8.7598 46.7132L6.9258 46.7132C3.7688 46.7132 2.4608 45.1062 2.4608 42.8732zM5.7187 57.1696C6.6557 57.1696 7.5227 56.7006 7.5227 55.0226L7.5227 52.8326 3.6137 52.8326C3.5977 53.3026 3.5557 53.8136 3.5557 54.3116 3.5557 56.0756 3.9397 57.1696 5.4747 57.1696L5.7187 57.1696zM10.4817 57.1146C11.8467 57.1146 12.1317 55.9746 12.1317 54.2406 12.1317 53.7566 12.1027 53.2316 12.0877 52.8326L8.5607 52.8326 8.5607 55.0226C8.5607 56.6726 9.3587 57.1146 10.2547 57.1146L10.4817 57.1146zM2.4607 54.3116C2.4607 53.3726 2.5027 52.5346 2.5877 51.9936 2.6317 51.6676 2.7587 51.5236 3.1147 51.5236L12.5867 51.5236C12.9137 51.5236 13.0847 51.6806 13.1137 51.9796 13.1697 52.4486 13.2267 53.3156 13.2267 54.2406 13.2267 56.5026 12.6297 58.4076 10.4817 58.4076L10.2547 58.4076C9.2017 58.4076 8.3907 57.8536 8.0227 56.8866 7.6797 57.8666 6.8127 58.4656 5.7187 58.4656L5.4747 58.4656C3.0857 58.4656 2.4607 56.5306 2.4607 54.3116zM2.5605 64.5978L2.5605 63.8158C2.5605 63.6728 2.6875 63.5598 2.8445 63.5598L12.8565 63.5598C12.9985 63.5598 13.1265 63.6588 13.1265 63.8158L13.1265 64.5978C13.1265 64.7408 13.0145 64.8538 12.8565 64.8538L2.8445 64.8538C2.7025 64.8538 2.5605 64.7548 2.5605 64.5978M11.8467 73.7321C12.0037 73.6891 12.1027 73.6041 12.1027 73.4611 12.1027 73.3051 12.0037 73.2201 11.8467 73.1761L7.1677 71.8821 7.1677 75.0261 11.8467 73.7321zM2.5607 77.3011L2.5607 76.4621C2.5607 76.3341 2.6597 76.2481 2.7737 76.2211L6.0447 75.2941 6.0447 71.6121 2.7737 70.7011C2.6597 70.6741 2.5607 70.5601 2.5607 70.4461L2.5607 69.6071C2.5607 69.4641 2.6597 69.3651 2.7877 69.3651 2.8167 69.3651 2.8587 69.3651 2.8877 69.3791L12.1467 72.0111C13.0147 72.2531 13.2267 72.9201 13.2267 73.4611 13.2267 73.9871 13.0287 74.6551 12.1597 74.8971L2.8877 77.5281C2.8587 77.5431 2.8167 77.5431 2.7877 77.5431 2.6597 77.5431 2.5607 77.4581 2.5607 77.3011zM2.4609 84.4017C2.4609 83.4077 2.5609 82.6667 2.6599 82.0417 2.7019 81.7987 2.7589 81.7707 2.9159 81.7707L3.4839 81.7707C3.6409 81.7707 3.7119 81.8847 3.7119 82.0127L3.7119 82.0567C3.6539 82.7097 3.6269 83.7477 3.6269 84.4017 3.6269 86.1087 4.3089 86.5647 5.3049 86.5647 6.0159 86.5647 6.4139 86.1507 7.2109 84.8577L8.0499 83.4777C8.8459 82.1697 9.5709 81.5157 10.7109 81.5157 12.4309 81.5157 13.2269 82.7527 13.2269 84.9137 13.2269 85.7527 13.1409 86.8487 13.0569 87.3897 13.0279 87.5317 12.9559 87.6307 12.8139 87.6307L12.2029 87.6307C12.0609 87.6307 11.9759 87.5317 11.9759 87.3897L11.9759 87.3607C12.0179 86.7357 12.0609 85.7387 12.0609 84.9137 12.0609 83.4497 11.7469 82.8247 10.7109 82.8247 10.0409 82.8247 9.6429 83.2927 8.9889 84.3747L8.2069 85.6827C7.2249 87.3327 6.4419 87.9147 5.3049 87.9147 3.9399 87.9147 2.4609 87.2037 2.4609 84.4017M0 95.4718C0 95.1598.071 94.8028.113 94.7168.143 94.6608.199 94.6318.271 94.6318L.797 94.6318C.953 94.6318 1.038 94.7608 1.038 94.9178L1.038 95.4718C1.038 96.2248 1.337 96.3818 2.033 96.3818L12.856 96.3818C12.999 96.3818 13.127 96.5098 13.127 96.6518L13.127 97.4058C13.127 97.5488 12.999 97.6768 12.856 97.6768L2.033 97.6768C.668 97.6768 0 97.0368 0 95.4718M11.8467 106.5524C12.0037 106.5104 12.1027 106.4254 12.1027 106.2834 12.1027 106.1264 12.0037 106.0414 11.8467 105.9974L7.1677 104.7054 7.1677 107.8474 11.8467 106.5524zM2.5607 110.1234L2.5607 109.2834C2.5607 109.1554 2.6597 109.0704 2.7737 109.0424L6.0447 108.1164 6.0447 104.4334 2.7737 103.5234C2.6597 103.4954 2.5607 103.3814 2.5607 103.2674L2.5607 102.4284C2.5607 102.2854 2.6597 102.1874 2.7877 102.1874 2.8167 102.1874 2.8587 102.1874 2.8877 102.2014L12.1467 104.8334C13.0147 105.0744 13.2267 105.7414 13.2267 106.2834 13.2267 106.8094 13.0287 107.4774 12.1597 107.7204L2.8877 110.3514C2.8587 110.3654 2.8167 110.3654 2.7877 110.3654 2.6597 110.3654 2.5607 110.2794 2.5607 110.1234zM2.6455 120.4518C2.5325 119.8558 2.4605 119.3008 2.4605 118.0918 2.4605 116.3418 3.3985 114.3378 6.8545 114.3378L8.8315 114.3378C12.3165 114.3378 13.2265 116.3418 13.2265 118.0918 13.2265 118.9878 13.0985 119.8558 12.9995 120.4818 12.9845 120.6088 12.9425 120.7078 12.8135 120.7078L12.0875 120.7078C12.0035 120.7078 11.9315 120.6798 11.9315 120.5368L11.9315 120.4948C11.9755 119.9818 12.0605 118.9308 12.0605 118.1068 12.0605 116.7118 11.2495 115.6308 8.8315 115.6308L6.8545 115.6308C4.4665 115.6308 3.6265 116.7118 3.6265 118.1068 3.6265 118.9168 3.6985 119.9398 3.7425 120.4518L3.7425 120.5098C3.7425 120.6658 3.6695 120.7368 3.5135 120.7368L2.9295 120.7368C2.7585 120.7368 2.6735 120.6088 2.6455 120.4518M8.7598 130.8949C11.1508 130.8949 12.0608 129.9279 12.0608 128.3639 12.0608 126.8129 11.1508 125.8179 8.7598 125.8179L6.9258 125.8179C4.5358 125.8179 3.6268 126.7989 3.6268 128.3639 3.6268 129.9139 4.5358 130.8949 6.9258 130.8949L8.7598 130.8949zM2.4608 128.3639C2.4608 126.1309 3.7688 124.5089 6.9258 124.5089L8.7598 124.5089C11.9168 124.5089 13.2268 126.1309 13.2268 128.3639 13.2268 130.5969 11.9168 132.2029 8.7598 132.2029L6.9258 132.2029C3.7688 132.2029 2.4608 130.5969 2.4608 128.3639zM5.7187 142.8038C6.6557 142.8038 7.5227 142.3348 7.5227 140.6558L7.5227 138.4668 3.6137 138.4668C3.5977 138.9348 3.5557 139.4458 3.5557 139.9448 3.5557 141.7078 3.9397 142.8038 5.4747 142.8038L5.7187 142.8038zM10.4817 142.7458C11.8467 142.7458 12.1317 141.6078 12.1317 139.8738 12.1317 139.3898 12.1027 138.8648 12.0877 138.4668L8.5607 138.4668 8.5607 140.6558C8.5607 142.3048 9.3587 142.7458 10.2547 142.7458L10.4817 142.7458zM2.4607 139.9448C2.4607 139.0068 2.5027 138.1678 2.5877 137.6258 2.6317 137.2988 2.7587 137.1558 3.1147 137.1558L12.5867 137.1558C12.9137 137.1558 13.0847 137.3138 13.1137 137.6118 13.1697 138.0818 13.2267 138.9498 13.2267 139.8738 13.2267 142.1348 12.6297 144.0408 10.4817 144.0408L10.2547 144.0408C9.2017 144.0408 8.3907 143.4858 8.0227 142.5188 7.6797 143.4998 6.8127 144.0968 5.7187 144.0968L5.4747 144.0968C3.0857 144.0968 2.4607 142.1638 2.4607 139.9448zM2.4609 151.3973C2.4609 150.4033 2.5609 149.6623 2.6599 149.0373 2.7019 148.7953 2.7589 148.7663 2.9159 148.7663L3.4839 148.7663C3.6409 148.7663 3.7119 148.8793 3.7119 149.0083L3.7119 149.0503C3.6539 149.7053 3.6269 150.7423 3.6269 151.3973 3.6269 153.1033 4.3089 153.5593 5.3049 153.5593 6.0159 153.5593 6.4139 153.1463 7.2109 151.8523L8.0499 150.4723C8.8459 149.1653 9.5709 148.5113 10.7109 148.5113 12.4309 148.5113 13.2269 149.7473 13.2269 151.9093 13.2269 152.7483 13.1409 153.8443 13.0569 154.3853 13.0279 154.5263 12.9559 154.6263 12.8139 154.6263L12.2029 154.6263C12.0609 154.6263 11.9759 154.5263 11.9759 154.3853L11.9759 154.3543C12.0179 153.7303 12.0609 152.7343 12.0609 151.9093 12.0609 150.4443 11.7469 149.8183 10.7109 149.8183 10.0409 149.8183 9.6429 150.2873 8.9889 151.3693L8.2069 152.6783C7.2249 154.3273 6.4419 154.9093 5.3049 154.9093 3.9399 154.9093 2.4609 154.1993 2.4609 151.3973M2.5322 165.5241C2.4752 164.9821 2.4612 163.5901 2.4612 162.7501 2.4612 160.7591 3.2142 159.7211 5.1052 159.7211L10.5812 159.7211C12.4712 159.7211 13.2262 160.7591 13.2262 162.7501 13.2262 163.5901 13.1992 164.9271 13.1402 165.5241 13.1272 165.6091 13.0282 165.6651 12.9422 165.6651L12.2312 165.6651C12.1322 165.6651 12.0602 165.6091 12.0602 165.5091L12.0602 162.7641C12.0602 161.2581 11.6622 161.0141 10.5812 161.0141L8.6052 161.0141 8.6052 165.3811C8.6052 165.5371 8.4762 165.6651 8.3202 165.6651L7.7792 165.6651C7.6232 165.6651 7.4952 165.5371 7.4952 165.3811L7.4952 161.0141 5.1052 161.0141C4.0242 161.0141 3.6272 161.2581 3.6272 162.7641L3.6272 165.5091C3.6272 165.6091 3.5552 165.6651 3.4552 165.6651L2.7312 165.6651C2.6452 165.6651 2.5462 165.6091 2.5322 165.5241M2.5605 177.4454L2.5605 176.5634C2.5605 176.3364 2.6455 176.1794 2.7885 176.1084L11.1365 171.7134C11.1645 171.6994 11.1785 171.6864 11.1785 171.6714 11.1785 171.6564 11.1645 171.6564 11.1365 171.6564L2.8295 171.6564C2.6875 171.6564 2.5605 171.5434 2.5605 171.4004L2.5605 170.6614C2.5605 170.5194 2.5875 170.4044 2.7315 170.4044L12.7285 170.4044C12.9565 170.4044 13.1265 170.5894 13.1265 170.8174L13.1265 171.5994C13.1265 171.9984 13.0565 172.0694 12.8435 172.1824L4.5365 176.5494 4.4955 176.5774C4.4955 176.5924 4.5225 176.5924 4.5365 176.5924L12.8565 176.5924C12.9985 176.5924 13.1265 176.7054 13.1265 176.8474L13.1265 177.6014C13.1265 177.7584 12.9985 177.8574 12.8565 177.8574L2.9725 177.8574C2.7455 177.8574 2.5605 177.6734 2.5605 177.4454M21.2646 86.3161L21.2646 86.0001C21.2646 85.9311 21.3206 85.8751 21.3886 85.8751L23.4526 85.8751 23.4526 83.7511 21.3886 83.7511C21.3206 83.7511 21.2646 83.6951 21.2646 83.6271L21.2646 83.3091C21.2646 83.2411 21.3206 83.1861 21.3886 83.1861L25.7546 83.1861C25.8246 83.1861 25.8796 83.2411 25.8796 83.3091L25.8796 83.6271C25.8796 83.6951 25.8246 83.7511 25.7546 83.7511L23.9536 83.7511 23.9536 85.8751 25.7546 85.8751C25.8246 85.8751 25.8796 85.9311 25.8796 86.0001L25.8796 86.3161C25.8796 86.3841 25.8246 86.4411 25.7546 86.4411L21.3886 86.4411C21.3206 86.4411 21.2646 86.3841 21.2646 86.3161M23.9727 91.7008C25.0167 91.7008 25.4127 91.2798 25.4127 90.5968 25.4127 89.9198 25.0167 89.4848 23.9727 89.4848L23.1717 89.4848C22.1287 89.4848 21.7307 89.9128 21.7307 90.5968 21.7307 91.2738 22.1287 91.7008 23.1717 91.7008L23.9727 91.7008zM21.2217 90.5968C21.2217 89.6218 21.7927 88.9118 23.1717 88.9118L23.9727 88.9118C25.3537 88.9118 25.9237 89.6218 25.9237 90.5968 25.9237 91.5718 25.3537 92.2738 23.9727 92.2738L23.1717 92.2738C21.7927 92.2738 21.2217 91.5718 21.2217 90.5968zM21.2217 96.5048C21.2217 95.4978 21.7547 94.9148 22.9417 94.9148L25.7617 94.9148C25.8247 94.9148 25.8797 94.9628 25.8797 95.0318L25.8797 95.3668C25.8797 95.4298 25.8297 95.4858 25.7617 95.4858L22.9417 95.4858C22.1397 95.4858 21.7067 95.7348 21.7067 96.5048 21.7067 97.2738 22.1337 97.5218 22.9417 97.5218L25.7617 97.5218C25.8247 97.5218 25.8797 97.5728 25.8797 97.6408L25.8797 97.9768C25.8797 98.0378 25.8297 98.0958 25.7617 98.0958L22.9417 98.0958C21.7547 98.0958 21.2217 97.5118 21.2217 96.5048M21.2217 101.9332C21.2217 101.4982 21.2647 101.1762 21.3077 100.9022 21.3257 100.7972 21.3517 100.7852 21.4187 100.7852L21.6677 100.7852C21.7377 100.7852 21.7677 100.8332 21.7677 100.8912L21.7677 100.9092C21.7427 101.1942 21.7307 101.6462 21.7307 101.9332 21.7307 102.6792 22.0287 102.8772 22.4627 102.8772 22.7737 102.8772 22.9487 102.6972 23.2967 102.1322L23.6627 101.5302C24.0097 100.9582 24.3257 100.6722 24.8237 100.6722 25.5747 100.6722 25.9237 101.2142 25.9237 102.1572 25.9237 102.5232 25.8867 103.0022 25.8487 103.2372 25.8367 103.2992 25.8047 103.3432 25.7427 103.3432L25.4757 103.3432C25.4127 103.3432 25.3757 103.2992 25.3757 103.2372L25.3757 103.2252C25.3947 102.9532 25.4127 102.5162 25.4127 102.1572 25.4127 101.5172 25.2767 101.2442 24.8237 101.2442 24.5317 101.2442 24.3577 101.4482 24.0717 101.9202L23.7307 102.4922C23.3027 103.2122 22.9607 103.4682 22.4627 103.4682 21.8667 103.4682 21.2217 103.1562 21.2217 101.9332M21.252 108.5988C21.227 108.3628 21.222 107.7548 21.222 107.3888 21.222 106.5178 21.55 106.0638 22.377 106.0638L24.769 106.0638C25.594 106.0638 25.924 106.5178 25.924 107.3888 25.924 107.7548 25.91 108.3378 25.887 108.5988 25.88 108.6368 25.837 108.6618 25.799 108.6618L25.488 108.6618C25.446 108.6618 25.413 108.6368 25.413 108.5928L25.413 107.3948C25.413 106.7358 25.24 106.6308 24.769 106.6308L23.904 106.6308 23.904 108.5368C23.904 108.6068 23.849 108.6618 23.78 108.6618L23.545 108.6618C23.476 108.6618 23.42 108.6068 23.42 108.5368L23.42 106.6308 22.377 106.6308C21.904 106.6308 21.731 106.7358 21.731 107.3948L21.731 108.5928C21.731 108.6368 21.699 108.6618 21.654 108.6618L21.339 108.6618C21.303 108.6618 21.259 108.6368 21.252 108.5988M23.9727 116.3688C25.0167 116.3688 25.4127 115.9478 25.4127 115.2648 25.4127 114.5878 25.0167 114.1528 23.9727 114.1528L23.1717 114.1528C22.1287 114.1528 21.7307 114.5808 21.7307 115.2648 21.7307 115.9418 22.1287 116.3688 23.1717 116.3688L23.9727 116.3688zM21.2217 115.2648C21.2217 114.2888 21.7927 113.5808 23.1717 113.5808L23.9727 113.5808C25.3537 113.5808 25.9237 114.2888 25.9237 115.2648 25.9237 116.2398 25.3537 116.9418 23.9727 116.9418L23.1717 116.9418C21.7927 116.9418 21.2217 116.2398 21.2217 115.2648zM23.4199 122.0724L23.4199 120.1654 21.3889 120.1654C21.3199 120.1654 21.2649 120.1104 21.2649 120.0414L21.2649 119.7244C21.2649 119.6564 21.3199 119.6004 21.3889 119.6004L24.7689 119.6004C25.5939 119.6004 25.9239 120.0534 25.9239 120.9244 25.9239 121.2904 25.9099 121.8744 25.8869 122.1344 25.8799 122.1714 25.8369 122.1974 25.7989 122.1974L25.4879 122.1974C25.4459 122.1974 25.4129 122.1714 25.4129 122.1284L25.4129 120.9294C25.4129 120.2714 25.2399 120.1654 24.7689 120.1654L23.9039 120.1654 23.9039 122.0724C23.9039 122.1414 23.8489 122.1974 23.7799 122.1974L23.5449 122.1974C23.4759 122.1974 23.4199 122.1414 23.4199 122.0724"/>
  </g>
</svg>
