<?xml version="1.0" encoding="UTF-8" standalone="no"?>
<svg width="149px" height="149px" viewBox="0 0 149 149" version="1.1" xmlns="http://www.w3.org/2000/svg" xmlns:xlink="http://www.w3.org/1999/xlink">
    <title>insta</title>
    <desc>Created with Sketch.</desc>
    <defs>
        <path d="M66.5497,132.486 C30.1037,132.486 0.5527,102.934 0.5527,66.481 C0.5527,30.038 30.1037,0.486 66.5497,0.486 C103.0027,0.486 132.5527,30.038 132.5527,66.481 C132.5527,102.934 103.0027,132.486 66.5497,132.486 Z" id="path-1"></path>
        <filter x="-11.7%" y="-17.0%" width="123.5%" height="123.5%" filterUnits="objectBoundingBox" id="filter-2">
            <feOffset dx="0" dy="-7" in="SourceAlpha" result="shadowOffsetOuter1"></feOffset>
            <feGaussianBlur stdDeviation="4" in="shadowOffsetOuter1" result="shadowBlurOuter1"></feGaussianBlur>
            <feColorMatrix values="0 0 0 0 0   0 0 0 0 0   0 0 0 0 0  0 0 0 0.5 0" type="matrix" in="shadowBlurOuter1"></feColorMatrix>
        </filter>
    </defs>
    <g id="Page-1" stroke="none" stroke-width="1" fill="none" fill-rule="evenodd">
        <g id="insta" transform="translate(8.000000, 15.000000)">
            <g id="Fill-2">
                <use fill="black" fill-opacity="1" filter="url(#filter-2)" xlink:href="#path-1"></use>
                <use fill="#FFE878" fill-rule="evenodd" xlink:href="#path-1"></use>
            </g>
            <path d="M60.3242,17.6797 C59.7082,17.6797 59.1772,17.8047 58.7282,18.0527 C58.2802,18.3007 57.9152,18.6337 57.6352,19.0487 C57.3532,19.4647 57.1452,19.9367 57.0112,20.4667 C56.8762,20.9957 56.8082,21.5357 56.8082,22.0867 C56.8082,22.6377 56.8762,23.1777 57.0112,23.7057 C57.1452,24.2357 57.3532,24.7077 57.6352,25.1237 C57.9152,25.5397 58.2802,25.8717 58.7282,26.1197 C59.1772,26.3687 59.7082,26.4927 60.3242,26.4927 C60.9392,26.4927 61.4712,26.3687 61.9202,26.1197 C62.3682,25.8717 62.7322,25.5397 63.0122,25.1237 C63.2942,24.7077 63.5022,24.2357 63.6372,23.7057 C63.7712,23.1777 63.8402,22.6377 63.8402,22.0867 C63.8402,21.5357 63.7712,20.9957 63.6372,20.4667 C63.5022,19.9367 63.2942,19.4647 63.0122,19.0487 C62.7322,18.6337 62.3682,18.3007 61.9202,18.0527 C61.4712,17.8047 60.9392,17.6797 60.3242,17.6797 M60.3242,16.0277 C61.1872,16.0277 61.9632,16.1897 62.6482,16.5137 C63.3342,16.8377 63.9152,17.2747 64.3902,17.8257 C64.8652,18.3767 65.2292,19.0187 65.4832,19.7537 C65.7372,20.4877 65.8642,21.2657 65.8642,22.0867 C65.8642,22.9177 65.7372,23.7007 65.4832,24.4347 C65.2292,25.1697 64.8652,25.8117 64.3902,26.3627 C63.9152,26.9137 63.3342,27.3487 62.6482,27.6667 C61.9632,27.9857 61.1872,28.1447 60.3242,28.1447 C59.4602,28.1447 58.6842,27.9857 57.9992,27.6667 C57.3132,27.3487 56.7322,26.9137 56.2582,26.3627 C55.7822,25.8117 55.4182,25.1697 55.1642,24.4347 C54.9102,23.7007 54.7832,22.9177 54.7832,22.0867 C54.7832,21.2657 54.9102,20.4877 55.1642,19.7537 C55.4182,19.0187 55.7822,18.3767 56.2582,17.8257 C56.7322,17.2747 57.3132,16.8377 57.9992,16.5137 C58.6842,16.1897 59.4602,16.0277 60.3242,16.0277" id="Fill-4" fill="#514D4D"></path>
            <polygon id="Fill-6" fill="#514D4D" points="68.2051 16.3027 70.3441 16.3027 75.6241 24.8237 75.6571 24.8237 75.6571 16.3027 77.5851 16.3027 77.5851 27.8697 75.4461 27.8697 70.1821 19.3647 70.1331 19.3647 70.1331 27.8697 68.2051 27.8697"></polygon>
            <polygon id="Fill-8" fill="#514D4D" points="27.762 109.288 29.786 109.288 29.786 97.72 27.762 97.72"></polygon>
            <path d="M32.5176,100.9111 L34.2676,100.9111 L34.2676,102.1421 L34.2996,102.1751 C34.5806,101.7101 34.9486,101.3461 35.4016,101.0811 C35.8556,100.8171 36.3576,100.6841 36.9086,100.6841 C37.8266,100.6841 38.5496,100.9221 39.0796,101.3971 C39.6086,101.8721 39.8726,102.5851 39.8726,103.5361 L39.8726,109.2881 L38.0266,109.2881 L38.0266,104.0211 C38.0036,103.3631 37.8646,102.8851 37.6046,102.5881 C37.3456,102.2911 36.9406,102.1421 36.3896,102.1421 C36.0766,102.1421 35.7956,102.1991 35.5466,102.3121 C35.2986,102.4261 35.0876,102.5821 34.9146,102.7821 C34.7426,102.9821 34.6076,103.2171 34.5106,103.4871 C34.4136,103.7571 34.3646,104.0431 34.3646,104.3461 L34.3646,109.2881 L32.5176,109.2881 L32.5176,100.9111 Z" id="Fill-10" fill="#514D4D"></path>
            <path d="M43.7412,106.5996 C43.7952,107.1386 44.0002,107.5176 44.3562,107.7326 C44.7132,107.9496 45.1392,108.0566 45.6372,108.0566 C45.8092,108.0566 46.0072,108.0426 46.2272,108.0166 C46.4492,107.9906 46.6572,107.9376 46.8512,107.8626 C47.0462,107.7866 47.2052,107.6756 47.3292,107.5306 C47.4532,107.3846 47.5102,107.1936 47.5002,106.9546 C47.4882,106.7176 47.4022,106.5236 47.2402,106.3716 C47.0782,106.2206 46.8702,106.0996 46.6162,106.0076 C46.3622,105.9156 46.0742,105.8376 45.7502,105.7716 C45.4262,105.7066 45.0962,105.6366 44.7622,105.5616 C44.4162,105.4856 44.0842,105.3926 43.7652,105.2856 C43.4472,105.1776 43.1602,105.0316 42.9072,104.8476 C42.6532,104.6636 42.4502,104.4296 42.3002,104.1426 C42.1482,103.8566 42.0722,103.5036 42.0722,103.0816 C42.0722,102.6286 42.1832,102.2476 42.4042,101.9396 C42.6262,101.6326 42.9072,101.3836 43.2472,101.1946 C43.5872,101.0056 43.9652,100.8736 44.3812,100.7976 C44.7972,100.7226 45.1932,100.6846 45.5712,100.6846 C46.0042,100.6846 46.4172,100.7306 46.8112,100.8226 C47.2052,100.9136 47.5612,101.0626 47.8802,101.2676 C48.1982,101.4736 48.4642,101.7406 48.6742,102.0696 C48.8852,102.3986 49.0162,102.7956 49.0712,103.2606 L47.1432,103.2606 C47.0562,102.8176 46.8542,102.5206 46.5362,102.3696 C46.2172,102.2186 45.8522,102.1426 45.4422,102.1426 C45.3122,102.1426 45.1582,102.1536 44.9802,102.1746 C44.8032,102.1966 44.6352,102.2376 44.4782,102.2966 C44.3212,102.3556 44.1892,102.4416 44.0812,102.5556 C43.9732,102.6686 43.9192,102.8176 43.9192,103.0006 C43.9192,103.2276 43.9982,103.4116 44.1552,103.5516 C44.3112,103.6926 44.5172,103.8086 44.7722,103.8996 C45.0272,103.9926 45.3162,104.0706 45.6412,104.1356 C45.9672,104.1996 46.3032,104.2696 46.6492,104.3456 C46.9842,104.4216 47.3152,104.5136 47.6392,104.6206 C47.9652,104.7286 48.2552,104.8746 48.5102,105.0586 C48.7632,105.2426 48.9702,105.4746 49.1272,105.7556 C49.2842,106.0376 49.3622,106.3826 49.3622,106.7926 C49.3622,107.2896 49.2492,107.7106 49.0212,108.0566 C48.7942,108.4026 48.4992,108.6836 48.1372,108.8996 C47.7742,109.1156 47.3712,109.2716 46.9282,109.3696 C46.4832,109.4666 46.0452,109.5146 45.6122,109.5146 C45.0822,109.5146 44.5922,109.4546 44.1422,109.3366 C43.6932,109.2176 43.3042,109.0376 42.9732,108.7936 C42.6432,108.5506 42.3842,108.2476 42.1942,107.8866 C42.0052,107.5256 41.9052,107.0956 41.8942,106.5996 L43.7412,106.5996 Z" id="Fill-11" fill="#514D4D"></path>
            <path d="M50.5225,100.9111 L51.9155,100.9111 L51.9155,98.4001 L53.7615,98.4001 L53.7615,100.9111 L55.4305,100.9111 L55.4305,102.2881 L53.7615,102.2881 L53.7615,106.7611 C53.7615,106.9551 53.7705,107.1231 53.7865,107.2641 C53.8025,107.4041 53.8405,107.5221 53.8995,107.6191 C53.9595,107.7171 54.0475,107.7891 54.1675,107.8381 C54.2865,107.8871 54.4485,107.9111 54.6535,107.9111 C54.7835,107.9111 54.9125,107.9081 55.0425,107.9021 C55.1715,107.8971 55.3005,107.8791 55.4305,107.8461 L55.4305,109.2711 C55.2255,109.2931 55.0255,109.3141 54.8315,109.3371 C54.6365,109.3581 54.4365,109.3691 54.2325,109.3691 C53.7465,109.3691 53.3545,109.3231 53.0575,109.2311 C52.7605,109.1401 52.5285,109.0041 52.3615,108.8261 C52.1935,108.6481 52.0805,108.4241 52.0205,108.1541 C51.9605,107.8851 51.9255,107.5761 51.9155,107.2301 L51.9155,102.2881 L50.5225,102.2881 L50.5225,100.9111 Z" id="Fill-12" fill="#514D4D"></path>
            <path d="M62.5938,105.0908 C62.3128,105.2738 61.9678,105.3848 61.5568,105.4228 C61.1468,105.4618 60.7368,105.5188 60.3258,105.5938 C60.1318,105.6258 59.9428,105.6718 59.7588,105.7318 C59.5748,105.7908 59.4128,105.8728 59.2728,105.9738 C59.1328,106.0778 59.0218,106.2128 58.9408,106.3808 C58.8598,106.5478 58.8198,106.7498 58.8198,106.9878 C58.8198,107.1938 58.8788,107.3648 58.9968,107.5058 C59.1158,107.6468 59.2588,107.7578 59.4268,107.8378 C59.5938,107.9188 59.7778,107.9768 59.9778,108.0078 C60.1778,108.0408 60.3588,108.0568 60.5208,108.0568 C60.7258,108.0568 60.9478,108.0298 61.1848,107.9768 C61.4218,107.9218 61.6468,107.8298 61.8568,107.7008 C62.0678,107.5698 62.2428,107.4058 62.3838,107.2068 C62.5238,107.0068 62.5938,106.7608 62.5938,106.4688 L62.5938,105.0908 Z M64.4408,107.4258 C64.4408,107.6528 64.4708,107.8148 64.5308,107.9108 C64.5888,108.0078 64.7048,108.0568 64.8778,108.0568 L65.0728,108.0568 C65.1478,108.0568 65.2348,108.0468 65.3318,108.0248 L65.3318,109.3048 C65.2668,109.3258 65.1838,109.3498 65.0808,109.3768 C64.9778,109.4038 64.8718,109.4278 64.7648,109.4498 C64.6568,109.4718 64.5488,109.4878 64.4408,109.4978 C64.3328,109.5098 64.2408,109.5148 64.1648,109.5148 C63.7868,109.5148 63.4738,109.4398 63.2258,109.2878 C62.9778,109.1368 62.8158,108.8728 62.7398,108.4938 C62.3718,108.8508 61.9218,109.1098 61.3868,109.2718 C60.8528,109.4338 60.3368,109.5148 59.8398,109.5148 C59.4618,109.5148 59.0998,109.4628 58.7548,109.3618 C58.4088,109.2578 58.1038,109.1078 57.8388,108.9068 C57.5738,108.7068 57.3648,108.4528 57.2068,108.1468 C57.0508,107.8378 56.9728,107.4798 56.9728,107.0688 C56.9728,106.5508 57.0678,106.1288 57.2558,105.8038 C57.4458,105.4798 57.6938,105.2258 58.0008,105.0418 C58.3088,104.8588 58.6548,104.7268 59.0378,104.6458 C59.4208,104.5648 59.8078,104.5028 60.1968,104.4588 C60.5308,104.3938 60.8498,104.3488 61.1528,104.3208 C61.4538,104.2948 61.7218,104.2488 61.9538,104.1838 C62.1868,104.1188 62.3698,104.0188 62.5048,103.8838 C62.6398,103.7488 62.7068,103.5468 62.7068,103.2768 C62.7068,103.0388 62.6508,102.8448 62.5368,102.6938 C62.4238,102.5418 62.2828,102.4258 62.1158,102.3448 C61.9478,102.2638 61.7618,102.2098 61.5568,102.1828 C61.3518,102.1558 61.1568,102.1428 60.9738,102.1428 C60.4548,102.1428 60.0288,102.2508 59.6948,102.4658 C59.3598,102.6828 59.1698,103.0168 59.1268,103.4708 L57.2808,103.4708 C57.3128,102.9308 57.4428,102.4828 57.6688,102.1268 C57.8958,101.7698 58.1848,101.4838 58.5358,101.2678 C58.8868,101.0518 59.2828,100.9008 59.7268,100.8138 C60.1688,100.7278 60.6228,100.6848 61.0868,100.6848 C61.4978,100.6848 61.9028,100.7278 62.3028,100.8138 C62.7018,100.9008 63.0608,101.0408 63.3798,101.2358 C63.6978,101.4298 63.9548,101.6808 64.1498,101.9878 C64.3438,102.2968 64.4408,102.6718 64.4408,103.1138 L64.4408,107.4258 Z" id="Fill-13" fill="#514D4D"></path>
            <path d="M70.6133,107.8301 C71.0233,107.8301 71.3723,107.7461 71.6583,107.5791 C71.9443,107.4121 72.1763,107.1901 72.3543,106.9141 C72.5333,106.6391 72.6623,106.3261 72.7433,105.9741 C72.8243,105.6241 72.8653,105.2691 72.8653,104.9131 C72.8653,104.5561 72.8213,104.2111 72.7353,103.8761 C72.6483,103.5411 72.5163,103.2441 72.3393,102.9851 C72.1603,102.7261 71.9273,102.5201 71.6413,102.3691 C71.3553,102.2181 71.0123,102.1431 70.6133,102.1431 C70.2023,102.1431 69.8573,102.2291 69.5763,102.4021 C69.2953,102.5751 69.0683,102.7981 68.8953,103.0741 C68.7223,103.3491 68.5983,103.6631 68.5233,104.0141 C68.4473,104.3651 68.4103,104.7131 68.4103,105.0591 C68.4103,105.4051 68.4533,105.7431 68.5393,106.0721 C68.6263,106.4021 68.7583,106.6961 68.9363,106.9551 C69.1143,107.2151 69.3423,107.4261 69.6173,107.5871 C69.8923,107.7491 70.2243,107.8301 70.6133,107.8301 L70.6133,107.8301 Z M74.7123,108.8511 C74.7123,110.1141 74.3573,111.0571 73.6503,111.6781 C72.9433,112.2991 71.9253,112.6091 70.5963,112.6091 C70.1763,112.6091 69.7523,112.5661 69.3253,112.4791 C68.8983,112.3921 68.5093,112.2471 68.1593,112.0421 C67.8073,111.8371 67.5133,111.5661 67.2763,111.2321 C67.0383,110.8961 66.8973,110.4861 66.8543,110.0011 L68.7013,110.0011 C68.7563,110.2601 68.8473,110.4711 68.9763,110.6331 C69.1063,110.7951 69.2603,110.9221 69.4383,111.0141 C69.6173,111.1051 69.8133,111.1641 70.0303,111.1911 C70.2463,111.2191 70.4723,111.2321 70.7103,111.2321 C71.4553,111.2321 72.0013,111.0491 72.3463,110.6821 C72.6923,110.3141 72.8653,109.7851 72.8653,109.0941 L72.8653,107.8141 L72.8323,107.8141 C72.5733,108.2781 72.2193,108.6411 71.7713,108.8991 C71.3233,109.1581 70.8403,109.2881 70.3213,109.2881 C69.6513,109.2881 69.0823,109.1721 68.6123,108.9391 C68.1423,108.7071 67.7543,108.3891 67.4463,107.9841 C67.1383,107.5791 66.9143,107.1111 66.7733,106.5821 C66.6333,106.0541 66.5633,105.4851 66.5633,104.8801 C66.5633,104.3191 66.6493,103.7841 66.8223,103.2761 C66.9953,102.7691 67.2433,102.3231 67.5673,101.9401 C67.8913,101.5571 68.2883,101.2511 68.7583,101.0241 C69.2273,100.7981 69.7593,100.6841 70.3533,100.6841 C70.8833,100.6841 71.3693,100.7951 71.8113,101.0171 C72.2553,101.2381 72.5943,101.5861 72.8323,102.0611 L72.8653,102.0611 L72.8653,100.9111 L74.7123,100.9111 L74.7123,108.8511 Z" id="Fill-14" fill="#514D4D"></path>
            <path d="M77.1641,100.9111 L78.8971,100.9111 L78.8971,102.5311 L78.9311,102.5311 C78.9841,102.3041 79.0901,102.0831 79.2461,101.8671 C79.4021,101.6511 79.5921,101.4541 79.8131,101.2761 C80.0341,101.0981 80.2801,100.9541 80.5501,100.8461 C80.8201,100.7391 81.0961,100.6841 81.3761,100.6841 C81.5931,100.6841 81.7411,100.6901 81.8221,100.7011 C81.9031,100.7111 81.9861,100.7221 82.0731,100.7331 L82.0731,102.5151 C81.9431,102.4941 81.8101,102.4741 81.6761,102.4581 C81.5411,102.4421 81.4091,102.4341 81.2791,102.4341 C80.9661,102.4341 80.6721,102.4961 80.3961,102.6201 C80.1211,102.7441 79.8811,102.9281 79.6761,103.1711 C79.4701,103.4141 79.3081,103.7141 79.1891,104.0701 C79.0701,104.4271 79.0111,104.8371 79.0111,105.3011 L79.0111,109.2881 L77.1641,109.2881 L77.1641,100.9111 Z" id="Fill-15" fill="#514D4D"></path>
            <path d="M88.7822,105.0908 C88.5012,105.2738 88.1562,105.3848 87.7452,105.4228 C87.3352,105.4618 86.9252,105.5188 86.5142,105.5938 C86.3202,105.6258 86.1312,105.6718 85.9472,105.7318 C85.7632,105.7908 85.6012,105.8728 85.4612,105.9738 C85.3212,106.0778 85.2102,106.2128 85.1292,106.3808 C85.0482,106.5478 85.0082,106.7498 85.0082,106.9878 C85.0082,107.1938 85.0672,107.3648 85.1852,107.5058 C85.3042,107.6468 85.4472,107.7578 85.6152,107.8378 C85.7822,107.9188 85.9662,107.9768 86.1662,108.0078 C86.3662,108.0408 86.5472,108.0568 86.7092,108.0568 C86.9142,108.0568 87.1362,108.0298 87.3732,107.9768 C87.6102,107.9218 87.8352,107.8298 88.0452,107.7008 C88.2562,107.5698 88.4312,107.4058 88.5722,107.2068 C88.7122,107.0068 88.7822,106.7608 88.7822,106.4688 L88.7822,105.0908 Z M90.6292,107.4258 C90.6292,107.6528 90.6592,107.8148 90.7192,107.9108 C90.7772,108.0078 90.8932,108.0568 91.0662,108.0568 L91.2612,108.0568 C91.3362,108.0568 91.4232,108.0468 91.5202,108.0248 L91.5202,109.3048 C91.4552,109.3258 91.3722,109.3498 91.2692,109.3768 C91.1662,109.4038 91.0602,109.4278 90.9532,109.4498 C90.8452,109.4718 90.7372,109.4878 90.6292,109.4978 C90.5212,109.5098 90.4292,109.5148 90.3532,109.5148 C89.9752,109.5148 89.6622,109.4398 89.4142,109.2878 C89.1662,109.1368 89.0042,108.8728 88.9282,108.4938 C88.5602,108.8508 88.1102,109.1098 87.5752,109.2718 C87.0412,109.4338 86.5252,109.5148 86.0282,109.5148 C85.6502,109.5148 85.2882,109.4628 84.9432,109.3618 C84.5972,109.2578 84.2922,109.1078 84.0272,108.9068 C83.7622,108.7068 83.5532,108.4528 83.3952,108.1468 C83.2392,107.8378 83.1612,107.4798 83.1612,107.0688 C83.1612,106.5508 83.2562,106.1288 83.4442,105.8038 C83.6342,105.4798 83.8822,105.2258 84.1892,105.0418 C84.4972,104.8588 84.8432,104.7268 85.2262,104.6458 C85.6092,104.5648 85.9962,104.5028 86.3852,104.4588 C86.7192,104.3938 87.0382,104.3488 87.3412,104.3208 C87.6422,104.2948 87.9102,104.2488 88.1422,104.1838 C88.3752,104.1188 88.5582,104.0188 88.6932,103.8838 C88.8282,103.7488 88.8952,103.5468 88.8952,103.2768 C88.8952,103.0388 88.8392,102.8448 88.7252,102.6938 C88.6122,102.5418 88.4712,102.4258 88.3042,102.3448 C88.1362,102.2638 87.9502,102.2098 87.7452,102.1828 C87.5402,102.1558 87.3452,102.1428 87.1622,102.1428 C86.6432,102.1428 86.2172,102.2508 85.8832,102.4658 C85.5482,102.6828 85.3582,103.0168 85.3152,103.4708 L83.4692,103.4708 C83.5012,102.9308 83.6312,102.4828 83.8572,102.1268 C84.0842,101.7698 84.3732,101.4838 84.7242,101.2678 C85.0752,101.0518 85.4712,100.9008 85.9152,100.8138 C86.3572,100.7278 86.8112,100.6848 87.2752,100.6848 C87.6862,100.6848 88.0912,100.7278 88.4912,100.8138 C88.8902,100.9008 89.2492,101.0408 89.5682,101.2358 C89.8862,101.4298 90.1432,101.6808 90.3382,101.9878 C90.5322,102.2968 90.6292,102.6718 90.6292,103.1138 L90.6292,107.4258 Z" id="Fill-16" fill="#514D4D"></path>
            <path d="M93.2666,100.9111 L95.0166,100.9111 L95.0166,102.0781 L95.0656,102.0781 C95.2046,101.8721 95.3566,101.6831 95.5186,101.5111 C95.6806,101.3381 95.8616,101.1921 96.0616,101.0731 C96.2606,100.9541 96.4906,100.8601 96.7496,100.7891 C97.0086,100.7201 97.3056,100.6841 97.6406,100.6841 C98.1486,100.6841 98.6206,100.7981 99.0586,101.0241 C99.4956,101.2511 99.8066,101.6021 99.9906,102.0781 C100.3026,101.6461 100.6646,101.3061 101.0756,101.0571 C101.4856,100.8081 101.9986,100.6841 102.6146,100.6841 C103.4996,100.6841 104.1886,100.9001 104.6796,101.3321 C105.1706,101.7651 105.4166,102.4881 105.4166,103.5031 L105.4166,109.2881 L103.5706,109.2881 L103.5706,104.3941 C103.5706,104.0591 103.5596,103.7541 103.5376,103.4791 C103.5156,103.2031 103.4546,102.9661 103.3516,102.7661 C103.2486,102.5661 103.0946,102.4121 102.8896,102.3041 C102.6846,102.1971 102.4036,102.1421 102.0466,102.1421 C101.4206,102.1421 100.9666,102.3371 100.6866,102.7251 C100.4056,103.1141 100.2656,103.6651 100.2656,104.3781 L100.2656,109.2881 L98.4186,109.2881 L98.4186,103.9081 C98.4186,103.3251 98.3136,102.8851 98.1026,102.5881 C97.8916,102.2911 97.5056,102.1421 96.9446,102.1421 C96.7066,102.1421 96.4776,102.1911 96.2556,102.2881 C96.0346,102.3851 95.8396,102.5261 95.6726,102.7091 C95.5046,102.8931 95.3706,103.1201 95.2676,103.3901 C95.1646,103.6601 95.1136,103.9681 95.1136,104.3131 L95.1136,109.2881 L93.2666,109.2881 L93.2666,100.9111 Z" id="Fill-17" fill="#514D4D"></path>
            <path d="M66.458,41.0229 C60.471,41.0229 59.721,41.0519 57.365,41.1529 C55.023,41.2659 53.427,41.6249 52.01,42.1719 C50.565,42.7409 49.334,43.4909 48.101,44.7289 C46.878,45.9419 46.12,47.1869 45.56,48.6259 C45.019,50.0319 44.644,51.6429 44.535,53.9909 C44.435,56.3309 44.401,57.0769 44.401,63.0809 C44.401,69.0729 44.435,69.8189 44.535,72.1649 C44.644,74.5259 45.019,76.1289 45.569,77.5259 C46.12,78.9739 46.878,80.2079 48.101,81.4339 C49.334,82.6689 50.565,83.4149 52.01,83.9749 C53.427,84.5209 55.023,84.8989 57.365,85.0139 C59.721,85.1089 60.471,85.1319 66.458,85.1319 C72.454,85.1319 73.194,85.1089 75.571,85.0139 C77.903,84.8989 79.509,84.5209 80.915,83.9749 C82.37,83.4149 83.592,82.6689 84.822,81.4339 C86.048,80.2079 86.808,78.9739 87.367,77.5259 C87.909,76.1289 88.281,74.5259 88.39,72.1649 C88.487,69.8189 88.514,69.0729 88.514,63.0809 C88.514,57.0769 88.487,56.3309 88.39,53.9909 C88.281,51.6369 87.909,50.0319 87.367,48.6259 C86.808,47.1869 86.048,45.9539 84.822,44.7289 C83.592,43.4909 82.37,42.7409 80.905,42.1719 C79.509,41.6249 77.903,41.2659 75.571,41.1529 C73.194,41.0519 72.443,41.0229 66.458,41.0229 M66.458,44.9899 C72.356,44.9899 73.05,45.0159 75.37,45.1269 C77.526,45.2239 78.695,45.5789 79.476,45.8699 C80.5,46.2799 81.238,46.7679 82.007,47.5269 C82.788,48.3089 83.249,49.0399 83.659,50.0709 C83.955,50.8539 84.327,52.0079 84.419,54.1659 C84.529,56.4859 84.553,57.1919 84.553,63.0809 C84.553,68.9609 84.529,69.6689 84.419,71.9909 C84.327,74.1549 83.955,75.2999 83.669,76.0919 C83.249,77.1219 82.788,77.8539 82.007,78.6219 C81.238,79.3969 80.5,79.8759 79.476,80.2639 C78.695,80.5769 77.526,80.9299 75.37,81.0419 C73.05,81.1449 72.356,81.1589 66.458,81.1589 C60.569,81.1589 59.866,81.1449 57.558,81.0419 C55.396,80.9299 54.22,80.5769 53.447,80.2639 C52.413,79.8759 51.687,79.3849 50.915,78.6219 C50.148,77.8539 49.675,77.1219 49.268,76.0919 C48.971,75.2999 48.604,74.1549 48.508,71.9909 C48.399,69.6609 48.374,68.9609 48.374,63.0809 C48.374,57.1919 48.399,56.4859 48.508,54.1659 C48.604,52.0079 48.971,50.8539 49.268,50.0709 C49.675,49.0399 50.148,48.3089 50.915,47.5269 C51.687,46.7679 52.426,46.2799 53.447,45.8699 C54.22,45.5789 55.396,45.2239 57.558,45.1269 C59.866,45.0159 60.569,44.9899 66.458,44.9899" id="Fill-18" fill="#514D4D"></path>
            <path d="M66.458,70.4321 C62.397,70.4321 59.106,67.1371 59.106,63.0801 C59.106,59.0141 62.397,55.7271 66.458,55.7271 C70.528,55.7271 73.809,59.0141 73.809,63.0801 C73.809,67.1371 70.528,70.4321 66.458,70.4321 M66.458,51.7391 C60.206,51.7391 55.134,56.8111 55.134,63.0801 C55.134,69.3441 60.206,74.3971 66.458,74.3971 C72.719,74.3971 77.788,69.3441 77.788,63.0801 C77.788,56.8111 72.719,51.7391 66.458,51.7391" id="Fill-19" fill="#514D4D"></path>
            <path d="M80.8867,51.3032 C80.8867,52.7632 79.6987,53.9462 78.2427,53.9462 C76.7687,53.9462 75.5927,52.7632 75.5927,51.3032 C75.5927,49.8542 76.7687,48.6602 78.2427,48.6602 C79.6987,48.6602 80.8867,49.8542 80.8867,51.3032" id="Fill-20" fill="#514D4D"></path>
        </g>
    </g>
</svg>