<svg height="212" viewBox="0 0 198 212" width="198" xmlns="http://www.w3.org/2000/svg"><g fill="none" fill-rule="evenodd"><path d="m15.9726 133.6749 2.849-.037c3.715.529 5.547 1.304 5.554 2.481l.718.873.007.233-.388.476c.08.629.404 1.262.876 1.807l.012.156-.631.72.158.159.01.714c0 .319-.631.637-1.81 1.047l-3.261-2.738-2.94-1.403-4.042-.826-.866.005c-3.242.346-5.055 1.158-5.35 2.495-.241.007-.478.647-.698 1.987l.003.48.721.855-.157.16.009.63c1.113 1.652 2.399 2.829 3.905 3.601l.231-.159.245-.002 2.532 1.086c1.03-.008 2.616.605 4.92 1.927l.156-.236h.876c.711-.017 1.742.762 2.947 2.342 1.344.614 2.457 1.396 3.416 2.254l-.239.317v.165c1.426.853 2.163 2.737 2.188 5.743l-.164.558.182.627c-.244 0-.39.565-.39 1.593-.845 2.057-1.706 3.328-2.565 3.73 0 .558-1.264 1.589-3.77 2.967 0 .309-.312.476-1.025.478 0 .392-1.418.806-4.335 1.384 0 .24-.473.401-1.341.408l-.629.003-1.979-.139-.233.164-.24.007c-.875-.556-1.91-.859-3.086-.85l-1.192.008c-4.759-1.616-7.149-3.171-7.157-4.594.237-.945.378-1.43.623-1.43l-.249-1.027c-.018-1.895.216-2.842.606-2.848l.479-.006c.949-.008 2.141 1.012 3.661 2.969 2.626 2.114 4.844 3.116 6.747 3.097 0 .244 1.506.624 4.43 1.07 3.395-1.691 5.109-2.882 5.109-3.604.871-.563 1.253-1.187 1.252-1.748l.857-.876-1.279-1.569.233-.083c-.01-1.897-1.369-3.303-4.143-4.312-.008-.464-1.346-.85-3.959-1.222-.327-.638-1.916-1.336-4.762-2.094-.25-.712-1.284-1.252-3.024-1.64-2.308-1.944-3.828-3.755-4.473-5.4-.401.004-.557-.234-.564-.714l.457-1.34-.003-.4-.486-1.422 1.785-3.964-.149-.31 4.381-3.526c2.128-1.044 4.415-1.621 6.863-1.638zm58.7168 4.5972.707-.007.005.317-.712.003zm-21.921 32.21.01.162.548-.004-.008-.165zm-.105-29.085v.233l-.148 1.431.173.871-.156.628.166 1.104-.145 1.114.197 3.789v.156l-.46 1.665v.235l.478.633.01.238-.134 2.37c0 .474.155.71.559.702l.306.081v.159l-.699.714.244.159v.232l-.39 1.747c.241 0 .488.545.577 1.656l-.553.241.004.389c.714.155 1.036.391 1.036.712l-.151.546c.017 2.299 1.45 3.866 4.229 4.862.01.391 1.273.78 3.798 1.071 2.454-.578 3.634-.982 3.627-1.134l.166-.164-.005-.234.234.234.477-.004c2.365-1.844 3.839-3.993 4.524-6.441l1.34-1.283-.253-1.019c.314 0 .469-.243.465-.717l-.236-.635.699-.638-.327-1.415.314-.637c-.356-3.872-.686-5.761-1.007-5.761l-.011-1.976-1.121-1.174.239-.162-.009-.867c-.882-1.966-2.965-4.009-6.225-6.186l-1.901-.539-3.08.113-.875-.078c-3.778 1.066-5.829 2.033-6.132 2.753zm.189-5.536.154.246.011 1.024-.155.31.003.163.159-.001c3.141-2.482 5.18-3.688 6.199-3.688l4.037-.842c2.445-.012 5.465 1.304 9.2 3.873.637.547 1.199 1.255 1.606 2.279 1.349 1.486 2.161 2.979 2.406 4.479l.881.867-.153.244.675 4.648-.241.166v.241c.406.698.572 1.415.572 2.122v.167l-.068.229.068.158.014.316-.079.556.085.318-1.138 4.593.238.714c-.553.001-.945.639-1.082 1.824l.236.233v.24c-2.965 4.291-4.689 6.44-5.08 6.442-1.012 1.27-2.273 2.154-3.777 2.563l-.23-.315c-.563.01-.951.489-1.101 1.362l-5.998.999-1.968-.217-.713.166-.885-1.024-4.268-.434c.247 1.581.501 2.611.743 3.153l-.391 1.032.898 2.998-.476.397.172.709-.135 1.897 1.029 2.045c.724-.001 1.202.695 1.61 2.196l-1.256.963-.319.001-.871-.306-1.733.326-3.562.034c-2.365.028-3.561-.678-3.569-2.016v-.237c1.173-.643 1.72-1.443 1.715-2.386l.458-.96-.319-.865.311-.233v-.243l-.337-1.889.38-1.904-.399-.464-.004-.64.384-1.741-.094-.711.074-.627-.414-1.656.623-1.353v-.631l-.326-.635-.011-1.34.442-2.931-.468-.623.46-.635-.399-1.267h.237l-.237-.153.227-1.107-.244-.233-.007-.244.23-.865-.003-.403-.318-.468.065-.945-.028-3.642.23-.156-.238-.237v-.238l.388-1.502-.17-.862.153-.009-.81-2.686.373-1.729v-.722l-.402-.543.389-1.513-.084-.15v-.241l.065-.863-2.312-2.749-.019-.875.861-.878c0-.395.632-.711 1.807-1.042-.001-.557 1.42-1.272 4.258-2.089.79-.014 1.356.856 1.765 2.665zm48.4454-18.4586c.004.56.477 1.02 1.435 1.326.548.158 1.112 1.257 1.768 3.308-.24 0-.631.875-1.321 2.542l-2.446 1.281c-2.846-1.08-4.286-2.566-4.299-4.384-.023-2.129 1.544-3.483 4.695-4.073zm.937 16.659c1.042.551 1.518 1.893 1.542 4.024v.469l-.144 2.145.405.472-.694 1.895.481.391.008.477-.471.873.34 2.842-.457 1.109c.388-.004.634.627.889 1.964l-.386 1.197.019 1.977-.473.48.169 1.022.002.949-.139 1.107.163 1.346v.159l-.145.866.489 2.053-.311.318v.154l.494 1.736c-.395 0-.551.329-.63.874l.651.941-.472.484 1.766 3.222.327 1.26c-.866.566-1.574.883-2.048.885l-1.264-.454-.318.472-.392.007-.716-.468-1.498.253-.008-.246-1.569.656c-.955.002-1.587-.623-1.839-1.887.865-.719 1.567-2.138 2.098-4.284l-.33-1.819.071-1.19-.084-.544.301-.484-.316-.391-.004-.229.077-.244-.077-.234v-.074l.458-1.586-.483-.63.064-1.502-.078-.639.313-.395v-.155l-.245-.866.383-.877c-.092-1.182-.412-1.895-.814-2.277l.621-1.11-.323-.407.076-1.102-.564-.859c.245-.004.386-.407.542-1.2l-.092-1.097.074-.63-.078-.25-.316.01.358-4.035-.004-.634-2.315-2.189v-.558c1.646-1.829 3.294-2.79 4.87-2.803.15-.477.545-.718 1.269-.727zm43.7769 30.0329.233-.002v.479h-.233zm-15.303-22.3.162-.007.469.387-.153.166h-.316l-.162-.153zm18.214-5.072c-.322 0-.473.403-.473 1.188l-2.194 2.386-.237-.154-.234.006-.241.168h-.151c-.714.008-2.697-1.243-6.035-3.661l-1.831-.696c-1.743.011-3.313.824-4.716 2.336-.874.004-1.892.965-3.218 2.876l.246 1.025c-1.321 2.064-2.017 3.649-2.011 4.836l.413 1.258c-.407.012-.624.878-.615 2.619l-.234.241-.155.546c.09 1.188.497 1.969 1.046 2.449l.015 1.421c.004.789.408 1.889 1.295 3.386l-.312.631c.795.556 1.523 1.491 2.087 2.907 2.39 2.036 4.688 3.121 6.986 3.344l1.73-.644 1.269-.019v.239l-.236.628h.244c1.19-.093 1.81-.334 1.808-.888l1.342-.246 1.109.226 3.303-2.321c.229 0 .388-.244.376-.638 1.351.224 2.071.851 2.077 1.875-3.362 3.902-6.502 6.15-9.334 6.886l-2.767.66-.313-.157h-.163l-1.419.168-3.009-.372-.23.246-3.575-1.702c-1.034-1.183-2.793-2.749-5.178-4.701-.011-.865-.812-2.283-2.339-4.396l.159-.563-.423-2.604h.249l-.89-1.492-.004-.555.379-1.273-.257-2.051.462-1.341-.242-1.11c.238 0 .76-1.592 1.461-4.678.389 0 .939-.955 1.47-2.929.707-.251 1.253-1.205 1.712-2.865.158 0 .703-.718 1.562-2.074.478-.004 1.655-.877 3.456-2.636.875-.004 1.968-.809 3.379-2.322l1.499.227 1.031-.016.868-.251.162.24h.235c1.023-.168 1.488-.411 1.488-.727 3.552-.028 6.259 1.682 8.118 5.064zm39.8868-4.1564h.232v.318h-.23zm-12.536 37.814h.474l.001.234h-.475zm2.442-35.433c-.542.883-1.801 1.915-3.609 2.958-.857 1.037-1.483 2.385-1.859 4.212-.775.868-1.167 1.909-1.148 2.922l-.243.165v.24c.4 0 .634.234.634.628l.795.235 1.904-.26.312-.009.867.234.154-.237h.245c1.1.064 1.653.141 1.653.302l7.184-.545 1.9.143.241-.162h.234l.871.151 2.126-1.052c-.018-1.185-.655-3.16-2.028-5.988l-.007-.714c-.399.007-.724-.381-1.034-1.096-1.843-1.637-3.039-2.414-3.426-2.41zm5.731-4.08c.715-.007 1.973.616 2.855 1.867 4.133 2.174 6.205 3.661 6.22 4.528l1.596 1.961c.718.712 1.041 1.73 1.447 3.149 1.208 1.888 1.133 3.473 1.148 4.654.018 1.416-1.475 2.224-4.4 2.41l-.708-.149-1.822.65c-.002-.398-.559-.632-1.745-.857l-1.266.004c-1.658.029-2.527.192-2.519.426l-1.347-.143-1.738.172-.478-.153-1.101.17-7.597-.575c.007.249-.467.566-1.494.895l.009.469-.245.002c.183 2.134.436 3.633.69 4.423l-.241.713.885.705-.16.873 2.491 4.484 2.636 2.263c1.268.223 2.299.768 3.174 1.632l2.286-.249.486.459.865-.002.154-.238h.233l.475.462c.243-.32 1.581-.65 4.181-.911l.637-.545.467-.017c1.027-.009 1.742.304 2.068.938.018 2.677-2.805 4.444-8.492 5.21l-.158.238-.385.006-1.905-.221-.233.239h-.152c-2.3-.291-4.917-1.145-7.862-2.937l-2.537-2.187c-.012-.629-.657-1.491-1.922-2.662l-1.878-5.285-.234-.237.459-1.265-.235-.233v-.237l.235-.161-.006-.083-.238-.864.222-.863-.724-1.747.821-5.139-.167-.79c.241 0 .39-.635.618-1.902.479-.003.709-.562.696-1.745.467-.555 1.954-2.785 4.436-6.833 3.534-2.569 6.29-3.852 8.113-3.87-.002-.318.472-.481 1.413-.485l1.746.689.866-.241-.002-.483-.63.009zm-18.115 15.502h.393l.005.309-.398.004zm-140.0561 61.68c.373-.236.685-.53.92-.899.246-.35.413-.757.522-1.21.119-.45.172-.903.168-1.365-.001-.5-.077-.976-.207-1.425-.132-.447-.31-.846-.57-1.194-.243-.343-.56-.614-.948-.817-.383-.204-.821-.299-1.323-.287-.5.002-.939.108-1.337.314-.388.207-.716.477-.981.824-.266.346-.467.751-.602 1.205-.137.457-.211.932-.202 1.437.012 1.221.307 2.168.885 2.801.59.655 1.358.971 2.298.963.545-.004.997-.124 1.377-.347zm-4.807 3.167-.093-10.464h.305l.02 2.186h.032c.091-.347.235-.661.431-.948.19-.291.415-.543.674-.757.255-.219.563-.381.896-.504.336-.115.706-.179 1.104-.179.508-.012.971.089 1.383.288.413.199.763.476 1.054.83.292.37.516.795.669 1.294.155.491.242 1.028.246 1.613 0 .553-.066 1.075-.205 1.568-.148.5-.354.934-.629 1.312-.268.375-.62.675-1.032.887-.403.222-.88.332-1.425.341-.823.015-1.508-.198-2.044-.626-.544-.425-.904-.987-1.1-1.691h-.022l.047 4.85z" fill="#fff"/><path d="m26.2754 208.049c.373-.236.685-.53.92-.899.246-.35.413-.757.522-1.21.119-.45.172-.903.168-1.365-.001-.5-.077-.976-.207-1.425-.132-.447-.31-.846-.57-1.194-.243-.343-.56-.614-.948-.817-.383-.204-.821-.299-1.323-.287-.5.002-.939.108-1.337.314-.388.207-.716.477-.981.824-.266.346-.467.751-.602 1.205-.137.457-.211.932-.202 1.437.012 1.221.307 2.168.885 2.801.59.655 1.358.971 2.298.963.545-.004.997-.124 1.377-.347zm-4.807 3.167-.093-10.464h.305l.02 2.186h.032c.091-.347.235-.661.431-.948.19-.291.415-.543.674-.757.255-.219.563-.381.896-.504.336-.115.706-.179 1.104-.179.508-.012.971.089 1.383.288.413.199.763.476 1.054.83.292.37.516.795.669 1.294.155.491.242 1.028.246 1.613 0 .553-.066 1.075-.205 1.568-.148.5-.354.934-.629 1.312-.268.375-.62.675-1.032.887-.403.222-.88.332-1.425.341-.823.015-1.508-.198-2.044-.626-.544-.425-.904-.987-1.1-1.691h-.022l.047 4.85z" stroke="#fff" stroke-linecap="round" stroke-linejoin="round" stroke-width=".79"/><path d="m31.6855 208.455-.07-7.787.295-.004.028 1.924h.026c.069-.298.179-.571.326-.834.152-.259.354-.482.602-.673.245-.202.545-.352.892-.467.351-.111.761-.168 1.226-.166051v.304051c-.537-.023-1.001.055-1.388.237-.381.179-.708.427-.953.737-.255.309-.433.661-.552 1.067-.118.414-.175.825-.167 1.249l.032 4.412z" fill="#fff"/><path d="m31.6855 208.455-.07-7.787.295-.004.028 1.924h.026c.069-.298.179-.571.326-.834.152-.259.354-.482.602-.673.245-.202.545-.352.892-.467.351-.111.761-.168 1.226-.166051v.304051c-.537-.023-1.001.055-1.388.237-.381.179-.708.427-.953.737-.255.309-.433.661-.552 1.067-.118.414-.175.825-.167 1.249l.032 4.412z" stroke="#fff" stroke-linecap="round" stroke-linejoin="round" stroke-width=".79"/><path d="m37.456 205.9318c.138.454.34.854.623 1.199.269.349.613.621 1.013.822.405.206.867.309 1.388.302.518 0 .974-.11 1.364-.324.406-.214.741-.498 1.008-.843.27-.356.467-.754.597-1.207.137-.459.199-.934.199-1.429-.009-.483-.076-.958-.216-1.412-.151-.449-.355-.852-.628-1.194-.274-.351-.618-.622-1.015-.836-.402-.211-.858-.308-1.381-.305-.527.003-.982.119-1.376.332-.396.218-.73.504-1.014.852-.255.356-.464.759-.59 1.212-.132.455-.2.925-.187 1.414 0 .494.069.965.215 1.417m-.311-2.961c.146-.489.367-.929.665-1.308.292-.366.654-.674 1.091-.911.431-.223.929-.342 1.507-.344.569-.015 1.07.1 1.511.328.436.216.802.519 1.111.879.29.376.518.805.679 1.294.156.489.232 1.006.241 1.537 0 .543-.064 1.047-.215 1.543-.141.489-.369.929-.67 1.309-.29.366-.65.679-1.085.894-.437.23-.931.347-1.508.348-.57 0-1.07-.1-1.505-.317-.434-.216-.808-.513-1.109-.882-.304-.379-.532-.8-.686-1.292-.151-.489-.238-1.001-.238-1.534-.009-.541.066-1.052.211-1.544" fill="#fff"/><path d="m37.456 205.9318c.138.454.34.854.623 1.199.269.349.613.621 1.013.822.405.206.867.309 1.388.302.518 0 .974-.11 1.364-.324.406-.214.741-.498 1.008-.843.27-.356.467-.754.597-1.207.137-.459.199-.934.199-1.429-.009-.483-.076-.958-.216-1.412-.151-.449-.355-.852-.628-1.194-.274-.351-.618-.622-1.015-.836-.402-.211-.858-.308-1.381-.305-.527.003-.982.119-1.376.332-.396.218-.73.504-1.014.852-.255.356-.464.759-.59 1.212-.132.455-.2.925-.187 1.414 0 .494.069.965.215 1.417zm-.311-2.961c.146-.489.367-.929.665-1.308.292-.366.654-.674 1.091-.911.431-.223.929-.342 1.507-.344.569-.015 1.07.1 1.511.328.436.216.802.519 1.111.879.29.376.518.805.679 1.294.156.489.232 1.006.241 1.537 0 .543-.064 1.047-.215 1.543-.141.489-.369.929-.67 1.309-.29.366-.65.679-1.085.894-.437.23-.931.347-1.508.348-.57 0-1.07-.1-1.505-.317-.434-.216-.808-.513-1.109-.882-.304-.379-.532-.8-.686-1.292-.151-.489-.238-1.001-.238-1.534-.009-.541.066-1.052.211-1.544z" stroke="#fff" stroke-linecap="round" stroke-linejoin="round" stroke-width=".79"/><path d="m52.5556 201.5724c-.572-.637-1.338-.966-2.296-.958-.519.005-.977.127-1.356.351-.378.23-.699.529-.93.891-.246.359-.413.765-.532 1.221-.112.448-.166.897-.158 1.355 0 .499.07.972.197 1.419.131.454.319.862.577 1.208.249.342.566.615.943.818.378.203.826.291 1.329.289.5-.008.952-.112 1.338-.313.393-.21.712-.488.983-.836.267-.343.467-.745.597-1.195.138-.46.206-.939.206-1.453-.012-1.217-.317-2.154-.898-2.797zm1.135-4.133.102 10.815-.309.007-.021-2.186h-.024c-.197.701-.563 1.266-1.107 1.714-.534.433-1.194.656-2.002.665-.507.001-.973-.099-1.384-.288-.417-.204-.76-.48-1.056-.834-.294-.358-.521-.784-.675-1.281-.152-.489-.234-1.033-.237-1.619 0-.542.061-1.067.207-1.561.143-.494.348-.926.619-1.304.28-.372.628-.688 1.034-.905.404-.227.887-.342 1.418-.345.828-.016 1.518.195 2.059.63.536.43.899.998 1.092 1.701h.032l-.053-5.206z" fill="#fff"/><path d="m52.5556 201.5724c-.572-.637-1.338-.966-2.296-.958-.519.005-.977.127-1.356.351-.378.23-.699.529-.93.891-.246.359-.413.765-.532 1.221-.112.448-.166.897-.158 1.355 0 .499.07.972.197 1.419.131.454.319.862.577 1.208.249.342.566.615.943.818.378.203.826.291 1.329.289.5-.008.952-.112 1.338-.313.393-.21.712-.488.983-.836.267-.343.467-.745.597-1.195.138-.46.206-.939.206-1.453-.012-1.217-.317-2.154-.898-2.797zm1.135-4.133.102 10.815-.309.007-.021-2.186h-.024c-.197.701-.563 1.266-1.107 1.714-.534.433-1.194.656-2.002.665-.507.001-.973-.099-1.384-.288-.417-.204-.76-.48-1.056-.834-.294-.358-.521-.784-.675-1.281-.152-.489-.234-1.033-.237-1.619 0-.542.061-1.067.207-1.561.143-.494.348-.926.619-1.304.28-.372.628-.688 1.034-.905.404-.227.887-.342 1.418-.345.828-.016 1.518.195 2.059.63.536.43.899.998 1.092 1.701h.032l-.053-5.206z" stroke="#fff" stroke-linecap="round" stroke-linejoin="round" stroke-width=".79"/><path d="m63.2461 208.1681-.021-1.929-.033.002c-.131.606-.435 1.109-.917 1.51-.473.398-1.096.604-1.863.604-.409.004-.771-.047-1.116-.164-.351-.11-.632-.282-.881-.517-.253-.241-.445-.531-.591-.874-.135-.347-.208-.748-.208-1.206l-.056-5.166h.308l.049 5.12c0 .455.072.845.207 1.153.134.327.312.581.541.794.231.197.494.343.794.439.299.089.614.146.949.133.468-.003.873-.088 1.227-.275.349-.171.644-.416.882-.715.23-.301.407-.646.531-1.042.115-.398.174-.813.165-1.247l-.036-4.411.3-.001.069 7.792z" fill="#fff"/><path d="m63.2461 208.1681-.021-1.929-.033.002c-.131.606-.435 1.109-.917 1.51-.473.398-1.096.604-1.863.604-.409.004-.771-.047-1.116-.164-.351-.11-.632-.282-.881-.517-.253-.241-.445-.531-.591-.874-.135-.347-.208-.748-.208-1.206l-.056-5.166h.308l.049 5.12c0 .455.072.845.207 1.153.134.327.312.581.541.794.231.197.494.343.794.439.299.089.614.146.949.133.468-.003.873-.088 1.227-.275.349-.171.644-.416.882-.715.23-.301.407-.646.531-1.042.115-.398.174-.813.165-1.247l-.036-4.411.3-.001.069 7.792z" stroke="#fff" stroke-linecap="round" stroke-linejoin="round" stroke-width=".79"/><path d="m73.3096 206.598c-.17.35-.389.647-.663.897-.284.243-.6.429-.969.566-.369.13-.776.204-1.222.208-.553 0-1.044-.095-1.485-.292-.431-.212-.792-.482-1.081-.837-.302-.355-.532-.763-.685-1.231-.155-.467-.235-.963-.244-1.5 0-.569.068-1.115.208-1.62.148-.512.364-.963.658-1.361.29-.386.668-.699 1.127-.938.46-.235.994-.357 1.61-.366.365 0 .713.051 1.049.162.329.106.629.266.893.479.271.202.492.468.672.783.182.323.296.682.345 1.1h-.298c-.058-.382-.175-.708-.347-.988-.167-.28-.358-.506-.589-.694-.24-.186-.501-.32-.798-.412-.294-.083-.597-.126-.926-.119-.611 0-1.136.121-1.565.362-.428.245-.764.556-1.024.94-.253.379-.437.803-.549 1.272-.109.48-.158.934-.158 1.391.008.476.074.931.218 1.365.134.429.34.819.604 1.153.277.325.602.586 1.003.779.388.193.853.283 1.354.282.39 0 .749-.061 1.08-.187.338-.114.628-.288.885-.515.252-.218.464-.492.622-.802.159-.304.26-.657.275-1.053l.305-.004c-.034.433-.141.823-.305 1.18" fill="#fff"/><path d="m73.3096 206.598c-.17.35-.389.647-.663.897-.284.243-.6.429-.969.566-.369.13-.776.204-1.222.208-.553 0-1.044-.095-1.485-.292-.431-.212-.792-.482-1.081-.837-.302-.355-.532-.763-.685-1.231-.155-.467-.235-.963-.244-1.5 0-.569.068-1.115.208-1.62.148-.512.364-.963.658-1.361.29-.386.668-.699 1.127-.938.46-.235.994-.357 1.61-.366.365 0 .713.051 1.049.162.329.106.629.266.893.479.271.202.492.468.672.783.182.323.296.682.345 1.1h-.298c-.058-.382-.175-.708-.347-.988-.167-.28-.358-.506-.589-.694-.24-.186-.501-.32-.798-.412-.294-.083-.597-.126-.926-.119-.611 0-1.136.121-1.565.362-.428.245-.764.556-1.024.94-.253.379-.437.803-.549 1.272-.109.48-.158.934-.158 1.391.008.476.074.931.218 1.365.134.429.34.819.604 1.153.277.325.602.586 1.003.779.388.193.853.283 1.354.282.39 0 .749-.061 1.08-.187.338-.114.628-.288.885-.515.252-.218.464-.492.622-.802.159-.304.26-.657.275-1.053l.305-.004c-.034.433-.141.823-.305 1.18z" stroke="#fff" stroke-linecap="round" stroke-linejoin="round" stroke-width=".79"/><path d="m82.8691 202.4884c-.14-.422-.332-.796-.593-1.115-.257-.322-.585-.582-.963-.759-.4-.179-.837-.272-1.339-.272-.428.008-.83.093-1.191.256-.375.168-.688.398-.968.712-.274.304-.496.684-.665 1.12-.171.441-.262.928-.291 1.475l6.218-.065c0-.466-.067-.922-.208-1.352m-5.798 3.177c.12.447.301.846.549 1.173.243.336.559.593.941.782.386.184.857.273 1.418.271.814-.007 1.492-.227 2.03-.661.531-.431.864-1.087.993-1.938h.295c-.097.902-.449 1.612-1.054 2.118-.598.508-1.341.764-2.232.771-.61.01-1.122-.076-1.558-.272-.431-.199-.782-.483-1.062-.85-.277-.37-.475-.797-.621-1.296-.14-.496-.203-1.037-.21-1.61-.005-.655.089-1.228.278-1.733.18-.507.434-.935.741-1.292.314-.348.669-.619 1.088-.806.412-.182.837-.276 1.267-.283.61-.007 1.126.105 1.571.337.45.225.805.533 1.083.916.285.376.489.818.62 1.312.128.496.198 1.01.172 1.545l-6.521.053c.025.529.087 1.02.212 1.463" fill="#fff"/><path d="m82.8691 202.4884c-.14-.422-.332-.796-.593-1.115-.257-.322-.585-.582-.963-.759-.4-.179-.837-.272-1.339-.272-.428.008-.83.093-1.191.256-.375.168-.688.398-.968.712-.274.304-.496.684-.665 1.12-.171.441-.262.928-.291 1.475l6.218-.065c0-.466-.067-.922-.208-1.352zm-5.798 3.177c.12.447.301.846.549 1.173.243.336.559.593.941.782.386.184.857.273 1.418.271.814-.007 1.492-.227 2.03-.661.531-.431.864-1.087.993-1.938h.295c-.097.902-.449 1.612-1.054 2.118-.598.508-1.341.764-2.232.771-.61.01-1.122-.076-1.558-.272-.431-.199-.782-.483-1.062-.85-.277-.37-.475-.797-.621-1.296-.14-.496-.203-1.037-.21-1.61-.005-.655.089-1.228.278-1.733.18-.507.434-.935.741-1.292.314-.348.669-.619 1.088-.806.412-.182.837-.276 1.267-.283.61-.007 1.126.105 1.571.337.45.225.805.533 1.083.916.285.376.489.818.62 1.312.128.496.198 1.01.172 1.545l-6.521.053c.025.529.087 1.02.212 1.463z" stroke="#fff" stroke-linecap="round" stroke-linejoin="round" stroke-width=".79"/><path d="m93.2822 205.4508c.143.458.348.852.618 1.193.274.34.611.616 1.009.811.387.195.834.293 1.33.293.502-.005.946-.115 1.322-.316.379-.212.689-.483.928-.841.246-.349.434-.752.553-1.204.121-.456.182-.931.173-1.429 0-.459-.054-.907-.181-1.353-.119-.444-.303-.854-.547-1.207-.248-.361-.56-.649-.943-.878-.383-.22-.838-.329-1.372-.321-.948.006-1.71.339-2.276.996-.579.651-.85 1.595-.843 2.82.009.503.083.987.229 1.436zm-.213-3.162c.174-.71.53-1.292 1.06-1.727.528-.438 1.215-.659 2.036-.671.541-.004 1.015.102 1.43.322.415.222.761.516 1.049.88.284.377.5.81.648 1.294.148.498.225 1.02.225 1.571.017.583-.056 1.122-.208 1.629-.148.494-.363.915-.644 1.288-.294.349-.637.631-1.041.842-.404.201-.868.307-1.381.311-.799.012-1.468-.198-2.014-.627-.542-.44-.918-.996-1.128-1.689h-.032l.02 2.179-.303.002-.099-10.822h.303l.042 5.218z" fill="#fff"/><path d="m93.2822 205.4508c.143.458.348.852.618 1.193.274.34.611.616 1.009.811.387.195.834.293 1.33.293.502-.005.946-.115 1.322-.316.379-.212.689-.483.928-.841.246-.349.434-.752.553-1.204.121-.456.182-.931.173-1.429 0-.459-.054-.907-.181-1.353-.119-.444-.303-.854-.547-1.207-.248-.361-.56-.649-.943-.878-.383-.22-.838-.329-1.372-.321-.948.006-1.71.339-2.276.996-.579.651-.85 1.595-.843 2.82.009.503.083.987.229 1.436zm-.213-3.162c.174-.71.53-1.292 1.06-1.727.528-.438 1.215-.659 2.036-.671.541-.004 1.015.102 1.43.322.415.222.761.516 1.049.88.284.377.5.81.648 1.294.148.498.225 1.02.225 1.571.017.583-.056 1.122-.208 1.629-.148.494-.363.915-.644 1.288-.294.349-.637.631-1.041.842-.404.201-.868.307-1.381.311-.799.012-1.468-.198-2.014-.627-.542-.44-.918-.996-1.128-1.689h-.032l.02 2.179-.303.002-.099-10.822h.303l.042 5.218z" stroke="#fff" stroke-linecap="round" stroke-linejoin="round" stroke-width=".79"/><path d="m108.2568 199.9633-3.507 9.407c-.102.26-.222.465-.36.615-.142.148-.299.256-.474.324-.166.071-.356.12-.562.135-.211.021-.432.029-.656.031l-.004-.299c.259-.005.481-.016.667-.032.189-.024.346-.059.486-.127.139-.066.257-.173.358-.307.108-.136.211-.319.294-.554l.552-1.446-3.315-7.678.313-.008 3.161 7.351 2.725-7.412z" fill="#fff"/><path d="m108.2568 199.9633-3.507 9.407c-.102.26-.222.465-.36.615-.142.148-.299.256-.474.324-.166.071-.356.12-.562.135-.211.021-.432.029-.656.031l-.004-.299c.259-.005.481-.016.667-.032.189-.024.346-.059.486-.127.139-.066.257-.173.358-.307.108-.136.211-.319.294-.554l.552-1.446-3.315-7.678.313-.008 3.161 7.351 2.725-7.412z" stroke="#fff" stroke-linecap="round" stroke-linejoin="round" stroke-width=".79"/><path d="m123.9473 198.4196c-.186-.379-.442-.686-.749-.916-.31-.236-.678-.404-1.106-.499-.428-.103-.878-.148-1.364-.145-.381 0-.761.042-1.164.13-.405.076-.764.221-1.104.405-.322.202-.586.457-.793.776-.211.322-.316.724-.315 1.213.015.484.117.868.342 1.167.218.287.503.522.857.698.345.177.744.319 1.19.414.444.091.904.208 1.378.303.499.132.973.25 1.43.366.443.118.839.277 1.169.481.341.191.61.459.804.796.215.325.306.778.31 1.34.008.519-.095.96-.32 1.324-.215.37-.507.67-.875.91-.36.244-.765.416-1.212.528-.456.109-.919.167-1.384.171-.615.003-1.188-.062-1.705-.195-.516-.138-.969-.362-1.351-.669-.395-.297-.688-.691-.898-1.176-.208-.48-.311-1.069-.311-1.758l.307-.005c.004.647.108 1.198.302 1.644.194.449.461.812.818 1.095.354.283.774.48 1.251.606.479.119 1.014.175 1.587.169.43-.001.844-.056 1.262-.159.421-.099.797-.251 1.125-.472.333-.206.599-.487.803-.822.206-.338.306-.735.303-1.201-.012-.544-.13-.977-.368-1.287-.241-.319-.551-.573-.918-.754-.376-.187-.781-.322-1.229-.409-.456-.102-.885-.191-1.297-.286-.438-.098-.869-.204-1.309-.303-.436-.116-.825-.264-1.186-.458-.346-.193-.637-.453-.85-.778-.208-.329-.316-.752-.327-1.279-.006-.543.105-.983.323-1.344.217-.362.508-.646.854-.855.361-.227.753-.383 1.187-.479.439-.095.882-.137 1.314-.144.533-.006 1.034.048 1.479.154.454.112.847.301 1.185.554.34.253.617.595.822 1.008.207.418.325.931.357 1.539l-.302.001c-.023-.554-.129-1.022-.322-1.399" fill="#fff"/><path d="m123.9473 198.4196c-.186-.379-.442-.686-.749-.916-.31-.236-.678-.404-1.106-.499-.428-.103-.878-.148-1.364-.145-.381 0-.761.042-1.164.13-.405.076-.764.221-1.104.405-.322.202-.586.457-.793.776-.211.322-.316.724-.315 1.213.015.484.117.868.342 1.167.218.287.503.522.857.698.345.177.744.319 1.19.414.444.091.904.208 1.378.303.499.132.973.25 1.43.366.443.118.839.277 1.169.481.341.191.61.459.804.796.215.325.306.778.31 1.34.008.519-.095.96-.32 1.324-.215.37-.507.67-.875.91-.36.244-.765.416-1.212.528-.456.109-.919.167-1.384.171-.615.003-1.188-.062-1.705-.195-.516-.138-.969-.362-1.351-.669-.395-.297-.688-.691-.898-1.176-.208-.48-.311-1.069-.311-1.758l.307-.005c.004.647.108 1.198.302 1.644.194.449.461.812.818 1.095.354.283.774.48 1.251.606.479.119 1.014.175 1.587.169.43-.001.844-.056 1.262-.159.421-.099.797-.251 1.125-.472.333-.206.599-.487.803-.822.206-.338.306-.735.303-1.201-.012-.544-.13-.977-.368-1.287-.241-.319-.551-.573-.918-.754-.376-.187-.781-.322-1.229-.409-.456-.102-.885-.191-1.297-.286-.438-.098-.869-.204-1.309-.303-.436-.116-.825-.264-1.186-.458-.346-.193-.637-.453-.85-.778-.208-.329-.316-.752-.327-1.279-.006-.543.105-.983.323-1.344.217-.362.508-.646.854-.855.361-.227.753-.383 1.187-.479.439-.095.882-.137 1.314-.144.533-.006 1.034.048 1.479.154.454.112.847.301 1.185.554.34.253.617.595.822 1.008.207.418.325.931.357 1.539l-.302.001c-.023-.554-.129-1.022-.322-1.399z" stroke="#fff" stroke-linecap="round" stroke-linejoin="round" stroke-width=".79"/><path d="m129.3789 206.0436c.002.301.045.516.101.685.072.157.152.279.259.359.101.086.211.131.33.143.126.015.245.018.37.018.144 0 .279-.003.407-.011.123-.007.203-.019.259-.042v.308c-.083.009-.174.018-.268.029-.079.016-.236.023-.476.023-.356 0-.653-.097-.909-.307-.244-.203-.37-.58-.376-1.138l-.053-6.033-1.427.011v-.3l1.426-.016-.029-2.457h.308l.021 2.456 1.757-.021v.308l-1.755.013z" fill="#fff"/><path d="m129.3789 206.0436c.002.301.045.516.101.685.072.157.152.279.259.359.101.086.211.131.33.143.126.015.245.018.37.018.144 0 .279-.003.407-.011.123-.007.203-.019.259-.042v.308c-.083.009-.174.018-.268.029-.079.016-.236.023-.476.023-.356 0-.653-.097-.909-.307-.244-.203-.37-.58-.376-1.138l-.053-6.033-1.427.011v-.3l1.426-.016-.029-2.457h.308l.021 2.456 1.757-.021v.308l-1.755.013z" stroke="#fff" stroke-linecap="round" stroke-linejoin="round" stroke-width=".79"/><path d="m139.415 202.8925c-.095.142-.251.252-.461.328-.206.074-.453.138-.726.183-.27.048-.561.072-.885.085-.321.006-.633.036-.932.057-.298.024-.6.065-.883.117-.286.053-.547.159-.767.306-.221.153-.393.359-.522.615-.131.261-.189.595-.189 1.01.004.225.042.445.116.661.08.216.21.405.395.572.186.158.419.3.71.397.289.109.642.16 1.07.153.504-.002.956-.094 1.344-.275.388-.173.723-.4.984-.673.268-.286.468-.607.597-.971.139-.363.197-.74.197-1.13l-.01-1.435zm-4.993-1.781c.127-.32.313-.599.558-.834.242-.231.548-.418.903-.548.352-.133.784-.212 1.269-.215.344 0 .665.032.966.101.312.065.586.186.819.363.233.171.429.407.572.685.141.283.22.634.235 1.059l.043 4.958c.007.151.032.262.098.327.055.074.143.123.241.142.097.025.213.04.32.033.124-.008.231-.009.328-.033v.309l-.452.002c-.221 0-.412-.05-.579-.154-.167-.1-.259-.3-.26-.591l-.002-1.019h-.039c-.075.253-.2.498-.383.734-.168.235-.39.444-.651.629-.261.183-.575.328-.912.438-.344.101-.713.166-1.121.166-.785.01-1.421-.159-1.909-.506-.471-.342-.708-.857-.717-1.564-.005-.481.072-.872.223-1.162.153-.301.354-.526.608-.697.247-.168.534-.289.86-.352.32-.073.643-.119.964-.145.537-.031.996-.065 1.38-.093s.7-.082.95-.166c.246-.073.425-.189.539-.354.111-.157.169-.379.167-.669 0-.241-.025-.48-.067-.73-.038-.246-.146-.484-.296-.697-.171-.209-.4-.384-.7-.514-.304-.132-.71-.197-1.225-.19-.819.007-1.455.208-1.91.61-.447.404-.693.97-.741 1.696l-.301.003c.016-.357.082-.705.222-1.022z" fill="#fff"/><path d="m139.415 202.8925c-.095.142-.251.252-.461.328-.206.074-.453.138-.726.183-.27.048-.561.072-.885.085-.321.006-.633.036-.932.057-.298.024-.6.065-.883.117-.286.053-.547.159-.767.306-.221.153-.393.359-.522.615-.131.261-.189.595-.189 1.01.004.225.042.445.116.661.08.216.21.405.395.572.186.158.419.3.71.397.289.109.642.16 1.07.153.504-.002.956-.094 1.344-.275.388-.173.723-.4.984-.673.268-.286.468-.607.597-.971.139-.363.197-.74.197-1.13l-.01-1.435zm-4.993-1.781c.127-.32.313-.599.558-.834.242-.231.548-.418.903-.548.352-.133.784-.212 1.269-.215.344 0 .665.032.966.101.312.065.586.186.819.363.233.171.429.407.572.685.141.283.22.634.235 1.059l.043 4.958c.007.151.032.262.098.327.055.074.143.123.241.142.097.025.213.04.32.033.124-.008.231-.009.328-.033v.309l-.452.002c-.221 0-.412-.05-.579-.154-.167-.1-.259-.3-.26-.591l-.002-1.019h-.039c-.075.253-.2.498-.383.734-.168.235-.39.444-.651.629-.261.183-.575.328-.912.438-.344.101-.713.166-1.121.166-.785.01-1.421-.159-1.909-.506-.471-.342-.708-.857-.717-1.564-.005-.481.072-.872.223-1.162.153-.301.354-.526.608-.697.247-.168.534-.289.86-.352.32-.073.643-.119.964-.145.537-.031.996-.065 1.38-.093s.7-.082.95-.166c.246-.073.425-.189.539-.354.111-.157.169-.379.167-.669 0-.241-.025-.48-.067-.73-.038-.246-.146-.484-.296-.697-.171-.209-.4-.384-.7-.514-.304-.132-.71-.197-1.225-.19-.819.007-1.455.208-1.91.61-.447.404-.693.97-.741 1.696l-.301.003c.016-.357.082-.705.222-1.022z" stroke="#fff" stroke-linecap="round" stroke-linejoin="round" stroke-width=".79"/><path d="m143.958 199.6339.023 1.93h.03c.067-.308.174-.584.332-.835.151-.258.347-.479.585-.67.238-.2.502-.356.817-.458.318-.114.668-.168 1.047-.168.408-.009.781.046 1.109.169.347.116.637.301.893.524.243.238.446.537.582.879.147.348.215.749.215 1.206l.054 5.165h-.313l-.035-5.123c-.012-.452-.085-.832-.216-1.16-.134-.313-.311-.573-.543-.773-.231-.208-.495-.357-.794-.452-.306-.096-.617-.138-.952-.137-.459.013-.872.101-1.22.273-.35.184-.644.431-.882.725-.232.305-.411.648-.527 1.047-.123.395-.176.807-.171 1.241l.038 4.41-.302.006-.067-7.79z" fill="#fff"/><path d="m143.958 199.6339.023 1.93h.03c.067-.308.174-.584.332-.835.151-.258.347-.479.585-.67.238-.2.502-.356.817-.458.318-.114.668-.168 1.047-.168.408-.009.781.046 1.109.169.347.116.637.301.893.524.243.238.446.537.582.879.147.348.215.749.215 1.206l.054 5.165h-.313l-.035-5.123c-.012-.452-.085-.832-.216-1.16-.134-.313-.311-.573-.543-.773-.231-.208-.495-.357-.794-.452-.306-.096-.617-.138-.952-.137-.459.013-.872.101-1.22.273-.35.184-.644.431-.882.725-.232.305-.411.648-.527 1.047-.123.395-.176.807-.171 1.241l.038 4.41-.302.006-.067-7.79z" stroke="#fff" stroke-linecap="round" stroke-linejoin="round" stroke-width=".79"/><path d="m158.5976 200.6012c-.585-.642-1.35-.967-2.305-.956-.522.001-.975.126-1.364.354-.38.225-.685.53-.922.888-.243.361-.417.77-.531 1.218-.103.448-.168.898-.164 1.358.006.495.071.97.203 1.425.131.446.32.849.579 1.197.243.346.566.616.939.819.383.198.829.291 1.331.286.506-.001.949-.109 1.34-.315.387-.204.716-.476.977-.824.258-.344.466-.746.602-1.207.146-.45.203-.933.2-1.437-.014-1.226-.303-2.159-.885-2.806zm1.124-4.138.101 10.819-.299.008-.024-2.187h-.031c-.195.699-.566 1.267-1.105 1.708-.525.438-1.201.665-1.996.668-.52.004-.981-.088-1.395-.289-.408-.206-.757-.474-1.05-.83-.29-.35-.508-.773-.671-1.272-.158-.504-.237-1.04-.24-1.621 0-.548.065-1.065.207-1.564.144-.498.353-.937.62-1.312.276-.371.613-.674 1.03-.906.422-.224.884-.335 1.424-.342.833-.005 1.51.203 2.054.635.536.429.897 1.001 1.088 1.7h.034l-.052-5.21z" fill="#fff"/><path d="m158.5976 200.6012c-.585-.642-1.35-.967-2.305-.956-.522.001-.975.126-1.364.354-.38.225-.685.53-.922.888-.243.361-.417.77-.531 1.218-.103.448-.168.898-.164 1.358.006.495.071.97.203 1.425.131.446.32.849.579 1.197.243.346.566.616.939.819.383.198.829.291 1.331.286.506-.001.949-.109 1.34-.315.387-.204.716-.476.977-.824.258-.344.466-.746.602-1.207.146-.45.203-.933.2-1.437-.014-1.226-.303-2.159-.885-2.806zm1.124-4.138.101 10.819-.299.008-.024-2.187h-.031c-.195.699-.566 1.267-1.105 1.708-.525.438-1.201.665-1.996.668-.52.004-.981-.088-1.395-.289-.408-.206-.757-.474-1.05-.83-.29-.35-.508-.773-.671-1.272-.158-.504-.237-1.04-.24-1.621 0-.548.065-1.065.207-1.564.144-.498.353-.937.62-1.312.276-.371.613-.674 1.03-.906.422-.224.884-.335 1.424-.342.833-.005 1.51.203 2.054.635.536.429.897 1.001 1.088 1.7h.034l-.052-5.21z" stroke="#fff" stroke-linecap="round" stroke-linejoin="round" stroke-width=".79"/><path d="m168.8672 202.6212c-.1.146-.258.255-.46.332-.215.078-.461.137-.729.182-.273.04-.57.073-.882.08-.32.021-.636.036-.936.056-.3.023-.608.064-.886.122-.29.059-.534.162-.763.311-.222.151-.399.353-.522.612-.133.258-.192.597-.192 1.015 0 .217.042.434.12.649.079.225.209.413.394.579.185.161.421.292.706.4.292.1.642.152 1.074.143.503 0 .951-.086 1.343-.264.395-.173.72-.407.99-.684.258-.273.464-.606.589-.965.139-.369.206-.747.2-1.13l-.016-1.438zm-5-1.783c.122-.318.308-.588.565-.832.242-.23.542-.41.899-.549.358-.143.78-.208 1.263-.208.342-.006.672.027.98.101.316.067.58.185.808.353.243.18.427.408.576.689.14.287.22.642.233 1.062l.053 4.95c0 .155.016.267.09.339.053.068.135.115.24.142.103.019.211.032.329.032.112-.013.227-.02.326-.032v.304l-.453.001c-.233 0-.416-.047-.59-.151-.164-.11-.248-.307-.255-.606l-.003-1.004h-.033c-.074.251-.202.495-.383.733-.172.231-.388.44-.658.623-.265.184-.571.327-.91.439-.344.11-.718.174-1.117.174-.788.003-1.429-.168-1.905-.512-.478-.343-.717-.863-.729-1.555 0-.487.074-.875.22-1.172.161-.292.355-.529.612-.696.255-.169.543-.288.864-.358s.646-.111.971-.134c.535-.038.995-.065 1.375-.1.392-.03.698-.082.948-.16.239-.076.426-.19.538-.35.118-.158.17-.384.17-.678-.004-.232-.024-.473-.068-.727-.04-.251-.143-.485-.302-.701-.158-.207-.394-.381-.686-.508-.31-.14-.723-.201-1.235-.198-.822.018-1.453.214-1.899.625-.457.402-.712.965-.744 1.697h-.307c.015-.371.079-.705.217-1.033z" fill="#fff"/><path d="m168.8672 202.6212c-.1.146-.258.255-.46.332-.215.078-.461.137-.729.182-.273.04-.57.073-.882.08-.32.021-.636.036-.936.056-.3.023-.608.064-.886.122-.29.059-.534.162-.763.311-.222.151-.399.353-.522.612-.133.258-.192.597-.192 1.015 0 .217.042.434.12.649.079.225.209.413.394.579.185.161.421.292.706.4.292.1.642.152 1.074.143.503 0 .951-.086 1.343-.264.395-.173.72-.407.99-.684.258-.273.464-.606.589-.965.139-.369.206-.747.2-1.13l-.016-1.438zm-5-1.783c.122-.318.308-.588.565-.832.242-.23.542-.41.899-.549.358-.143.78-.208 1.263-.208.342-.006.672.027.98.101.316.067.58.185.808.353.243.18.427.408.576.689.14.287.22.642.233 1.062l.053 4.95c0 .155.016.267.09.339.053.068.135.115.24.142.103.019.211.032.329.032.112-.013.227-.02.326-.032v.304l-.453.001c-.233 0-.416-.047-.59-.151-.164-.11-.248-.307-.255-.606l-.003-1.004h-.033c-.074.251-.202.495-.383.733-.172.231-.388.44-.658.623-.265.184-.571.327-.91.439-.344.11-.718.174-1.117.174-.788.003-1.429-.168-1.905-.512-.478-.343-.717-.863-.729-1.555 0-.487.074-.875.22-1.172.161-.292.355-.529.612-.696.255-.169.543-.288.864-.358s.646-.111.971-.134c.535-.038.995-.065 1.375-.1.392-.03.698-.082.948-.16.239-.076.426-.19.538-.35.118-.158.17-.384.17-.678-.004-.232-.024-.473-.068-.727-.04-.251-.143-.485-.302-.701-.158-.207-.394-.381-.686-.508-.31-.14-.723-.201-1.235-.198-.822.018-1.453.214-1.899.625-.457.402-.712.965-.744 1.697h-.307c.015-.371.079-.705.217-1.033z" stroke="#fff" stroke-linecap="round" stroke-linejoin="round" stroke-width=".79"/><path d="m173.1787 207.1652-.068-7.793.301-.01.012 1.934h.036c.066-.3.173-.573.323-.835.156-.257.351-.483.6-.679.256-.194.552-.348.898-.468.344-.105.754-.161 1.217-.159l.004.306c-.537-.027-.997.053-1.384.23-.387.181-.704.433-.96.744-.248.306-.429.658-.542 1.065-.119.409-.179.824-.174 1.245l.036 4.412z" fill="#fff"/><path d="m173.1787 207.1652-.068-7.793.301-.01.012 1.934h.036c.066-.3.173-.573.323-.835.156-.257.351-.483.6-.679.256-.194.552-.348.898-.468.344-.105.754-.161 1.217-.159l.004.306c-.537-.027-.997.053-1.384.23-.387.181-.704.433-.96.744-.248.306-.429.658-.542 1.065-.119.409-.179.824-.174 1.245l.036 4.412z" stroke="#fff" stroke-linecap="round" stroke-linejoin="round" stroke-width=".79"/><path d="m184.039 200.3654c-.584-.647-1.34-.957-2.293-.948-.522 0-.979.126-1.366.354-.382.228-.693.522-.922.886-.245.357-.422.766-.533 1.215-.112.452-.163.906-.158 1.364.001.491.072.962.204 1.417.128.45.318.858.561 1.198.257.343.572.619.949.817.386.207.824.293 1.333.291.506 0 .943-.112 1.336-.316.391-.21.718-.475.976-.821.264-.345.465-.748.605-1.208.134-.456.205-.934.201-1.442-.017-1.217-.309-2.158-.893-2.807zm1.125-4.141.098 10.822-.293.01-.023-2.189h-.031c-.197.701-.557 1.272-1.099 1.717-.533.433-1.204.658-2.002.665-.515.011-.976-.092-1.381-.29-.424-.203-.771-.475-1.057-.832-.293-.357-.52-.777-.679-1.278-.145-.489-.229-1.035-.236-1.613-.008-.551.064-1.073.205-1.574.144-.494.349-.925.623-1.301.27-.371.617-.681 1.024-.904.423-.228.896-.344 1.424-.345.839-.013 1.517.201 2.059.635.535.427.896.994 1.089 1.7h.026l-.046-5.216z" fill="#fff"/><path d="m184.039 200.3654c-.584-.647-1.34-.957-2.293-.948-.522 0-.979.126-1.366.354-.382.228-.693.522-.922.886-.245.357-.422.766-.533 1.215-.112.452-.163.906-.158 1.364.001.491.072.962.204 1.417.128.45.318.858.561 1.198.257.343.572.619.949.817.386.207.824.293 1.333.291.506 0 .943-.112 1.336-.316.391-.21.718-.475.976-.821.264-.345.465-.748.605-1.208.134-.456.205-.934.201-1.442-.017-1.217-.309-2.158-.893-2.807zm1.125-4.141.098 10.822-.293.01-.023-2.189h-.031c-.197.701-.557 1.272-1.099 1.717-.533.433-1.204.658-2.002.665-.515.011-.976-.092-1.381-.29-.424-.203-.771-.475-1.057-.832-.293-.357-.52-.777-.679-1.278-.145-.489-.229-1.035-.236-1.613-.008-.551.064-1.073.205-1.574.144-.494.349-.925.623-1.301.27-.371.617-.681 1.024-.904.423-.228.896-.344 1.424-.345.839-.013 1.517.201 2.059.635.535.427.896.994 1.089 1.7h.026l-.046-5.216z" stroke="#fff" stroke-linecap="round" stroke-linejoin="round" stroke-width=".79"/><path d="m96.3701 11.3356c-4.322 0-7.837 3.487-9.392 6.955-.397 1.147-.736 2.372-.736 3.642 0 4.045 2.017 7.895 2.632 8.981 1.338 2.684 3.258 4.075 5.668 4.075 2.105 0 4.245-1.198 6.538-3.666 2.299-2.455 4.214-4.792 4.214-8.47 0-.703-.007-1.393-.175-2.265-.538-3.896-3.035-8.32-7.385-9.233zm-17.396 48.313c-.064 0-.166.146-.26.331-1.276 2.38-2.752 6.537-2.752 10.29 0 2.165.293 3.706.938 4.84.815 2.155 2.547 4.611 4.322 6.068 2.685 2.044 5.963 3.076 9.787 3.076 2.752 0 5.681-.538 8.039-1.48.678-.321 1.404-.619 2.2-.938 2.858-1.136 6.106-2.434 7.512-4.682.556-.939.836-1.929.836-3.046 0-3.787-3.346-6.613-4.952-7.972-.099-.209-.234-.398-.377-.532-1.476-1.417-2.653-3.105-3.911-4.898-1.754-2.507-3.566-5.104-6.264-6.934-1.71-1.189-3.373-1.774-5.079-1.774-4.314 0-7.624 3.923-9.73 6.874l-.263.36v.454c-.003-.029-.026-.037-.046-.037zm12.963 37.011c-7.545-.285-18.113-4.239-23.629-11.292-3.311-4.144-5.063-9.206-5.063-14.636 0-3.604.88-7.424 2.469-10.752 1.987-3.673 4.637-7.13 7.842-10.179.543-.517 1.162-1.018 1.781-1.519 2.344-1.896 5.254-4.242 5.395-8.346-.093-3.102-1.822-5.502-3.512-7.821-1.396-1.926-2.726-3.75-3.105-5.831-.297-1.2-.444-2.331-.444-3.431 0-3.199.881-6.492 2.61-9.79 2.044-3.777 5.062-7.115 8.758-9.621 3.228-2.288 6.622-3.441 10.11-3.441 6.283 0 12.388 3.721 17.004 6.961 4.193 2.957 5.084 8.02 5.084 11.75 0 1.792-.182 3.286-.561 4.697-.808 4.614-2.676 8.222-5.769 11.176-.73.816-1.805 1.518-2.946 2.251-2.524 1.629-5.66 3.65-5.916 7.409.153 2.508 1.823 3.604 3.152 4.49.445.288.902.584 1.293.938 1.047.978 1.927 2.063 2.803 3.14 1.139 1.399 2.307 2.846 3.852 4.109.522.504 1.089 1.091 1.639 1.641 2.024 2.087 3.947 4.048 6.298 4.048 2.415 0 4.042-1.936 5.308-3.843.401-.595.826-1.413 1.27-2.306 1.13-2.204 2.652-5.206 4.48-5.206 1.497 0 2.833 1.82 4.005 3.421.56.778 1.093 1.493 1.602 2.003.371.465.966.997 1.573 1.542 1.354 1.212 2.626 2.355 2.626 4.072-.131.978-2.649 2.736-4.155 3.8-.853.599-1.635 1.143-2.15 1.608-2.511 2.524-3.518 4.322-3.518 6.254 0 2.307 1.487 4.354 4.063 7.09.686.69 1.287 1.414 1.88 2.124.797.965 1.601 1.915 2.503 2.714.375.384.951.871 1.562 1.382 1.549 1.29 3.649 3.044 3.649 4.492 0 .32-.371.816-1.049 1.393-1.091.876-2.965 1.357-5.374 1.357-4.3 0-9.286-1.594-11.108-3.552-.503-.53-.967-1.052-1.405-1.546-1.959-2.194-3.801-4.26-6.526-4.26-1.539 0-3.37 1.048-4.64 1.932-8.295 6.462-15.701 9.578-22.677 9.578z" fill="#fff"/></g></svg>