<svg xmlns="http://www.w3.org/2000/svg" width="90" height="201" viewBox="0 0 90 201">
  <g fill="none" fill-rule="evenodd">
    <path stroke="#b3b3b3" d="m78.5391 103.793h-64"/>
    <g fill="#666">
      <path d="M63.169 167.4063c-.306-3.834-3.171-5.053-4.581-5.088 2.194-.608 3.577-1.334 4.021-1.476 1.011-.326 1.043-1.084 1.043-1.475s-.489-.59-.946-.622c-.456-.033-1.467-.051-4.467-.279-3-.229-2.772-4.608-2.772-5.912 0-1.566-1.141-1.895-2.085-2.32-3.982-1.533-1.468-3.687-1.012-3.947.457-.263 3.912-1.927 4.707-2.334 4.497-1.988 6.227-4.302 6.227-8.042 0-6.813-10.806-7.783-16.863-7.783-6.058 0-16.862.969-16.862 7.783 0 3.739 1.73 6.052 6.227 8.041.794.407 4.249 2.07 4.705 2.331.459.262 2.97 2.414-1.01 3.946-.946.425-2.086.75-2.086 2.317 0 1.303.229 5.673-2.77 5.901-3.002.23-4.013.23-4.47.263-.457.031-.946.194-.946.585 0 .392.036 1.078 1.045 1.404.442.142 1.826.726 4.02 1.334-1.409.034-4.273 1.539-4.58 5.373-.31 3.912-3.467 32.887-3.467 32.887h1.517l2.97-32.711c.132-.971.53-3.748 3.992-3.703 2.685.035 7.08-.163 8.93-.188.893.051 1.817.014 2.785.014.969 0 1.893-.07 2.786-.121 1.848.025 6.246.061 8.927.027 3.465-.045 3.862 3.01 3.993 3.981l2.972 32.701h1.517s-3.156-28.975-3.467-32.887M7.085 60.4698l1.264-.017c1.647.235 2.461.58 2.464 1.1l.319.389.002.102-.173.211c.037.28.181.562.39.804l.005.068-.28.319.07.071.004.316c0 .142-.278.283-.802.464l-1.447-1.214-1.304-.622-1.793-.367-.384.003c-1.438.153-2.242.514-2.373 1.106-.108.004-.212.288-.311.882l.002.212.32.379-.07.072.005.28c.493.732 1.065 1.255 1.733 1.597l.102-.07.108-.002 1.124.482c.456-.003 1.159.269 2.182.856l.069-.105.388-.001c.315-.007.774.339 1.309 1.039.596.273 1.089.62 1.514 1l-.106.141v.074c.633.378.96 1.215.971 2.547l-.073.247.081.279c-.109 0-.172.251-.172.708-.375.911-.757 1.475-1.139 1.653 0 .248-.561.705-1.673 1.316 0 .137-.138.211-.454.212 0 .174-.629.359-1.924.615 0 .106-.21.177-.594.18l-.281.002-.877-.061-.103.072-.106.003c-.387-.247-.848-.381-1.37-.377l-.528.004c-2.11-.718-3.171-1.407-3.174-2.037.104-.421.168-.636.275-.636l-.109-.455c-.008-.841.095-1.262.268-1.264l.212-.002c.42-.004.95.448 1.625 1.317 1.164.938 2.148 1.382 2.993 1.374 0 .108.669.276 1.964.474 1.507-.75 2.267-1.278 2.267-1.598.386-.25.557-.527.556-.776l.38-.388-.568-.697.104-.037c-.004-.841-.608-1.465-1.837-1.913-.004-.205-.598-.377-1.758-.542-.143-.283-.849-.592-2.112-.929-.111-.315-.57-.554-1.341-.727-1.024-.862-1.699-1.665-1.985-2.396-.177.002-.247-.103-.249-.316l.203-.595-.002-.177-.217-.63.794-1.76-.067-.137 1.944-1.564c.942-.464 1.958-.719 3.044-.727zM33.1338 62.5088l.313-.003.001.141-.314.002zm-9.725 14.29l.004.07h.242l-.002-.074zm-.046-12.903v.103l-.066.635.075.386-.068.279.074.489-.063.495.086 1.68v.07l-.205.739v.103l.213.281.004.106-.059 1.051c0 .211.068.315.247.312l.137.035v.072l-.31.316.108.071v.102l-.173.775c.106 0 .215.242.256.735l-.247.107.003.174c.318.067.459.173.459.314l-.067.244c.008 1.018.643 1.714 1.877 2.156.004.174.564.346 1.685.475 1.088-.255 1.613-.435 1.61-.504l.072-.072-.001-.103.103.103.211-.002c1.049-.818 1.704-1.771 2.008-2.857l.594-.569-.111-.453c.138 0 .207-.107.205-.317l-.105-.282.311-.283-.146-.627.14-.283c-.157-1.718-.305-2.556-.447-2.556l-.004-.877-.498-.52.105-.072-.003-.385c-.39-.872-1.314-1.779-2.762-2.745l-.843-.238-1.367.05-.388-.035c-1.677.472-2.585.903-2.721 1.221zm.083-2.456l.069.109.006.454-.071.138.001.072.072-.001c1.391-1.1 2.298-1.636 2.75-1.636l1.79-.373c1.085-.006 2.425.578 4.081 1.718.283.243.533.557.713 1.011.599.66.96 1.321 1.068 1.987l.389.385-.067.108.3 2.062-.106.073v.108c.178.309.253.626.253.941v.074l-.03.102.03.07.006.141-.035.246.036.14-.503 2.038.105.317c-.245.001-.42.283-.48.809l.104.104v.105c-1.314 1.905-2.079 2.858-2.251 2.859-.45.562-1.01.956-1.677 1.137l-.102-.14c-.25.005-.422.217-.49.604l-2.66.443-.873-.096-.316.074-.393-.454-1.893-.192c.109.701.222 1.157.329 1.397l-.172.458.398 1.33-.212.176.078.316-.061.84.458.909c.319-.001.53.308.713.972l-.559.428-.139.001-.386-.136-.77.145-1.58.014c-1.049.013-1.581-.3-1.584-.894v-.105c.52-.285.763-.64.761-1.058l.204-.426-.141-.385.136-.102v-.108l-.148-.838.169-.845-.178-.204-.003-.286.171-.773-.041-.315.033-.277-.183-.735.275-.601v-.279l-.144-.281-.005-.595.195-1.301-.207-.275.204-.282-.176-.563h.105l-.105-.068.1-.491-.108-.103-.003-.107.102-.385-.002-.18-.141-.207.029-.419-.013-1.616.103-.068-.106-.106v-.105l.172-.666-.074-.383.067-.004-.359-1.192.165-.767v-.32l-.179-.241.174-.671-.038-.066v-.108l.029-.382-1.025-1.22-.01-.388.383-.389c0-.174.28-.316.802-.463-.001-.247.629-.565 1.888-.927.351-.006.601.38.783 1.183zM44.9375 53.251c.002.248.212.452.636.588.244.071.494.558.784 1.468-.106 0-.278.388-.585 1.127l-1.085.569c-1.264-.48-1.901-1.139-1.908-1.946-.01-.945.684-1.544 2.083-1.806zm.415 7.391c.463.244.674.838.685 1.784v.209l-.064.951.179.209-.308.842.214.172.004.213-.209.386.15 1.261-.203.493c.173-.003.282.277.395.871l-.171.531.009.875-.21.215.074.453.001.42-.062.493.072.596v.071l-.064.385.218.909-.139.142v.068l.22.77c-.176 0-.245.146-.28.388l.289.417-.209.214.783 1.43.146.559c-.385.252-.7.391-.911.392l-.559-.201-.141.209-.176.004-.316-.208-.665.112-.002-.108-.696.29c-.424.002-.704-.276-.817-.836.384-.319.696-.949.93-1.901l-.144-.807.031-.528-.039-.241.134-.214-.139-.174-.003-.102.035-.109-.035-.104v-.032l.204-.704-.215-.279.028-.666-.034-.283.139-.176v-.069l-.109-.384.169-.389c-.04-.524-.182-.841-.36-1.01l.277-.492-.145-.182.035-.488-.251-.381c.109-.002.171-.179.24-.533l-.042-.486.035-.28-.035-.11-.14.004.158-1.79-.001-.28-1.027-.972v-.248c.729-.812 1.461-1.238 2.16-1.243.067-.212.242-.319.563-.323zM64.7725 73.9639l.104-.001v.213h-.104zm-6.788-9.892l.072-.003.207.171-.067.075h-.14l-.072-.069zm8.081-2.25c-.143 0-.21.178-.21.526l-.974 1.058-.105-.067-.104.002-.106.075h-.067c-.318.004-1.198-.551-2.678-1.624l-.812-.308c-.772.004-1.47.364-2.091 1.036-.388.002-.84.427-1.429 1.275l.108.455c-.585.916-.893 1.619-.889 2.145l.181.558c-.18.005-.276.391-.272 1.162l-.104.108-.069.241c.04.527.22.874.466 1.087l.005.631c.003.349.181.838.574 1.502l-.138.279c.353.247.675.662.926 1.291 1.059.902 2.08 1.385 3.099 1.482l.769-.285.562-.008v.105l-.105.278h.107c.529-.041.804-.148.802-.392l.597-.11.49.1 1.467-1.029c.101 0 .172-.109.166-.284.6.1.919.378.922.832-1.491 1.732-2.884 2.728-4.142 3.055l-1.226.293-.14-.069h-.071l-.63.073-1.336-.165-.101.11-1.587-.755c-.458-.525-1.239-1.219-2.296-2.085-.005-.384-.36-1.014-1.039-1.951l.072-.25-.189-1.156h.112l-.395-.66-.003-.246.168-.565-.113-.91.206-.595-.109-.493c.106 0 .338-.706.649-2.075.172 0 .415-.423.652-1.3.313-.111.556-.534.759-1.27.071 0 .314-.319.692-.921.212-.001.736-.389 1.534-1.169.387-.003.874-.359 1.5-1.03l.666.1.457-.007.383-.111.073.108h.103c.454-.076.66-.184.66-.325 1.576-.011 2.777.748 3.603 2.248zM89.0557 67.4326l.064-.001.005.207-.069.004zm-5.297-7.455h.105v.142h-.103zm-5.165 17.755l.315-.004.141.175-.137.212h-.106l-.213-.206zm-.395-.876h.211v-.104h-.211zm1.083-15.823c-.241.392-.798.85-1.601 1.313-.38.46-.656 1.058-.824 1.868-.345.386-.519.848-.51 1.297l-.107.073v.107c.177 0 .279.103.281.278l.352.104.844-.116.139-.003.386.104.067-.105h.108c.49.027.736.063.736.132l3.185-.24.843.063.106-.073h.105l.387.068.943-.466c-.009-.526-.292-1.402-.899-2.656l-.004-.318c-.177.003-.322-.169-.458-.485-.819-.727-1.349-1.072-1.521-1.07zm2.543-1.81c.318-.002.876.273 1.267.829 1.833.964 2.752 1.623 2.759 2.008l.706.871c.32.315.463.768.643 1.397.536.837.503 1.541.51 2.065.007.628-.655.985-1.952 1.068l-.314-.066-.809.288c0-.176-.248-.279-.773-.38l-.562.001c-.736.014-1.121.086-1.118.19l-.599-.063-.769.076-.213-.068-.488.076-3.37-.256c.003.111-.208.251-.664.397l.005.209-.109.001c.081.946.193 1.611.307 1.962l-.107.316.392.312-.072.388 1.107 1.988 1.169 1.004c.561.1 1.018.341 1.408.724l1.015-.109.214.203.384-.001.069-.106h.103l.211.206c.108-.142.701-.289 1.855-.405l.283-.241.205-.008c.456-.004.773.136.918.416.009 1.188-1.244 1.972-3.766 2.311l-.071.106-.17.003-.845-.099-.102.107h-.07c-1.019-.129-2.18-.508-3.488-1.303l-1.125-.971c-.005-.278-.291-.662-.853-1.18l-.832-2.345-.103-.106.202-.56-.104-.104v-.105l.104-.071-.002-.037-.105-.384.097-.382-.321-.776.365-2.279-.075-.35c.108 0 .174-.282.275-.844.213-.002.314-.25.308-.774.208-.246.867-1.236 1.969-3.033 1.567-1.137 2.79-1.708 3.6-1.716-.001-.14.208-.212.625-.215l.775.305.385-.106-.001-.214-.281.005zm-8.037 6.877h.174l.002.138-.176.002zM42.751 5.0274c-1.917 0-3.476 1.549-4.166 3.086-.177.51-.327 1.053-.327 1.615 0 1.795.894 3.504 1.17 3.985.592 1.191 1.443 1.808 2.511 1.808.935 0 1.884-.531 2.902-1.627 1.02-1.09 1.869-2.125 1.869-3.758 0-.31-.003-.617-.077-1.004-.239-1.728-1.346-3.691-3.276-4.096zm-7.717 21.434c-.027 0-.073.065-.115.146-.565 1.057-1.221 2.9-1.221 4.565 0 .961.129 1.644.416 2.148.363.955 1.13 2.045 1.916 2.691 1.193.908 2.647 1.365 4.343 1.365 1.222 0 2.52-.239 3.565-.657.302-.142.624-.274.979-.415 1.267-.505 2.708-1.081 3.331-2.078.246-.416.371-.856.371-1.351 0-1.68-1.484-2.934-2.196-3.537-.046-.092-.105-.176-.168-.236-.655-.628-1.178-1.377-1.735-2.174-.777-1.111-1.582-2.263-2.78-3.075-.758-.527-1.495-.787-2.252-.787-1.915 0-3.383 1.74-4.316 3.05l-.116.16v.201c-.002-.013-.013-.016-.022-.016zm5.751 16.418c-3.347-.125-8.035-1.88-10.483-5.008-1.469-1.839-2.246-4.084-2.246-6.493 0-1.599.39-3.294 1.096-4.771.881-1.629 2.057-3.163 3.479-4.516.24-.228.516-.451.79-.673 1.04-.842 2.33-1.882 2.393-3.703-.042-1.375-.807-2.44-1.559-3.469-.618-.855-1.208-1.663-1.376-2.586-.132-.533-.198-1.035-.198-1.524 0-1.418.391-2.88 1.158-4.341.906-1.676 2.246-3.157 3.886-4.269 1.431-1.015 2.937-1.526 4.486-1.526 2.786 0 5.494 1.65 7.542 3.087 1.86 1.312 2.256 3.559 2.256 5.212 0 .796-.082 1.458-.249 2.084-.359 2.046-1.187 3.648-2.559 4.958-.325.362-.803.674-1.308.999-1.12.723-2.511 1.619-2.623 3.287.067 1.113.808 1.599 1.398 1.992.197.128.4.259.573.417.464.433.855.914 1.244 1.391.504.621 1.024 1.262 1.708 1.824.231.223.483.484.728.727.897.926 1.751 1.797 2.793 1.797 1.071 0 1.794-.859 2.354-1.705.178-.265.368-.627.565-1.023.5-.978 1.176-2.309 1.987-2.309.664 0 1.256.807 1.777 1.517.248.345.484.663.71.888.165.207.429.443.699.685.6.538 1.164 1.045 1.164 1.806-.057.434-1.176 1.213-1.844 1.686-.379.266-.725.508-.952.714-1.115 1.119-1.562 1.917-1.562 2.774 0 1.023.66 1.931 1.802 3.145.305.306.571.627.836.942.353.429.71.849 1.109 1.203.167.171.422.387.693.615.687.572 1.619 1.349 1.619 1.992 0 .142-.165.362-.466.619-.484.387-1.315.601-2.384.601-1.906 0-4.12-.707-4.927-1.576-.224-.234-.43-.467-.625-.685-.868-.973-1.685-1.891-2.893-1.891-.684 0-1.497.465-2.06.857-3.678 2.867-6.963 4.249-10.059 4.249z"/>
    </g>
  </g>
</svg>
