<svg height="64" viewBox="0 0 85 64" width="85" xmlns="http://www.w3.org/2000/svg"><g fill="#514e4d" fill-rule="evenodd"><path d="m8.0098 34.0185c0 8.46.72 26.729 10.619 26.729 9.9 0 10.619-18.269 10.619-26.729s-.719-26.729-10.619-26.729c-9.899 0-10.619 18.269-10.619 26.729m29.248 0c0 14.13-5.489 29.429-18.629 29.429s-18.629-15.299-18.629-29.429c0-13.59 5.489-29.429 18.629-29.429s18.629 15.839 18.629 29.429"/><path d="m58.5889 12.7793c9.359-9.18 20.339-12.06 25.829-12.779.63.27.81 1.44.36 1.889-5.759 1.981-13.5 4.59-19.979 11.52-7.649 8.099-10.26 18-10.26 27.269 0 10.44 3.6 20.069 12.51 20.069 6.75 0 10.17-6.119 10.17-13.769s-3.42-15.03-11.07-15.03c-1.8 0-3.24.45-4.14.721-.54-.271-.63-.901-.27-1.441 2.61-1.62 5.31-2.699 8.82-2.699 8.639 0 14.309 6.93 14.309 16.109 0 10.53-7.74 18.809-18.989 18.809-13.14 0-19.35-10.26-19.35-22.499 0-7.649 2.521-18.81 12.06-28.169"/></g></svg>