<svg height="78" viewBox="0 0 61 78" width="61" xmlns="http://www.w3.org/2000/svg"><g fill="#514e4d" fill-rule="evenodd"><path d="m30.2344 70.2051c12.158 0 19.886-1.018 23.181-3.055 3.297-2.035 4.944-4.87 4.944-8.503 0-4.277-1.97-7.265-5.911-8.964-3.94-1.7-11.345-2.549-22.214-2.549-12.188 0-19.922 1.018-23.203 3.053-3.281 2.038-4.922 4.857-4.922 8.46 0 3.604 1.634 6.431 4.899 8.482 3.268 2.051 11.009 3.076 23.226 3.076m0 7.295c-9.17 0-16.501-1.736-21.995-5.207-5.492-3.473-8.239-8.021-8.239-13.646s2.761-10.172 8.284-13.645c5.522-3.471 12.839-5.207 21.95-5.207 9.053 0 16.355 1.728 21.907 5.185s8.327 8.013 8.327 13.667c0 5.625-2.76 10.173-8.284 13.646-5.521 3.471-12.839 5.207-21.95 5.207"/><path d="m27.0264 16.6113c-.264-.908-.396-1.816-.396-2.725 0-4.306 1.472-7.697 4.417-10.172 2.944-2.476 6.643-3.714 11.096-3.714 5.362 0 9.756 1.831 13.184 5.493s5.141 8.379 5.141 14.15c0 3.867-.879 7.193-2.636 9.976-1.758 2.783-3.648 4.175-5.669 4.175-.85 0-1.575-.264-2.176-.791-.6-.528-.9-1.216-.9-2.066 0-1.523 1.04-2.607 3.12-3.252 2.666-.82 4.38-1.992 5.141-3.515.791-1.495 1.187-2.974 1.187-4.439 0-3.691-1.348-6.686-4.043-8.986s-6.87-3.45-12.525-3.45c-4.541 0-7.924.856-10.151 2.571-2.227 1.713-3.34 3.742-3.34 6.086 0 2.021 1.231 4.248 3.692 6.68.439.41.659.834.659 1.274 0 .879-.469 1.318-1.406 1.318-.411 0-.842-.226-1.297-.68-.453-.454-1.399-1.737-2.834-3.846-3.135-4.629-5.743-7.691-7.823-9.185s-4.702-2.241-7.866-2.241c-3.017 0-5.353.777-7.009 2.329-1.655 1.553-2.483 3.618-2.483 6.197 0 2.636.843 4.973 2.526 7.009 1.686 2.036 3.831 3.054 6.439 3.054 2.08 0 4.028-.894 5.845-2.681.205-.205.38-.307.527-.307.381 0 .791.483 1.23 1.45.44.967.66 1.67.66 2.109 0 .908-.689 1.758-2.066 2.549s-2.871 1.187-4.482 1.187c-3.252 0-6.197-1.407-8.833-4.219-2.637-2.813-3.955-6.577-3.955-11.294 0-4.834 1.106-8.488 3.317-10.965 2.213-2.475 4.681-3.713 7.405-3.713 2.403 0 4.636.843 6.702 2.528 2.065 1.684 4.446 4.533 7.141 8.546z"/></g></svg>