<svg height="65" viewBox="0 0 85 65" width="85" xmlns="http://www.w3.org/2000/svg"><g fill="#514e4d" fill-rule="evenodd"><path d="m8.0098 35.3681c0 8.46.72 26.729 10.619 26.729 9.9 0 10.62-18.269 10.62-26.729s-.72-26.729-10.62-26.729c-9.899 0-10.619 18.269-10.619 26.729m29.248 0c0 14.13-5.489 29.429-18.629 29.429s-18.629-15.299-18.629-29.429c0-13.589 5.489-29.429 18.629-29.429s18.629 15.84 18.629 29.429"/><path d="m45.9893 46.5273c-.81 0-1.26-.63-1.26-1.529 0-1.08.361-1.62 1.62-3.42l28.889-40.319c.63-.81 1.17-1.259 2.07-1.259h1.53c.9 0 1.35.269 1.35.719 0 .27-.18.63-.45.991l-28.619 39.597c-1.08 1.441.181 1.441 2.52 1.441h13.95c2.16 0 2.519-.271 2.519-2.34v-16.56c0-.63.09-1.349.811-1.8 1.079-.719 3.149-1.44 4.59-1.53 1.259-.09 1.259.99 1.259 2.79v17.369c0 1.71.27 2.071 1.8 2.071h5.76c.809.63.809 2.969 0 3.779h-4.86c-2.249 0-2.7.091-2.7 1.98v4.05c0 7.11.18 8.28 3.869 8.73l2.341.27c.539.54.449 1.98-.18 2.249-3.24-.179-6.57-.269-9.36-.269-3.24 0-7.29.09-11.25.269-.63-.269-.72-1.709-.179-2.249l4.049-.27c3.781-.27 4.05-1.8 4.05-8.73v-3.78c0-2.159-.269-2.25-2.609-2.25z"/></g></svg>