<svg height="78" viewBox="0 0 61 78" width="61" xmlns="http://www.w3.org/2000/svg"><g fill="#514e4d" fill-rule="evenodd"><path d="m30.2344 70.5127c12.158 0 19.886-1.018 23.181-3.055 3.297-2.035 4.944-4.87 4.944-8.503 0-4.277-1.97-7.265-5.911-8.964-3.94-1.7-11.345-2.549-22.214-2.549-12.188 0-19.922 1.018-23.203 3.053-3.281 2.038-4.922 4.857-4.922 8.46 0 3.604 1.634 6.431 4.899 8.482 3.268 2.051 11.009 3.076 23.226 3.076m0 7.295c-9.17 0-16.501-1.736-21.995-5.207-5.492-3.473-8.239-8.021-8.239-13.646s2.761-10.172 8.284-13.645c5.522-3.471 12.839-5.207 21.95-5.207 9.053 0 16.355 1.728 21.907 5.185s8.327 8.013 8.327 13.667c0 5.625-2.76 10.173-8.284 13.646-5.521 3.471-12.839 5.207-21.95 5.207"/><path d="m28.7842 27.4658v2.285l-27.334-1.318v-22.808c2.959 1.26 4.673 2.176 5.142 2.746.468.573.703 1.561.703 2.967v15.425l18.193.703c-3.779-2.959-5.669-6.592-5.669-10.898 0-4.571 1.831-8.474 5.493-11.712 3.662-3.237 8.203-4.856 13.623-4.856 6.241 0 11.39 1.824 15.447 5.471 4.058 3.648 6.087 8.753 6.087 15.315 0 4.571-1.063 8.13-3.187 10.679-2.123 2.549-4.05 3.823-5.778 3.823-.762 0-1.421-.256-1.978-.768-.556-.513-.835-1.209-.835-2.088 0-.967.286-1.699.857-2.197.572-.498 1.751-1.084 3.538-1.758 3.633-1.319 5.449-3.941 5.449-7.866 0-3.75-1.509-6.907-4.526-9.47-3.018-2.564-7.925-3.846-14.722-3.846-6.123 0-10.474 1.055-13.052 3.164-2.578 2.11-3.867 4.6-3.867 7.471 0 4.043 2.139 7.222 6.416 9.536"/></g></svg>