<svg height="72" viewBox="0 0 61 72" width="61" xmlns="http://www.w3.org/2000/svg"><g fill="#514e4d" fill-rule="evenodd"><path d="m30.2344 64.3164c12.158 0 19.886-1.018 23.181-3.054 3.297-2.036 4.944-4.871 4.944-8.504 0-4.277-1.97-7.265-5.911-8.964-3.94-1.699-11.345-2.549-22.214-2.549-12.188 0-19.922 1.018-23.203 3.054-3.281 2.037-4.922 4.856-4.922 8.459 0 3.604 1.634 6.432 4.899 8.482 3.268 2.051 11.009 3.076 23.226 3.076m0 7.295c-9.17 0-16.501-1.736-21.995-5.208-5.492-3.471-8.239-8.02-8.239-13.645s2.761-10.173 8.284-13.645c5.522-3.471 12.839-5.207 21.95-5.207 9.053 0 16.355 1.729 21.907 5.185 5.552 3.457 8.327 8.014 8.327 13.667 0 5.625-2.76 10.174-8.284 13.645-5.521 3.472-12.839 5.208-21.95 5.208"/><path d="m0 8.9648v-1.934h46.67c3.838 0 6.255-.05 7.251-.153s1.758-.52 2.285-1.253c.527-.732.791-2.036.791-3.911v-1.714h2.022v19.776h-2.022v-1.451c0-2.109-.3-3.478-.9-4.109-.601-.629-1.319-.995-2.155-1.098-.834-.103-3.258-.154-7.272-.154h-31.289c-3.955 0-6.351.044-7.185.132-.836.088-1.567.461-2.197 1.12-.63.66-.945 2.029-.945 4.109v1.89h-2.022c-.088-5.068-1.098-8.818-3.032-11.25"/></g></svg>