<svg height="59" viewBox="0 0 85 59" width="85" xmlns="http://www.w3.org/2000/svg"><g fill="#514e4d" fill-rule="evenodd"><path d="m8.01 29.4292c0 8.46.72 26.729 10.619 26.729 9.9 0 10.619-18.269 10.619-26.729s-.719-26.729-10.619-26.729c-9.899 0-10.619 18.269-10.619 26.729m29.248 0c0 14.13-5.489 29.429-18.629 29.429-13.14 0-18.629-15.299-18.629-29.429 0-13.59 5.489-29.429 18.629-29.429s18.629 15.839 18.629 29.429"/><path d="m71.3684 52.018c4.141 0 6.84-.54 8.46-1.979 1.71-1.531 2.34-2.701 2.88-3.691.63-.269 1.62 0 1.979.54-1.17 4.5-2.789 9.18-4.139 10.98-3.69-.18-7.47-.27-11.61-.27h-13.049c-5.04 0-8.009.09-9.99.27-.179-.09-.63-.45-.63-1.17 0-.27.451-.63.991-.99 4.139-2.7 7.109-5.759 13.769-12.96 5.94-6.389 12.869-15.119 12.869-24.749 0-8.189-3.96-13.139-11.25-13.139-5.399 0-9.269 3.69-11.699 9-.81.45-2.16 0-2.16-1.17 2.88-7.92 9.99-12.69 18.09-12.69 8.999 0 14.849 6.03 14.849 14.669 0 5.58-2.61 11.701-9.63 19.8l-5.49 6.3c-7.379 8.459-8.189 9.899-8.189 10.439 0 .63.45.81 2.79.81z"/></g></svg>