<svg width="25px" height="35px" viewBox="0 0 34 34" version="1.1" xmlns="http://www.w3.org/2000/svg" xmlns:xlink="http://www.w3.org/1999/xlink">
                                        <defs></defs>
                                        <g id="Page-1" stroke="none" stroke-width="1" fill="none" fill-rule="evenodd">
                                            <g id="btn-instagram" fill="#666">
                                                <path class="svg-hover" d="M17.0017362,0.504068085 C12.4667149,0.504068085 11.899566,0.524323404 10.1170979,0.605344681 C8.34114043,0.686365957 7.12799149,0.967046809 6.06603404,1.38083404 C4.96790638,1.80547234 4.03760851,2.37768511 3.10803404,3.30581277 C2.17845957,4.23321702 1.61058723,5.16568511 1.18233191,6.26308936 C0.769268085,7.32577021 0.488587234,8.53964255 0.406842553,10.3141532 C0.324374468,12.0958979 0.304842553,12.6644936 0.307012766,17.1995149 C0.307012766,21.7330894 0.324374468,22.3031319 0.407565957,24.081983 C0.488587234,25.8586638 0.769268085,27.0718128 1.18305532,28.1337702 C1.61058723,29.2318979 2.17845957,30.1621957 3.10803404,31.0910468 C4.03760851,32.0213447 4.96790638,32.5906638 6.06603404,33.0167489 C7.12799149,33.4298128 8.34114043,33.7133872 10.1170979,33.7929617 C11.8981191,33.8754298 12.4667149,33.8942383 17.0017362,33.8942383 C21.5367574,33.8942383 22.1039064,33.8747064 23.8849277,33.7929617 C25.6623319,33.7119404 26.8747574,33.4298128 27.9381617,33.0167489 C29.0370128,32.5906638 29.9665872,32.0198979 30.8961617,31.0924936 C31.8242894,30.164366 32.3928851,29.2318979 32.820417,28.1337702 C33.2313106,27.0718128 33.5134383,25.8593872 33.5959064,24.081983 C33.6762043,22.3016851 33.6964596,21.7338128 33.6964596,17.1980681 C33.6964596,12.6644936 33.6762043,12.0966213 33.5959064,10.3163234 C33.5134383,8.53747234 33.2313106,7.32577021 32.820417,6.26308936 C32.3928851,5.16568511 31.8242894,4.23538723 30.8961617,3.30581277 C29.9665872,2.37768511 29.0370128,1.80547234 27.9359915,1.38083404 C26.8747574,0.966323404 25.6623319,0.686365957 23.8849277,0.605344681 C22.1039064,0.5236 21.5353106,0.504068085 17.0017362,0.504068085 M17.0017362,3.51198298 C21.4593532,3.51125957 21.9867149,3.53006809 23.7474809,3.60964255 C25.3751404,3.68342979 26.2591404,3.95615319 26.8487149,4.18474894 C27.6270979,4.48640851 28.1826723,4.84955745 28.7664596,5.43262128 C29.3502468,6.01785532 29.7119489,6.57270638 30.0157787,7.35398298 C30.2436511,7.94138723 30.5178213,8.82538723 30.5894383,10.4523234 C30.6704596,12.2130894 30.6899915,12.7411745 30.6878213,17.1995149 C30.6878213,21.6564085 30.6704596,22.185217 30.5894383,23.9452596 C30.5170979,25.5729191 30.2436511,26.4569191 30.0165021,27.0464936 C29.7119489,27.8234298 29.3502468,28.3811745 28.7664596,28.9642383 C28.1826723,29.5487489 27.6270979,29.9097277 26.8494383,30.2121106 C26.2591404,30.4421532 25.3751404,30.7134298 23.7474809,30.7893872 C21.9867149,30.8689617 21.4593532,30.8863234 17.0017362,30.8863234 C12.5419489,30.8863234 12.0153106,30.8689617 10.2545447,30.7886638 C8.62688511,30.7156 7.74288511,30.4421532 7.15331064,30.2121106 C6.37492766,29.9097277 5.8208,29.5465787 5.23701277,28.9642383 C4.65177872,28.3811745 4.29224681,27.8241532 3.98769362,27.0443234 C3.75837447,26.4576426 3.48565106,25.5729191 3.41258723,23.9452596 C3.33156596,22.1837702 3.31348085,21.6564085 3.31348085,17.1995149 C3.31348085,12.7411745 3.33156596,12.2130894 3.41258723,10.4530468 C3.48565106,8.82611064 3.75982128,7.94283404 3.98769362,7.35398298 C4.2900766,6.57270638 4.65177872,6.01785532 5.23701277,5.43262128 C5.8208,4.84883404 6.37709787,4.48857872 7.15475745,4.18474894 C7.7421617,3.95615319 8.62688511,3.68270638 10.2545447,3.61036596 C12.0153106,3.53006809 12.5419489,3.51125957 17.0017362,3.51198298" id="Fill-18"></path>
                                                <path class="svg-hover" d="M17.0017362,22.7627106 C13.9258213,22.7627106 11.4358638,20.2727532 11.4365872,17.1997319 C11.4365872,14.1267106 13.9258213,11.634583 17.0017362,11.634583 C20.074034,11.6331362 22.5661617,14.1259872 22.5661617,17.1997319 C22.5661617,20.2734766 20.074034,22.7627106 17.0017362,22.7627106 M17.0017362,8.62522128 C12.2670553,8.62522128 8.42650213,12.4636043 8.42794894,17.1997319 C8.42650213,21.9351362 12.2670553,25.7727957 17.0017362,25.7727957 C21.736417,25.7727957 25.5769702,21.9322426 25.5769702,17.1997319 C25.5769702,12.4636043 21.736417,8.62522128 17.0017362,8.62522128" id="Fill-20"></path>
                                                <path class="svg-hover" d="M27.9149404,8.28702979 C27.9149404,9.39311489 27.0186426,10.2894128 25.9132809,10.2894128 C24.8057489,10.2901362 23.9108979,9.39311489 23.9108979,8.28630638 C23.9108979,7.18022128 24.8057489,6.2839234 25.9132809,6.2839234 C27.0200894,6.28464681 27.9149404,7.18022128 27.9149404,8.28702979" id="Fill-22"></path>
                                            </g>
                                        </g>
                                    </svg>