<?xml version="1.0" encoding="UTF-8" standalone="no"?>
<svg width="164px" height="68px" viewBox="0 0 164 68" version="1.1" xmlns="http://www.w3.org/2000/svg" xmlns:xlink="http://www.w3.org/1999/xlink">
    <!-- Generator: Sketch 43.2 (39069) - http://www.bohemiancoding.com/sketch -->
    <title>ttl-contents</title>
    <desc>Created with Sketch.</desc>
    <defs></defs>
    <g id="Page-1" stroke="none" stroke-width="1" fill="none" fill-rule="evenodd">
        <g id="ttl-contents">
            <path d="M35.0824,5.772 C37.0524,6.753 38.4484,7.616 38.4484,9.805 C38.4484,12.226 36.7824,13.791 34.2064,13.791 C31.6364,13.791 30.1874,12.492 29.8994,9.93 L29.8474,9.488 L32.2334,9.22 L32.2944,9.647 C32.5024,11.077 32.8334,11.714 34.2514,11.714 C34.9204,11.714 36.0444,11.481 36.0444,9.918 C36.0444,8.657 35.1594,8.168 33.5994,7.415 L33.4464,7.343 C31.7594,6.522 30.3034,5.814 30.3034,3.648 C30.3034,1.567 32.0004,0 34.2514,0 C36.3184,0 37.7314,1.131 38.2314,3.184 L38.3494,3.667 L36.0014,3.969 L35.8994,3.593 C35.6204,2.559 35.0974,2.078 34.2514,2.078 C32.8584,2.078 32.7084,3.175 32.7084,3.648 C32.7084,4.369 32.7084,4.585 35.0824,5.772 Z" id="Fill-1" fill="#000000"></path>
            <polygon id="Fill-3" fill="#000000" points="45.6361 13.6197 48.0401 13.6197 48.0401 2.1887 51.1811 2.1887 51.1811 0.1707 42.4251 0.1707 42.4251 2.1887 45.6361 2.1887"></polygon>
            <path d="M124.643,11.6007 L123.552,11.6007 L123.552,2.1887 L125.005,2.1887 C125.911,2.1887 127.427,2.1887 127.427,6.9047 C127.427,11.6007 126.011,11.6007 124.643,11.6007 M124.643,0.1707 L121.145,0.1707 L121.145,13.6197 L124.687,13.6197 C129.901,13.6197 129.901,9.2517 129.901,6.9047 C129.901,1.3157 127.798,0.1707 124.643,0.1707" id="Fill-5" fill="#000000"></path>
            <path d="M110.5307,2.189 L111.9367,2.189 C113.4077,2.189 113.9797,2.683 113.9797,3.948 C113.9797,5.316 113.4137,6.008 112.3007,6.008 L110.5307,6.008 L110.5307,2.189 Z M110.5307,8.027 L111.5247,8.027 L114.9777,13.977 L117.1697,13.096 L114.0607,7.731 C115.5817,7.086 116.4517,5.711 116.4517,3.948 C116.4517,1.583 114.5127,0.17 112.6397,0.17 L108.1267,0.17 L108.1267,13.62 L110.5307,13.62 L110.5307,8.027 Z" id="Fill-7" fill="#000000"></path>
            <path d="M59.0844,3.9019 L60.0974,7.6509 L58.0694,7.6509 L59.0844,3.9019 Z M57.4904,9.6579 L60.6814,9.6579 L61.8084,13.8319 L64.0864,13.2879 L60.2714,0.1709 L57.9004,0.1709 L54.0834,13.2879 L56.3604,13.8319 L57.4904,9.6579 Z" id="Fill-9" fill="#000000"></path>
            <path d="M99.2377,3.9034 L100.2497,7.6504 L98.2247,7.6504 L99.2377,3.9034 Z M97.6447,9.6574 L100.8317,9.6574 L101.9607,13.8324 L104.2417,13.2874 L100.4237,0.1704 L98.0537,0.1704 L94.2357,13.2874 L96.5147,13.8324 L97.6447,9.6574 Z" id="Fill-11" fill="#000000"></path>
            <path d="M84.3881,11.6007 L84.3881,2.1887 L85.8411,2.1887 C86.7441,2.1887 88.2611,2.1887 88.2611,6.9047 C88.2611,11.6007 86.8471,11.6007 85.4781,11.6007 L84.3881,11.6007 Z M90.7351,6.9047 C90.7351,1.3157 88.6341,0.1707 85.4781,0.1707 L81.9801,0.1707 L81.9801,13.6197 L85.5231,13.6197 C90.7351,13.6197 90.7351,9.2517 90.7351,6.9047 L90.7351,6.9047 Z" id="Fill-13" fill="#000000"></path>
            <polygon id="Fill-15" fill="#000000" points="70.3783 4.8428 74.0903 13.6198 76.7283 13.6198 76.7283 0.1708 74.3233 0.1708 74.3233 8.9348 70.6123 0.1708 67.9733 0.1708 67.9733 13.6198 70.3783 13.6198"></polygon>
            <polygon id="Fill-17" fill="#000000" points="52.547 20.923 105.761 20.923 105.761 18.516 52.547 18.516"></polygon>
            <polygon id="Stroke-19" stroke="#000000" stroke-width="0.85" points="0.425 61.127 163.322 61.127 163.322 42.179 0.425 42.179"></polygon>
            <path d="M64.2094,38.4122 C63.0404,42.1812 56.0064,44.7992 53.6544,44.2752 C52.0734,44.1182 53.3884,42.3382 54.0514,42.7042 C55.0784,42.9142 60.5944,41.8152 61.8604,38.5162 C62.2204,37.5222 62.2854,34.2762 52.4424,34.1192 C40.8864,33.9092 27.1564,39.3022 26.2534,42.4432 C24.9534,47.1552 35.4054,50.4532 42.8174,53.1752 C48.5114,55.2172 56.9444,57.1012 55.7354,61.0282 C55.1774,62.8082 50.2304,66.9962 39.6714,66.6822 C28.0864,66.3692 23.6964,60.2432 23.6964,60.2432 C23.6964,60.2432 24.2174,59.2482 25.2204,59.9812 C25.2204,59.9812 30.9384,64.4832 40.1894,64.8502 C43.4564,64.9552 52.2934,63.7502 53.1424,60.8192 C53.9924,57.8872 45.3034,56.1602 39.7164,54.1182 C32.4134,51.3952 22.4354,48.3592 24.1754,42.5472 C26.2064,35.7942 44.0904,32.1292 54.2424,32.1292 L54.2964,32.1292 C59.1564,32.1292 65.6584,33.7532 64.2094,38.4122 Z" id="Stroke-20" stroke="#231814" stroke-width="0.72"></path>
            <path d="M67.1313,53.3326 C66.0903,53.1756 62.6063,58.2016 62.5533,61.1856 C64.8253,59.2486 65.2263,58.3066 66.0293,57.0496 C67.0883,55.4266 68.0503,53.5416 67.1313,53.3326 Z M74.3963,56.4216 C75.0943,55.5836 75.4913,56.7876 73.8283,58.8816 C73.2653,59.6146 69.0533,65.1646 64.9633,65.1116 C60.0753,65.0066 60.4343,61.2376 61.2433,58.4626 C62.0543,55.6876 66.0623,50.0866 68.5823,51.8666 C70.4383,53.2806 68.5613,55.7936 67.3283,57.6776 C65.9223,59.8246 63.9593,61.6046 62.9783,62.4946 C63.3593,62.9126 64.1423,63.2276 65.0613,63.2276 C68.9493,63.2276 72.4903,58.6206 74.3963,56.4216 Z" id="Stroke-21" stroke="#231814" stroke-width="0.72"></path>
            <path d="M75.4262,56.4215 C75.0102,56.9975 74.3392,57.7305 73.2652,58.9865 C72.8222,59.4575 72.2632,58.4635 72.9882,57.5205 C73.4582,56.9445 73.7262,56.5255 74.4782,55.6885 C74.7732,55.3745 74.6382,55.4795 74.9032,54.4315 C75.3262,52.7565 76.3432,50.8725 77.2882,50.9765 C78.0852,51.0295 78.1992,52.2855 78.0532,52.6515 C77.9342,53.1235 77.2612,53.6465 77.4652,53.9085 C77.6152,54.1705 78.0332,54.0125 78.2082,53.9615 C78.5722,53.8035 79.9182,52.9665 80.9882,53.6465 C81.6382,54.0655 81.0362,55.3745 80.9972,55.5315 C80.5852,56.7355 79.8962,56.6835 79.3262,58.9345 C78.7022,61.1855 78.5102,63.0185 80.6702,63.0185 C83.2622,63.0185 86.7642,58.7765 88.6152,56.5785 C89.2602,55.7405 89.7792,56.8925 88.1692,58.9865 C87.5522,59.7195 83.5812,64.9555 79.9082,64.7455 C75.9112,64.5365 76.7142,60.5045 76.9662,59.5105 C77.4142,57.1015 78.5572,56.2125 78.3132,55.8985 C77.8382,55.4265 77.6262,56.2645 76.9242,56.2645 C76.2222,56.2645 75.7612,55.9495 75.4262,56.4215 Z" id="Stroke-22" stroke="#231814" stroke-width="0.72"></path>
            <path d="M95.102,59.3531 C97.43,60.4001 99.773,59.2491 101.437,57.3631 L102.122,56.5791 C102.672,55.8981 103.31,56.5791 102.601,57.8871 C100.751,60.7141 96.064,62.8081 94.178,60.8711 C93.669,61.6041 93.173,62.2851 92.581,62.9131 C91.4,64.1691 90.354,65.5311 88.95,65.5311 C85.169,65.5311 87.692,56.8401 88.171,55.5831 C88.462,54.4321 90.892,54.2231 90.183,55.7411 C89.796,56.6311 87.873,63.3841 89.588,63.6461 C90.466,63.8031 92.036,61.6561 93.294,59.4571 C93.099,58.3061 93.498,56.9451 94.165,55.3741 C94.831,53.8041 96.039,52.2331 96.511,52.2861 C97.632,52.3371 97.302,53.8561 96.811,55.5831 C96.545,56.4211 96.026,57.8351 95.102,59.3531 Z" id="Stroke-23" stroke="#231814" stroke-width="0.72"></path>
            <path d="M105.2865,52.024 C104.9935,52.756 104.1595,53.28 103.3755,53.175 C102.3895,53.018 102.3855,52.181 102.5715,51.657 C102.6905,51.186 103.5615,49.878 104.6555,50.034 C105.8045,50.191 105.5805,51.291 105.2865,52.024 Z M103.5835,65.164 C99.3575,65.217 100.1575,60.348 100.5035,59.406 C100.9035,58.254 101.9315,55.898 101.9315,55.898 C102.5475,54.956 104.1955,55.06 103.9565,56.003 C103.8905,56.264 99.9715,63.646 104.2355,63.437 C107.1245,63.332 111.0165,58.62 112.8145,56.421 C113.5245,55.531 113.9775,56.735 112.3675,58.83 C111.8055,59.563 107.4175,65.164 103.5835,65.164 Z" id="Stroke-24" stroke="#231814" stroke-width="0.72"></path>
            <path d="M115.2006,65.3736 C111.7716,65.4776 109.7626,63.1746 110.7986,59.7196 C111.7666,56.3166 115.3346,51.6046 119.2916,51.7616 C121.1136,51.8146 121.8606,52.9136 121.4766,54.4316 C121.0666,56.0556 120.0056,56.8396 119.2646,57.4156 C118.8616,57.7306 118.1746,58.0966 117.7266,57.7306 C117.5106,57.5206 117.8716,56.7356 118.3016,56.3166 C119.3626,55.3216 120.2576,53.4896 118.8256,53.3846 C116.8006,53.2806 114.0056,56.0026 113.0916,59.1956 C112.1876,62.3376 112.7486,63.7506 115.8686,63.8026 C120.8226,63.8556 124.4426,58.7246 126.2946,56.5256 C127.0046,55.6366 127.4836,56.7356 125.8736,58.8296 C125.6186,59.1956 121.3016,65.1646 115.2006,65.3736 Z" id="Stroke-25" stroke="#231814" stroke-width="0.72"></path>
            <path d="M128.8451,53.3326 C127.8051,53.1756 124.3201,58.2016 124.2671,61.1856 C126.5391,59.2486 126.9401,58.3066 127.7421,57.0496 C128.8021,55.4266 129.7651,53.5416 128.8451,53.3326 Z M136.1101,56.4216 C136.8081,55.5836 137.2051,56.7876 135.5421,58.8816 C134.9791,59.6146 130.7671,65.1646 126.6771,65.1116 C121.7891,65.0066 122.1481,61.2376 122.9571,58.4626 C123.7681,55.6876 127.7771,50.0866 130.2961,51.8666 C132.1521,53.2806 130.2751,55.7936 129.0421,57.6776 C127.6361,59.8246 125.6731,61.6046 124.6921,62.4946 C125.0731,62.9126 125.8571,63.2276 126.7751,63.2276 C130.6631,63.2276 134.2041,58.6206 136.1101,56.4216 Z" id="Stroke-26" stroke="#231814" stroke-width="0.72"></path>
            <path d="M64.2094,38.4122 C63.0404,42.1812 56.0064,44.7992 53.6544,44.2752 C52.0734,44.1182 53.3884,42.3382 54.0514,42.7042 C55.0784,42.9142 60.5944,41.8152 61.8604,38.5162 C62.2204,37.5222 62.2854,34.2762 52.4424,34.1192 C40.8864,33.9092 27.1564,39.3022 26.2534,42.4432 C24.9534,47.1552 35.4054,50.4532 42.8174,53.1752 C48.5114,55.2172 56.9444,57.1012 55.7354,61.0282 C55.1774,62.8082 50.2304,66.9962 39.6714,66.6822 C28.0864,66.3692 23.6964,60.2432 23.6964,60.2432 C23.6964,60.2432 24.2174,59.2482 25.2204,59.9812 C25.2204,59.9812 30.9384,64.4832 40.1894,64.8502 C43.4564,64.9552 52.2934,63.7502 53.1424,60.8192 C53.9924,57.8872 45.3034,56.1602 39.7164,54.1182 C32.4134,51.3952 22.4354,48.3592 24.1754,42.5472 C26.2064,35.7942 44.0904,32.1292 54.2424,32.1292 L54.2964,32.1292 C59.1564,32.1292 65.6584,33.7532 64.2094,38.4122" id="Fill-27" fill="#000000"></path>
            <path d="M67.1313,53.3326 C66.0903,53.1756 62.6063,58.2016 62.5533,61.1856 C64.8253,59.2486 65.2263,58.3066 66.0293,57.0496 C67.0883,55.4266 68.0503,53.5416 67.1313,53.3326 M74.3963,56.4216 C75.0943,55.5836 75.4913,56.7876 73.8283,58.8816 C73.2653,59.6146 69.0533,65.1646 64.9633,65.1116 C60.0753,65.0066 60.4343,61.2376 61.2433,58.4626 C62.0543,55.6876 66.0623,50.0866 68.5823,51.8666 C70.4383,53.2806 68.5613,55.7936 67.3283,57.6776 C65.9223,59.8246 63.9593,61.6046 62.9783,62.4946 C63.3593,62.9126 64.1423,63.2276 65.0613,63.2276 C68.9493,63.2276 72.4903,58.6206 74.3963,56.4216" id="Fill-28" fill="#000000"></path>
            <path d="M75.4262,56.4215 C75.0102,56.9975 74.3392,57.7305 73.2652,58.9865 C72.8222,59.4575 72.2632,58.4635 72.9882,57.5205 C73.4582,56.9445 73.7262,56.5255 74.4782,55.6885 C74.7732,55.3745 74.6382,55.4795 74.9032,54.4315 C75.3262,52.7565 76.3432,50.8725 77.2882,50.9765 C78.0852,51.0295 78.1992,52.2855 78.0532,52.6515 C77.9342,53.1235 77.2612,53.6465 77.4652,53.9085 C77.6152,54.1705 78.0332,54.0125 78.2082,53.9615 C78.5722,53.8035 79.9182,52.9665 80.9882,53.6465 C81.6382,54.0655 81.0362,55.3745 80.9972,55.5315 C80.5852,56.7355 79.8962,56.6835 79.3262,58.9345 C78.7022,61.1855 78.5102,63.0185 80.6702,63.0185 C83.2622,63.0185 86.7642,58.7765 88.6152,56.5785 C89.2602,55.7405 89.7792,56.8925 88.1692,58.9865 C87.5522,59.7195 83.5812,64.9555 79.9082,64.7455 C75.9112,64.5365 76.7142,60.5045 76.9662,59.5105 C77.4142,57.1015 78.5572,56.2125 78.3132,55.8985 C77.8382,55.4265 77.6262,56.2645 76.9242,56.2645 C76.2222,56.2645 75.7612,55.9495 75.4262,56.4215" id="Fill-29" fill="#000000"></path>
            <path d="M95.102,59.3531 C97.43,60.4001 99.773,59.2491 101.437,57.3631 L102.122,56.5791 C102.672,55.8981 103.31,56.5791 102.601,57.8871 C100.751,60.7141 96.064,62.8081 94.178,60.8711 C93.669,61.6041 93.173,62.2851 92.581,62.9131 C91.4,64.1691 90.354,65.5311 88.95,65.5311 C85.169,65.5311 87.692,56.8401 88.171,55.5831 C88.462,54.4321 90.892,54.2231 90.183,55.7411 C89.796,56.6311 87.873,63.3841 89.588,63.6461 C90.466,63.8031 92.036,61.6561 93.294,59.4571 C93.099,58.3061 93.498,56.9451 94.165,55.3741 C94.831,53.8041 96.039,52.2331 96.511,52.2861 C97.632,52.3371 97.302,53.8561 96.811,55.5831 C96.545,56.4211 96.026,57.8351 95.102,59.3531" id="Fill-30" fill="#000000"></path>
            <path d="M105.2865,52.024 C104.9935,52.756 104.1595,53.28 103.3755,53.175 C102.3895,53.018 102.3855,52.181 102.5715,51.657 C102.6905,51.186 103.5615,49.878 104.6555,50.034 C105.8045,50.191 105.5805,51.291 105.2865,52.024 M103.5835,65.164 C99.3575,65.217 100.1575,60.348 100.5035,59.406 C100.9035,58.254 101.9315,55.898 101.9315,55.898 C102.5475,54.956 104.1955,55.06 103.9565,56.003 C103.8905,56.264 99.9715,63.646 104.2355,63.437 C107.1245,63.332 111.0165,58.62 112.8145,56.421 C113.5245,55.531 113.9775,56.735 112.3675,58.83 C111.8055,59.563 107.4175,65.164 103.5835,65.164" id="Fill-31" fill="#000000"></path>
            <path d="M115.2006,65.3736 C111.7716,65.4776 109.7626,63.1746 110.7986,59.7196 C111.7666,56.3166 115.3346,51.6046 119.2916,51.7616 C121.1136,51.8146 121.8606,52.9136 121.4766,54.4316 C121.0666,56.0556 120.0056,56.8396 119.2646,57.4156 C118.8616,57.7306 118.1746,58.0966 117.7266,57.7306 C117.5106,57.5206 117.8716,56.7356 118.3016,56.3166 C119.3626,55.3216 120.2576,53.4896 118.8256,53.3846 C116.8006,53.2806 114.0056,56.0026 113.0916,59.1956 C112.1876,62.3376 112.7486,63.7506 115.8686,63.8026 C120.8226,63.8556 124.4426,58.7246 126.2946,56.5256 C127.0046,55.6366 127.4836,56.7356 125.8736,58.8296 C125.6186,59.1956 121.3016,65.1646 115.2006,65.3736" id="Fill-32" fill="#000000"></path>
            <path d="M128.8451,53.3326 C127.8051,53.1756 124.3201,58.2016 124.2671,61.1856 C126.5391,59.2486 126.9401,58.3066 127.7421,57.0496 C128.8021,55.4266 129.7651,53.5416 128.8451,53.3326 M136.1101,56.4216 C136.8081,55.5836 137.2051,56.7876 135.5421,58.8816 C134.9791,59.6146 130.7671,65.1646 126.6771,65.1116 C121.7891,65.0066 122.1481,61.2376 122.9571,58.4626 C123.7681,55.6876 127.7771,50.0866 130.2961,51.8666 C132.1521,53.2806 130.2751,55.7936 129.0421,57.6776 C127.6361,59.8246 125.6731,61.6046 124.6921,62.4946 C125.0731,62.9126 125.8571,63.2276 126.7751,63.2276 C130.6631,63.2276 134.2041,58.6206 136.1101,56.4216" id="Fill-33" fill="#000000"></path>
        </g>
    </g>
</svg>