<svg height="37" viewBox="0 0 101 37" width="101" xmlns="http://www.w3.org/2000/svg"><g fill="none" fill-rule="evenodd"><path d="m58 36.2852h-58" stroke="#b3b3b3"/><g fill="#514e4d"><path d="m14.8857 10.8633-.105 5.309h-14.157v-1.079c.977 0 1.606-.14 1.887-.421.281-.282.422-.766.422-1.454v-9.984c0-.461-.047-.818-.141-1.072s-.31-.451-.65-.592-.846-.211-1.518-.211v-1.078h7.992v1.078c-.664 0-1.166.066-1.505.199-.34.133-.563.326-.668.58-.106.254-.159.62-.159 1.096v9.141c0 .718.036 1.234.106 1.547.07.312.262.548.574.709.313.16.824.24 1.535.24.899 0 1.686-.069 2.362-.205.675-.137 1.3-.5 1.875-1.09.574-.59.931-1.494 1.072-2.713z"/><path d="m26.4736 16.1719h-8.063v-1.078c.672 0 1.18-.065 1.524-.193.344-.129.568-.323.674-.581.105-.257.158-.625.158-1.101v-9.985c0-.687-.143-1.171-.428-1.453-.285-.281-.927-.422-1.928-.422v-1.078h8.063v1.078c-.672 0-1.18.067-1.523.2-.344.133-.569.326-.674.58-.106.254-.158.619-.158 1.095v9.985c0 .453.05.808.152 1.066.101.258.318.457.65.598s.85.211 1.553.211z"/><path d="m47.2598 1.3594c-.375.008-.701.059-.979.152-.277.094-.505.241-.685.44s-.359.47-.539.814-.43.883-.75 1.617l-5.18 12.082h-1.09l-5.414-12.679c-.336-.789-.597-1.332-.785-1.629-.187-.297-.437-.504-.75-.621-.312-.117-.777-.176-1.394-.176v-1.078h8.086v1.078c-.766.031-1.297.094-1.594.187-.297.094-.446.329-.446.704 0 .351.094.726.282 1.125l3.656 8.496 3.375-7.934c.289-.687.434-1.16.434-1.418 0-.508-.176-.824-.528-.949-.351-.125-.879-.195-1.582-.211v-1.078h5.883z"/><path d="m58.5078 16.1719h-8.063v-1.078c.672 0 1.18-.065 1.524-.193.344-.129.568-.323.674-.581.105-.257.158-.625.158-1.101v-9.985c0-.687-.143-1.171-.428-1.453-.285-.281-.927-.422-1.928-.422v-1.078h8.063v1.078c-.672 0-1.18.067-1.523.2-.344.133-.569.326-.674.58-.106.254-.158.619-.158 1.095v9.985c0 .453.05.808.152 1.066.101.258.318.457.65.598s.85.211 1.553.211z"/><path d="m79.2471 1.3594c-.758 0-1.301.076-1.629.229-.328.152-.531.376-.609.673s-.117.782-.117 1.453v12.598h-1.079l-10.394-12.351v8.753c0 .665.041 1.147.123 1.448s.291.531.627.691.879.24 1.629.24v1.079h-5.906v-1.079c.703 0 1.212-.08 1.529-.24.316-.16.512-.39.586-.691s.111-.783.111-1.448v-8.109c0-.656-.017-1.148-.053-1.476-.035-.329-.119-.616-.252-.862-.132-.246-.349-.445-.65-.597-.301-.153-.717-.256-1.248-.311v-1.078h4.629l9.047 10.687v-7.254c0-.593-.041-1.048-.123-1.365-.082-.316-.285-.56-.61-.732-.324-.172-.838-.258-1.541-.258v-1.078h5.93z"/><path d="m100.4326 9.9024c-.453.047-.795.119-1.025.217-.231.097-.389.265-.475.504-.086.238-.129.607-.129 1.107v3.727c-1.133 0-2.359.148-3.68.445-.953.211-1.668.357-2.144.439-.477.082-1.039.123-1.688.123-1.718 0-3.191-.402-4.418-1.207-1.226-.804-2.146-1.839-2.759-3.105-.614-1.266-.92-2.566-.92-3.902 0-1.532.363-2.928 1.09-4.19.726-1.262 1.71-2.254 2.953-2.976 1.242-.723 2.601-1.084 4.078-1.084 1.797 0 3.433.621 4.91 1.863.18-.336.324-.797.434-1.383h1.136l.117 5.203h-1.078c-.164-.789-.472-1.511-.925-2.168-.454-.656-1.018-1.175-1.694-1.558s-1.42-.575-2.232-.575c-.594 0-1.176.104-1.746.311-.571.207-1.104.566-1.6 1.078s-.894 1.209-1.195 2.092-.451 1.973-.451 3.269c0 1.11.117 2.176.351 3.2.235 1.023.711 1.902 1.43 2.636.719.735 1.734 1.102 3.047 1.102 1.031 0 1.812-.162 2.343-.486.532-.325.877-.721 1.038-1.19.16-.469.24-.992.24-1.57 0-.547-.041-.945-.123-1.195s-.274-.434-.574-.551c-.301-.117-.764-.176-1.389-.176v-1.078h7.078z"/></g></g></svg>