<svg height="38" viewBox="0 0 240 38" width="240" xmlns="http://www.w3.org/2000/svg"><g fill="none" fill-rule="evenodd"><path d="m58 36.6084h-58" stroke="#b3b3b3"/><g fill="#514e4d"><path d="m12.2617 1.3828c-.672 0-1.182.064-1.529.193-.348.129-.576.327-.686.592-.109.266-.164.629-.164 1.09v12.023.305c0 .852-.037 1.52-.111 2.004s-.252.996-.533 1.535c-.399.766-.946 1.362-1.641 1.787-.695.426-1.361.701-1.998.826s-1.19.188-1.658.188c-.766 0-1.446-.096-2.039-.287-.594-.192-1.059-.473-1.395-.844s-.504-.814-.504-1.33c0-.422.143-.801.428-1.137s.678-.504 1.178-.504c.281 0 .537.061.767.182.231.121.412.281.545.481.133.199.199.412.199.638 0 .141-.023.285-.07.434-.062.164-.094.301-.094.41 0 .445.399.668 1.196.668.578 0 1.029-.094 1.353-.281.324-.188.561-.457.709-.809.149-.352.238-.746.27-1.184.031-.437.047-1.039.047-1.804v-13.301c0-.492-.057-.869-.17-1.131-.114-.262-.348-.451-.704-.568-.355-.117-.888-.176-1.599-.176v-1.078h8.203z"/><path d="m24.3887 10.6055-2.191-5.543-2.086 5.543zm6.984 5.59h-7.488v-1.078c.633 0 1.094-.045 1.383-.135s.433-.303.433-.639c0-.234-.046-.472-.14-.715l-.75-1.875h-5.156l-.387 1.032c-.219.578-.328.996-.328 1.254 0 .468.181.765.545.89.363.125.787.188 1.271.188v1.078h-5.472v-1.078c.437 0 .808-.082 1.113-.246s.596-.475.873-.932.576-1.104.896-1.939l4.582-12h1.114l4.839 12.375c.352.875.61 1.466.774 1.775s.391.547.68.715.695.252 1.218.252z"/><path d="m45.1865 4.5586c0-1.266-.369-2.111-1.107-2.537-.739-.426-1.709-.639-2.913-.639-.218 0-.523.008-.914.024v6.386h1.079c1.148 0 2.078-.197 2.789-.591.711-.395 1.066-1.276 1.066-2.643m3.609-.023c0 1.304-.402 2.294-1.207 2.97-.804.676-1.752 1.11-2.841 1.301-1.09.191-2.237.287-3.44.287h-1.055v4.149c0 .468.051.832.153 1.089.101.258.32.454.656.586.336.133.848.2 1.535.2v1.078h-7.992v-1.078c.68 0 1.182-.071 1.506-.211.324-.141.535-.34.633-.598.097-.258.146-.613.146-1.066v-10.032c0-.453-.047-.806-.141-1.06-.093-.254-.304-.453-.632-.598-.328-.144-.832-.217-1.512-.217v-1.101l4.535-.117c.235-.008.49-.014.768-.018.277-.004.498-.008.662-.012s.406-.006.726-.006c.399 0 .696.004.891.012.93.039 1.824.129 2.684.27.859.14 1.728.537 2.607 1.189s1.318 1.647 1.318 2.983"/><path d="m61.2041 10.6055-2.191-5.543-2.086 5.543zm6.984 5.59h-7.488v-1.078c.633 0 1.094-.045 1.383-.135s.433-.303.433-.639c0-.234-.046-.472-.14-.715l-.75-1.875h-5.156l-.387 1.032c-.219.578-.328.996-.328 1.254 0 .468.181.765.545.89.363.125.787.188 1.271.188v1.078h-5.472v-1.078c.437 0 .808-.082 1.113-.246s.596-.475.873-.932.576-1.104.896-1.939l4.582-12h1.114l4.839 12.375c.352.875.61 1.466.774 1.775s.391.547.68.715.695.252 1.218.252z"/><path d="m88.6582 1.3828c-.758 0-1.301.076-1.629.229-.328.152-.531.376-.609.673s-.117.782-.117 1.453v12.598h-1.079l-10.394-12.351v8.753c0 .665.041 1.147.123 1.448s.291.531.627.691.879.24 1.629.24v1.079h-5.906v-1.079c.703 0 1.212-.08 1.529-.24.316-.16.512-.39.586-.691s.111-.783.111-1.448v-8.109c0-.656-.017-1.148-.053-1.476-.035-.329-.119-.616-.252-.862-.132-.246-.349-.445-.65-.597-.301-.153-.717-.256-1.248-.311v-1.078h4.629l9.047 10.687v-7.254c0-.593-.041-1.048-.123-1.365-.082-.316-.285-.56-.61-.732-.324-.172-.838-.258-1.541-.258v-1.078h5.93z"/><path d="m106.293 10.9688-.129 5.227h-14.156v-1.079c.976 0 1.605-.14 1.887-.421.281-.282.421-.766.421-1.454v-9.984c0-.453-.044-.807-.134-1.06-.09-.254-.301-.454-.633-.598-.332-.145-.846-.217-1.541-.217v-1.078h13.183l.211 4.125h-1.078c-.242-.914-.521-1.568-.838-1.963-.316-.394-.672-.637-1.066-.727-.395-.089-.986-.134-1.775-.134h-2.977v5.613h1.617c.555 0 .969-.049 1.242-.146.274-.098.465-.284.575-.557.109-.274.183-.703.222-1.289h1.125v5.285h-1.078c-.031-.586-.109-1.018-.234-1.295s-.323-.463-.592-.557c-.27-.093-.682-.14-1.236-.14h-1.641v3.738c0 .625.016 1.082.047 1.371s.115.529.252.721c.137.191.359.33.668.416.308.086.748.129 1.318.129h1.278c.539 0 1.052-.069 1.541-.205.488-.137.966-.489 1.435-1.055s.797-1.455.984-2.666z"/><path d="m122.2871 11.6367c0 .492-.105 1.014-.316 1.564-.211.551-.53 1.079-.955 1.582-.426.504-.963.915-1.612 1.231-.648.316-1.398.475-2.25.475-.844 0-1.681-.184-2.513-.551-.833-.367-1.538-.914-2.116-1.641-.25.578-.41 1.113-.48 1.606h-1.078v-5.438h1.078c.195.781.465 1.516.808 2.203.344.688.83 1.28 1.459 1.776s1.401.744 2.315.744c.797 0 1.435-.219 1.916-.656.48-.438.721-.989.721-1.653 0-.375-.075-.703-.223-.984-.149-.281-.363-.533-.645-.756-.281-.223-.666-.461-1.154-.715s-1.045-.521-1.67-.803c-.961-.453-1.75-.91-2.367-1.371s-1.084-.908-1.4-1.342c-.317-.433-.536-.845-.657-1.236-.121-.39-.181-.785-.181-1.183 0-.711.191-1.413.574-2.104s.943-1.258 1.682-1.699c.738-.442 1.591-.662 2.56-.662.742 0 1.449.166 2.121.498s1.254.787 1.746 1.365c.141-.328.27-.789.387-1.383h1.102v4.43h-1.102c-.781-2.414-2.141-3.621-4.078-3.621-.703 0-1.268.185-1.693.556-.426.372-.639.85-.639 1.436 0 .461.133.861.398 1.201.266.34.616.631 1.049.873.434.242 1.135.59 2.104 1.043 1.171.555 2.088 1.035 2.748 1.442.66.406 1.218.918 1.675 1.535s.686 1.363.686 2.238"/><path d="m140.5889 10.9688-.129 5.227h-14.156v-1.079c.976 0 1.605-.14 1.887-.421.281-.282.421-.766.421-1.454v-9.984c0-.453-.044-.807-.134-1.06-.09-.254-.301-.454-.633-.598-.332-.145-.846-.217-1.541-.217v-1.078h13.183l.211 4.125h-1.078c-.242-.914-.521-1.568-.838-1.963-.316-.394-.672-.637-1.066-.727-.395-.089-.986-.134-1.775-.134h-2.977v5.613h1.617c.555 0 .969-.049 1.242-.146.274-.098.465-.284.575-.557.109-.274.183-.703.222-1.289h1.125v5.285h-1.078c-.031-.586-.109-1.018-.234-1.295s-.323-.463-.592-.557c-.27-.093-.682-.14-1.236-.14h-1.641v3.738c0 .625.016 1.082.047 1.371s.115.529.252.721c.137.191.359.33.668.416.308.086.748.129 1.318.129h1.278c.539 0 1.052-.069 1.541-.205.488-.137.966-.489 1.435-1.055s.797-1.455.984-2.666z"/><path d="m164.9824 11.6367c0 .492-.105 1.014-.316 1.564-.211.551-.53 1.079-.955 1.582-.426.504-.963.915-1.612 1.231-.648.316-1.398.475-2.25.475-.844 0-1.681-.184-2.513-.551-.833-.367-1.538-.914-2.116-1.641-.25.578-.41 1.113-.48 1.606h-1.078v-5.438h1.078c.195.781.465 1.516.808 2.203.344.688.83 1.28 1.459 1.776s1.401.744 2.315.744c.797 0 1.435-.219 1.916-.656.48-.438.721-.989.721-1.653 0-.375-.075-.703-.223-.984-.149-.281-.363-.533-.645-.756-.281-.223-.666-.461-1.154-.715s-1.045-.521-1.67-.803c-.961-.453-1.75-.91-2.367-1.371s-1.084-.908-1.4-1.342c-.317-.433-.536-.845-.657-1.236-.121-.39-.181-.785-.181-1.183 0-.711.191-1.413.574-2.104s.943-1.258 1.682-1.699c.738-.442 1.591-.662 2.56-.662.742 0 1.449.166 2.121.498s1.254.787 1.746 1.365c.141-.328.27-.789.387-1.383h1.102v4.43h-1.102c-.781-2.414-2.141-3.621-4.078-3.621-.703 0-1.268.185-1.693.556-.426.372-.639.85-.639 1.436 0 .461.133.861.398 1.201.266.34.616.631 1.049.873.434.242 1.135.59 2.104 1.043 1.171.555 2.088 1.035 2.748 1.442.66.406 1.218.918 1.675 1.535s.686 1.363.686 2.238"/><path d="m184.7734 4.8164h-1.113c-.102-.984-.319-1.711-.651-2.18-.332-.468-.689-.758-1.072-.867s-.824-.164-1.324-.164h-2.016v11.637c0 .461.047.818.141 1.072s.312.451.656.592c.344.14.848.211 1.512.211v1.078h-7.969v-1.078c.977 0 1.606-.141 1.887-.422s.422-.766.422-1.453v-11.637h-1.688c-.664 0-1.215.053-1.652.158-.438.106-.822.395-1.154.867-.333.473-.522 1.202-.569 2.186h-1.113v-4.512h15.703z"/><path d="m204.5176 1.3828c-.43.031-.787.129-1.072.293s-.571.434-.856.809-.705.984-1.26 1.828l-3.339 5.168v3.761c0 .43.045.774.134 1.032.09.257.299.463.627.615.329.152.844.228 1.547.228v1.079h-7.992v-1.079c.664 0 1.166-.064 1.506-.193s.562-.322.668-.58c.105-.258.158-.625.158-1.102v-3.55l-3.984-6.645c-.032-.047-.065-.1-.1-.158-.035-.059-.06-.096-.076-.111-.344-.563-.65-.93-.92-1.102s-.666-.27-1.189-.293v-1.078h7.441v1.078c-.375 0-.672.012-.891.035-.218.024-.396.086-.533.188-.137.101-.205.261-.205.48 0 .149.047.328.141.539.093.211.308.606.644 1.184l2.473 4.183 2.355-3.726c.508-.805.762-1.395.762-1.77 0-.492-.16-.801-.48-.926-.321-.125-.766-.187-1.336-.187v-1.078h5.777z"/><path d="m222.0459 10.8867-.105 5.309h-14.157v-1.079c.977 0 1.606-.14 1.887-.421.281-.282.422-.766.422-1.454v-9.984c0-.461-.047-.818-.141-1.072s-.31-.451-.65-.592-.846-.211-1.518-.211v-1.078h7.992v1.078c-.664 0-1.166.066-1.505.199-.34.133-.563.326-.668.58-.106.254-.159.62-.159 1.096v9.141c0 .718.036 1.234.106 1.547.07.312.262.548.574.709.313.16.824.24 1.535.24.899 0 1.686-.069 2.362-.205.675-.137 1.3-.5 1.875-1.09.574-.59.931-1.494 1.072-2.713z"/><path d="m239.9736 10.9688-.129 5.227h-14.156v-1.079c.976 0 1.605-.14 1.887-.421.281-.282.421-.766.421-1.454v-9.984c0-.453-.044-.807-.134-1.06-.09-.254-.301-.454-.633-.598-.332-.145-.846-.217-1.541-.217v-1.078h13.183l.211 4.125h-1.078c-.242-.914-.521-1.568-.838-1.963-.316-.394-.672-.637-1.066-.727-.395-.089-.986-.134-1.775-.134h-2.977v5.613h1.617c.555 0 .969-.049 1.242-.146.274-.098.465-.284.575-.557.109-.274.183-.703.222-1.289h1.125v5.285h-1.078c-.031-.586-.109-1.018-.234-1.295s-.323-.463-.592-.557c-.27-.093-.682-.14-1.236-.14h-1.641v3.738c0 .625.016 1.082.047 1.371s.115.529.252.721c.137.191.359.33.668.416.308.086.748.129 1.318.129h1.278c.539 0 1.052-.069 1.541-.205.488-.137.966-.489 1.435-1.055s.797-1.455.984-2.666z"/></g></g></svg>