<?xml version="1.0" encoding="UTF-8" standalone="no"?>
<svg width="164px" height="68px" viewBox="0 0 164 68" version="1.1" xmlns="http://www.w3.org/2000/svg" xmlns:xlink="http://www.w3.org/1999/xlink">
    <!-- Generator: Sketch 43.2 (39069) - http://www.bohemiancoding.com/sketch -->
    <title>ttl-works</title>
    <desc>Created with Sketch.</desc>
    <defs></defs>
    <g id="Page-1" stroke="none" stroke-width="1" fill="none" fill-rule="evenodd">
        <g id="ttl-works">
            <path d="M37.0824,5.7725 C39.0524,6.7525 40.4484,7.6165 40.4484,9.8055 C40.4484,12.2255 38.7824,13.7905 36.2064,13.7905 C33.6364,13.7905 32.1874,12.4915 31.8994,9.9305 L31.8474,9.4875 L34.2334,9.2195 L34.2944,9.6465 C34.5024,11.0775 34.8334,11.7135 36.2514,11.7135 C36.9204,11.7135 38.0444,11.4815 38.0444,9.9185 C38.0444,8.6575 37.1594,8.1685 35.5994,7.4155 L35.4464,7.3425 C33.7594,6.5225 32.3034,5.8135 32.3034,3.6475 C32.3034,1.5675 34.0004,0.0005 36.2514,0.0005 C38.3184,0.0005 39.7314,1.1315 40.2314,3.1835 L40.3494,3.6675 L38.0014,3.9695 L37.8994,3.5925 C37.6204,2.5595 37.0974,2.0775 36.2514,2.0775 C34.8584,2.0775 34.7084,3.1745 34.7084,3.6475 C34.7084,4.3685 34.7084,4.5855 37.0824,5.7725 Z" id="Fill-1" fill="#000000"></path>
            <polygon id="Fill-3" fill="#000000" points="47.6361 13.6201 50.0401 13.6201 50.0401 2.1881 53.1811 2.1881 53.1811 0.1711 44.4251 0.1711 44.4251 2.1881 47.6361 2.1881"></polygon>
            <path d="M126.643,11.6006 L125.552,11.6006 L125.552,2.1886 L127.005,2.1886 C127.911,2.1886 129.427,2.1886 129.427,6.9056 C129.427,11.6006 128.011,11.6006 126.643,11.6006 M126.643,0.1706 L123.145,0.1706 L123.145,13.6206 L126.687,13.6206 C131.901,13.6206 131.901,9.2506 131.901,6.9056 C131.901,1.3156 129.798,0.1706 126.643,0.1706" id="Fill-5" fill="#000000"></path>
            <path d="M112.5307,2.1885 L113.9367,2.1885 C115.4077,2.1885 115.9797,2.6825 115.9797,3.9485 C115.9797,5.3155 115.4137,6.0085 114.3007,6.0085 L112.5307,6.0085 L112.5307,2.1885 Z M112.5307,8.0275 L113.5247,8.0275 L116.9777,13.9775 L119.1697,13.0955 L116.0607,7.7305 C117.5817,7.0855 118.4517,5.7105 118.4517,3.9485 C118.4517,1.5835 116.5127,0.1705 114.6397,0.1705 L110.1267,0.1705 L110.1267,13.6205 L112.5307,13.6205 L112.5307,8.0275 Z" id="Fill-7" fill="#000000"></path>
            <path d="M61.0844,3.9014 L62.0974,7.6504 L60.0694,7.6504 L61.0844,3.9014 Z M59.4904,9.6574 L62.6814,9.6574 L63.8084,13.8324 L66.0864,13.2884 L62.2714,0.1714 L59.9004,0.1714 L56.0834,13.2884 L58.3604,13.8324 L59.4904,9.6574 Z" id="Fill-9" fill="#000000"></path>
            <path d="M101.2377,3.9033 L102.2497,7.6503 L100.2247,7.6503 L101.2377,3.9033 Z M99.6447,9.6573 L102.8317,9.6573 L103.9607,13.8323 L106.2417,13.2883 L102.4237,0.1713 L100.0537,0.1713 L96.2357,13.2883 L98.5147,13.8323 L99.6447,9.6573 Z" id="Fill-11" fill="#000000"></path>
            <path d="M86.3881,11.6006 L86.3881,2.1886 L87.8411,2.1886 C88.7441,2.1886 90.2611,2.1886 90.2611,6.9056 C90.2611,11.6006 88.8471,11.6006 87.4781,11.6006 L86.3881,11.6006 Z M92.7351,6.9056 C92.7351,1.3156 90.6341,0.1706 87.4781,0.1706 L83.9801,0.1706 L83.9801,13.6206 L87.5231,13.6206 C92.7351,13.6206 92.7351,9.2506 92.7351,6.9056 L92.7351,6.9056 Z" id="Fill-13" fill="#000000"></path>
            <polygon id="Fill-15" fill="#000000" points="72.3783 4.8428 76.0903 13.6198 78.7283 13.6198 78.7283 0.1708 76.3233 0.1708 76.3233 8.9348 72.6123 0.1708 69.9733 0.1708 69.9733 13.6198 72.3783 13.6198"></polygon>
            <polygon id="Fill-17" fill="#000000" points="54.547 20.9222 107.761 20.9222 107.761 18.5152 54.547 18.5152"></polygon>
            <polygon id="Stroke-19" stroke="#000000" stroke-width="0.85" points="0.425 61.1272 163.322 61.1272 163.322 42.1792 0.425 42.1792"></polygon>
            <path d="M53.5497,42.3911 C53.2267,42.3911 51.0687,45.7931 49.6547,49.0391 C48.8927,50.7671 47.7757,53.9081 47.2237,56.9451 C49.4067,53.6461 50.8217,50.4001 51.2217,49.4581 C53.2107,44.5901 53.8607,42.4431 53.5497,42.3911 Z M45.4807,59.3531 C45.4787,56.3691 46.2167,52.8091 47.6037,49.4581 C49.0577,45.8461 52.8257,37.9931 54.6647,38.4121 C56.5567,38.8301 56.1667,41.8671 53.3357,48.1491 C51.3857,52.4431 49.2047,56.3691 46.8857,59.5621 C46.7647,62.3891 47.5577,64.5881 50.2577,64.5881 C61.0707,64.5361 72.3027,37.2081 72.5857,34.1711 C72.8117,33.7001 74.9747,34.1191 74.4947,35.3751 C72.2807,40.9251 61.9717,66.3161 50.4977,66.6301 C47.4617,66.6821 45.9247,64.4321 45.5557,61.1851 C42.6047,64.7451 39.5237,66.8911 36.7157,66.6821 C24.2897,65.6351 35.2027,39.5641 37.9807,36.2661 C38.3417,35.6901 40.6827,36.6841 39.9447,37.4701 C36.2517,41.3961 28.6067,65.0071 36.9367,65.1641 C40.0017,65.2171 42.9987,62.5461 45.4807,59.3531 Z" id="Stroke-20" stroke="#231814" stroke-width="0.72"></path>
            <path d="M72.1889,54.0127 C71.2559,54.0657 70.8319,55.3217 70.9309,56.2117 C70.9749,57.1017 71.5189,57.9397 72.3859,58.5677 C72.9169,56.6827 73.5109,53.9087 72.1889,54.0127 Z M67.7019,63.8557 C69.0249,63.9597 70.6759,62.1277 71.5719,60.5047 C70.2719,59.6677 69.4699,58.3587 69.2719,56.7877 C68.5719,57.2067 67.0719,59.5107 66.7529,60.5567 C66.4079,61.7087 65.9459,63.7507 67.7019,63.8557 Z M80.3549,56.5257 C80.9049,55.8457 81.3809,56.5257 80.6709,57.8347 C79.6409,59.5627 76.8309,61.9187 73.0059,61.0287 C71.6549,63.3847 69.4919,65.5307 66.8319,65.3737 C64.2789,65.2167 64.3179,62.2847 64.9569,60.3997 C65.5959,58.5157 67.6939,54.4847 69.5429,54.2227 C70.0229,53.1757 70.9919,52.3377 72.4769,52.2327 C73.9069,52.1287 75.7519,53.8037 74.2219,58.3587 C74.1419,58.6727 74.0079,58.9867 73.8749,59.3007 C75.4849,59.9807 77.7509,59.7717 79.5889,57.4157 L80.3549,56.5257 Z" id="Stroke-21" stroke="#231814" stroke-width="0.72"></path>
            <path d="M81.3734,56.4214 C80.9574,56.9974 80.2864,57.7304 79.2124,58.9864 C78.7694,59.4574 78.2104,58.4634 78.9354,57.5204 C79.4054,56.9444 79.6734,56.5254 80.4254,55.6884 C80.7204,55.3744 80.5854,55.4794 80.8504,54.4314 C81.2734,52.7564 82.2904,50.8724 83.2354,50.9764 C84.0324,51.0294 84.1464,52.2854 84.0004,52.6514 C83.8814,53.1234 83.2094,53.6464 83.4124,53.9084 C83.5624,54.1704 83.9804,54.0124 84.1554,53.9614 C84.5194,53.8034 85.8654,52.9664 86.9354,53.6464 C87.5854,54.0654 86.9834,55.3744 86.9444,55.5314 C86.5324,56.7354 85.8434,56.6834 85.2734,58.9344 C84.6494,61.1854 84.4574,63.0184 86.6174,63.0184 C89.2094,63.0184 92.7114,58.7764 94.5624,56.5784 C95.2074,55.7404 95.7264,56.8924 94.1164,58.9864 C93.4994,59.7194 89.5284,64.9554 85.8554,64.7454 C81.8594,64.5364 82.6624,60.5044 82.9134,59.5104 C83.3614,57.1014 84.5044,56.2124 84.2604,55.8984 C83.7854,55.4264 83.5734,56.2644 82.8714,56.2644 C82.1694,56.2644 81.7084,55.9494 81.3734,56.4214 Z" id="Stroke-22" stroke="#231814" stroke-width="0.72"></path>
            <path d="M102.0111,65.1118 C97.5161,65.1638 97.2441,62.1798 97.1591,61.4468 C97.0031,59.7188 98.2571,59.6678 98.6621,59.5628 C101.2791,59.0388 103.6711,56.8398 104.2571,55.3748 C104.4451,54.8508 104.7891,53.6988 103.4811,53.7508 C101.7391,53.8038 96.4331,59.1958 94.0931,63.7508 C93.1041,65.7398 92.6451,65.6348 92.3741,65.6348 C91.2941,65.6348 91.9821,62.7038 92.7921,60.1378 C93.6041,57.5728 100.6481,40.8198 101.3161,39.2498 C101.9831,37.6788 101.7661,37.4698 103.0771,37.8358 C104.1861,38.1508 103.1291,40.1918 103.1291,40.1918 C103.1291,40.1918 97.7541,50.7678 94.9121,60.0858 C95.8541,59.3528 100.7571,51.9188 104.0531,52.1288 C106.2811,52.2858 106.4511,53.9608 105.7571,55.4258 C103.9531,59.3528 98.8311,61.0288 98.8311,61.0288 C98.8311,61.0288 99.2221,63.3318 102.7321,63.3318 C109.0501,63.3318 112.3201,58.5158 114.1711,56.3168 C114.8161,55.4788 115.2811,56.6308 113.6711,58.7248 C113.1081,59.4578 109.2741,65.0068 102.0111,65.1118 Z" id="Stroke-23" stroke="#231814" stroke-width="0.72"></path>
            <path d="M113.2963,59.4575 C113.3133,60.2435 113.5193,60.9235 113.7513,61.4995 C113.8723,61.4475 113.9803,61.4475 114.0893,61.4475 C116.0723,61.2905 116.9293,60.0335 117.3403,58.4105 C118.0953,55.4265 117.2143,54.6415 116.8843,53.5945 C116.3533,55.2695 114.8913,57.2065 113.8303,58.4105 C113.5223,58.7765 112.5213,58.2535 113.0833,57.5205 C113.5803,56.8395 115.0443,55.3215 116.4043,52.0755 C116.8583,50.9235 117.3663,49.9815 118.3933,49.9815 C120.2153,50.0345 119.4283,52.0755 119.2703,52.9135 C119.0333,54.0655 119.6583,57.5735 119.3143,58.7245 C118.3813,61.3425 115.9443,62.8605 114.4993,62.5995 C115.1243,63.3315 116.0583,63.6985 117.1923,63.6985 C121.1883,63.6985 124.9703,58.7765 126.8213,56.5785 C127.5203,55.7405 127.9723,56.9445 126.3613,59.0385 C125.7443,59.7715 121.3723,65.5305 116.1583,65.2165 C112.5403,65.0065 111.5023,62.7035 111.5143,59.6675 C111.5143,59.6675 111.6993,58.9345 112.5093,58.7245 C113.2643,58.5155 113.2673,59.1435 113.2963,59.4575 Z" id="Stroke-24" stroke="#231814" stroke-width="0.72"></path>
            <path d="M53.5497,42.3911 C53.2267,42.3911 51.0687,45.7931 49.6547,49.0391 C48.8927,50.7671 47.7757,53.9081 47.2237,56.9451 C49.4067,53.6461 50.8217,50.4001 51.2217,49.4581 C53.2107,44.5901 53.8607,42.4431 53.5497,42.3911 M45.4807,59.3531 C45.4787,56.3691 46.2167,52.8091 47.6037,49.4581 C49.0577,45.8461 52.8257,37.9931 54.6647,38.4121 C56.5567,38.8301 56.1667,41.8671 53.3357,48.1491 C51.3857,52.4431 49.2047,56.3691 46.8857,59.5621 C46.7647,62.3891 47.5577,64.5881 50.2577,64.5881 C61.0707,64.5361 72.3027,37.2081 72.5857,34.1711 C72.8117,33.7001 74.9747,34.1191 74.4947,35.3751 C72.2807,40.9251 61.9717,66.3161 50.4977,66.6301 C47.4617,66.6821 45.9247,64.4321 45.5557,61.1851 C42.6047,64.7451 39.5237,66.8911 36.7157,66.6821 C24.2897,65.6351 35.2027,39.5641 37.9807,36.2661 C38.3417,35.6901 40.6827,36.6841 39.9447,37.4701 C36.2517,41.3961 28.6067,65.0071 36.9367,65.1641 C40.0017,65.2171 42.9987,62.5461 45.4807,59.3531" id="Fill-25" fill="#000000"></path>
            <path d="M72.1889,54.0127 C71.2559,54.0657 70.8319,55.3217 70.9309,56.2117 C70.9749,57.1017 71.5189,57.9397 72.3859,58.5677 C72.9169,56.6827 73.5109,53.9087 72.1889,54.0127 L72.1889,54.0127 Z M67.7019,63.8557 C69.0249,63.9597 70.6759,62.1277 71.5719,60.5047 C70.2719,59.6677 69.4699,58.3587 69.2719,56.7877 C68.5719,57.2067 67.0719,59.5107 66.7529,60.5567 C66.4079,61.7087 65.9459,63.7507 67.7019,63.8557 L67.7019,63.8557 Z M80.3549,56.5257 C80.9049,55.8457 81.3809,56.5257 80.6709,57.8347 C79.6409,59.5627 76.8309,61.9187 73.0059,61.0287 C71.6549,63.3847 69.4919,65.5307 66.8319,65.3737 C64.2789,65.2167 64.3179,62.2847 64.9569,60.3997 C65.5959,58.5157 67.6939,54.4847 69.5429,54.2227 C70.0229,53.1757 70.9919,52.3377 72.4769,52.2327 C73.9069,52.1287 75.7519,53.8037 74.2219,58.3587 C74.1419,58.6727 74.0079,58.9867 73.8749,59.3007 C75.4849,59.9807 77.7509,59.7717 79.5889,57.4157 L80.3549,56.5257 Z" id="Fill-26" fill="#000000"></path>
            <path d="M81.3734,56.4214 C80.9574,56.9974 80.2864,57.7304 79.2124,58.9864 C78.7694,59.4574 78.2104,58.4634 78.9354,57.5204 C79.4054,56.9444 79.6734,56.5254 80.4254,55.6884 C80.7204,55.3744 80.5854,55.4794 80.8504,54.4314 C81.2734,52.7564 82.2904,50.8724 83.2354,50.9764 C84.0324,51.0294 84.1464,52.2854 84.0004,52.6514 C83.8814,53.1234 83.2094,53.6464 83.4124,53.9084 C83.5624,54.1704 83.9804,54.0124 84.1554,53.9614 C84.5194,53.8034 85.8654,52.9664 86.9354,53.6464 C87.5854,54.0654 86.9834,55.3744 86.9444,55.5314 C86.5324,56.7354 85.8434,56.6834 85.2734,58.9344 C84.6494,61.1854 84.4574,63.0184 86.6174,63.0184 C89.2094,63.0184 92.7114,58.7764 94.5624,56.5784 C95.2074,55.7404 95.7264,56.8924 94.1164,58.9864 C93.4994,59.7194 89.5284,64.9554 85.8554,64.7454 C81.8594,64.5364 82.6624,60.5044 82.9134,59.5104 C83.3614,57.1014 84.5044,56.2124 84.2604,55.8984 C83.7854,55.4264 83.5734,56.2644 82.8714,56.2644 C82.1694,56.2644 81.7084,55.9494 81.3734,56.4214" id="Fill-27" fill="#000000"></path>
            <path d="M102.0111,65.1118 C97.5161,65.1638 97.2441,62.1798 97.1591,61.4468 C97.0031,59.7188 98.2571,59.6678 98.6621,59.5628 C101.2791,59.0388 103.6711,56.8398 104.2571,55.3748 C104.4451,54.8508 104.7891,53.6988 103.4811,53.7508 C101.7391,53.8038 96.4331,59.1958 94.0931,63.7508 C93.1041,65.7398 92.6451,65.6348 92.3741,65.6348 C91.2941,65.6348 91.9821,62.7038 92.7921,60.1378 C93.6041,57.5728 100.6481,40.8198 101.3161,39.2498 C101.9831,37.6788 101.7661,37.4698 103.0771,37.8358 C104.1861,38.1508 103.1291,40.1918 103.1291,40.1918 C103.1291,40.1918 97.7541,50.7678 94.9121,60.0858 C95.8541,59.3528 100.7571,51.9188 104.0531,52.1288 C106.2811,52.2858 106.4511,53.9608 105.7571,55.4258 C103.9531,59.3528 98.8311,61.0288 98.8311,61.0288 C98.8311,61.0288 99.2221,63.3318 102.7321,63.3318 C109.0501,63.3318 112.3201,58.5158 114.1711,56.3168 C114.8161,55.4788 115.2811,56.6308 113.6711,58.7248 C113.1081,59.4578 109.2741,65.0068 102.0111,65.1118" id="Fill-28" fill="#000000"></path>
            <path d="M113.2963,59.4575 C113.3133,60.2435 113.5193,60.9235 113.7513,61.4995 C113.8723,61.4475 113.9803,61.4475 114.0893,61.4475 C116.0723,61.2905 116.9293,60.0335 117.3403,58.4105 C118.0953,55.4265 117.2143,54.6415 116.8843,53.5945 C116.3533,55.2695 114.8913,57.2065 113.8303,58.4105 C113.5223,58.7765 112.5213,58.2535 113.0833,57.5205 C113.5803,56.8395 115.0443,55.3215 116.4043,52.0755 C116.8583,50.9235 117.3663,49.9815 118.3933,49.9815 C120.2153,50.0345 119.4283,52.0755 119.2703,52.9135 C119.0333,54.0655 119.6583,57.5735 119.3143,58.7245 C118.3813,61.3425 115.9443,62.8605 114.4993,62.5995 C115.1243,63.3315 116.0583,63.6985 117.1923,63.6985 C121.1883,63.6985 124.9703,58.7765 126.8213,56.5785 C127.5203,55.7405 127.9723,56.9445 126.3613,59.0385 C125.7443,59.7715 121.3723,65.5305 116.1583,65.2165 C112.5403,65.0065 111.5023,62.7035 111.5143,59.6675 C111.5143,59.6675 111.6993,58.9345 112.5093,58.7245 C113.2643,58.5155 113.2673,59.1435 113.2963,59.4575" id="Fill-29" fill="#000000"></path>
        </g>
    </g>
</svg>