<?xml version="1.0" encoding="UTF-8" standalone="no"?>
<svg width="164px" height="67px" viewBox="0 0 164 67" version="1.1" xmlns="http://www.w3.org/2000/svg" xmlns:xlink="http://www.w3.org/1999/xlink">
    <!-- Generator: Sketch 43.2 (39069) - http://www.bohemiancoding.com/sketch -->
    <title>ttl-topics</title>
    <desc>Created with Sketch.</desc>
    <defs></defs>
    <g id="Page-1" stroke="none" stroke-width="1" fill="none" fill-rule="evenodd">
        <g id="ttl-topics">
            <path d="M35.0824,5.7725 C37.0524,6.7525 38.4484,7.6165 38.4484,9.8055 C38.4484,12.2255 36.7824,13.7905 34.2064,13.7905 C31.6364,13.7905 30.1874,12.4915 29.8994,9.9305 L29.8474,9.4875 L32.2334,9.2195 L32.2944,9.6465 C32.5024,11.0775 32.8334,11.7135 34.2514,11.7135 C34.9204,11.7135 36.0444,11.4815 36.0444,9.9185 C36.0444,8.6575 35.1594,8.1685 33.5994,7.4155 L33.4464,7.3425 C31.7594,6.5225 30.3034,5.8135 30.3034,3.6475 C30.3034,1.5675 32.0004,0.0005 34.2514,0.0005 C36.3184,0.0005 37.7314,1.1315 38.2314,3.1835 L38.3494,3.6675 L36.0014,3.9695 L35.8994,3.5925 C35.6204,2.5595 35.0974,2.0775 34.2514,2.0775 C32.8584,2.0775 32.7084,3.1745 32.7084,3.6475 C32.7084,4.3685 32.7084,4.5855 35.0824,5.7725 Z" id="Fill-1" fill="#000000"></path>
            <polygon id="Fill-3" fill="#000000" points="45.6361 13.6202 48.0401 13.6202 48.0401 2.1882 51.1811 2.1882 51.1811 0.1712 42.4251 0.1712 42.4251 2.1882 45.6361 2.1882"></polygon>
            <path d="M124.643,11.6007 L123.552,11.6007 L123.552,2.1887 L125.005,2.1887 C125.911,2.1887 127.427,2.1887 127.427,6.9057 C127.427,11.6007 126.011,11.6007 124.643,11.6007 M124.643,0.1707 L121.145,0.1707 L121.145,13.6207 L124.687,13.6207 C129.901,13.6207 129.901,9.2507 129.901,6.9057 C129.901,1.3157 127.798,0.1707 124.643,0.1707" id="Fill-5" fill="#000000"></path>
            <path d="M110.5307,2.1886 L111.9367,2.1886 C113.4077,2.1886 113.9797,2.6826 113.9797,3.9486 C113.9797,5.3156 113.4137,6.0086 112.3007,6.0086 L110.5307,6.0086 L110.5307,2.1886 Z M110.5307,8.0276 L111.5247,8.0276 L114.9777,13.9776 L117.1697,13.0956 L114.0607,7.7306 C115.5817,7.0856 116.4517,5.7106 116.4517,3.9486 C116.4517,1.5836 114.5127,0.1706 112.6397,0.1706 L108.1267,0.1706 L108.1267,13.6206 L110.5307,13.6206 L110.5307,8.0276 Z" id="Fill-7" fill="#000000"></path>
            <path d="M59.0844,3.9014 L60.0974,7.6504 L58.0694,7.6504 L59.0844,3.9014 Z M57.4904,9.6574 L60.6814,9.6574 L61.8084,13.8324 L64.0864,13.2884 L60.2714,0.1714 L57.9004,0.1714 L54.0834,13.2884 L56.3604,13.8324 L57.4904,9.6574 Z" id="Fill-9" fill="#000000"></path>
            <path d="M99.2377,3.9034 L100.2497,7.6504 L98.2247,7.6504 L99.2377,3.9034 Z M97.6447,9.6574 L100.8317,9.6574 L101.9607,13.8324 L104.2417,13.2884 L100.4237,0.1714 L98.0537,0.1714 L94.2357,13.2884 L96.5147,13.8324 L97.6447,9.6574 Z" id="Fill-11" fill="#000000"></path>
            <path d="M84.3881,11.6007 L84.3881,2.1887 L85.8411,2.1887 C86.7441,2.1887 88.2611,2.1887 88.2611,6.9057 C88.2611,11.6007 86.8471,11.6007 85.4781,11.6007 L84.3881,11.6007 Z M90.7351,6.9057 C90.7351,1.3157 88.6341,0.1707 85.4781,0.1707 L81.9801,0.1707 L81.9801,13.6207 L85.5231,13.6207 C90.7351,13.6207 90.7351,9.2507 90.7351,6.9057 L90.7351,6.9057 Z" id="Fill-13" fill="#000000"></path>
            <polygon id="Fill-15" fill="#000000" points="70.3783 4.8429 74.0903 13.6199 76.7283 13.6199 76.7283 0.1709 74.3233 0.1709 74.3233 8.9349 70.6123 0.1709 67.9733 0.1709 67.9733 13.6199 70.3783 13.6199"></polygon>
            <polygon id="Fill-17" fill="#000000" points="52.547 20.9229 105.761 20.9229 105.761 18.5159 52.547 18.5159"></polygon>
            <polygon id="Stroke-19" stroke="#000000" stroke-width="0.85" points="0.425 61.1269 163.322 61.1269 163.322 42.1789 0.425 42.1789"></polygon>
            <path d="M54.1869,52.8614 C54.1869,52.8614 63.8669,31.2394 73.3329,31.6064 C77.7749,31.7624 77.7359,37.4694 76.2959,41.2394 C74.8439,45.0604 71.5789,53.4894 70.3139,57.2064 C68.0529,64.0124 70.6909,65.1124 70.6909,65.1124 C70.6909,65.1124 71.2859,65.3214 70.7909,66.0014 C70.5619,66.2624 68.4959,66.3154 67.7199,64.9024 C66.8619,63.3834 67.3929,58.7244 69.6979,52.8094 C71.9919,46.9454 78.2849,33.8044 72.8159,33.4384 C66.6169,32.9674 58.0369,47.8874 56.3789,51.2384 C54.7219,54.5894 51.9459,60.8714 51.4809,62.4944 C50.8939,63.9604 50.2339,64.2214 49.8419,64.0644 C49.3409,63.9074 48.5429,63.4364 48.7539,62.5984 C49.2749,61.3944 50.5539,58.0444 52.1659,53.5944 C53.8039,49.0404 57.6419,33.6474 50.9299,33.0714 C43.9059,32.4444 35.6779,41.9194 35.2209,42.4424 C34.7239,42.9154 34.6709,43.1244 34.2809,43.3854 C33.3119,43.8034 34.5569,41.6574 35.1199,40.9244 C35.5759,40.4014 44.3459,31.1344 50.6109,31.3444 C62.2769,31.7624 54.1869,52.8614 54.1869,52.8614 Z" id="Stroke-20" stroke="#231814" stroke-width="0.72"></path>
            <path d="M80.0951,53.3331 C79.0551,53.1751 75.5701,58.2011 75.5171,61.1861 C77.7891,59.2491 78.1901,58.3061 78.9921,57.0501 C80.0521,55.4271 81.0151,53.5421 80.0951,53.3331 Z M87.3601,56.4211 C88.0581,55.5831 88.4551,56.7881 86.7921,58.8821 C86.2291,59.6141 82.0171,65.1641 77.9271,65.1121 C73.0391,65.0071 73.3981,61.2371 74.2071,58.4631 C75.0181,55.6881 79.0271,50.0871 81.5461,51.8661 C83.4021,53.2801 81.5251,55.7941 80.2921,57.6781 C78.8861,59.8241 76.9231,61.6041 75.9431,62.4941 C76.3231,62.9131 77.1071,63.2281 78.0251,63.2281 C81.9131,63.2281 85.4541,58.6201 87.3601,56.4211 Z" id="Stroke-21" stroke="#231814" stroke-width="0.72"></path>
            <path d="M94.2719,64.7452 C92.0989,64.7982 91.8029,62.3372 91.8029,62.3372 C91.8029,62.3372 89.7369,64.9552 87.6299,64.9552 C83.9719,64.9022 85.5639,59.2492 86.4179,56.9442 C87.5889,53.8042 88.5349,53.9082 89.2099,54.2232 C89.8869,54.5362 88.9329,55.5312 88.8799,55.5312 C88.8799,55.5312 88.1209,57.4682 87.7749,58.6202 C87.4169,59.8242 86.3669,63.1222 88.2719,63.4892 C89.6639,63.7512 92.0229,60.3992 92.6429,57.5202 C93.0649,55.4272 93.9799,55.0082 94.5619,55.0592 C95.1419,55.1122 95.4679,55.5312 95.2579,56.7882 C95.1789,57.1012 94.4189,59.0382 94.1519,59.4582 C94.0569,59.6142 92.8349,63.3842 94.3859,63.4362 C95.5209,63.4362 97.1449,61.4992 98.5119,59.5112 C98.2909,58.4632 98.4329,57.2592 98.7509,56.2122 C99.1909,54.6932 100.9319,52.0752 101.7289,52.1282 C103.4979,52.1812 101.8079,57.1542 100.2799,59.3522 C102.6069,60.3992 104.9509,59.2492 106.6149,57.3632 L107.2989,56.5792 C107.8499,55.8972 108.4869,56.5792 107.7789,57.8882 C105.9289,60.7142 101.2419,62.8082 99.3559,60.8712 C97.9079,62.9662 96.2699,64.7452 94.2719,64.7452 Z" id="Stroke-22" stroke="#231814" stroke-width="0.72"></path>
            <path d="M106.8783,59.4581 C106.8953,60.2431 107.1013,60.9241 107.3333,61.4991 C107.4543,61.4471 107.5623,61.4471 107.6713,61.4471 C109.6543,61.2901 110.5113,60.0341 110.9223,58.4111 C111.6773,55.4271 110.7963,54.6421 110.4663,53.5951 C109.9353,55.2701 108.4733,57.2061 107.4123,58.4111 C107.1043,58.7761 106.1033,58.2541 106.6653,57.5211 C107.1623,56.8401 108.6263,55.3211 109.9863,52.0751 C110.4403,50.9241 110.9483,49.9811 111.9753,49.9811 C113.7973,50.0341 113.0103,52.0751 112.8523,52.9131 C112.6153,54.0651 113.2403,57.5731 112.8963,58.7251 C111.9633,61.3431 109.5263,62.8601 108.0813,62.5991 C108.7063,63.3311 109.6403,63.6981 110.7743,63.6981 C114.7703,63.6981 118.5523,58.7761 120.4033,56.5791 C121.1023,55.7411 121.5543,56.9441 119.9433,59.0381 C119.3263,59.7721 114.9543,65.5301 109.7403,65.2171 C106.1223,65.0071 105.0843,62.7041 105.0963,59.6671 C105.0963,59.6671 105.2813,58.9351 106.0913,58.7251 C106.8463,58.5161 106.8493,59.1441 106.8783,59.4581 Z" id="Stroke-23" stroke="#231814" stroke-width="0.72"></path>
            <path d="M54.1869,52.8614 C54.1869,52.8614 63.8669,31.2394 73.3329,31.6064 C77.7749,31.7624 77.7359,37.4694 76.2959,41.2394 C74.8439,45.0604 71.5789,53.4894 70.3139,57.2064 C68.0529,64.0124 70.6909,65.1124 70.6909,65.1124 C70.6909,65.1124 71.2859,65.3214 70.7909,66.0014 C70.5619,66.2624 68.4959,66.3154 67.7199,64.9024 C66.8619,63.3834 67.3929,58.7244 69.6979,52.8094 C71.9919,46.9454 78.2849,33.8044 72.8159,33.4384 C66.6169,32.9674 58.0369,47.8874 56.3789,51.2384 C54.7219,54.5894 51.9459,60.8714 51.4809,62.4944 C50.8939,63.9604 50.2339,64.2214 49.8419,64.0644 C49.3409,63.9074 48.5429,63.4364 48.7539,62.5984 C49.2749,61.3944 50.5539,58.0444 52.1659,53.5944 C53.8039,49.0404 57.6419,33.6474 50.9299,33.0714 C43.9059,32.4444 35.6779,41.9194 35.2209,42.4424 C34.7239,42.9154 34.6709,43.1244 34.2809,43.3854 C33.3119,43.8034 34.5569,41.6574 35.1199,40.9244 C35.5759,40.4014 44.3459,31.1344 50.6109,31.3444 C62.2769,31.7624 54.1869,52.8614 54.1869,52.8614" id="Fill-24" fill="#000000"></path>
            <path d="M80.0951,53.3331 C79.0551,53.1751 75.5701,58.2011 75.5171,61.1861 C77.7891,59.2491 78.1901,58.3061 78.9921,57.0501 C80.0521,55.4271 81.0151,53.5421 80.0951,53.3331 M87.3601,56.4211 C88.0581,55.5831 88.4551,56.7881 86.7921,58.8821 C86.2291,59.6141 82.0171,65.1641 77.9271,65.1121 C73.0391,65.0071 73.3981,61.2371 74.2071,58.4631 C75.0181,55.6881 79.0271,50.0871 81.5461,51.8661 C83.4021,53.2801 81.5251,55.7941 80.2921,57.6781 C78.8861,59.8241 76.9231,61.6041 75.9431,62.4941 C76.3231,62.9131 77.1071,63.2281 78.0251,63.2281 C81.9131,63.2281 85.4541,58.6201 87.3601,56.4211" id="Fill-25" fill="#000000"></path>
            <path d="M94.2719,64.7452 C92.0989,64.7982 91.8029,62.3372 91.8029,62.3372 C91.8029,62.3372 89.7369,64.9552 87.6299,64.9552 C83.9719,64.9022 85.5639,59.2492 86.4179,56.9442 C87.5889,53.8042 88.5349,53.9082 89.2099,54.2232 C89.8869,54.5362 88.9329,55.5312 88.8799,55.5312 C88.8799,55.5312 88.1209,57.4682 87.7749,58.6202 C87.4169,59.8242 86.3669,63.1222 88.2719,63.4892 C89.6639,63.7512 92.0229,60.3992 92.6429,57.5202 C93.0649,55.4272 93.9799,55.0082 94.5619,55.0592 C95.1419,55.1122 95.4679,55.5312 95.2579,56.7882 C95.1789,57.1012 94.4189,59.0382 94.1519,59.4582 C94.0569,59.6142 92.8349,63.3842 94.3859,63.4362 C95.5209,63.4362 97.1449,61.4992 98.5119,59.5112 C98.2909,58.4632 98.4329,57.2592 98.7509,56.2122 C99.1909,54.6932 100.9319,52.0752 101.7289,52.1282 C103.4979,52.1812 101.8079,57.1542 100.2799,59.3522 C102.6069,60.3992 104.9509,59.2492 106.6149,57.3632 L107.2989,56.5792 C107.8499,55.8972 108.4869,56.5792 107.7789,57.8882 C105.9289,60.7142 101.2419,62.8082 99.3559,60.8712 C97.9079,62.9662 96.2699,64.7452 94.2719,64.7452" id="Fill-26" fill="#000000"></path>
            <path d="M106.8783,59.4581 C106.8953,60.2431 107.1013,60.9241 107.3333,61.4991 C107.4543,61.4471 107.5623,61.4471 107.6713,61.4471 C109.6543,61.2901 110.5113,60.0341 110.9223,58.4111 C111.6773,55.4271 110.7963,54.6421 110.4663,53.5951 C109.9353,55.2701 108.4733,57.2061 107.4123,58.4111 C107.1043,58.7761 106.1033,58.2541 106.6653,57.5211 C107.1623,56.8401 108.6263,55.3211 109.9863,52.0751 C110.4403,50.9241 110.9483,49.9811 111.9753,49.9811 C113.7973,50.0341 113.0103,52.0751 112.8523,52.9131 C112.6153,54.0651 113.2403,57.5731 112.8963,58.7251 C111.9633,61.3431 109.5263,62.8601 108.0813,62.5991 C108.7063,63.3311 109.6403,63.6981 110.7743,63.6981 C114.7703,63.6981 118.5523,58.7761 120.4033,56.5791 C121.1023,55.7411 121.5543,56.9441 119.9433,59.0381 C119.3263,59.7721 114.9543,65.5301 109.7403,65.2171 C106.1223,65.0071 105.0843,62.7041 105.0963,59.6671 C105.0963,59.6671 105.2813,58.9351 106.0913,58.7251 C106.8463,58.5161 106.8493,59.1441 106.8783,59.4581" id="Fill-27" fill="#000000"></path>
        </g>
    </g>
</svg>