<svg height="38" viewBox="0 0 179 38" width="179" xmlns="http://www.w3.org/2000/svg"><g fill="none" fill-rule="evenodd"><path d="m57 36.709h-57" stroke="#b3b3b3"/><g fill="#514e4d"><path d="m23.1797 1.3828c-.57.047-.986.141-1.248.281-.262.141-.469.385-.621.733-.152.347-.354.97-.604 1.869l-3.304 12.222h-1.629l-4.067-11.425-3.808 11.425h-1.606l-3.679-12.562c-.219-.75-.42-1.305-.604-1.664s-.398-.596-.644-.709c-.247-.113-.596-.17-1.049-.17v-1.078h6.879v1.078c-.539 0-.934.043-1.184.129s-.375.316-.375.691c0 .25.09.676.27 1.278l2.32 7.933 3.726-11.109h1.536l3.937 11.109 1.992-7.453c.141-.508.211-.918.211-1.23 0-.571-.178-.934-.533-1.09s-.811-.242-1.365-.258v-1.078h5.449z"/><path d="m40.4863 8.2031c0-.891-.076-1.734-.229-2.531-.152-.797-.419-1.518-.802-2.162-.383-.645-.906-1.157-1.571-1.536-.664-.378-1.484-.568-2.46-.568-1.344 0-2.393.334-3.147 1.002s-1.266 1.504-1.535 2.508c-.27 1.004-.404 2.1-.404 3.287 0 .656.043 1.34.128 2.051.086.711.293 1.439.622 2.185.328.746.851 1.375 1.57 1.887s1.648.768 2.789.768c1.133 0 2.053-.264 2.76-.791.707-.528 1.222-1.172 1.547-1.934.324-.762.527-1.49.609-2.186.082-.695.123-1.355.123-1.98m3.797.047c0 1.445-.344 2.799-1.031 4.06-.688 1.262-1.705 2.274-3.053 3.036-1.348.761-2.94 1.142-4.775 1.142-1.5 0-2.821-.242-3.961-.726-1.141-.485-2.073-1.133-2.795-1.946-.723-.812-1.258-1.703-1.606-2.672-.347-.968-.521-1.941-.521-2.918 0-1.414.332-2.75.996-4.007.664-1.258 1.664-2.272 3-3.041 1.336-.77 2.933-1.155 4.793-1.155 1.695 0 3.136.278 4.324.832 1.187.555 2.113 1.254 2.777 2.098s1.139 1.729 1.424 2.654c.285.926.428 1.807.428 2.643"/><path d="m58.5078 4.5352c0-1.266-.385-2.105-1.154-2.52-.77-.414-1.776-.621-3.018-.621-.172 0-.307.002-.404.006-.098.004-.209.006-.334.006v6.387h.738c1.18 0 2.17-.192 2.971-.574.801-.383 1.201-1.278 1.201-2.684zm6.586 11.66h-4.254c-.156-.172-.35-.422-.58-.75-.231-.328-.482-.713-.756-1.154-.273-.442-.5-.807-.68-1.096l-1.078-1.781c-.484-.797-.849-1.342-1.095-1.635-.247-.293-.528-.48-.844-.562-.317-.082-.854-.123-1.611-.123h-.598v4.148c0 .438.047.789.14 1.055.094.265.315.468.663.609.347.141.853.211 1.517.211v1.078h-7.969v-1.078c.969 0 1.592-.141 1.87-.422.277-.281.416-.765.416-1.453v-10.031c0-.68-.135-1.162-.405-1.447-.269-.286-.896-.428-1.881-.428v-1.102l3.68-.117c.281-.016.604-.027.967-.035s.701-.012 1.014-.012c.242 0 .644.008 1.207.024.789.023 1.527.07 2.214.14.688.071 1.231.16 1.629.27.586.148 1.143.394 1.67.738.528.344.957.797 1.289 1.359.332.563.498 1.215.498 1.957 0 .532-.115 1.047-.345 1.547-.231.5-.602.946-1.114 1.336-.511.391-1.185.699-2.021.926.57.336 1.055.752 1.453 1.248s1.023 1.408 1.875 2.736c.492.758.898 1.33 1.219 1.717.32.387.615.649.885.785.269.137.611.225 1.025.264z"/><path d="m86.1152 16.1953h-8.824v-1.078h.715c.609 0 1.025-.037 1.248-.111.222-.075.334-.206.334-.393 0-.273-.321-.859-.961-1.758l-3.41-4.816-2.016 1.769v3.434c0 .695.16 1.182.48 1.459.321.277.93.416 1.829.416v1.078h-7.946v-1.078c.68 0 1.182-.07 1.506-.211s.535-.34.633-.598.146-.613.146-1.066v-9.985c0-.453-.045-.806-.134-1.06-.09-.254-.301-.453-.633-.598-.332-.144-.838-.217-1.518-.217v-1.078h7.946v1.078c-.977 0-1.606.141-1.887.422-.281.282-.422.766-.422 1.453v4.782l4.945-4.324c.344-.297.594-.553.75-.768.157-.215.235-.455.235-.721 0-.562-.536-.844-1.606-.844v-1.078h7.254v1.078c-.562.047-1.021.114-1.377.2-.355.086-.701.226-1.037.422-.336.195-.703.453-1.102.773-.398.32-1.027.855-1.886 1.605l-1.664 1.442 4.687 6.68c.5.711.91 1.24 1.231 1.587.32.348.664.6 1.031.756.367.157.851.246 1.453.27z"/><path d="m108.5762 11.6367c0 .492-.105 1.014-.316 1.564-.211.551-.53 1.079-.955 1.582-.426.504-.963.915-1.612 1.231-.648.316-1.398.475-2.25.475-.844 0-1.681-.184-2.513-.551-.833-.367-1.538-.914-2.116-1.641-.25.578-.41 1.113-.48 1.606h-1.078v-5.438h1.078c.195.781.465 1.516.808 2.203.344.688.83 1.28 1.459 1.776s1.401.744 2.315.744c.797 0 1.435-.219 1.916-.656.48-.438.721-.989.721-1.653 0-.375-.075-.703-.223-.984-.149-.281-.363-.533-.645-.756-.281-.223-.666-.461-1.154-.715s-1.045-.521-1.67-.803c-.961-.453-1.75-.91-2.367-1.371s-1.084-.908-1.4-1.342c-.317-.433-.536-.845-.657-1.236-.121-.39-.181-.785-.181-1.183 0-.711.191-1.413.574-2.104s.943-1.258 1.682-1.699c.738-.442 1.591-.662 2.56-.662.742 0 1.449.166 2.121.498s1.254.787 1.746 1.365c.141-.328.27-.789.387-1.383h1.102v4.43h-1.102c-.781-2.414-2.141-3.621-4.078-3.621-.703 0-1.268.185-1.693.556-.426.372-.639.85-.639 1.436 0 .461.133.861.398 1.201.266.34.616.631 1.049.873.434.242 1.135.59 2.104 1.043 1.171.555 2.088 1.035 2.748 1.442.66.406 1.218.918 1.675 1.535s.686 1.363.686 2.238"/><path d="m122.7422 4.5586c0-1.266-.369-2.111-1.107-2.537-.739-.426-1.709-.639-2.913-.639-.218 0-.523.008-.914.024v6.386h1.079c1.148 0 2.078-.197 2.789-.591.711-.395 1.066-1.276 1.066-2.643m3.609-.023c0 1.304-.402 2.294-1.207 2.97-.804.676-1.752 1.11-2.841 1.301-1.09.191-2.237.287-3.44.287h-1.055v4.149c0 .468.051.832.153 1.089.101.258.32.454.656.586.336.133.848.2 1.535.2v1.078h-7.992v-1.078c.68 0 1.182-.071 1.506-.211.324-.141.535-.34.633-.598.097-.258.146-.613.146-1.066v-10.032c0-.453-.047-.806-.141-1.06-.093-.254-.304-.453-.632-.598-.328-.144-.832-.217-1.512-.217v-1.101l4.535-.117c.235-.008.49-.014.768-.018.277-.004.498-.008.662-.012s.406-.006.726-.006c.399 0 .696.004.891.012.93.039 1.824.129 2.684.27.859.14 1.728.537 2.607 1.189s1.318 1.647 1.318 2.983"/><path d="m136.1201 10.6055-2.191-5.543-2.086 5.543zm6.984 5.59h-7.488v-1.078c.633 0 1.094-.045 1.383-.135s.433-.303.433-.639c0-.234-.046-.472-.14-.715l-.75-1.875h-5.156l-.387 1.032c-.219.578-.328.996-.328 1.254 0 .468.181.765.545.89.363.125.787.188 1.271.188v1.078h-5.472v-1.078c.437 0 .808-.082 1.113-.246s.596-.475.873-.932.576-1.104.896-1.939l4.582-12h1.114l4.839 12.375c.352.875.61 1.466.774 1.775s.391.547.68.715.695.252 1.218.252z"/><path d="m160.2773 16.0313h-1.102c-.164-.672-.433-1.273-.808-1.805-.594.618-1.274 1.149-2.039 1.594-.766.445-1.801.668-3.106.668-1.429 0-2.756-.348-3.978-1.043-1.223-.695-2.197-1.666-2.924-2.912s-1.09-2.65-1.09-4.213c0-1.109.197-2.168.592-3.176.394-1.008.957-1.894 1.687-2.66.731-.766 1.602-1.367 2.614-1.805 1.011-.437 2.119-.656 3.322-.656 1.984 0 3.625.649 4.922 1.945.172-.335.34-.824.504-1.464h1.054l.188 5.847h-1.125c-.203-.992-.57-1.875-1.102-2.648-.531-.774-1.162-1.365-1.892-1.776-.731-.41-1.494-.615-2.291-.615-.891 0-1.692.244-2.403.733-.711.488-1.267 1.232-1.669 2.232-.403 1-.604 2.246-.604 3.738 0 1.454.168 2.662.504 3.627s.752 1.694 1.248 2.186.994.826 1.494 1.002.969.264 1.406.264c.961 0 1.827-.258 2.596-.774.77-.516 1.4-1.166 1.893-1.951.492-.785.82-1.565.984-2.338h1.125z"/><path d="m178.8203 10.9688-.129 5.227h-14.156v-1.079c.976 0 1.605-.14 1.887-.421.281-.282.421-.766.421-1.454v-9.984c0-.453-.044-.807-.134-1.06-.09-.254-.301-.454-.633-.598-.332-.145-.846-.217-1.541-.217v-1.078h13.183l.211 4.125h-1.078c-.242-.914-.521-1.568-.838-1.963-.316-.394-.672-.637-1.066-.727-.395-.089-.986-.134-1.775-.134h-2.977v5.613h1.617c.555 0 .969-.049 1.242-.146.274-.098.465-.284.575-.557.109-.274.183-.703.222-1.289h1.125v5.285h-1.078c-.031-.586-.109-1.018-.234-1.295s-.323-.463-.592-.557c-.27-.093-.682-.14-1.236-.14h-1.641v3.738c0 .625.016 1.082.047 1.371s.115.529.252.721c.137.191.359.33.668.416.308.086.748.129 1.318.129h1.278c.539 0 1.052-.069 1.541-.205.488-.137.966-.489 1.435-1.055s.797-1.455.984-2.666z"/></g></g></svg>