<svg height="24" viewBox="0 0 62 24" width="62" xmlns="http://www.w3.org/2000/svg"><g fill="none" fill-rule="evenodd"><path d="m58.6299 23.3848h-56" stroke="#b3b3b3"/><g fill="#514e4d"><path d="m10.8203 6.9336c0-1.374-.262-2.524-.786-3.452-.525-.928-1.235-1.571-2.134-1.929-.391-.156-.806-.255-1.245-.298-.439-.042-1.069-.063-1.89-.063v9.306c0 .534.027.923.078 1.167.052.245.206.43.459.557.254.127.648.191 1.182.191 1.582 0 2.7-.554 3.355-1.661.654-1.107.981-2.379.981-3.818m3.164.059c0 .957-.163 1.821-.488 2.592-.325.772-.745 1.415-1.26 1.929s-1.064.902-1.65 1.162c-1.238.547-2.751.82-4.541.82h-6.045v-.898c.559 0 .983-.054 1.269-.161s.474-.269.562-.483c.088-.215.132-.521.132-.918v-8.36c0-.573-.118-.976-.352-1.211-.234-.234-.771-.351-1.611-.351v-.918l2.841-.059c.098 0 .496-.006 1.192-.019.696-.014 1.1-.02 1.211-.02 1.087 0 2.01.059 2.768.176.759.117 1.454.306 2.085.566.579.235 1.114.562 1.602.982s.9.898 1.235 1.435.594 1.122.777 1.753c.182.632.273 1.293.273 1.983"/><path d="m24.6856 8.8379-1.826-4.619-1.738 4.619zm5.82 4.658h-6.24v-.898c.527 0 .911-.038 1.152-.113.242-.074.362-.252.362-.532 0-.195-.039-.394-.117-.595l-.625-1.563h-4.297l-.323.859c-.182.482-.273.83-.273 1.045 0 .391.151.639.454.743s.656.156 1.06.156v.898h-4.561v-.898c.364 0 .674-.069.928-.205.254-.137.496-.396.727-.777.232-.381.481-.919.747-1.616l3.819-10h.928l4.033 10.313c.293.729.508 1.222.644 1.479.137.257.325.456.567.596.241.14.579.21 1.015.21z"/><path d="m46.3047 4.0137h-.928c-.085-.82-.265-1.426-.542-1.816-.276-.391-.574-.632-.893-.723-.32-.091-.687-.137-1.104-.137h-1.679v9.697c0 .385.039.683.117.894s.26.376.547.493c.286.117.706.176 1.259.176v.898h-6.64v-.898c.813 0 1.338-.117 1.572-.352.234-.234.352-.638.352-1.211v-9.697h-1.407c-.553 0-1.012.044-1.377.132-.364.088-.685.329-.962.723-.276.394-.434 1.001-.473 1.821h-.928v-3.76h13.086z"/><path d="m61.2246 9.1407-.107 4.355h-11.797v-.898c.813 0 1.338-.117 1.572-.352.234-.234.352-.638.352-1.21v-8.321c0-.377-.038-.672-.113-.884-.075-.211-.251-.377-.527-.498-.276-.12-.705-.18-1.284-.18v-.899h10.986l.176 3.438h-.899c-.202-.762-.434-1.307-.698-1.636s-.559-.531-.889-.605c-.329-.075-.822-.113-1.479-.113h-2.48v4.678h1.347c.462 0 .808-.041 1.035-.122.228-.082.388-.236.479-.464s.153-.586.185-1.074h.938v4.404h-.899c-.026-.488-.09-.848-.195-1.079-.104-.231-.268-.386-.493-.464s-.568-.117-1.03-.117h-1.367v3.115c0 .521.012.902.039 1.143.026.241.095.441.21.6.114.16.299.275.556.347s.623.107 1.099.107h1.064c.449 0 .877-.057 1.284-.17.408-.114.806-.407 1.197-.879.39-.472.664-1.213.82-2.222z"/></g></g></svg>