<svg height="37" viewBox="0 0 131 37" width="131" xmlns="http://www.w3.org/2000/svg"><g fill="none" fill-rule="evenodd"><path d="m58 36.3848h-58" stroke="#b3b3b3"/><path d="m19.1016 16.1719h-8.824v-1.078h.715c.609 0 1.025-.037 1.248-.111.222-.075.334-.206.334-.393 0-.273-.321-.859-.961-1.758l-3.41-4.816-2.016 1.769v3.434c0 .695.16 1.182.48 1.459.321.277.93.416 1.829.416v1.078h-7.946v-1.078c.68 0 1.182-.07 1.506-.211s.535-.34.633-.598.146-.613.146-1.066v-9.985c0-.453-.045-.806-.134-1.06-.09-.254-.301-.453-.633-.598-.332-.144-.838-.217-1.518-.217v-1.078h7.946v1.078c-.977 0-1.606.141-1.887.422-.281.282-.422.766-.422 1.453v4.782l4.945-4.324c.344-.297.594-.553.75-.768.157-.215.235-.455.235-.721 0-.562-.536-.844-1.606-.844v-1.078h7.254v1.078c-.562.047-1.021.114-1.377.2-.355.086-.701.226-1.037.422-.336.195-.703.453-1.102.773-.398.32-1.027.855-1.886 1.605l-1.664 1.442 4.687 6.68c.5.711.91 1.24 1.231 1.587.32.348.664.6 1.031.756.367.157.851.246 1.453.27zm10.8261 0h-8.063v-1.078c.672 0 1.18-.065 1.524-.193.344-.129.568-.323.674-.581.105-.257.158-.625.158-1.101v-9.985c0-.687-.143-1.171-.428-1.453-.285-.281-.927-.422-1.928-.422v-1.078h8.063v1.078c-.672 0-1.18.067-1.523.2-.344.133-.569.326-.674.58-.106.254-.158.619-.158 1.095v9.985c0 .453.05.808.152 1.066.101.258.318.457.65.598s.85.211 1.553.211zm19.2276-11.3789h-1.113c-.102-.984-.319-1.711-.651-2.18-.332-.468-.689-.758-1.072-.867s-.824-.164-1.324-.164h-2.016v11.637c0 .461.047.818.141 1.072s.312.451.656.592c.344.14.848.211 1.512.211v1.078h-7.969v-1.078c.977 0 1.606-.141 1.887-.422s.422-.766.422-1.453v-11.637h-1.688c-.664 0-1.215.053-1.652.158-.438.106-.822.395-1.154.867-.333.473-.522 1.202-.569 2.186h-1.113v-4.512h15.703zm19.2871 11.2148h-1.102c-.164-.672-.433-1.273-.808-1.805-.594.618-1.274 1.149-2.039 1.594-.766.445-1.801.668-3.106.668-1.429 0-2.756-.348-3.978-1.043-1.223-.695-2.197-1.666-2.924-2.912s-1.09-2.65-1.09-4.213c0-1.109.197-2.168.592-3.176.394-1.008.957-1.894 1.687-2.66.731-.766 1.602-1.367 2.614-1.805 1.011-.437 2.119-.656 3.322-.656 1.984 0 3.625.649 4.922 1.945.172-.335.34-.824.504-1.464h1.054l.188 5.847h-1.125c-.203-.992-.57-1.875-1.102-2.648-.531-.774-1.162-1.365-1.892-1.776-.731-.41-1.494-.615-2.291-.615-.891 0-1.692.244-2.403.733-.711.488-1.267 1.232-1.669 2.232-.403 1-.604 2.246-.604 3.738 0 1.454.168 2.662.504 3.627s.752 1.694 1.248 2.186.994.826 1.494 1.002.969.264 1.406.264c.961 0 1.827-.258 2.596-.774.77-.516 1.4-1.166 1.893-1.951.492-.785.82-1.565.984-2.338h1.125zm23.0713.1641h-7.816v-1.078c.64 0 1.125-.07 1.453-.211s.539-.344.633-.609c.093-.266.14-.618.14-1.055v-4.77h-7.371v4.77c0 .656.137 1.133.41 1.43.274.296.899.445 1.875.445v1.078h-7.875v-1.078c.633 0 1.115-.07 1.447-.211.333-.141.547-.342.645-.604.098-.261.147-.615.147-1.06v-9.985c0-.445-.047-.794-.141-1.048s-.301-.455-.621-.604c-.321-.148-.813-.223-1.477-.223v-1.078h7.875v1.078c-.969 0-1.592.145-1.869.434s-.416.77-.416 1.441v3.915h7.371v-3.915c0-.445-.043-.794-.129-1.048s-.289-.455-.609-.604c-.32-.148-.817-.223-1.488-.223v-1.078h7.816v1.078c-.664 0-1.156.075-1.477.223-.32.149-.525.35-.615.604s-.135.603-.135 1.048v9.985c0 .43.041.771.123 1.025.083.254.288.459.616.616.328.156.824.234 1.488.234zm17.8691-5.2266-.129 5.227h-14.156v-1.079c.976 0 1.605-.14 1.887-.421.281-.282.421-.766.421-1.454v-9.984c0-.453-.044-.807-.134-1.06-.09-.254-.301-.454-.633-.598-.332-.145-.846-.217-1.541-.217v-1.078h13.183l.211 4.125h-1.078c-.242-.914-.521-1.568-.838-1.963-.316-.394-.672-.637-1.066-.727-.395-.089-.986-.134-1.775-.134h-2.977v5.613h1.617c.555 0 .969-.049 1.242-.146.274-.098.465-.284.575-.557.109-.274.183-.703.222-1.289h1.125v5.285h-1.078c-.031-.586-.109-1.018-.234-1.295s-.323-.463-.592-.557c-.27-.093-.682-.14-1.236-.14h-1.641v3.738c0 .625.016 1.082.047 1.371s.115.529.252.721c.137.191.359.33.668.416.308.086.748.129 1.318.129h1.278c.539 0 1.052-.069 1.541-.205.488-.137.966-.489 1.435-1.055s.797-1.455.984-2.666zm21.1387-9.5859c-.758 0-1.301.076-1.629.229-.328.152-.531.376-.609.673s-.117.782-.117 1.453v12.598h-1.079l-10.394-12.351v8.753c0 .665.041 1.147.123 1.448s.291.531.627.691.879.24 1.629.24v1.079h-5.906v-1.079c.703 0 1.212-.08 1.529-.24.316-.16.512-.39.586-.691s.111-.783.111-1.448v-8.109c0-.656-.017-1.148-.053-1.476-.035-.329-.119-.616-.252-.862-.132-.246-.349-.445-.65-.597-.301-.153-.717-.256-1.248-.311v-1.078h4.629l9.047 10.687v-7.254c0-.593-.041-1.048-.123-1.365-.082-.316-.285-.56-.61-.732-.324-.172-.838-.258-1.541-.258v-1.078h5.93z" fill="#514e4d"/></g></svg>