<svg height="37" viewBox="0 0 104 37" width="104" xmlns="http://www.w3.org/2000/svg"><g fill="none" fill-rule="evenodd"><path d="m58 35.6855h-58" stroke="#b3b3b3"/><g fill="#514e4d"><path d="m13.582 8.2968c0-1.648-.314-3.029-.943-4.143-.629-1.113-1.483-1.884-2.561-2.314-.469-.188-.967-.307-1.494-.357-.527-.051-1.283-.077-2.268-.077v11.168c0 .641.032 1.108.094 1.401.063.293.246.515.551.668.305.152.777.228 1.418.228 1.898 0 3.24-.664 4.025-1.992s1.178-2.855 1.178-4.582m3.797.07c0 1.149-.195 2.186-.586 3.112-.391.925-.895 1.697-1.512 2.314s-1.277 1.082-1.98 1.395c-1.485.656-3.301.984-5.449.984h-7.254v-1.078c.671 0 1.179-.065 1.523-.193.344-.129.568-.323.674-.581.105-.257.158-.625.158-1.101v-10.031c0-.688-.141-1.172-.422-1.453-.281-.282-.926-.422-1.933-.422v-1.102l3.41-.07c.117 0 .594-.008 1.429-.024.836-.015 1.321-.023 1.454-.023 1.304 0 2.412.07 3.322.211.91.14 1.744.367 2.502.68.695.281 1.336.673 1.922 1.177s1.08 1.078 1.482 1.723c.402.644.713 1.346.932 2.103.219.758.328 1.551.328 2.379"/><path d="m29.4238 16.1718h-8.063v-1.078c.672 0 1.18-.065 1.524-.193.344-.129.568-.323.674-.581.105-.257.158-.625.158-1.101v-9.985c0-.687-.143-1.171-.428-1.453-.285-.281-.927-.422-1.928-.422v-1.078h8.063v1.078c-.672 0-1.18.067-1.523.2-.344.133-.569.326-.674.58-.106.254-.158.619-.158 1.095v9.985c0 .453.05.808.152 1.066.101.258.318.457.65.598s.85.211 1.553.211z"/><path d="m50.1631 1.3593c-.758 0-1.301.076-1.629.229-.328.152-.531.376-.609.673s-.117.782-.117 1.453v12.598h-1.079l-10.394-12.351v8.753c0 .665.041 1.147.123 1.448s.291.531.627.691.879.24 1.629.24v1.079h-5.906v-1.079c.703 0 1.212-.08 1.529-.24.316-.16.512-.39.586-.691s.111-.783.111-1.448v-8.109c0-.656-.017-1.148-.053-1.476-.035-.329-.119-.616-.252-.862-.132-.246-.349-.445-.65-.597-.301-.153-.717-.256-1.248-.311v-1.078h4.629l9.047 10.687v-7.254c0-.593-.041-1.048-.123-1.365-.082-.316-.285-.56-.61-.732-.324-.172-.838-.258-1.541-.258v-1.078h5.93z"/><path d="m61.458 16.1718h-8.063v-1.078c.672 0 1.18-.065 1.524-.193.344-.129.568-.323.674-.581.105-.257.158-.625.158-1.101v-9.985c0-.687-.143-1.171-.428-1.453-.285-.281-.927-.422-1.928-.422v-1.078h8.063v1.078c-.672 0-1.18.067-1.523.2-.344.133-.569.326-.674.58-.106.254-.158.619-.158 1.095v9.985c0 .453.05.808.152 1.066.101.258.318.457.65.598s.85.211 1.553.211z"/><path d="m82.1973 1.3593c-.758 0-1.301.076-1.629.229-.328.152-.531.376-.609.673s-.117.782-.117 1.453v12.598h-1.079l-10.394-12.351v8.753c0 .665.041 1.147.123 1.448s.291.531.627.691.879.24 1.629.24v1.079h-5.906v-1.079c.703 0 1.212-.08 1.529-.24.316-.16.512-.39.586-.691s.111-.783.111-1.448v-8.109c0-.656-.017-1.148-.053-1.476-.035-.329-.119-.616-.252-.862-.132-.246-.349-.445-.65-.597-.301-.153-.717-.256-1.248-.311v-1.078h4.629l9.047 10.687v-7.254c0-.593-.041-1.048-.123-1.365-.082-.316-.285-.56-.61-.732-.324-.172-.838-.258-1.541-.258v-1.078h5.93z"/><path d="m103.3828 9.9023c-.453.047-.795.119-1.025.217-.231.097-.389.265-.475.504-.086.238-.129.607-.129 1.107v3.727c-1.133 0-2.359.148-3.68.445-.953.211-1.668.357-2.144.439-.477.082-1.039.123-1.688.123-1.718 0-3.191-.402-4.418-1.207-1.226-.804-2.146-1.839-2.759-3.105-.614-1.266-.92-2.566-.92-3.902 0-1.532.363-2.928 1.09-4.19.726-1.262 1.71-2.254 2.953-2.976 1.242-.723 2.601-1.084 4.078-1.084 1.797 0 3.433.621 4.91 1.863.18-.336.324-.797.434-1.383h1.136l.117 5.203h-1.078c-.164-.789-.472-1.511-.925-2.168-.454-.656-1.018-1.175-1.694-1.558s-1.42-.575-2.232-.575c-.594 0-1.176.104-1.746.311-.571.207-1.104.566-1.6 1.078s-.894 1.209-1.195 2.092-.451 1.973-.451 3.269c0 1.11.117 2.176.351 3.2.235 1.023.711 1.902 1.43 2.636.719.735 1.734 1.102 3.047 1.102 1.031 0 1.812-.162 2.343-.486.532-.325.877-.721 1.038-1.19.16-.469.24-.992.24-1.57 0-.547-.041-.945-.123-1.195s-.274-.434-.574-.551c-.301-.117-.764-.176-1.389-.176v-1.078h7.078z"/></g></g></svg>