<svg xmlns="http://www.w3.org/2000/svg" viewBox="0 0 250 54"><style type="text/css">.st0{fill:#666666;}.st1{fill:none;stroke:#666666;stroke-width:0.4542;stroke-miterlimit:10;}.st2{fill:#FFFFFF;}</style><g><g><path class="st0" d="M73.6,2.1c0.9,0.6,1.5,1.4,2,2.3c0.5,0.9,0.8,2,1,3.2c0.2,1.2,0.3,2.3,0.3,3.4c0,1.1-0.1,2.3-0.3,3.4c-0.2,1.2-0.5,2.2-1,3.2c-0.5,0.9-1.1,1.7-2,2.3c-0.9,0.6-2,0.9-3.4,0.9c-1.4,0-2.5-0.3-3.3-0.9c-0.9-0.6-1.5-1.4-2-2.3c-0.5-0.9-0.8-2-1-3.2c-0.2-1.2-0.3-2.3-0.3-3.4c0-1.1,0.1-2.3,0.3-3.4s0.5-2.2,1-3.2c0.5-0.9,1.1-1.7,2-2.3c0.9-0.6,2-0.9,3.3-0.9C71.6,1.2,72.7,1.5,73.6,2.1z M67.6,3.5c-0.6,0.6-1.1,1.3-1.5,2.1c-0.3,0.8-0.6,1.7-0.7,2.7c-0.1,1-0.2,1.9-0.2,2.7c0,0.8,0.1,1.7,0.2,2.7s0.3,1.9,0.7,2.7c0.3,0.8,0.8,1.5,1.5,2.1s1.5,0.8,2.6,0.8c1.1,0,1.9-0.3,2.6-0.8c0.6-0.6,1.1-1.3,1.5-2.1s0.6-1.8,0.7-2.7s0.2-1.9,0.2-2.7c0-0.8-0.1-1.7-0.2-2.7c-0.1-1-0.3-1.9-0.7-2.7s-0.8-1.5-1.5-2.1c-0.6-0.6-1.5-0.8-2.6-0.8C69.1,2.7,68.3,2.9,67.6,3.5z"></path><path class="st0" d="M83.7,4.9c0.6-0.1,1.1-0.2,1.6-0.4c0.4-0.2,0.8-0.6,1.1-1.1c0.3-0.5,0.5-1.2,0.6-2h1.4v19.1h-1.7V6.3h-5V5.1C82.4,5,83.1,5,83.7,4.9z"></path><path class="st0" d="M95.2,20.5c0-0.9,0.2-1.8,0.5-2.5c0.3-0.7,0.7-1.4,1.2-2c0.5-0.6,1.1-1.1,1.7-1.6c0.6-0.5,1.3-0.9,1.9-1.4c0.7-0.4,1.3-0.9,2-1.4c0.7-0.5,1.2-1,1.8-1.5c0.5-0.5,0.9-1.1,1.2-1.6c0.3-0.6,0.4-1.2,0.4-2c0-0.6-0.1-1.2-0.3-1.6c-0.2-0.5-0.5-0.9-0.9-1.2c-0.4-0.3-0.8-0.6-1.3-0.8c-0.5-0.2-1.1-0.3-1.6-0.3c-0.8,0-1.4,0.1-2,0.4s-1,0.7-1.3,1.2C98,4.8,97.8,5.3,97.6,6c-0.2,0.6-0.2,1.3-0.2,2h-1.7c0-1,0.1-1.9,0.3-2.7c0.2-0.8,0.6-1.5,1.1-2.1c0.5-0.6,1.1-1.1,1.9-1.4c0.8-0.3,1.7-0.5,2.7-0.5c0.8,0,1.6,0.1,2.3,0.3c0.7,0.2,1.3,0.6,1.9,1c0.5,0.4,0.9,1,1.2,1.7c0.3,0.7,0.4,1.5,0.4,2.3c0,0.8-0.1,1.5-0.4,2.2c-0.3,0.7-0.6,1.3-1.1,1.8c-0.4,0.5-0.9,1-1.5,1.5c-0.6,0.5-1.2,0.9-1.8,1.3c-0.4,0.3-1,0.6-1.6,1c-0.6,0.4-1.2,0.8-1.8,1.2c-0.6,0.5-1.1,1-1.5,1.5c-0.4,0.5-0.7,1.1-0.8,1.8h10.5v1.6H95.2z"></path><path class="st0" d="M122,2.1c0.9,0.6,1.5,1.4,2,2.3c0.5,0.9,0.8,2,1,3.2c0.2,1.2,0.3,2.3,0.3,3.4c0,1.1-0.1,2.3-0.3,3.4c-0.2,1.2-0.5,2.2-1,3.2c-0.5,0.9-1.1,1.7-2,2.3c-0.9,0.6-2,0.9-3.4,0.9c-1.4,0-2.5-0.3-3.3-0.9c-0.9-0.6-1.5-1.4-2-2.3c-0.5-0.9-0.8-2-1-3.2c-0.2-1.2-0.3-2.3-0.3-3.4c0-1.1,0.1-2.3,0.3-3.4s0.5-2.2,1-3.2c0.5-0.9,1.1-1.7,2-2.3c0.9-0.6,2-0.9,3.3-0.9C120.1,1.2,121.2,1.5,122,2.1z M116.1,3.5c-0.6,0.6-1.1,1.3-1.5,2.1c-0.3,0.8-0.6,1.7-0.7,2.7c-0.1,1-0.2,1.9-0.2,2.7c0,0.8,0.1,1.7,0.2,2.7s0.3,1.9,0.7,2.7c0.3,0.8,0.8,1.5,1.5,2.1s1.5,0.8,2.6,0.8c1.1,0,1.9-0.3,2.6-0.8c0.6-0.6,1.1-1.3,1.5-2.1s0.6-1.8,0.7-2.7s0.2-1.9,0.2-2.7c0-0.8-0.1-1.7-0.2-2.7c-0.1-1-0.3-1.9-0.7-2.7s-0.8-1.5-1.5-2.1c-0.6-0.6-1.5-0.8-2.6-0.8C117.6,2.7,116.7,2.9,116.1,3.5z"></path><path class="st0" d="M143.4,4.9c0.6-0.1,1.1-0.2,1.6-0.4c0.4-0.2,0.8-0.6,1.1-1.1c0.3-0.5,0.5-1.2,0.6-2h1.4v19.1h-1.7V6.3h-5V5.1C142.1,5,142.8,5,143.4,4.9z"></path><path class="st0" d="M157.2,16.8c0.2,0.5,0.6,1,1,1.4c0.4,0.4,0.9,0.7,1.5,0.9c0.6,0.2,1.2,0.3,1.8,0.3c0.7,0,1.4-0.1,2-0.4c0.6-0.3,1.1-0.7,1.5-1.1s0.7-1,0.9-1.7c0.2-0.6,0.3-1.3,0.3-2c0-0.7-0.1-1.4-0.4-2c-0.2-0.6-0.6-1.1-1-1.6c-0.4-0.4-0.9-0.8-1.5-1s-1.2-0.4-1.9-0.4c-0.9,0-1.7,0.2-2.4,0.6c-0.7,0.4-1.3,0.9-1.8,1.7h-1.5l1.8-9.9h9.4v1.6h-8.2l-1.2,6.3l0.1,0.1c0.5-0.6,1.1-1,1.8-1.3c0.7-0.3,1.5-0.5,2.2-0.5c1,0,1.8,0.2,2.6,0.5c0.8,0.3,1.4,0.8,2,1.4c0.5,0.6,1,1.3,1.3,2.1c0.3,0.8,0.4,1.7,0.4,2.7c0,0.9-0.2,1.8-0.5,2.6c-0.3,0.8-0.8,1.5-1.4,2c-0.6,0.6-1.3,1-2.1,1.3c-0.8,0.3-1.6,0.5-2.5,0.5c-0.9,0-1.7-0.1-2.4-0.4c-0.7-0.3-1.4-0.6-1.9-1.1c-0.5-0.5-1-1.1-1.3-1.8c-0.3-0.7-0.5-1.5-0.5-2.5h1.7C156.9,15.7,157,16.3,157.2,16.8z"></path><path class="st0" d="M174.5,16.8c0.2,0.5,0.6,1,1,1.4c0.4,0.4,0.9,0.7,1.5,0.9c0.6,0.2,1.2,0.3,1.8,0.3c0.7,0,1.4-0.1,2-0.4c0.6-0.3,1.1-0.7,1.5-1.1s0.7-1,0.9-1.7c0.2-0.6,0.3-1.3,0.3-2c0-0.7-0.1-1.4-0.4-2c-0.2-0.6-0.6-1.1-1-1.6c-0.4-0.4-0.9-0.8-1.5-1s-1.2-0.4-1.9-0.4c-0.9,0-1.7,0.2-2.4,0.6c-0.7,0.4-1.3,0.9-1.8,1.7h-1.5l1.8-9.9h9.4v1.6H176l-1.2,6.3l0.1,0.1c0.5-0.6,1.1-1,1.8-1.3c0.7-0.3,1.5-0.5,2.2-0.5c1,0,1.8,0.2,2.6,0.5c0.8,0.3,1.4,0.8,2,1.4c0.5,0.6,1,1.3,1.3,2.1c0.3,0.8,0.4,1.7,0.4,2.7c0,0.9-0.2,1.8-0.5,2.6c-0.3,0.8-0.8,1.5-1.4,2c-0.6,0.6-1.3,1-2.1,1.3c-0.8,0.3-1.6,0.5-2.5,0.5c-0.9,0-1.7-0.1-2.4-0.4c-0.7-0.3-1.4-0.6-1.9-1.1c-0.5-0.5-1-1.1-1.3-1.8c-0.3-0.7-0.5-1.5-0.5-2.5h1.7C174.1,15.7,174.2,16.3,174.5,16.8z"></path><path class="st0" d="M209.8,2.1c0.9,0.6,1.5,1.4,2,2.3c0.5,0.9,0.8,2,1,3.2c0.2,1.2,0.3,2.3,0.3,3.4c0,1.1-0.1,2.3-0.3,3.4c-0.2,1.2-0.5,2.2-1,3.2c-0.5,0.9-1.1,1.7-2,2.3c-0.9,0.6-2,0.9-3.4,0.9c-1.4,0-2.5-0.3-3.3-0.9c-0.9-0.6-1.5-1.4-2-2.3c-0.5-0.9-0.8-2-1-3.2c-0.2-1.2-0.3-2.3-0.3-3.4c0-1.1,0.1-2.3,0.3-3.4s0.5-2.2,1-3.2c0.5-0.9,1.1-1.7,2-2.3c0.9-0.6,2-0.9,3.3-0.9C207.9,1.2,209,1.5,209.8,2.1z M203.9,3.5c-0.6,0.6-1.1,1.3-1.5,2.1c-0.3,0.8-0.6,1.7-0.7,2.7c-0.1,1-0.2,1.9-0.2,2.7c0,0.8,0.1,1.7,0.2,2.7s0.3,1.9,0.7,2.7c0.3,0.8,0.8,1.5,1.5,2.1s1.5,0.8,2.6,0.8c1.1,0,1.9-0.3,2.6-0.8c0.6-0.6,1.1-1.3,1.5-2.1s0.6-1.8,0.7-2.7s0.2-1.9,0.2-2.7c0-0.8-0.1-1.7-0.2-2.7c-0.1-1-0.3-1.9-0.7-2.7s-0.8-1.5-1.5-2.1c-0.6-0.6-1.5-0.8-2.6-0.8C205.4,2.7,204.5,2.9,203.9,3.5z"></path><path class="st0" d="M228.8,8.6c-0.5,0.7-1.3,1.2-2.3,1.5v0.1c1.2,0.3,2.2,0.8,2.9,1.6c0.7,0.8,1,1.9,1,3.2c0,1-0.2,1.8-0.5,2.5c-0.3,0.7-0.8,1.3-1.4,1.8c-0.6,0.5-1.3,0.8-2.1,1.1c-0.8,0.2-1.6,0.4-2.5,0.4c-0.9,0-1.7-0.1-2.5-0.4c-0.8-0.2-1.5-0.6-2.1-1.1c-0.6-0.5-1.1-1.1-1.4-1.8s-0.5-1.6-0.5-2.5c0-1.3,0.4-2.3,1.1-3.2c0.7-0.9,1.6-1.4,2.8-1.7v-0.1c-1-0.3-1.7-0.8-2.3-1.5c-0.5-0.7-0.8-1.6-0.8-2.7c0-0.8,0.2-1.5,0.5-2.1c0.3-0.6,0.8-1.1,1.3-1.5c0.5-0.4,1.1-0.7,1.8-0.9c0.7-0.2,1.4-0.3,2.1-0.3s1.4,0.1,2.1,0.3c0.7,0.2,1.3,0.5,1.8,0.9c0.5,0.4,1,0.9,1.3,1.5c0.3,0.6,0.5,1.3,0.5,2.1C229.6,7,229.4,7.9,228.8,8.6zM225.8,19.2c0.6-0.2,1.1-0.4,1.5-0.8c0.4-0.4,0.8-0.8,1-1.3c0.3-0.5,0.4-1.2,0.4-1.9c0-0.7-0.1-1.3-0.4-1.8c-0.3-0.5-0.6-1-1.1-1.3c-0.4-0.4-1-0.6-1.5-0.8c-0.6-0.2-1.2-0.2-1.8-0.2c-0.6,0-1.3,0.1-1.8,0.2c-0.6,0.2-1.1,0.4-1.5,0.8c-0.4,0.4-0.8,0.8-1,1.3c-0.3,0.5-0.4,1.1-0.4,1.8c0,0.7,0.1,1.3,0.4,1.9c0.3,0.5,0.6,1,1,1.3c0.4,0.4,0.9,0.6,1.5,0.8c0.6,0.2,1.2,0.3,1.9,0.3C224.6,19.4,225.2,19.3,225.8,19.2z M225.4,9.4c0.5-0.1,0.9-0.3,1.3-0.6c0.4-0.3,0.7-0.7,0.9-1.1c0.2-0.5,0.3-1,0.3-1.6c0-0.5-0.1-1-0.3-1.4c-0.2-0.4-0.5-0.8-0.8-1S226,3,225.5,2.9c-0.5-0.1-1-0.2-1.6-0.2c-0.5,0-1,0.1-1.5,0.2c-0.5,0.1-0.9,0.4-1.3,0.6s-0.7,0.6-0.9,1C220,5,219.9,5.4,219.9,6c0,0.6,0.1,1.2,0.3,1.6s0.5,0.8,0.9,1.1c0.4,0.3,0.8,0.5,1.3,0.6s1,0.2,1.5,0.2C224.4,9.5,225,9.5,225.4,9.4z"></path><path class="st0" d="M244.5,3.6c-0.7-0.7-1.6-1-2.7-1s-2,0.3-2.7,0.8c-0.7,0.6-1.2,1.3-1.6,2.1c-0.4,0.9-0.6,1.8-0.8,2.8s-0.2,1.9-0.2,2.8h0.1c0.4-0.9,1.1-1.7,2-2.3c0.9-0.6,1.9-0.9,3-0.9c1,0,1.8,0.2,2.6,0.5c0.8,0.3,1.4,0.8,2,1.3c0.5,0.6,1,1.2,1.3,2c0.3,0.8,0.4,1.6,0.4,2.6c0,0.9-0.2,1.8-0.5,2.6c-0.3,0.8-0.8,1.5-1.3,2c-0.6,0.6-1.2,1-2,1.3s-1.6,0.5-2.6,0.5c-1.2,0-2.1-0.2-3-0.5c-0.8-0.4-1.5-0.9-2-1.7c-0.5-0.8-0.9-1.8-1.2-3.1c-0.3-1.3-0.4-2.9-0.4-4.7c0-0.4,0-0.9,0.1-1.5c0-0.6,0.1-1.3,0.3-2c0.2-0.7,0.4-1.4,0.7-2.1c0.3-0.7,0.7-1.4,1.2-1.9c0.5-0.6,1.1-1.1,1.8-1.4c0.7-0.4,1.6-0.5,2.6-0.5c1.7,0,3,0.4,4,1.2c1,0.8,1.6,2.1,1.8,3.8h-1.7C245.6,5.2,245.2,4.3,244.5,3.6z M239.7,9.9c-0.6,0.3-1.1,0.6-1.5,1.1c-0.4,0.5-0.7,1-0.9,1.6c-0.2,0.6-0.3,1.3-0.3,2c0,0.7,0.1,1.3,0.3,1.9c0.2,0.6,0.5,1.1,0.8,1.6c0.4,0.4,0.9,0.8,1.5,1s1.3,0.4,2.1,0.4c0.7,0,1.3-0.1,1.8-0.4c0.5-0.3,1-0.6,1.4-1.1c0.4-0.4,0.7-1,0.9-1.6c0.2-0.6,0.3-1.2,0.3-1.9c0-0.7-0.1-1.3-0.3-2c-0.2-0.6-0.5-1.2-0.9-1.6c-0.4-0.5-0.9-0.8-1.4-1.1c-0.6-0.3-1.2-0.4-1.9-0.4C240.9,9.5,240.2,9.6,239.7,9.9z"></path></g><g><g><g><g><g><path class="st0" d="M38.2,19.6c0,2.5,2,4.6,4.6,4.6c2.5,0,4.6-2.1,4.6-4.6c0-2.5-2.1-4.6-4.6-4.6C40.2,15,38.2,17.1,38.2,19.6 M38.7,19.6c0-2.2,1.8-4,4-4c2.2,0,4,1.8,4,4c0,2.2-1.8,4-4,4C40.5,23.6,38.7,21.8,38.7,19.6z"></path></g></g></g><path class="st0" d="M45,22.5h-0.9l-1.8-2.7h-0.8v2.7h-0.7v-6h1.7c0.6,0,1,0.1,1.4,0.4c0.3,0.3,0.5,0.7,0.5,1.2c0,0.4-0.1,0.7-0.4,1c-0.2,0.3-0.6,0.5-1,0.6L45,22.5 M41.5,19.2h0.9c0.4,0,0.7-0.1,0.9-0.3c0.2-0.2,0.4-0.5,0.4-0.8c0-0.7-0.4-1-1.2-1h-0.9V19.2z"></path></g><g><path class="st0" d="M23.2,13.8c0,3.2,2.5,4.7,4.5,4.7c2,0,4.5-1.5,4.5-4.7c0-2.5-2.4-4.4-4.5-5.6C25.6,9.3,23.2,11.3,23.2,13.8z"></path><path class="st0" d="M5,13.8c0,3.2,2.5,4.7,4.5,4.7c2,0,4.5-1.5,4.5-4.7c0-2.5-2.4-4.4-4.5-5.6C7.4,9.4,5,11.4,5,13.8z"></path><path class="st0" d="M9.5,5.8c2.2-1.2,5.3-2.1,9-2.1s6.8,0.9,9,2.1c2.2-1.2,5.5-2.1,9.2-2.1l0-3.7H0.3l0,3.7C4,3.7,7.3,4.6,9.5,5.8z"></path><path class="st0" d="M29.8,7.1c2.3,1.5,4.4,3.8,4.4,6.7c0,3.8-3.2,6.7-6.7,6.7c-3.5,0-6.6-2.9-6.6-6.7c0-2.9,2.1-5.2,4.3-6.7c-2.1-0.9-4.6-1.3-6.8-1.3c-2.2,0-4.7,0.4-6.7,1.3c2.3,1.5,4.3,3.8,4.3,6.7c0,3.8-3.1,6.7-6.6,6.7c-3.5,0-6.8-2.9-6.8-6.7c0-2.9,2.2-5.2,4.5-6.7C5.1,6.2,2.5,5.8,0.3,5.8l0,18.1h36.5l0-18.1C34.6,5.8,31.9,6.2,29.8,7.1z"></path></g></g><line class="st1" x1="0" y1="43.3" x2="250" y2="43.3"></line><rect x="31.4" y="32.4" class="st2" width="188" height="21.6"></rect><g><g><path class="st0" d="M63.4,43.7c-0.2,0.2-0.2,0.2-0.4,0.4c-0.9,1-1.5,1.6-2.4,2.3c1.4,0.8,2.7,1.2,4.7,1.5c-0.2,0.2-0.3,0.5-0.4,0.8c-2.2-0.4-3.5-0.9-5-1.8c-1.5,0.9-2.9,1.4-4.9,1.8c-0.1-0.3-0.2-0.5-0.4-0.8c1.9-0.3,3.2-0.7,4.7-1.5c-1-0.8-1.3-1.2-2.2-2.6c-0.4,0-0.6,0-0.9,0.1v-0.8c0.3,0,0.7,0.1,1.2,0.1h4.5c0.5,0,0.8,0,1-0.1L63.4,43.7z M57,41.2c-0.2-0.5-0.4-1.1-0.7-1.6c-0.2,0-0.2,0-1.1,0c-0.1-0.3-0.1-0.4-0.3-0.7c2.2,0,3.8-0.1,5.6-0.3c1.6-0.2,2.5-0.4,3.1-0.7l0.5,0.7c-0.2,0-0.2,0-0.5,0.1c-1,0.3-2.5,0.5-4.1,0.7c0.3,0.6,0.4,1.1,0.6,1.8h1.4c0.5-0.8,0.7-1.4,1-2.1l0.8,0.3c-0.4,0.9-0.6,1.3-1,1.9h1c0.6,0,1,0,1.4,0c0,0.3-0.1,0.6-0.1,0.9v0.8c0,0.3,0,0.5,0.1,0.8h-0.8v-1.7h-8.7v1.8h-0.8c0-0.2,0.1-0.6,0.1-0.9V42c0-0.3,0-0.6,0-0.9c0.4,0,0.8,0.1,1.5,0.1H57z M59.6,41.2c-0.2-0.6-0.4-1.2-0.6-1.8c-0.7,0-0.9,0.1-1.9,0.1c0.3,0.5,0.5,1,0.7,1.6H59.6z M57.8,43.9c0.6,1,1.1,1.5,2,2.2c1-0.7,1.6-1.2,2.4-2.2H57.8z"></path><path class="st0" d="M71.6,47.3c0,0.6,0,1,0.1,1.4h-0.9c0-0.4,0.1-0.8,0.1-1.5v-4c0-0.5,0-0.9,0-1.5c-0.5,0.8-0.8,1.2-1.3,1.9l-0.1-0.1c-0.1-0.2-0.1-0.2-0.4-0.5c1.1-1.1,1.8-2.2,2.4-3.7c0.3-0.7,0.5-1.2,0.5-1.5l0.9,0.3c-0.1,0.1-0.1,0.3-0.3,0.7c-0.1,0.4-0.5,1.3-0.9,1.9V47.3z M78.1,47.5c0,0.8-0.3,1-1.3,1c-0.5,0-1,0-1.5-0.1c0-0.3-0.1-0.5-0.2-0.8c0.7,0.1,1.1,0.1,1.6,0.1c0.5,0,0.6,0,0.6-0.3v-5.9h-3.8c-0.5,0-1,0-1.3,0.1v-0.9c0.3,0,0.8,0.1,1.2,0.1h3.8v-1.4c0-0.6,0-1.1-0.1-1.4h0.9c0,0.4-0.1,0.8-0.1,1.4v1.4h0.6c0.5,0,0.8,0,1.1-0.1v0.8c-0.3,0-0.7,0-1.1,0h-0.6V47.5z M73.7,42.5c0.9,1,1.3,1.6,2,2.7L75,45.8c-0.6-1.1-1.2-1.9-2-2.8L73.7,42.5z"></path><path class="st0" d="M84.1,39.7c0-0.5,0-0.9,0-1.2c0.2,0,0.2,0,1.1,0H86c0.6,0,0.8,0,1.1,0c0,0.3,0,0.5,0,1.2v6.6c0,0.6,0,0.9,0,1.2h-0.8v-0.6h-1.6v1H84c0-0.3,0.1-0.8,0.1-1.3V39.7z M84.8,42.3h1.6v-3h-1.6V42.3z M84.8,46.2h1.6v-3.3h-1.6V46.2z M89,40c-0.4,0-0.9,0-1.2,0.1v-0.8c0.3,0,0.6,0.1,1.1,0.1h1.3V39c0-0.4,0-0.6-0.1-1H91c0,0.3-0.1,0.6-0.1,1v0.4h1.7c0.5,0,0.8,0,1.1-0.1v0.8c-0.3,0-0.7-0.1-1.1-0.1H91v1.6h2.1c0.5,0,0.9,0,1.2-0.1v0.8c-0.3,0-0.7-0.1-1.2-0.1h-0.4v1.4h0.4c0.5,0,0.9,0,1.2-0.1v0.8c-0.4-0.1-0.7-0.1-1.2-0.1h-0.4v3.4c0,0.7-0.3,0.9-1.3,0.9c-0.2,0-0.4,0-1.1,0c0-0.3-0.1-0.5-0.2-0.8c0.5,0.1,1,0.1,1.3,0.1c0.5,0,0.5,0,0.5-0.3v-3.3h-3.4c-0.5,0-0.9,0-1.2,0.1v-0.8c0.3,0,0.6,0.1,1.2,0.1H92v-1.4h-3.4c-0.5,0-0.8,0-1.2,0.1v-0.8c0.3,0.1,0.7,0.1,1.2,0.1h1.6V40H89z M89.9,47.2c-0.6-0.9-1-1.3-1.7-2l0.6-0.4c0.7,0.7,1.1,1.1,1.7,2L89.9,47.2z"></path><path class="st0" d="M99.3,47.4c0,0.7,0,1.1,0.1,1.4h-0.9c0-0.3,0.1-0.7,0.1-1.4v-7.8c0-0.6,0-1,0-1.3c0.3,0,0.6,0,1.2,0h1.7c0.6,0,0.9,0,1.2,0c0,0.3,0,0.7,0,1.2v1.5c0,0.5,0,0.8,0,1.1c-0.4,0-0.7,0-1.2,0h-2.2V47.4z M99.3,39.9h2.7v-1h-2.7V39.9zM99.3,41.4h2.7v-1h-2.7V41.4z M105.6,46c0,0.5,0,0.8,0,1.1c-0.3,0-0.8,0-1.2,0h-2.6v0.8H101c0-0.3,0.1-0.6,0.1-1.1v-2.7c0-0.4,0-0.8,0-1.1c0.4,0,0.6,0,1.2,0h2.2c0.6,0,0.8,0,1.2,0c0,0.3,0,0.6,0,1.1V46z M101.8,44.7h3.1v-1.1h-3.1V44.7z M101.8,46.5h3.1v-1.2h-3.1V46.5z M108.2,47.6c0,0.8-0.2,1-1.2,1c-0.3,0-0.9,0-1.2,0c-0.1-0.3-0.1-0.5-0.2-0.8c0.5,0.1,1.1,0.1,1.3,0.1c0.5,0,0.6,0,0.6-0.3V42H105c-0.5,0-0.8,0-1.2,0c0-0.3,0-0.7,0-1.1v-1.5c0-0.4,0-0.8,0-1.2c0.3,0,0.6,0,1.2,0h2c0.6,0,0.9,0,1.3,0c0,0.4,0,0.8,0,1.3V47.6z M104.5,39.9h2.9v-1h-2.9V39.9z M104.5,41.4h2.9v-1h-2.9V41.4z"></path><path class="st0" d="M120.1,46.7c0.6,0.4,0.9,0.6,1.4,0.6c0.8,0,1.3-0.5,1.6-1.4c0.2-0.6,0.3-1.3,0.3-2.4c-0.5,0.8-1.1,1.1-1.8,1.1c-0.6,0-1.2-0.3-1.7-0.7c-0.5-0.5-0.7-1.3-0.7-2.2c0-1.9,1-3.1,2.5-3.1c1,0,1.8,0.6,2.2,1.5c0.3,0.7,0.4,1.7,0.4,2.9c0,3.4-1,5.1-2.9,5.1c-0.7,0-1.2-0.2-1.8-0.6L120.1,46.7z M123.2,40.5c-0.3-0.8-0.7-1.1-1.4-1.1c-0.4,0-0.8,0.2-1.1,0.5c-0.3,0.4-0.5,1.1-0.5,1.7c0,0.6,0.1,1.1,0.3,1.4c0.3,0.4,0.7,0.7,1.3,0.7c0.4,0,0.8-0.2,1.1-0.5c0.1-0.1,0.3-0.3,0.3-0.5c0.1-0.3,0.2-0.4,0.2-0.5C123.5,41.7,123.4,41,123.2,40.5z"></path><path class="st0" d="M129.7,41.9c0,0.4-0.3,0.7-0.7,0.7c-0.4,0-0.7-0.3-0.7-0.7s0.3-0.7,0.7-0.7C129.4,41.2,129.7,41.5,129.7,41.9z M129.7,47.2c0,0.4-0.3,0.7-0.7,0.7c-0.4,0-0.7-0.3-0.7-0.7c0-0.4,0.3-0.7,0.7-0.7C129.4,46.5,129.7,46.8,129.7,47.2z"></path><path class="st0" d="M136.2,48c-1.7,0-2.6-1.6-2.6-4.8c0-1.4,0.2-2.5,0.5-3.3c0.5-1,1.1-1.4,2.1-1.4c1.7,0,2.6,1.6,2.6,4.7C138.8,46.4,137.9,48,136.2,48z M136.1,39.4c-0.6,0-1,0.3-1.2,1c-0.2,0.7-0.4,1.6-0.4,2.9c0,2.7,0.5,4,1.6,4c1.1,0,1.6-1.3,1.6-3.9C137.8,40.6,137.3,39.4,136.1,39.4z"></path><path class="st0" d="M145.1,48c-1.7,0-2.6-1.6-2.6-4.8c0-1.4,0.2-2.5,0.5-3.3c0.5-1,1.1-1.4,2.1-1.4c1.7,0,2.6,1.6,2.6,4.7C147.7,46.4,146.8,48,145.1,48z M145.1,39.4c-0.6,0-1,0.3-1.2,1c-0.2,0.7-0.4,1.6-0.4,2.9c0,2.7,0.5,4,1.6,4c1.1,0,1.6-1.3,1.6-3.9C146.7,40.6,146.2,39.4,145.1,39.4z"></path><path class="st0" d="M156.2,43.1v0.8h-4.8v-0.8H156.2z"></path><path class="st0" d="M162.1,38.6v9.3h-1v-9.3H162.1z"></path><path class="st0" d="M167.7,46.7c0.6,0.4,0.9,0.6,1.4,0.6c0.8,0,1.3-0.5,1.6-1.4c0.2-0.6,0.3-1.3,0.3-2.4c-0.5,0.8-1.1,1.1-1.8,1.1c-0.6,0-1.2-0.3-1.7-0.7c-0.5-0.5-0.7-1.3-0.7-2.2c0-1.9,1-3.1,2.5-3.1c1,0,1.8,0.6,2.2,1.5c0.3,0.7,0.4,1.7,0.4,2.9c0,3.4-1,5.1-2.9,5.1c-0.7,0-1.2-0.2-1.8-0.6L167.7,46.7z M170.8,40.5c-0.3-0.8-0.7-1.1-1.4-1.1c-0.4,0-0.8,0.2-1.1,0.5c-0.3,0.4-0.5,1.1-0.5,1.7c0,0.6,0.1,1.1,0.3,1.4c0.3,0.4,0.7,0.7,1.3,0.7c0.4,0,0.8-0.2,1.1-0.5c0.1-0.1,0.3-0.3,0.3-0.5c0.1-0.3,0.2-0.4,0.2-0.5C171,41.7,170.9,41,170.8,40.5z"></path><path class="st0" d="M177.3,41.9c0,0.4-0.3,0.7-0.7,0.7c-0.4,0-0.7-0.3-0.7-0.7s0.3-0.7,0.7-0.7C177,41.2,177.3,41.5,177.3,41.9zM177.3,47.2c0,0.4-0.3,0.7-0.7,0.7c-0.4,0-0.7-0.3-0.7-0.7c0-0.4,0.3-0.7,0.7-0.7C177,46.5,177.3,46.8,177.3,47.2z"></path><path class="st0" d="M183.7,48c-1.7,0-2.6-1.6-2.6-4.8c0-1.4,0.2-2.5,0.5-3.3c0.5-1,1.1-1.4,2.1-1.4c1.7,0,2.6,1.6,2.6,4.7C186.3,46.4,185.5,48,183.7,48z M183.7,39.4c-0.6,0-1,0.3-1.2,1c-0.2,0.7-0.4,1.6-0.4,2.9c0,2.7,0.5,4,1.6,4c1.1,0,1.6-1.3,1.6-3.9C185.4,40.6,184.8,39.4,183.7,39.4z"></path><path class="st0" d="M192.6,48c-1.7,0-2.6-1.6-2.6-4.8c0-1.4,0.2-2.5,0.5-3.3c0.5-1,1.1-1.4,2.1-1.4c1.7,0,2.6,1.6,2.6,4.7C195.3,46.4,194.4,48,192.6,48z M192.6,39.4c-0.6,0-1,0.3-1.2,1c-0.2,0.7-0.4,1.6-0.4,2.9c0,2.7,0.5,4,1.6,4c1.1,0,1.6-1.3,1.6-3.9C194.3,40.6,193.8,39.4,192.6,39.4z"></path></g></g></g></svg>